<svg width="401" height="429" viewBox="0 0 401 429" fill="none" xmlns="http://www.w3.org/2000/svg">
<path d="M304.542 473.318L296.458 473.66L297.734 503.89L305.817 503.548L304.542 473.318Z" fill="url(#paint0_linear_1035_1551)"/>
<path d="M278.706 473.542L277.92 503.789L286.008 504L286.794 473.753L278.706 473.542Z" fill="url(#paint1_linear_1035_1551)"/>
<path d="M261.066 472.227L258.213 502.349L266.268 503.115L269.121 472.993L261.066 472.227Z" fill="url(#paint2_linear_1035_1551)"/>
<path d="M243.548 469.65L238.651 499.507L246.635 500.821L251.532 470.964L243.548 469.65Z" fill="url(#paint3_linear_1035_1551)"/>
<path d="M226.24 465.932L219.317 495.384L227.192 497.241L234.116 467.79L226.24 465.932Z" fill="url(#paint4_linear_1035_1551)"/>
<path d="M209.215 460.964L200.308 489.876L208.039 492.266L216.946 463.354L209.215 460.964Z" fill="url(#paint5_linear_1035_1551)"/>
<path d="M192.56 454.93L181.706 483.166L189.256 486.078L200.11 457.842L192.56 454.93Z" fill="url(#paint6_linear_1035_1551)"/>
<path d="M176.395 447.704L163.644 475.133L170.979 478.555L183.73 451.126L176.395 447.704Z" fill="url(#paint7_linear_1035_1551)"/>
<path d="M160.708 439.481L146.115 465.973L153.199 469.889L167.792 443.397L160.708 439.481Z" fill="url(#paint8_linear_1035_1551)"/>
<path d="M145.665 430.162L129.302 455.595L136.103 459.985L152.465 434.552L145.665 430.162Z" fill="url(#paint9_linear_1035_1551)"/>
<path d="M131.292 419.781L113.236 444.037L119.722 448.882L137.778 424.625L131.292 419.781Z" fill="url(#paint10_linear_1035_1551)"/>
<path d="M117.619 408.526L97.9506 431.489L104.091 436.766L123.76 413.803L117.619 408.526Z" fill="url(#paint11_linear_1035_1551)"/>
<path d="M104.762 396.302L83.576 417.868L89.3427 423.553L110.529 401.987L104.762 396.302Z" fill="url(#paint12_linear_1035_1551)"/>
<path d="M92.8035 383.239L70.1986 403.308L75.565 409.373L98.1698 389.304L92.8035 383.239Z" fill="url(#paint13_linear_1035_1551)"/>
<path d="M81.7088 369.361L57.7905 387.84L62.7314 394.257L86.6498 375.779L81.7088 369.361Z" fill="url(#paint14_linear_1035_1551)"/>
<path d="M71.5925 354.847L46.4691 371.644L50.9605 378.385L76.0839 361.588L71.5925 354.847Z" fill="url(#paint15_linear_1035_1551)"/>
<path d="M62.5224 339.596L36.3141 354.638L40.3361 361.67L66.5445 346.629L62.5224 339.596Z" fill="url(#paint16_linear_1035_1551)"/>
<path d="M54.5229 323.782L27.3516 336.998L30.8856 344.289L58.0569 331.072L54.5229 323.782Z" fill="url(#paint17_linear_1035_1551)"/>
<path d="M47.5581 307.484L19.5485 318.809L22.5767 326.325L50.5863 315L47.5581 307.484Z" fill="url(#paint18_linear_1035_1551)"/>
<path d="M41.7597 290.722L13.0443 300.108L15.5539 307.812L44.2693 298.427L41.7597 290.722Z" fill="url(#paint19_linear_1035_1551)"/>
<path d="M37.1152 273.595L7.82777 280.997L9.807 288.855L39.0944 281.453L37.1152 273.595Z" fill="url(#paint20_linear_1035_1551)"/>
<path d="M33.6159 256.209L3.89186 261.588L5.33015 269.564L35.0542 264.185L33.6159 256.209Z" fill="url(#paint21_linear_1035_1551)"/>
<path d="M31.3654 238.612L1.34439 241.948L2.23642 250.004L32.2574 246.668L31.3654 238.612Z" fill="url(#paint22_linear_1035_1551)"/>
<path d="M30.2763 220.922L0.0980972 222.2L0.439721 230.297L30.6179 229.02L30.2763 220.922Z" fill="url(#paint23_linear_1035_1551)"/>
<path d="M0.210377 202.346L0 210.448L30.195 211.235L30.4053 203.133L0.210377 202.346Z" fill="url(#paint24_linear_1035_1551)"/>
<path d="M1.6914 182.662L0.928594 190.731L30.9992 193.583L31.762 185.515L1.6914 182.662Z" fill="url(#paint25_linear_1035_1551)"/>
<path d="M4.50027 163.017L3.19 171.015L32.9964 175.915L34.3067 167.917L4.50027 163.017Z" fill="url(#paint26_linear_1035_1551)"/>
<path d="M8.62078 143.656L6.76914 151.545L36.1726 158.47L38.0243 150.581L8.62078 143.656Z" fill="url(#paint27_linear_1035_1551)"/>
<path d="M14.0832 124.663L11.6974 132.407L40.5596 141.33L42.9453 133.585L14.0832 124.663Z" fill="url(#paint28_linear_1035_1551)"/>
<path d="M20.812 105.987L17.9046 113.55L46.0922 124.423L48.9996 116.859L20.812 105.987Z" fill="url(#paint29_linear_1035_1551)"/>
<path d="M28.7939 87.8882L25.3785 95.2353L52.7603 108.008L56.1758 100.661L28.7939 87.8882Z" fill="url(#paint30_linear_1035_1551)"/>
<path d="M38.0163 70.3834L34.1075 77.4794L60.5536 92.0976L64.4624 85.0016L38.0163 70.3834Z" fill="url(#paint31_linear_1035_1551)"/>
<path d="M48.3663 53.5151L43.9835 60.3276L69.373 76.7182L73.7558 69.9058L48.3663 53.5151Z" fill="url(#paint32_linear_1035_1551)"/>
<path d="M59.8636 37.3953L55.0273 43.8925L79.2419 61.9793L84.0782 55.4821L59.8636 37.3953Z" fill="url(#paint33_linear_1035_1551)"/>
<path d="M72.4329 22.1269L67.1645 28.2777L90.0881 47.9804L95.3565 41.8296L72.4329 22.1269Z" fill="url(#paint34_linear_1035_1551)"/>
<path d="M85.9893 7.73316L80.3145 13.5098L101.844 34.7325L107.518 28.9559L85.9893 7.73316Z" fill="url(#paint35_linear_1035_1551)"/>
<path d="M100.536 -5.70919L94.4812 -0.333603L114.515 22.3103L120.57 16.9347L100.536 -5.70919Z" fill="url(#paint36_linear_1035_1551)"/>
<path d="M115.945 -18.1223L109.538 -13.174L127.98 10.7889L134.387 5.84057L115.945 -18.1223Z" fill="url(#paint37_linear_1035_1551)"/>
<path d="M132.15 -29.4358L125.42 -24.9366L142.188 0.230247L148.917 -4.26893L132.15 -29.4358Z" fill="url(#paint38_linear_1035_1551)"/>
<path d="M149.102 -39.6515L142.082 -35.6224L157.098 -9.3688L164.118 -13.3978L149.102 -39.6515Z" fill="url(#paint39_linear_1035_1551)"/>
<path d="M166.732 -48.6246L159.453 -45.0858L172.642 -17.8652L179.921 -21.4041L166.732 -48.6246Z" fill="url(#paint40_linear_1035_1551)"/>
<path d="M184.905 -56.4107L177.402 -53.3773L188.708 -25.3193L196.21 -28.3527L184.905 -56.4107Z" fill="url(#paint41_linear_1035_1551)"/>
<path d="M203.564 -62.9463L195.872 -60.4324L205.241 -31.6674L212.933 -34.1813L203.564 -62.9463Z" fill="url(#paint42_linear_1035_1551)"/>
<path d="M222.63 -68.192L214.785 -66.2094L222.174 -36.8714L230.019 -38.854L222.63 -68.192Z" fill="url(#paint43_linear_1035_1551)"/>
<path d="M242.008 -72.1124L234.046 -70.6702L239.421 -40.8958L247.382 -42.338L242.008 -72.1124Z" fill="url(#paint44_linear_1035_1551)"/>
<path d="M261.622 -74.6619L253.581 -73.7683L256.911 -43.6955L264.953 -44.589L261.622 -74.6619Z" fill="url(#paint45_linear_1035_1551)"/>
<path d="M281.33 -75.8957L273.246 -75.5535L274.522 -45.3231L282.605 -45.6653L281.33 -75.8957Z" fill="url(#paint46_linear_1035_1551)"/>
<path d="M293.018 -76L292.232 -45.7529L300.32 -45.5422L301.106 -75.7893L293.018 -76Z" fill="url(#paint47_linear_1035_1551)"/>
<path d="M312.786 -75.079L309.932 -44.957L317.987 -44.1914L320.84 -74.3135L312.786 -75.079Z" fill="url(#paint48_linear_1035_1551)"/>
<path d="M332.437 -72.8147L327.541 -42.9577L335.524 -41.6438L340.421 -71.5008L332.437 -72.8147Z" fill="url(#paint49_linear_1035_1551)"/>
<path d="M351.866 -69.2228L344.943 -39.771L352.818 -37.9134L359.741 -67.3652L351.866 -69.2228Z" fill="url(#paint50_linear_1035_1551)"/>
<path d="M370.97 -64.3261L362.063 -35.4141L369.794 -33.0243L378.701 -61.9362L370.97 -64.3261Z" fill="url(#paint51_linear_1035_1551)"/>
<path d="M389.791 -58.0706L378.937 -29.8344L386.487 -26.922L397.341 -55.1583L389.791 -58.0706Z" fill="url(#paint52_linear_1035_1551)"/>
<path d="M408.028 -50.6034L395.277 -23.1742L402.612 -19.7529L415.363 -47.182L408.028 -50.6034Z" fill="url(#paint53_linear_1035_1551)"/>
<path d="M425.853 -41.8686L411.26 -15.3768L418.344 -11.4612L432.937 -37.953L425.853 -41.8686Z" fill="url(#paint54_linear_1035_1551)"/>
<path d="M442.925 -31.9509L426.563 -6.51759L433.364 -2.12724L449.726 -27.5605L442.925 -31.9509Z" fill="url(#paint55_linear_1035_1551)"/>
<path d="M459.318 -20.8869L441.263 3.3695L447.749 8.21417L465.804 -16.0422L459.318 -20.8869Z" fill="url(#paint56_linear_1035_1551)"/>
<path d="M474.949 -8.71246L455.28 14.2507L461.42 19.5282L481.089 -3.43495L474.949 -8.71246Z" fill="url(#paint57_linear_1035_1551)"/>
<path d="M489.697 4.48499L468.511 26.0512L474.278 31.7359L495.464 10.1696L489.697 4.48499Z" fill="url(#paint58_linear_1035_1551)"/>
<path d="M503.481 18.6423L480.876 38.7112L486.243 44.7765L508.848 24.7076L503.481 18.6423Z" fill="url(#paint59_linear_1035_1551)"/>
<path d="M516.284 33.6861L492.366 52.1642L497.307 58.582L521.225 40.1039L516.284 33.6861Z" fill="url(#paint60_linear_1035_1551)"/>
<path d="M528.046 49.6515L502.923 66.4485L507.414 73.1896L532.537 56.3927L528.046 49.6515Z" fill="url(#paint61_linear_1035_1551)"/>
<path d="M538.717 66.3535L512.509 81.3951L516.531 88.4274L542.739 73.3857L538.717 66.3535Z" fill="url(#paint62_linear_1035_1551)"/>
<path d="M548.149 83.6675L520.978 96.8839L524.512 104.174L551.683 90.9581L548.149 83.6675Z" fill="url(#paint63_linear_1035_1551)"/>
<path d="M556.45 101.716L528.44 113.041L531.468 120.556L559.478 109.231L556.45 101.716Z" fill="url(#paint64_linear_1035_1551)"/>
<path d="M563.482 120.224L534.766 129.609L537.276 137.314L565.991 127.929L563.482 120.224Z" fill="url(#paint65_linear_1035_1551)"/>
<path d="M569.225 139.202L539.936 146.599L541.914 154.458L571.203 147.061L569.225 139.202Z" fill="url(#paint66_linear_1035_1551)"/>
<path d="M573.686 158.461L543.962 163.84L545.4 171.816L575.125 166.437L573.686 158.461Z" fill="url(#paint67_linear_1035_1551)"/>
<path d="M576.795 178.01L546.774 181.346L547.666 189.402L577.687 186.066L576.795 178.01Z" fill="url(#paint68_linear_1035_1551)"/>
<path d="M578.553 197.746L548.375 199.019L548.715 207.116L578.894 205.844L578.553 197.746Z" fill="url(#paint69_linear_1035_1551)"/>
<path d="M548.805 216.71L548.595 224.812L578.79 225.599L579 217.497L548.805 216.71Z" fill="url(#paint70_linear_1035_1551)"/>
<path d="M548.041 234.453L547.278 242.521L577.349 245.374L578.112 237.305L548.041 234.453Z" fill="url(#paint71_linear_1035_1551)"/>
<path d="M546.081 252.1L544.769 260.097L574.575 265.003L575.886 257.005L546.081 252.1Z" fill="url(#paint72_linear_1035_1551)"/>
<path d="M542.816 269.494L540.965 277.384L570.368 284.308L572.22 276.419L542.816 269.494Z" fill="url(#paint73_linear_1035_1551)"/>
<path d="M538.494 286.725L536.109 294.469L564.971 303.391L567.357 295.647L538.494 286.725Z" fill="url(#paint74_linear_1035_1551)"/>
<path d="M532.928 303.558L530.02 311.121L558.208 321.994L561.115 314.431L532.928 303.558Z" fill="url(#paint75_linear_1035_1551)"/>
<path d="M526.258 319.973L522.843 327.32L550.224 340.093L553.64 332.746L526.258 319.973Z" fill="url(#paint76_linear_1035_1551)"/>
<path d="M518.536 335.986L514.627 343.082L541.073 357.7L544.982 350.604L518.536 335.986Z" fill="url(#paint77_linear_1035_1551)"/>
<path d="M509.655 351.289L505.272 358.102L530.662 374.492L535.045 367.68L509.655 351.289Z" fill="url(#paint78_linear_1035_1551)"/>
<path d="M499.798 366.015L494.962 372.513L519.177 390.599L524.013 384.102L499.798 366.015Z" fill="url(#paint79_linear_1035_1551)"/>
<path d="M488.952 380.1L483.683 386.251L506.607 405.954L511.875 399.803L488.952 380.1Z" fill="url(#paint80_linear_1035_1551)"/>
<path d="M477.177 393.287L471.502 399.063L493.031 420.286L498.706 414.509L477.177 393.287Z" fill="url(#paint81_linear_1035_1551)"/>
<path d="M464.531 405.678L458.476 411.053L478.51 433.697L484.565 428.322L464.531 405.678Z" fill="url(#paint82_linear_1035_1551)"/>
<path d="M451.045 417.297L444.637 422.245L463.079 446.208L469.487 441.259L451.045 417.297Z" fill="url(#paint83_linear_1035_1551)"/>
<path d="M436.819 427.806L430.089 432.305L446.857 457.472L453.586 452.973L436.819 427.806Z" fill="url(#paint84_linear_1035_1551)"/>
<path d="M421.928 437.338L414.908 441.367L429.924 467.621L436.944 463.592L421.928 437.338Z" fill="url(#paint85_linear_1035_1551)"/>
<path d="M406.373 445.93L399.094 449.469L412.283 476.689L419.562 473.15L406.373 445.93Z" fill="url(#paint86_linear_1035_1551)"/>
<path d="M390.292 453.387L382.789 456.42L394.095 484.478L401.597 481.445L390.292 453.387Z" fill="url(#paint87_linear_1035_1551)"/>
<path d="M373.795 459.65L366.103 462.164L375.472 490.929L383.164 488.415L373.795 459.65Z" fill="url(#paint88_linear_1035_1551)"/>
<path d="M356.87 464.849L349.025 466.832L356.414 496.17L364.259 494.188L356.87 464.849Z" fill="url(#paint89_linear_1035_1551)"/>
<path d="M339.594 468.906L331.632 470.347L337.002 500.122L344.964 498.681L339.594 468.906Z" fill="url(#paint90_linear_1035_1551)"/>
<path d="M322.12 471.71L314.078 472.603L317.409 502.676L325.45 501.782L322.12 471.71Z" fill="url(#paint91_linear_1035_1551)"/>
<path d="M162.665 186.41C160.912 186.086 159.726 187.058 159.375 188.977L158.701 192.597L164.202 193.623L164.877 190.003C165.227 188.058 164.418 186.734 162.665 186.41Z" fill="url(#paint92_linear_1035_1551)"/>
<path d="M79.1964 209.967C74.8814 210.076 72.5082 212.966 72.616 217.775L72.8318 226.744L86.532 226.42L86.3162 217.451C86.2084 212.642 83.5924 209.832 79.1964 209.94V209.967Z" fill="url(#paint93_linear_1035_1551)"/>
<path d="M416.281 244.196C418.007 244.547 419.22 243.629 419.625 241.684L420.38 238.091L414.878 236.956L414.123 240.549C413.719 242.467 414.501 243.845 416.281 244.196Z" fill="url(#paint94_linear_1035_1551)"/>
<path d="M367.062 43.4712C374.29 46.7671 381.437 43.4172 385.212 35.0694C389.042 26.6406 386.831 19.1573 379.576 15.8614C372.321 12.5655 365.255 15.8074 361.426 24.2632C357.596 32.692 359.808 40.1753 367.062 43.4712Z" fill="url(#paint95_linear_1035_1551)"/>
<path d="M161.101 234.2C160.669 234.416 160.157 234.66 159.806 234.768C160.157 234.768 160.696 234.849 161.209 234.93L167.196 236.01L166.441 231.256L161.101 234.173V234.2Z" fill="url(#paint96_linear_1035_1551)"/>
<path d="M190.794 282.909L181.166 290.122L182.946 292.527C185.076 295.363 188.178 295.742 191.144 293.526C194.165 291.284 194.677 288.123 192.466 285.179L190.794 282.909Z" fill="url(#paint97_linear_1035_1551)"/>
<path d="M318.545 331.051C315.39 331.834 313.934 334.671 314.824 338.345C315.714 342.019 318.33 343.856 321.485 343.1C324.64 342.316 326.097 339.426 325.207 335.806C324.29 332.131 321.701 330.294 318.545 331.051Z" fill="url(#paint98_linear_1035_1551)"/>
<path d="M81.3 164.257C82.0551 164.636 83.2418 165.284 84.3205 165.959L96.7802 174.01L99.504 162.555L84.7251 164.149C83.5384 164.23 82.19 164.338 81.3 164.257Z" fill="url(#paint99_linear_1035_1551)"/>
<path d="M289.77 125.76C241.199 125.76 201.689 165.365 201.689 214.02C201.689 262.675 241.199 302.252 289.77 302.252C338.34 302.252 377.877 262.675 377.877 214.02C377.877 165.365 338.34 125.76 289.77 125.76ZM322.483 212.021C322.483 213.29 322.402 214.533 322.267 215.776C321.053 226.717 314.419 236.064 305.169 241.062C300.53 243.575 295.244 244.98 289.608 244.98C280.142 244.98 271.566 240.927 265.551 234.498C264.311 233.174 263.178 231.742 262.18 230.202C258.728 224.988 256.706 218.721 256.706 212.048C256.706 211.183 256.733 210.319 256.814 209.454C259.537 212.021 262.585 214.29 265.821 216.262C267.817 227.582 277.714 236.227 289.608 236.227C293.141 236.227 296.512 235.47 299.559 234.065C307.947 230.283 313.772 221.827 313.772 212.021C313.772 211.048 313.718 210.13 313.61 209.211C313.179 205.456 311.884 201.944 309.915 198.918C309.349 198.027 308.729 197.189 308.054 196.379C303.605 191.138 296.997 187.815 289.608 187.815C285.535 187.815 281.706 188.841 278.362 190.624C275.719 188.463 273.993 186.14 273.265 183.465C278.092 180.683 283.675 179.089 289.608 179.089C295.541 179.089 301.258 180.71 306.113 183.546C312.154 187.058 316.981 192.461 319.786 198.945C321.539 202.97 322.483 207.401 322.483 212.048V212.021ZM285.212 155.477C293.356 155.477 304.198 157.233 312.963 163.609V155.477H319.166V185.14H312.963V182.142C312.639 181.034 312.235 179.953 311.803 178.9C307.731 169.201 299.505 161.88 286.318 161.88C273.13 161.88 266.334 169.985 265.902 179.656C265.902 179.98 265.902 180.277 265.902 180.602C265.902 182.088 266.064 183.492 266.361 184.816C266.981 187.653 268.302 190.084 270.109 192.299C270.756 193.11 271.512 193.92 272.321 194.65C272.698 195.001 273.076 195.352 273.507 195.703C274.829 196.811 276.258 197.865 277.822 198.837C282.191 201.647 287.396 204.051 292.709 206.51C297.429 208.617 302.229 210.805 306.733 213.29C306.355 218.288 303.847 222.827 299.883 225.799C295.811 223.259 291.118 221.044 286.344 218.802C280.924 216.343 275.395 213.858 270.379 210.859C269.705 210.454 269.03 210.049 268.383 209.616C266.954 208.698 265.578 207.698 264.284 206.672C263.475 206.05 262.666 205.348 261.938 204.645C256.463 199.513 252.822 192.921 252.822 183.627C252.822 172.74 259.376 155.504 285.239 155.504L285.212 155.477ZM289.338 272.535C279.953 272.535 269.219 269.915 261.398 264.674V272.535H255.195V242.872H261.398V249.005C266.253 260.081 277.04 265.781 289.985 265.781C302.93 265.781 312.963 258.757 312.963 245.79C312.963 245.304 312.963 244.817 312.909 244.358C317.817 240.819 321.782 236.254 324.613 231.04C325.935 234.281 326.69 237.928 326.69 242.116C326.69 259.865 313.098 272.508 289.311 272.508L289.338 272.535Z" fill="url(#paint100_linear_1035_1551)"/>
<path d="M256.841 331.267C256.679 331.564 256.382 332.05 256.085 332.483L252.579 337.453L257.218 338.75L256.814 332.672C256.814 332.185 256.787 331.618 256.814 331.267H256.841Z" fill="url(#paint101_linear_1035_1551)"/>
<path d="M372.537 314.085C373.832 315.544 375.396 315.571 376.96 314.22L379.441 312.032L375.423 307.439L372.969 309.601C371.377 311.005 371.27 312.626 372.537 314.085Z" fill="url(#paint102_linear_1035_1551)"/>
<path d="M363.826 402.669L374.614 398.022L364.527 387.108C363.745 386.216 362.855 385.163 362.397 384.406C362.559 385.244 362.747 386.595 362.828 387.837L363.826 402.669Z" fill="url(#paint103_linear_1035_1551)"/>
<path d="M402.095 148.075C402.419 147.724 402.796 147.292 403.093 147.075C402.769 147.184 402.23 147.346 401.717 147.427L395.757 148.615L398.211 152.749L402.095 148.075Z" fill="url(#paint104_linear_1035_1551)"/>
<path d="M476.907 210.184C477.068 218.153 483.163 223.124 492.306 222.935C501.556 222.746 507.328 217.505 507.139 209.535C506.977 201.566 500.99 196.595 491.74 196.784C482.489 196.973 476.718 202.214 476.907 210.184Z" fill="url(#paint105_linear_1035_1551)"/>
<path d="M269.381 395.023C261.479 394.132 255.762 399.427 254.737 408.639C253.712 417.852 258.135 424.281 266.037 425.146C273.939 426.01 279.683 420.634 280.681 411.53C281.706 402.318 277.283 395.888 269.381 395.023Z" fill="url(#paint106_linear_1035_1551)"/>
<path d="M270.001 94.9627C273.211 94.4223 274.883 91.6668 274.262 87.9657C273.642 84.2105 271.188 82.1844 267.979 82.7247C264.769 83.265 263.097 85.9665 263.718 89.7217C264.338 93.4498 266.792 95.503 270.001 94.9627Z" fill="url(#paint107_linear_1035_1551)"/>
<path d="M540.931 214.02C540.931 75.0793 428.497 -37.5752 289.77 -37.5752C151.042 -37.5752 38.6352 75.0523 38.6352 214.02C38.6352 352.987 151.069 465.615 289.796 465.615C428.524 465.615 540.958 352.987 540.958 214.02H540.931ZM508.271 264.62L473.212 276.02L502.824 284.26L500.828 291.473L459.053 279.83L461.049 272.616L496.108 261.162L466.497 252.922L468.492 245.709L510.267 257.353L508.244 264.62H508.271ZM514.42 209.4C514.69 221.827 505.682 230.688 492.468 230.959C479.307 231.256 469.868 222.773 469.598 210.292C469.328 197.865 478.336 189.139 491.551 188.841C504.712 188.544 514.151 196.973 514.42 209.373V209.4ZM508.703 166.716L466.47 176.63L464.744 169.228L506.977 159.313L508.703 166.716ZM489.124 110.659L502.149 141.024L495.704 143.78L490.688 132.082L457.273 146.454L454.28 139.457L487.694 125.085L482.678 113.387L489.124 110.632V110.659ZM434.619 80.2933L456.383 63.4086L461.022 69.4331L439.636 86.0206C434.7 89.8568 434.053 94.6385 437.829 99.5283C441.604 104.418 446.486 104.985 451.367 101.203L472.753 84.6158L477.392 90.6402L455.628 107.525C447.618 113.738 438.476 112.415 432.003 104.04C425.585 95.7191 426.529 86.5609 434.592 80.2933H434.619ZM427.715 37.5278L404.873 65.867L418.977 77.2946L414.581 82.7517L394.571 66.5424L421.836 32.7731L427.742 37.5548L427.715 37.5278ZM354.198 20.9943C359.646 8.97245 371.296 4.10965 382.596 9.24259C393.896 14.3755 397.969 26.3434 392.494 38.4193C387.046 50.4412 375.342 55.304 363.988 50.144C352.688 45.0111 348.724 33.0702 354.198 21.0213V20.9943ZM305.277 21.4266L312.774 22.6423C312.235 26.2894 314.824 28.9369 319.624 29.7203C324.613 30.5308 328.119 28.8829 328.713 25.2898C329.171 22.4262 327.984 20.481 324.613 19.1303L318.06 16.4827C311.048 13.7272 307.92 8.91842 308.998 2.35366C310.212 -5.15664 317.278 -9.37106 326.285 -7.88521C334.942 -6.48041 339.662 -0.753128 338.637 7.02733L331.14 5.81164C331.571 2.0835 329.279 -0.509979 325.072 -1.21238C320.46 -1.96881 317.089 -0.212807 316.523 3.35323C316.037 6.40598 317.386 8.37811 320.838 9.78291L327.337 12.3494C334.403 15.132 337.37 19.4545 336.318 25.8571C335.023 33.8267 327.984 37.9871 318.545 36.4472C309.403 34.9613 304.225 29.099 305.304 21.3996L305.277 21.4266ZM243.976 -6.04816C254.009 -8.18238 262.747 -3.91393 266.118 4.92013L258.297 6.59508C255.789 1.97543 250.961 -0.0507202 245.325 1.16498C237.477 2.83994 233.755 9.56679 235.67 18.644C237.585 27.6401 243.788 32.3948 251.582 30.7469C257.326 29.5312 261.102 25.56 261.479 20.5621L269.192 18.9141C269.462 28.2075 262.935 35.7988 252.903 37.933C240.551 40.5535 230.708 33.6646 227.903 20.346C225.098 7.16241 231.544 -3.40063 243.976 -6.02113V-6.04816ZM203.011 7.43256L220.486 47.1723L213.528 50.2251L196.053 10.4853L203.011 7.43256ZM159.186 31.1521C167.223 25.3438 176.797 25.5329 182.973 31.9896L176.473 36.6903C172.374 33.3404 167.439 33.9888 163.205 37.0415C156.22 42.0934 155.869 50.0359 161.344 57.6543C167.007 65.5158 174.612 66.5424 181.112 61.8417C187.234 57.4382 188.501 51.3867 184.456 45.7405L184.348 45.6054L173.695 53.2778L169.785 47.8207L186.155 36.0149L200.422 55.8443L195.217 59.5994L191.926 55.8173C191.926 59.8966 189.31 64.6783 184.537 68.1093C174.666 75.2414 162.611 73.0261 154.817 62.1659C147.104 51.4678 148.614 38.7975 159.213 31.1521H159.186ZM125.313 61.3824L130.734 65.813L118.49 80.8066L127.12 87.8846L138.097 74.4579L143.275 78.6994L132.298 92.126L141.198 99.4202L153.442 84.4266L158.863 88.8572L141.818 109.74L108.242 82.2384L125.286 61.3554L125.313 61.3824ZM95.9711 100.582L102.255 103.689L96.6453 115.116L129.278 131.19L125.934 138.025L93.3012 121.951L87.6917 133.352L81.4079 130.272L95.9711 100.609V100.582ZM72.8588 158.233L118.679 153.073L116.818 160.88L106.246 161.961L102.471 177.738L111.397 183.492L109.563 191.165L71.0249 165.824L72.8318 158.26L72.8588 158.233ZM65.8468 217.964C65.6311 208.103 70.4585 202.214 79.0077 202.025C84.8329 201.89 89.0401 204.537 91.2246 209.589L108.835 200.917L109.024 209.238L93.0045 216.965L93.2203 226.285L109.402 225.907L109.563 233.498L66.2244 234.498L65.8468 217.937V217.964ZM77.9019 289.015L69.2719 257.109L76.0411 255.272L79.3583 267.564L114.472 258.028L116.467 265.376L81.354 274.913L84.6711 287.178L77.9019 289.015ZM127.363 319.083L123.776 312.383C126.985 310.6 127.525 306.926 125.232 302.631C122.859 298.173 119.407 296.39 116.225 298.092C113.663 299.47 112.854 301.577 113.851 305.089L115.739 311.897C117.789 319.164 115.901 324.567 110.049 327.701C103.361 331.294 95.7284 328.214 91.4134 320.164C87.2602 312.41 88.9322 305.17 95.7284 301.253L99.3152 307.953C96.1059 309.871 95.4317 313.275 97.4274 317.057C99.6389 321.19 103.064 322.811 106.246 321.109C108.97 319.65 109.698 317.381 108.727 313.788L106.813 307.061C104.736 299.74 106.381 294.769 112.072 291.689C119.191 287.88 126.77 290.96 131.273 299.416C135.642 307.601 134.159 315.274 127.363 319.11V319.083ZM199.424 381.732L192.816 377.22C194.569 372.222 192.277 367.792 187.962 364.847C180.869 359.984 173.291 362.362 168.005 370.115C162.557 378.112 164.175 385.622 170.783 390.161C177.013 394.429 183.108 393.565 187.018 387.837L187.126 387.702L176.311 380.3L180.087 374.762L196.727 386.162L182.973 406.316L177.687 402.696L180.114 398.319C176.284 399.724 170.918 398.86 166.063 395.537C156.031 388.675 154.008 376.572 161.532 365.523C168.949 354.635 181.355 351.745 192.115 359.12C200.287 364.712 203.361 373.789 199.424 381.813V381.732ZM228.523 424.903L204.332 416.041L219.219 375.248L226.339 377.869L213.852 412.07L230.896 418.311L228.496 424.903H228.523ZM288.637 412.475C287.18 425.578 277.526 433.845 265.147 432.467C252.822 431.089 245.352 420.985 246.808 407.802C248.264 394.699 257.838 386.433 270.163 387.81C282.488 389.188 290.066 399.319 288.61 412.475H288.637ZM289.77 374.059C201.689 374.059 130.033 302.279 130.033 214.047C130.033 125.814 201.689 54.0072 289.77 54.0072C377.85 54.0072 449.533 125.814 449.533 214.047C449.533 302.279 377.85 374.059 289.77 374.059ZM326.825 430.008L309.484 432.737L302.769 389.836L319.813 387.162C328.254 385.838 334.106 389.431 335.212 396.59C335.967 401.345 334.376 405.073 330.6 407.424C335.347 408.18 338.152 411.233 338.934 416.231C340.066 423.579 335.644 428.658 326.798 430.035L326.825 430.008ZM386.345 410.963L379.171 403.101L364.285 409.504L365.013 420.121L357.758 423.228L355.061 377.112L362.208 374.059L393.681 407.802L386.318 410.963H386.345ZM410.482 397.05L384.7 362.092L390.822 357.58L412.451 386.892L427.068 376.086L431.221 381.732L410.509 397.077L410.482 397.05ZM476.934 314.598C474.264 313.032 471.944 313.599 469.409 316.327L464.69 321.487C459.566 327.107 454.468 328.322 448.886 325.053C441.928 320.974 440.58 312.896 445.38 304.63C450.046 296.606 457.354 293.851 464.15 297.633L460.321 304.197C457.111 302.387 453.713 303.846 451.259 308.061C448.724 312.437 448.994 316.3 452.122 318.137C454.63 319.596 456.869 319.191 459.323 316.489L464.123 311.303C469.22 305.737 474.803 304.522 480.547 307.872C487.101 311.708 488.503 319.812 483.918 327.728C479.496 335.319 472.484 337.697 465.607 333.969L469.436 327.404C472.753 329.133 475.99 327.944 478.147 324.243C480.52 320.191 480.089 316.435 476.961 314.598H476.934Z" fill="url(#paint108_linear_1035_1551)"/>
<path d="M327.661 398.508C327.094 394.807 324.425 393.186 320.217 393.835L311.318 395.24L313.152 406.91L322.24 405.478C326.339 404.83 328.281 402.318 327.688 398.481L327.661 398.508Z" fill="url(#paint109_linear_1035_1551)"/>
<path d="M289.77 59.3833C204.656 59.3833 135.427 128.759 135.427 214.02C135.427 299.281 204.656 368.629 289.77 368.629C374.883 368.629 444.139 299.281 444.139 214.02C444.139 128.759 374.883 59.3833 289.77 59.3833ZM423.212 190.003L415.957 191.084L417.117 198.864L424.371 197.784L424.83 200.863L407.3 203.484L406.841 200.404L414.285 199.296L413.125 191.516L405.682 192.624L405.223 189.544L422.753 186.923L423.212 190.003ZM417.09 167.499C418.87 172.443 416.685 177.063 411.696 178.873C406.788 180.629 402.176 178.521 400.45 173.659L398.292 167.634L414.986 161.637L417.09 167.499ZM405.682 143.699L407.3 146.427L395.272 160.988L393.6 158.152L396.404 154.829L393.033 149.102L388.772 149.966L387.127 147.184L405.682 143.672V143.699ZM396.512 130.218L394.328 132.082L389.177 126.057L385.698 129.029L390.31 134.432L388.233 136.215L383.621 130.812L380.034 133.892L385.185 139.916L383.001 141.78L375.827 133.406L389.312 121.843L396.485 130.218H396.512ZM373.966 107.606L376.34 109.632L366.712 120.979L372.375 125.787L370.514 127.976L362.505 121.141L373.993 107.606H373.966ZM339.15 87.3713L341.954 88.6411L344.328 103.554L349.533 92.099L352.31 93.3688L344.975 109.551L342.197 108.281L339.797 93.3688L334.592 104.823L331.814 103.554L339.15 87.3713ZM317.44 81.0227L328.119 83.6702L327.418 86.4528L319.732 84.5347L318.626 88.9652L325.503 90.6672L324.856 93.3417L317.979 91.6398L316.846 96.2054L324.532 98.1235L323.831 100.906L313.152 98.2585L317.413 81.0227H317.44ZM287.72 78.024L290.713 78.1861L295.73 92.5853L302.148 78.7264L305.196 78.8885L304.333 96.6376L301.339 96.4755L301.609 91.0184C301.771 87.4524 301.825 86.3988 302.067 85.1561L296.997 96.2864L294.138 96.1514L290.201 84.6158C290.309 85.6964 290.255 87.3713 290.147 89.5866L289.823 95.9352L286.83 95.8002L287.693 78.051L287.72 78.024ZM267.574 79.807C272.59 78.9695 276.69 82.1303 277.58 87.4794C278.47 92.8014 275.584 97.1239 270.541 97.9614C265.525 98.7989 261.479 95.638 260.589 90.289C259.699 84.9669 262.558 80.6445 267.574 79.807ZM230.249 91.7748L236.425 99.3932C237.045 100.177 237.666 101.014 238.502 102.338C238.178 100.771 238.07 99.7984 237.962 98.7448L236.991 88.9922L240.147 87.6955L246.242 95.3409C246.889 96.1514 247.536 96.9888 248.372 98.2856C248.049 96.6376 247.914 95.6651 247.833 94.7195L246.916 84.9129L249.829 83.6972L251.582 102.203L248.804 103.337L240.389 92.8014L241.711 106.228L238.879 107.39L227.256 92.9365L230.249 91.6938V91.7748ZM197.833 114.36L212.369 118.385L204.116 108.876L206.436 106.876L218.086 120.276L215.767 122.275L201.231 118.25L209.483 127.759L207.164 129.759L195.513 116.359L197.833 114.333V114.36ZM184.186 129.083L202.094 135L200.071 137.593L195.972 136.188L191.872 141.402L194.219 145.076L192.223 147.616L182.218 131.596L184.186 129.083ZM169.569 150.858C171.511 147.13 175.125 145.482 178.793 146.697L177.282 149.615C175.179 149.21 173.264 150.209 172.185 152.289C170.675 155.207 171.835 158.125 175.179 159.881C178.523 161.637 181.624 160.907 183.135 158.017C184.24 155.883 183.971 153.667 182.514 152.235L183.998 149.372C186.991 151.722 187.692 155.747 185.751 159.476C183.35 164.068 178.631 165.365 173.695 162.798C168.814 160.232 167.169 155.45 169.569 150.858ZM162.045 168.877L178.82 174.604L177.822 177.549L161.047 171.822L162.045 168.877ZM156.732 188.517C157.46 184.546 159.914 182.601 163.339 183.249C165.686 183.681 167.142 185.086 167.6 187.302L175.367 185.302L174.747 188.652L167.681 190.408L166.98 194.163L173.507 195.379L172.94 198.432L155.491 195.19L156.732 188.517ZM154.44 206.05L157.298 206.104L157.164 213.993L161.991 214.074L162.099 207.455L164.904 207.509L164.796 214.128L172.05 214.263L171.996 217.37L154.251 217.073L154.44 206.077V206.05ZM155.734 233.849L172.266 224.691L172.778 227.933L168.949 229.986L170.001 236.551L174.289 237.307L174.801 240.495L156.247 236.956L155.734 233.795V233.849ZM172.967 265.917L168.706 267.916L172.05 275.102L169.461 276.318L164.796 266.295L180.896 258.784L185.535 268.807L182.946 270.023L179.602 262.837L175.475 264.755L178.469 271.185L175.988 272.346L172.994 265.917H172.967ZM193.167 296.174C188.987 299.308 183.971 298.632 180.869 294.499L177.04 289.366L191.279 278.722L195.001 283.72C198.129 287.934 197.401 293.013 193.167 296.174ZM211.209 316.571C208.512 319.731 204.737 319.947 201.446 317.111C198.183 314.301 197.833 310.546 200.556 307.385L207.919 298.848L210.265 300.875L203.038 309.276C201.366 311.221 201.5 313.194 203.415 314.842C205.33 316.49 207.326 316.327 208.971 314.409L216.198 306.007L218.545 308.034L211.182 316.571H211.209ZM239.473 327.431L236.587 325.891C237.018 323.784 236.021 321.866 233.944 320.785C231.058 319.245 228.119 320.38 226.339 323.73C224.586 327.053 225.287 330.186 228.173 331.699C230.303 332.834 232.515 332.564 233.944 331.105L236.803 332.618C234.456 335.616 230.411 336.265 226.716 334.293C222.159 331.861 220.864 327.107 223.48 322.19C226.069 317.327 230.842 315.706 235.427 318.137C239.149 320.11 240.767 323.757 239.5 327.404L239.473 327.431ZM257.73 345.882L257.461 341.533L251.069 339.723L248.588 343.289L245.487 342.424L256.463 327.053L259.537 327.917L260.886 346.774L257.73 345.882ZM285.751 334.887L280.573 334.428L279.225 349.259L276.123 348.989L277.472 334.158L272.294 333.698L272.563 330.835L285.994 332.05L285.724 334.914L285.751 334.887ZM196.376 214.02C196.376 162.366 238.313 120.357 289.85 120.357C341.388 120.357 383.352 162.366 383.352 214.02C383.352 265.673 341.415 307.655 289.85 307.655C238.286 307.655 196.376 265.646 196.376 214.02ZM296.97 349.475L295.864 331.726L298.966 331.537L300.072 349.286L296.97 349.475ZM322.267 346.017C317.332 347.233 313.044 344.396 311.749 339.128C310.455 333.887 312.963 329.349 317.898 328.133C322.833 326.917 327.175 329.727 328.47 334.995C329.764 340.236 327.229 344.775 322.267 345.99V346.017ZM355.088 332.915L341.927 325.513L347.672 336.724L344.948 338.129L336.857 322.298L339.608 320.893L352.742 328.295L346.997 317.084L349.721 315.679L357.812 331.51L355.088 332.915ZM378.416 316.706C375.746 319.056 372.456 318.84 370.164 316.219C367.898 313.653 368.06 310.303 370.73 307.953L373.67 305.359L369.624 300.767L371.971 298.713L383.702 312.059L378.443 316.706H378.416ZM391.658 303.522L378.201 291.959L380.223 289.609L393.681 301.172L391.658 303.522ZM406.841 282.612L400.639 278.722L396.458 285.395L402.661 289.285L401.016 291.932L385.968 282.504L387.613 279.857L393.977 283.855L398.158 277.182L391.793 273.184L393.438 270.536L408.487 279.965L406.841 282.612ZM416.065 264.323C414.743 267.673 412.046 269.05 409.026 267.97L410.186 265.079C411.642 265.565 412.883 264.89 413.53 263.269C414.231 261.486 413.826 260 412.451 259.433C411.264 258.974 410.374 259.325 409.511 260.594L407.92 262.972C406.194 265.565 404.199 266.349 401.744 265.376C398.67 264.161 397.645 260.973 399.101 257.326C400.504 253.814 403.282 252.247 406.275 253.354L405.115 256.245C403.713 255.705 402.419 256.515 401.69 258.352C400.935 260.27 401.286 261.837 402.661 262.378C403.767 262.81 404.657 262.513 405.466 261.27L407.084 258.892C408.81 256.326 410.995 255.516 413.503 256.515C416.388 257.677 417.44 260.865 416.065 264.35V264.323ZM422.43 242.251C421.62 246.195 419.139 248.113 415.714 247.384C413.395 246.898 411.939 245.466 411.534 243.224L403.713 245.061L404.414 241.738L411.507 240.144L412.289 236.416L405.79 235.065L406.41 232.012L423.805 235.632L422.43 242.278V242.251ZM422.241 224.07L422.483 216.127L417.926 215.992L417.71 223.097L414.959 223.016L415.175 215.911L410.455 215.749L410.213 223.664L407.354 223.583L407.704 212.534L425.45 213.101L425.099 224.151L422.241 224.07Z" fill="url(#paint110_linear_1035_1551)"/>
<path d="M187.53 133.325C187.072 133.163 186.56 132.973 186.236 132.784C186.452 133.054 186.802 133.487 187.072 133.919L190.335 139.052L193.302 135.27L187.53 133.325Z" fill="url(#paint111_linear_1035_1551)"/>
<path d="M410.59 175.766C414.123 174.496 415.525 171.633 414.285 168.175L413.341 165.527L402.041 169.579L403.039 172.389C404.225 175.739 407.111 177.009 410.59 175.739V175.766Z" fill="url(#paint112_linear_1035_1551)"/>
<path d="M323.669 411.773L314.122 413.259L315.929 424.875L325.476 423.39C329.683 422.714 331.706 420.31 331.113 416.42C330.546 412.773 327.823 411.098 323.669 411.746V411.773Z" fill="url(#paint113_linear_1035_1551)"/>
<defs>
<linearGradient id="paint0_linear_1035_1551" x1="289.5" y1="-76" x2="289.5" y2="558.307" gradientUnits="userSpaceOnUse">
<stop stop-color="white"/>
<stop offset="1" stop-color="white" stop-opacity="0.54"/>
</linearGradient>
<linearGradient id="paint1_linear_1035_1551" x1="289.5" y1="-76" x2="289.5" y2="558.307" gradientUnits="userSpaceOnUse">
<stop stop-color="white"/>
<stop offset="1" stop-color="white" stop-opacity="0.54"/>
</linearGradient>
<linearGradient id="paint2_linear_1035_1551" x1="289.5" y1="-76" x2="289.5" y2="558.307" gradientUnits="userSpaceOnUse">
<stop stop-color="white"/>
<stop offset="1" stop-color="white" stop-opacity="0.54"/>
</linearGradient>
<linearGradient id="paint3_linear_1035_1551" x1="289.5" y1="-76" x2="289.5" y2="558.307" gradientUnits="userSpaceOnUse">
<stop stop-color="white"/>
<stop offset="1" stop-color="white" stop-opacity="0.54"/>
</linearGradient>
<linearGradient id="paint4_linear_1035_1551" x1="289.5" y1="-76" x2="289.5" y2="558.307" gradientUnits="userSpaceOnUse">
<stop stop-color="white"/>
<stop offset="1" stop-color="white" stop-opacity="0.54"/>
</linearGradient>
<linearGradient id="paint5_linear_1035_1551" x1="289.5" y1="-76" x2="289.5" y2="558.307" gradientUnits="userSpaceOnUse">
<stop stop-color="white"/>
<stop offset="1" stop-color="white" stop-opacity="0.54"/>
</linearGradient>
<linearGradient id="paint6_linear_1035_1551" x1="289.5" y1="-76" x2="289.5" y2="558.307" gradientUnits="userSpaceOnUse">
<stop stop-color="white"/>
<stop offset="1" stop-color="white" stop-opacity="0.54"/>
</linearGradient>
<linearGradient id="paint7_linear_1035_1551" x1="289.5" y1="-76" x2="289.5" y2="558.307" gradientUnits="userSpaceOnUse">
<stop stop-color="white"/>
<stop offset="1" stop-color="white" stop-opacity="0.54"/>
</linearGradient>
<linearGradient id="paint8_linear_1035_1551" x1="289.5" y1="-76" x2="289.5" y2="558.307" gradientUnits="userSpaceOnUse">
<stop stop-color="white"/>
<stop offset="1" stop-color="white" stop-opacity="0.54"/>
</linearGradient>
<linearGradient id="paint9_linear_1035_1551" x1="289.5" y1="-76" x2="289.5" y2="558.307" gradientUnits="userSpaceOnUse">
<stop stop-color="white"/>
<stop offset="1" stop-color="white" stop-opacity="0.54"/>
</linearGradient>
<linearGradient id="paint10_linear_1035_1551" x1="289.5" y1="-76" x2="289.5" y2="558.307" gradientUnits="userSpaceOnUse">
<stop stop-color="white"/>
<stop offset="1" stop-color="white" stop-opacity="0.54"/>
</linearGradient>
<linearGradient id="paint11_linear_1035_1551" x1="289.5" y1="-76" x2="289.5" y2="558.307" gradientUnits="userSpaceOnUse">
<stop stop-color="white"/>
<stop offset="1" stop-color="white" stop-opacity="0.54"/>
</linearGradient>
<linearGradient id="paint12_linear_1035_1551" x1="289.5" y1="-76" x2="289.5" y2="558.307" gradientUnits="userSpaceOnUse">
<stop stop-color="white"/>
<stop offset="1" stop-color="white" stop-opacity="0.54"/>
</linearGradient>
<linearGradient id="paint13_linear_1035_1551" x1="289.5" y1="-76" x2="289.5" y2="558.307" gradientUnits="userSpaceOnUse">
<stop stop-color="white"/>
<stop offset="1" stop-color="white" stop-opacity="0.54"/>
</linearGradient>
<linearGradient id="paint14_linear_1035_1551" x1="289.5" y1="-76" x2="289.5" y2="558.307" gradientUnits="userSpaceOnUse">
<stop stop-color="white"/>
<stop offset="1" stop-color="white" stop-opacity="0.54"/>
</linearGradient>
<linearGradient id="paint15_linear_1035_1551" x1="289.5" y1="-76" x2="289.5" y2="558.307" gradientUnits="userSpaceOnUse">
<stop stop-color="white"/>
<stop offset="1" stop-color="white" stop-opacity="0.54"/>
</linearGradient>
<linearGradient id="paint16_linear_1035_1551" x1="289.5" y1="-76" x2="289.5" y2="558.307" gradientUnits="userSpaceOnUse">
<stop stop-color="white"/>
<stop offset="1" stop-color="white" stop-opacity="0.54"/>
</linearGradient>
<linearGradient id="paint17_linear_1035_1551" x1="289.5" y1="-76" x2="289.5" y2="558.307" gradientUnits="userSpaceOnUse">
<stop stop-color="white"/>
<stop offset="1" stop-color="white" stop-opacity="0.54"/>
</linearGradient>
<linearGradient id="paint18_linear_1035_1551" x1="289.5" y1="-76" x2="289.5" y2="558.307" gradientUnits="userSpaceOnUse">
<stop stop-color="white"/>
<stop offset="1" stop-color="white" stop-opacity="0.54"/>
</linearGradient>
<linearGradient id="paint19_linear_1035_1551" x1="289.5" y1="-76" x2="289.5" y2="558.307" gradientUnits="userSpaceOnUse">
<stop stop-color="white"/>
<stop offset="1" stop-color="white" stop-opacity="0.54"/>
</linearGradient>
<linearGradient id="paint20_linear_1035_1551" x1="289.5" y1="-76" x2="289.5" y2="558.307" gradientUnits="userSpaceOnUse">
<stop stop-color="white"/>
<stop offset="1" stop-color="white" stop-opacity="0.54"/>
</linearGradient>
<linearGradient id="paint21_linear_1035_1551" x1="289.5" y1="-76" x2="289.5" y2="558.307" gradientUnits="userSpaceOnUse">
<stop stop-color="white"/>
<stop offset="1" stop-color="white" stop-opacity="0.54"/>
</linearGradient>
<linearGradient id="paint22_linear_1035_1551" x1="289.5" y1="-76" x2="289.5" y2="558.307" gradientUnits="userSpaceOnUse">
<stop stop-color="white"/>
<stop offset="1" stop-color="white" stop-opacity="0.54"/>
</linearGradient>
<linearGradient id="paint23_linear_1035_1551" x1="289.5" y1="-76" x2="289.5" y2="558.307" gradientUnits="userSpaceOnUse">
<stop stop-color="white"/>
<stop offset="1" stop-color="white" stop-opacity="0.54"/>
</linearGradient>
<linearGradient id="paint24_linear_1035_1551" x1="289.5" y1="-76" x2="289.5" y2="558.307" gradientUnits="userSpaceOnUse">
<stop stop-color="white"/>
<stop offset="1" stop-color="white" stop-opacity="0.54"/>
</linearGradient>
<linearGradient id="paint25_linear_1035_1551" x1="289.5" y1="-76" x2="289.5" y2="558.307" gradientUnits="userSpaceOnUse">
<stop stop-color="white"/>
<stop offset="1" stop-color="white" stop-opacity="0.54"/>
</linearGradient>
<linearGradient id="paint26_linear_1035_1551" x1="289.5" y1="-76" x2="289.5" y2="558.307" gradientUnits="userSpaceOnUse">
<stop stop-color="white"/>
<stop offset="1" stop-color="white" stop-opacity="0.54"/>
</linearGradient>
<linearGradient id="paint27_linear_1035_1551" x1="289.5" y1="-76" x2="289.5" y2="558.307" gradientUnits="userSpaceOnUse">
<stop stop-color="white"/>
<stop offset="1" stop-color="white" stop-opacity="0.54"/>
</linearGradient>
<linearGradient id="paint28_linear_1035_1551" x1="289.5" y1="-76" x2="289.5" y2="558.307" gradientUnits="userSpaceOnUse">
<stop stop-color="white"/>
<stop offset="1" stop-color="white" stop-opacity="0.54"/>
</linearGradient>
<linearGradient id="paint29_linear_1035_1551" x1="289.5" y1="-76" x2="289.5" y2="558.307" gradientUnits="userSpaceOnUse">
<stop stop-color="white"/>
<stop offset="1" stop-color="white" stop-opacity="0.54"/>
</linearGradient>
<linearGradient id="paint30_linear_1035_1551" x1="289.5" y1="-76" x2="289.5" y2="558.307" gradientUnits="userSpaceOnUse">
<stop stop-color="white"/>
<stop offset="1" stop-color="white" stop-opacity="0.54"/>
</linearGradient>
<linearGradient id="paint31_linear_1035_1551" x1="289.5" y1="-76" x2="289.5" y2="558.307" gradientUnits="userSpaceOnUse">
<stop stop-color="white"/>
<stop offset="1" stop-color="white" stop-opacity="0.54"/>
</linearGradient>
<linearGradient id="paint32_linear_1035_1551" x1="289.5" y1="-76" x2="289.5" y2="558.307" gradientUnits="userSpaceOnUse">
<stop stop-color="white"/>
<stop offset="1" stop-color="white" stop-opacity="0.54"/>
</linearGradient>
<linearGradient id="paint33_linear_1035_1551" x1="289.5" y1="-76" x2="289.5" y2="558.307" gradientUnits="userSpaceOnUse">
<stop stop-color="white"/>
<stop offset="1" stop-color="white" stop-opacity="0.54"/>
</linearGradient>
<linearGradient id="paint34_linear_1035_1551" x1="289.5" y1="-76" x2="289.5" y2="558.307" gradientUnits="userSpaceOnUse">
<stop stop-color="white"/>
<stop offset="1" stop-color="white" stop-opacity="0.54"/>
</linearGradient>
<linearGradient id="paint35_linear_1035_1551" x1="289.5" y1="-76" x2="289.5" y2="558.307" gradientUnits="userSpaceOnUse">
<stop stop-color="white"/>
<stop offset="1" stop-color="white" stop-opacity="0.54"/>
</linearGradient>
<linearGradient id="paint36_linear_1035_1551" x1="289.5" y1="-76" x2="289.5" y2="558.307" gradientUnits="userSpaceOnUse">
<stop stop-color="white"/>
<stop offset="1" stop-color="white" stop-opacity="0.54"/>
</linearGradient>
<linearGradient id="paint37_linear_1035_1551" x1="289.5" y1="-76" x2="289.5" y2="558.307" gradientUnits="userSpaceOnUse">
<stop stop-color="white"/>
<stop offset="1" stop-color="white" stop-opacity="0.54"/>
</linearGradient>
<linearGradient id="paint38_linear_1035_1551" x1="289.5" y1="-76" x2="289.5" y2="558.307" gradientUnits="userSpaceOnUse">
<stop stop-color="white"/>
<stop offset="1" stop-color="white" stop-opacity="0.54"/>
</linearGradient>
<linearGradient id="paint39_linear_1035_1551" x1="289.5" y1="-76" x2="289.5" y2="558.307" gradientUnits="userSpaceOnUse">
<stop stop-color="white"/>
<stop offset="1" stop-color="white" stop-opacity="0.54"/>
</linearGradient>
<linearGradient id="paint40_linear_1035_1551" x1="289.5" y1="-76" x2="289.5" y2="558.307" gradientUnits="userSpaceOnUse">
<stop stop-color="white"/>
<stop offset="1" stop-color="white" stop-opacity="0.54"/>
</linearGradient>
<linearGradient id="paint41_linear_1035_1551" x1="289.5" y1="-76" x2="289.5" y2="558.307" gradientUnits="userSpaceOnUse">
<stop stop-color="white"/>
<stop offset="1" stop-color="white" stop-opacity="0.54"/>
</linearGradient>
<linearGradient id="paint42_linear_1035_1551" x1="289.5" y1="-76" x2="289.5" y2="558.307" gradientUnits="userSpaceOnUse">
<stop stop-color="white"/>
<stop offset="1" stop-color="white" stop-opacity="0.54"/>
</linearGradient>
<linearGradient id="paint43_linear_1035_1551" x1="289.5" y1="-76" x2="289.5" y2="558.307" gradientUnits="userSpaceOnUse">
<stop stop-color="white"/>
<stop offset="1" stop-color="white" stop-opacity="0.54"/>
</linearGradient>
<linearGradient id="paint44_linear_1035_1551" x1="289.5" y1="-76" x2="289.5" y2="558.307" gradientUnits="userSpaceOnUse">
<stop stop-color="white"/>
<stop offset="1" stop-color="white" stop-opacity="0.54"/>
</linearGradient>
<linearGradient id="paint45_linear_1035_1551" x1="289.5" y1="-76" x2="289.5" y2="558.307" gradientUnits="userSpaceOnUse">
<stop stop-color="white"/>
<stop offset="1" stop-color="white" stop-opacity="0.54"/>
</linearGradient>
<linearGradient id="paint46_linear_1035_1551" x1="289.5" y1="-76" x2="289.5" y2="558.307" gradientUnits="userSpaceOnUse">
<stop stop-color="white"/>
<stop offset="1" stop-color="white" stop-opacity="0.54"/>
</linearGradient>
<linearGradient id="paint47_linear_1035_1551" x1="289.5" y1="-76" x2="289.5" y2="558.307" gradientUnits="userSpaceOnUse">
<stop stop-color="white"/>
<stop offset="1" stop-color="white" stop-opacity="0.54"/>
</linearGradient>
<linearGradient id="paint48_linear_1035_1551" x1="289.5" y1="-76" x2="289.5" y2="558.307" gradientUnits="userSpaceOnUse">
<stop stop-color="white"/>
<stop offset="1" stop-color="white" stop-opacity="0.54"/>
</linearGradient>
<linearGradient id="paint49_linear_1035_1551" x1="289.5" y1="-76" x2="289.5" y2="558.307" gradientUnits="userSpaceOnUse">
<stop stop-color="white"/>
<stop offset="1" stop-color="white" stop-opacity="0.54"/>
</linearGradient>
<linearGradient id="paint50_linear_1035_1551" x1="289.5" y1="-76" x2="289.5" y2="558.307" gradientUnits="userSpaceOnUse">
<stop stop-color="white"/>
<stop offset="1" stop-color="white" stop-opacity="0.54"/>
</linearGradient>
<linearGradient id="paint51_linear_1035_1551" x1="289.5" y1="-76" x2="289.5" y2="558.307" gradientUnits="userSpaceOnUse">
<stop stop-color="white"/>
<stop offset="1" stop-color="white" stop-opacity="0.54"/>
</linearGradient>
<linearGradient id="paint52_linear_1035_1551" x1="289.5" y1="-76" x2="289.5" y2="558.307" gradientUnits="userSpaceOnUse">
<stop stop-color="white"/>
<stop offset="1" stop-color="white" stop-opacity="0.54"/>
</linearGradient>
<linearGradient id="paint53_linear_1035_1551" x1="289.5" y1="-76" x2="289.5" y2="558.307" gradientUnits="userSpaceOnUse">
<stop stop-color="white"/>
<stop offset="1" stop-color="white" stop-opacity="0.54"/>
</linearGradient>
<linearGradient id="paint54_linear_1035_1551" x1="289.5" y1="-76" x2="289.5" y2="558.307" gradientUnits="userSpaceOnUse">
<stop stop-color="white"/>
<stop offset="1" stop-color="white" stop-opacity="0.54"/>
</linearGradient>
<linearGradient id="paint55_linear_1035_1551" x1="289.5" y1="-76" x2="289.5" y2="558.307" gradientUnits="userSpaceOnUse">
<stop stop-color="white"/>
<stop offset="1" stop-color="white" stop-opacity="0.54"/>
</linearGradient>
<linearGradient id="paint56_linear_1035_1551" x1="289.5" y1="-76" x2="289.5" y2="558.307" gradientUnits="userSpaceOnUse">
<stop stop-color="white"/>
<stop offset="1" stop-color="white" stop-opacity="0.54"/>
</linearGradient>
<linearGradient id="paint57_linear_1035_1551" x1="289.5" y1="-76" x2="289.5" y2="558.307" gradientUnits="userSpaceOnUse">
<stop stop-color="white"/>
<stop offset="1" stop-color="white" stop-opacity="0.54"/>
</linearGradient>
<linearGradient id="paint58_linear_1035_1551" x1="289.5" y1="-76" x2="289.5" y2="558.307" gradientUnits="userSpaceOnUse">
<stop stop-color="white"/>
<stop offset="1" stop-color="white" stop-opacity="0.54"/>
</linearGradient>
<linearGradient id="paint59_linear_1035_1551" x1="289.5" y1="-76" x2="289.5" y2="558.307" gradientUnits="userSpaceOnUse">
<stop stop-color="white"/>
<stop offset="1" stop-color="white" stop-opacity="0.54"/>
</linearGradient>
<linearGradient id="paint60_linear_1035_1551" x1="289.5" y1="-76" x2="289.5" y2="558.307" gradientUnits="userSpaceOnUse">
<stop stop-color="white"/>
<stop offset="1" stop-color="white" stop-opacity="0.54"/>
</linearGradient>
<linearGradient id="paint61_linear_1035_1551" x1="289.5" y1="-76" x2="289.5" y2="558.307" gradientUnits="userSpaceOnUse">
<stop stop-color="white"/>
<stop offset="1" stop-color="white" stop-opacity="0.54"/>
</linearGradient>
<linearGradient id="paint62_linear_1035_1551" x1="289.5" y1="-76" x2="289.5" y2="558.307" gradientUnits="userSpaceOnUse">
<stop stop-color="white"/>
<stop offset="1" stop-color="white" stop-opacity="0.54"/>
</linearGradient>
<linearGradient id="paint63_linear_1035_1551" x1="289.5" y1="-76" x2="289.5" y2="558.307" gradientUnits="userSpaceOnUse">
<stop stop-color="white"/>
<stop offset="1" stop-color="white" stop-opacity="0.54"/>
</linearGradient>
<linearGradient id="paint64_linear_1035_1551" x1="289.5" y1="-76" x2="289.5" y2="558.307" gradientUnits="userSpaceOnUse">
<stop stop-color="white"/>
<stop offset="1" stop-color="white" stop-opacity="0.54"/>
</linearGradient>
<linearGradient id="paint65_linear_1035_1551" x1="289.5" y1="-76" x2="289.5" y2="558.307" gradientUnits="userSpaceOnUse">
<stop stop-color="white"/>
<stop offset="1" stop-color="white" stop-opacity="0.54"/>
</linearGradient>
<linearGradient id="paint66_linear_1035_1551" x1="289.5" y1="-76" x2="289.5" y2="558.307" gradientUnits="userSpaceOnUse">
<stop stop-color="white"/>
<stop offset="1" stop-color="white" stop-opacity="0.54"/>
</linearGradient>
<linearGradient id="paint67_linear_1035_1551" x1="289.5" y1="-76" x2="289.5" y2="558.307" gradientUnits="userSpaceOnUse">
<stop stop-color="white"/>
<stop offset="1" stop-color="white" stop-opacity="0.54"/>
</linearGradient>
<linearGradient id="paint68_linear_1035_1551" x1="289.5" y1="-76" x2="289.5" y2="558.307" gradientUnits="userSpaceOnUse">
<stop stop-color="white"/>
<stop offset="1" stop-color="white" stop-opacity="0.54"/>
</linearGradient>
<linearGradient id="paint69_linear_1035_1551" x1="289.5" y1="-76" x2="289.5" y2="558.307" gradientUnits="userSpaceOnUse">
<stop stop-color="white"/>
<stop offset="1" stop-color="white" stop-opacity="0.54"/>
</linearGradient>
<linearGradient id="paint70_linear_1035_1551" x1="289.5" y1="-76" x2="289.5" y2="558.307" gradientUnits="userSpaceOnUse">
<stop stop-color="white"/>
<stop offset="1" stop-color="white" stop-opacity="0.54"/>
</linearGradient>
<linearGradient id="paint71_linear_1035_1551" x1="289.5" y1="-76" x2="289.5" y2="558.307" gradientUnits="userSpaceOnUse">
<stop stop-color="white"/>
<stop offset="1" stop-color="white" stop-opacity="0.54"/>
</linearGradient>
<linearGradient id="paint72_linear_1035_1551" x1="289.5" y1="-76" x2="289.5" y2="558.307" gradientUnits="userSpaceOnUse">
<stop stop-color="white"/>
<stop offset="1" stop-color="white" stop-opacity="0.54"/>
</linearGradient>
<linearGradient id="paint73_linear_1035_1551" x1="289.5" y1="-76" x2="289.5" y2="558.307" gradientUnits="userSpaceOnUse">
<stop stop-color="white"/>
<stop offset="1" stop-color="white" stop-opacity="0.54"/>
</linearGradient>
<linearGradient id="paint74_linear_1035_1551" x1="289.5" y1="-76" x2="289.5" y2="558.307" gradientUnits="userSpaceOnUse">
<stop stop-color="white"/>
<stop offset="1" stop-color="white" stop-opacity="0.54"/>
</linearGradient>
<linearGradient id="paint75_linear_1035_1551" x1="289.5" y1="-76" x2="289.5" y2="558.307" gradientUnits="userSpaceOnUse">
<stop stop-color="white"/>
<stop offset="1" stop-color="white" stop-opacity="0.54"/>
</linearGradient>
<linearGradient id="paint76_linear_1035_1551" x1="289.5" y1="-76" x2="289.5" y2="558.307" gradientUnits="userSpaceOnUse">
<stop stop-color="white"/>
<stop offset="1" stop-color="white" stop-opacity="0.54"/>
</linearGradient>
<linearGradient id="paint77_linear_1035_1551" x1="289.5" y1="-76" x2="289.5" y2="558.307" gradientUnits="userSpaceOnUse">
<stop stop-color="white"/>
<stop offset="1" stop-color="white" stop-opacity="0.54"/>
</linearGradient>
<linearGradient id="paint78_linear_1035_1551" x1="289.5" y1="-76" x2="289.5" y2="558.307" gradientUnits="userSpaceOnUse">
<stop stop-color="white"/>
<stop offset="1" stop-color="white" stop-opacity="0.54"/>
</linearGradient>
<linearGradient id="paint79_linear_1035_1551" x1="289.5" y1="-76" x2="289.5" y2="558.307" gradientUnits="userSpaceOnUse">
<stop stop-color="white"/>
<stop offset="1" stop-color="white" stop-opacity="0.54"/>
</linearGradient>
<linearGradient id="paint80_linear_1035_1551" x1="289.5" y1="-76" x2="289.5" y2="558.307" gradientUnits="userSpaceOnUse">
<stop stop-color="white"/>
<stop offset="1" stop-color="white" stop-opacity="0.54"/>
</linearGradient>
<linearGradient id="paint81_linear_1035_1551" x1="289.5" y1="-76" x2="289.5" y2="558.307" gradientUnits="userSpaceOnUse">
<stop stop-color="white"/>
<stop offset="1" stop-color="white" stop-opacity="0.54"/>
</linearGradient>
<linearGradient id="paint82_linear_1035_1551" x1="289.5" y1="-76" x2="289.5" y2="558.307" gradientUnits="userSpaceOnUse">
<stop stop-color="white"/>
<stop offset="1" stop-color="white" stop-opacity="0.54"/>
</linearGradient>
<linearGradient id="paint83_linear_1035_1551" x1="289.5" y1="-76" x2="289.5" y2="558.307" gradientUnits="userSpaceOnUse">
<stop stop-color="white"/>
<stop offset="1" stop-color="white" stop-opacity="0.54"/>
</linearGradient>
<linearGradient id="paint84_linear_1035_1551" x1="289.5" y1="-76" x2="289.5" y2="558.307" gradientUnits="userSpaceOnUse">
<stop stop-color="white"/>
<stop offset="1" stop-color="white" stop-opacity="0.54"/>
</linearGradient>
<linearGradient id="paint85_linear_1035_1551" x1="289.5" y1="-76" x2="289.5" y2="558.307" gradientUnits="userSpaceOnUse">
<stop stop-color="white"/>
<stop offset="1" stop-color="white" stop-opacity="0.54"/>
</linearGradient>
<linearGradient id="paint86_linear_1035_1551" x1="289.5" y1="-76" x2="289.5" y2="558.307" gradientUnits="userSpaceOnUse">
<stop stop-color="white"/>
<stop offset="1" stop-color="white" stop-opacity="0.54"/>
</linearGradient>
<linearGradient id="paint87_linear_1035_1551" x1="289.5" y1="-76" x2="289.5" y2="558.307" gradientUnits="userSpaceOnUse">
<stop stop-color="white"/>
<stop offset="1" stop-color="white" stop-opacity="0.54"/>
</linearGradient>
<linearGradient id="paint88_linear_1035_1551" x1="289.5" y1="-76" x2="289.5" y2="558.307" gradientUnits="userSpaceOnUse">
<stop stop-color="white"/>
<stop offset="1" stop-color="white" stop-opacity="0.54"/>
</linearGradient>
<linearGradient id="paint89_linear_1035_1551" x1="289.5" y1="-76" x2="289.5" y2="558.307" gradientUnits="userSpaceOnUse">
<stop stop-color="white"/>
<stop offset="1" stop-color="white" stop-opacity="0.54"/>
</linearGradient>
<linearGradient id="paint90_linear_1035_1551" x1="289.5" y1="-76" x2="289.5" y2="558.307" gradientUnits="userSpaceOnUse">
<stop stop-color="white"/>
<stop offset="1" stop-color="white" stop-opacity="0.54"/>
</linearGradient>
<linearGradient id="paint91_linear_1035_1551" x1="289.5" y1="-76" x2="289.5" y2="558.307" gradientUnits="userSpaceOnUse">
<stop stop-color="white"/>
<stop offset="1" stop-color="white" stop-opacity="0.54"/>
</linearGradient>
<linearGradient id="paint92_linear_1035_1551" x1="289.5" y1="-76" x2="289.5" y2="558.307" gradientUnits="userSpaceOnUse">
<stop stop-color="white"/>
<stop offset="1" stop-color="white" stop-opacity="0.54"/>
</linearGradient>
<linearGradient id="paint93_linear_1035_1551" x1="289.5" y1="-76" x2="289.5" y2="558.307" gradientUnits="userSpaceOnUse">
<stop stop-color="white"/>
<stop offset="1" stop-color="white" stop-opacity="0.54"/>
</linearGradient>
<linearGradient id="paint94_linear_1035_1551" x1="289.5" y1="-76" x2="289.5" y2="558.307" gradientUnits="userSpaceOnUse">
<stop stop-color="white"/>
<stop offset="1" stop-color="white" stop-opacity="0.54"/>
</linearGradient>
<linearGradient id="paint95_linear_1035_1551" x1="289.5" y1="-76" x2="289.5" y2="558.307" gradientUnits="userSpaceOnUse">
<stop stop-color="white"/>
<stop offset="1" stop-color="white" stop-opacity="0.54"/>
</linearGradient>
<linearGradient id="paint96_linear_1035_1551" x1="289.5" y1="-76" x2="289.5" y2="558.307" gradientUnits="userSpaceOnUse">
<stop stop-color="white"/>
<stop offset="1" stop-color="white" stop-opacity="0.54"/>
</linearGradient>
<linearGradient id="paint97_linear_1035_1551" x1="289.5" y1="-76" x2="289.5" y2="558.307" gradientUnits="userSpaceOnUse">
<stop stop-color="white"/>
<stop offset="1" stop-color="white" stop-opacity="0.54"/>
</linearGradient>
<linearGradient id="paint98_linear_1035_1551" x1="289.5" y1="-76" x2="289.5" y2="558.307" gradientUnits="userSpaceOnUse">
<stop stop-color="white"/>
<stop offset="1" stop-color="white" stop-opacity="0.54"/>
</linearGradient>
<linearGradient id="paint99_linear_1035_1551" x1="289.5" y1="-76" x2="289.5" y2="558.307" gradientUnits="userSpaceOnUse">
<stop stop-color="white"/>
<stop offset="1" stop-color="white" stop-opacity="0.54"/>
</linearGradient>
<linearGradient id="paint100_linear_1035_1551" x1="289.5" y1="-76" x2="289.5" y2="558.307" gradientUnits="userSpaceOnUse">
<stop stop-color="white"/>
<stop offset="1" stop-color="white" stop-opacity="0.54"/>
</linearGradient>
<linearGradient id="paint101_linear_1035_1551" x1="289.5" y1="-76" x2="289.5" y2="558.307" gradientUnits="userSpaceOnUse">
<stop stop-color="white"/>
<stop offset="1" stop-color="white" stop-opacity="0.54"/>
</linearGradient>
<linearGradient id="paint102_linear_1035_1551" x1="289.5" y1="-76" x2="289.5" y2="558.307" gradientUnits="userSpaceOnUse">
<stop stop-color="white"/>
<stop offset="1" stop-color="white" stop-opacity="0.54"/>
</linearGradient>
<linearGradient id="paint103_linear_1035_1551" x1="289.5" y1="-76" x2="289.5" y2="558.307" gradientUnits="userSpaceOnUse">
<stop stop-color="white"/>
<stop offset="1" stop-color="white" stop-opacity="0.54"/>
</linearGradient>
<linearGradient id="paint104_linear_1035_1551" x1="289.5" y1="-76" x2="289.5" y2="558.307" gradientUnits="userSpaceOnUse">
<stop stop-color="white"/>
<stop offset="1" stop-color="white" stop-opacity="0.54"/>
</linearGradient>
<linearGradient id="paint105_linear_1035_1551" x1="289.5" y1="-76" x2="289.5" y2="558.307" gradientUnits="userSpaceOnUse">
<stop stop-color="white"/>
<stop offset="1" stop-color="white" stop-opacity="0.54"/>
</linearGradient>
<linearGradient id="paint106_linear_1035_1551" x1="289.5" y1="-76" x2="289.5" y2="558.307" gradientUnits="userSpaceOnUse">
<stop stop-color="white"/>
<stop offset="1" stop-color="white" stop-opacity="0.54"/>
</linearGradient>
<linearGradient id="paint107_linear_1035_1551" x1="289.5" y1="-76" x2="289.5" y2="558.307" gradientUnits="userSpaceOnUse">
<stop stop-color="white"/>
<stop offset="1" stop-color="white" stop-opacity="0.54"/>
</linearGradient>
<linearGradient id="paint108_linear_1035_1551" x1="289.5" y1="-76" x2="289.5" y2="558.307" gradientUnits="userSpaceOnUse">
<stop stop-color="white"/>
<stop offset="1" stop-color="white" stop-opacity="0.54"/>
</linearGradient>
<linearGradient id="paint109_linear_1035_1551" x1="289.5" y1="-76" x2="289.5" y2="558.307" gradientUnits="userSpaceOnUse">
<stop stop-color="white"/>
<stop offset="1" stop-color="white" stop-opacity="0.54"/>
</linearGradient>
<linearGradient id="paint110_linear_1035_1551" x1="289.5" y1="-76" x2="289.5" y2="558.307" gradientUnits="userSpaceOnUse">
<stop stop-color="white"/>
<stop offset="1" stop-color="white" stop-opacity="0.54"/>
</linearGradient>
<linearGradient id="paint111_linear_1035_1551" x1="289.5" y1="-76" x2="289.5" y2="558.307" gradientUnits="userSpaceOnUse">
<stop stop-color="white"/>
<stop offset="1" stop-color="white" stop-opacity="0.54"/>
</linearGradient>
<linearGradient id="paint112_linear_1035_1551" x1="289.5" y1="-76" x2="289.5" y2="558.307" gradientUnits="userSpaceOnUse">
<stop stop-color="white"/>
<stop offset="1" stop-color="white" stop-opacity="0.54"/>
</linearGradient>
<linearGradient id="paint113_linear_1035_1551" x1="289.5" y1="-76" x2="289.5" y2="558.307" gradientUnits="userSpaceOnUse">
<stop stop-color="white"/>
<stop offset="1" stop-color="white" stop-opacity="0.54"/>
</linearGradient>
</defs>
</svg>
