<svg width="82" height="82" viewBox="0 0 82 82" fill="none" xmlns="http://www.w3.org/2000/svg">
<rect x="0.945312" y="0.799805" width="81" height="81" rx="40.5" fill="url(#paint0_linear_3324_3368)" fill-opacity="0.26"/>
<path d="M34.6084 25.5377C31.839 25.5275 27.1133 25.5101 23.2015 25.4956L22.7812 27.276L32.7354 27.3115L34.6084 25.5377Z" fill="url(#paint1_linear_3324_3368)"/>
<path d="M59.456 25.5775C59.456 25.5775 55.0316 25.8645 52.3402 25.4513C49.6488 25.036 45.1984 22.9946 42.8779 22.9946C41.431 22.9946 39.573 23.9776 37.97 25.0679C37.9557 25.0787 37.944 25.0903 37.9291 25.0998C36.3664 26.2183 35.0035 27.5768 34.2625 28.3539C33.5222 29.1324 32.6856 31.6761 32.4052 32.9259C32.0344 34.5801 30.2551 37.4855 30.2551 37.4855C30.2551 37.4855 31.2277 39.1832 33.1 38.8752C36.2539 38.3525 38.2335 35.2644 38.7162 34.2387C39.48 32.6163 40.8546 31.3528 42.3509 31.3528C43.274 31.3528 45.8203 32.156 46.2028 32.422C46.5873 32.6881 58.5029 46.6462 58.7267 46.918C59.0188 47.2718 59.1515 47.8879 59.1515 48.3591C59.1515 49.9191 57.7919 51.4204 56.2435 50.8622C56.1883 50.8412 56.1427 50.8325 56.0926 50.8158L45.7019 41.5812L46.2523 44.1293L53.9354 51.527C54.1117 51.8314 54.6269 52.8978 53.912 53.8416C53.2874 54.6738 52.3181 54.5549 51.7326 54.2831L45.1242 48.7469L42.8583 49.0275L49.6443 55.0558C49.803 55.3095 49.9019 55.6125 49.9019 55.9438C49.9019 56.8246 49.2657 57.5379 48.4752 57.5379C48.2937 57.5379 48.0999 57.498 47.9145 57.4277L43.0242 53.4262L40.6393 53.7133L44.9395 57.5045C45 57.6785 45.0175 57.904 45.0175 58.099C45.0175 58.8848 44.447 59.5191 43.7411 59.5191C43.3072 59.5191 43.1394 59.2574 42.6937 58.9029L40.0837 56.8942C40.1937 56.1751 39.9822 55.4146 39.4585 54.892C38.8073 54.2504 37.8816 54.1852 37.1699 54.6542L37.1347 54.6274C37.7222 53.4284 37.5108 51.8959 36.5557 50.9521C35.4992 49.9061 33.9112 49.9554 32.9068 51.0231C33.3465 49.9641 33.1384 48.6628 32.3135 47.8473C31.3064 46.8506 29.7613 46.9513 28.8674 48.075L28.7725 48.1953C28.7725 48.1953 22.4575 42.2329 21.6248 41.0238C20.7973 39.8183 20.3022 37.3159 20.3022 37.3159L19.6016 40.1698L20.1428 41.6856C20.215 41.8886 20.3224 42.0785 20.4583 42.2366L22.8661 45.1123C22.7418 45.2159 22.6201 45.3261 22.507 45.4479C21.2221 46.7969 20.9241 48.7636 21.8388 49.8452C22.7503 50.9282 24.5328 50.7129 25.8176 49.3667C26.0577 49.1145 26.2574 48.8397 26.4279 48.557L27.701 49.5342L26.5404 50.997C25.6439 52.1199 25.7363 53.8387 26.7434 54.8383C27.6255 55.7118 28.9254 55.7416 29.8335 54.9746C29.2344 56.1809 29.4406 57.7242 30.4008 58.6767C31.5152 59.7786 33.2223 59.6648 34.2118 58.4244L34.4577 58.1142C34.1864 58.9326 34.3686 59.8866 34.9905 60.5028C35.6183 61.124 36.5037 61.2095 37.2037 60.7942C37.354 60.7485 38.2979 60.4259 40.2938 59.2197L41.7641 60.3512C41.8454 60.4165 41.9144 60.4745 41.9755 60.5325C42.3255 60.8369 42.8551 61.3001 43.7405 61.3001C45.1093 61.3001 46.2549 60.2244 46.545 58.7942C46.5476 58.7789 46.5535 58.7615 46.5568 58.7405L46.6927 58.7347C47.2106 59.1015 47.8449 59.3183 48.4746 59.3183C48.958 59.3183 49.4153 59.1863 49.8206 58.9587C50.6598 58.494 51.2759 57.6039 51.447 56.5448C51.4756 56.3933 51.4899 56.2388 51.499 56.0815C51.8575 56.199 52.24 56.2671 52.6219 56.2671C53.0526 56.2671 53.4611 56.1765 53.8365 56.0178C54.3381 55.8025 54.7804 55.4589 55.1363 54.9898C55.5761 54.4034 55.796 53.7568 55.8565 53.1138C55.874 52.9412 55.8792 52.7658 55.874 52.594C56.2123 52.7028 56.5604 52.7586 56.9039 52.7586H56.9071C57.3352 52.7586 57.7522 52.6723 58.1484 52.5136C58.7157 52.2845 59.2361 51.9003 59.6733 51.3755C60.3564 50.5469 60.7493 49.4515 60.7493 48.3584C60.7493 48.0257 60.6999 46.9753 60.1593 46.08L63.913 43.7806L59.456 25.5775Z" fill="url(#paint2_linear_3324_3368)"/>
<path d="M65.4421 22.2905L61.5391 23.4771L66.8276 45.0762L70.7306 43.8896L65.4421 22.2905Z" fill="url(#paint3_linear_3324_3368)"/>
<path d="M17.4544 21.2998L12.2512 42.5461L12.1641 42.9028L16.0681 44.088L16.1747 43.6574L21.3577 22.4858L17.4544 21.2998Z" fill="url(#paint4_linear_3324_3368)"/>
<defs>
<linearGradient id="paint0_linear_3324_3368" x1="100.695" y1="-31.4502" x2="-2.80468" y2="96.0498" gradientUnits="userSpaceOnUse">
<stop stop-color="white"/>
<stop offset="1" stop-color="white" stop-opacity="0"/>
</linearGradient>
<linearGradient id="paint1_linear_3324_3368" x1="28.6948" y1="26.1251" x2="28.6948" y2="28.9729" gradientUnits="userSpaceOnUse">
<stop stop-color="#94723F"/>
<stop offset="1" stop-color="#EEB30A"/>
</linearGradient>
<linearGradient id="paint2_linear_3324_3368" x1="41.7573" y1="36.2737" x2="41.7573" y2="96.3478" gradientUnits="userSpaceOnUse">
<stop stop-color="#94723F"/>
<stop offset="1" stop-color="#EEB30A"/>
</linearGradient>
<linearGradient id="paint3_linear_3324_3368" x1="65.3239" y1="30.3714" x2="75.4523" y2="63.6873" gradientUnits="userSpaceOnUse">
<stop stop-color="#94723F"/>
<stop offset="1" stop-color="#EEB30A"/>
</linearGradient>
<linearGradient id="paint4_linear_3324_3368" x1="16.7609" y1="29.1996" x2="16.7609" y2="64.938" gradientUnits="userSpaceOnUse">
<stop stop-color="#94723F"/>
<stop offset="1" stop-color="#EEB30A"/>
</linearGradient>
</defs>
</svg>
