<svg width="82" height="82" viewBox="0 0 82 82" fill="none" xmlns="http://www.w3.org/2000/svg">
<rect x="0.945312" y="0.799805" width="81" height="81" rx="40.5" fill="url(#paint0_linear_3324_3377)" fill-opacity="0.26"/>
<path d="M67.2768 27.4362C67.2197 26.8653 66.4204 26.694 65.9637 26.6369C65.4499 26.5227 65.4499 26.4656 65.0502 26.066C64.879 25.8947 65.2215 25.9518 64.8219 25.8376C64.5935 25.7235 64.3652 26.066 64.0797 25.8947C63.7372 25.7235 63.5659 24.9813 63.5659 24.6387C63.623 24.6958 63.623 24.6958 63.6801 24.7529C63.7371 24.6387 63.5659 24.4675 63.4517 24.4104C63.6801 24.3533 63.6801 24.0678 63.7372 23.8965C63.623 23.9536 63.4517 24.0678 63.3375 24.1249C63.4517 24.0107 63.5088 23.8965 63.6801 23.8395C63.5659 23.8395 63.4517 23.8395 63.3375 23.9536C64.0797 23.2685 63.3375 23.4969 62.8237 23.3256C62.0815 23.0402 61.9673 22.2409 61.6819 21.6129C61.3393 20.7565 61.2251 21.4416 60.7113 21.6129C60.6542 21.6129 60.3688 21.5558 60.1975 21.6129C59.912 21.67 59.6266 21.9554 59.3411 21.8984C59.6266 22.2409 57.6284 23.6682 57.3429 23.7253C56.0869 24.0107 54.888 22.926 53.7462 22.6405C52.2618 22.2409 50.5491 22.3551 49.0647 22.6405C48.3797 22.7547 47.7517 23.0402 47.2378 23.4398C46.724 23.8965 46.3815 24.4675 45.8106 24.81C44.5546 25.438 42.8989 24.9242 41.7571 24.2962C40.5582 23.6682 39.0738 22.298 37.6465 22.8118C36.676 23.2114 35.7054 24.182 34.5636 24.0678C33.3647 23.9536 33.1363 22.5834 32.4512 21.8413C31.9374 21.2704 31.2523 21.1562 30.5101 20.9849C29.768 20.8136 29.0829 20.2998 28.2836 20.2998C27.8269 20.2998 27.5414 20.4711 27.1418 20.6424C26.685 20.8136 26.3996 20.8136 25.9429 20.7565C25.0865 20.6994 24.2301 20.6994 23.4879 21.2704C23.0312 21.67 22.917 21.9554 22.3461 21.9554C22.289 22.7547 22.4032 23.554 22.0036 24.2962C21.6039 25.0955 20.6905 25.438 20.3479 26.2944C19.8912 27.322 20.3479 28.4638 20.1196 29.4915C20.0054 30.0053 19.4916 30.1766 19.3774 30.6333C19.2632 31.09 19.5487 31.3755 19.777 31.6609C20.3479 32.346 20.6334 33.4878 20.7476 34.3442C20.8047 34.6868 20.8047 35.1435 20.4621 35.3148C20.3479 35.3718 20.0054 35.1435 19.8341 35.4289C19.6058 35.7144 19.8912 36.1711 19.9483 36.4566C20.0054 36.9133 19.7199 37.4271 19.3203 37.6555C19.149 37.7697 18.9207 37.7126 18.7494 37.8839C18.5781 38.0551 18.6923 38.2264 18.5781 38.4548C18.4068 38.7973 18.1214 39.0257 17.9501 39.4253C17.7217 40.0533 17.7788 41.081 16.9225 41.138C16.637 41.1951 16.4087 41.1951 16.1232 41.1951C16.1232 41.4235 16.1232 41.709 16.009 41.8802C16.2945 42.1657 15.8948 43.7642 15.8377 44.1068C15.7236 45.1915 15.7806 46.2192 15.8948 47.3039C15.9519 47.7035 16.0661 48.1032 16.009 48.4457C15.9519 48.6741 15.8377 48.7883 15.8377 49.1308C15.8377 49.3592 15.9519 49.5875 15.9519 49.8159C15.9519 50.2155 15.6665 50.4439 15.7236 50.9006C15.7806 51.3573 15.8948 51.5857 15.7806 52.0995C15.7236 52.4421 15.6094 52.6704 15.6094 53.0701C16.009 53.013 18.521 53.1272 18.5781 52.8988C18.4639 52.8417 18.4639 52.7275 18.521 52.6704C18.7494 52.6134 18.521 52.4992 18.5781 52.385C18.6352 52.3279 18.8065 52.1566 18.9207 52.2137C18.6923 52.6134 19.2632 52.4421 19.4345 52.385C19.777 52.2708 20.1767 52.0424 20.5763 52.2137C20.2908 52.2708 20.0054 52.4992 19.7199 52.6134C19.5487 52.6704 19.0919 52.9559 18.9207 52.8417C18.8636 52.8988 18.8065 52.9559 18.7494 52.9559C18.6923 52.8988 18.7494 52.8988 18.7494 52.8988C18.6923 52.8417 18.5781 52.8417 18.521 52.8988C18.5781 52.9559 18.6352 52.9559 18.6352 53.013C19.7199 52.9559 20.7476 52.9559 21.8323 53.1272C22.289 53.1843 22.7458 53.1843 23.1454 53.3555C23.4879 53.5268 23.7734 53.8123 24.0589 53.9835C24.7439 54.4403 25.3149 55.1825 25.7145 55.9246C25.9429 55.5821 26.3996 55.4679 26.7992 55.2966C26.628 55.5821 26.1712 55.525 26.1712 55.8675C25.9429 55.5821 25.9429 56.3243 26 56.4385C26.2854 57.0094 26.7992 56.4955 26.9705 56.0959C27.0276 56.3243 26.7992 56.6668 27.1989 56.6097C27.313 56.6097 27.3701 56.4385 27.4272 56.4385C27.5414 56.4385 27.941 56.6097 27.6556 56.7239C27.6556 56.2672 27.3701 56.7239 27.256 56.781C27.0276 56.8952 26.685 56.5526 26.4567 56.7239C26 57.1236 27.1418 57.5232 27.4272 57.5232C27.3701 57.409 27.313 57.3519 27.4272 57.2948C27.5414 57.6374 27.5985 57.3519 27.6556 57.2377C27.8269 57.0094 28.0552 57.0665 28.2836 56.8952C28.1694 57.1235 27.4272 57.2948 27.9981 57.5803C27.7698 57.5232 27.6556 57.6945 27.4272 57.6945C27.1989 57.6945 27.0847 57.4661 26.9705 57.7515C26.9134 57.8657 27.0276 58.3225 27.0847 58.4366C27.1418 58.4937 27.3701 58.665 27.4272 58.3796C27.4843 58.4366 27.5414 58.4937 27.6556 58.5508C27.3701 58.6079 27.5414 58.4937 27.5414 58.7792C27.4843 58.665 27.3701 58.4937 27.256 58.6079C27.1418 58.665 27.256 58.7221 27.256 58.8363C27.256 59.0646 27.4272 59.4643 27.5414 59.6926C27.5985 59.6926 27.884 60.0923 27.5985 59.921C27.6556 60.0923 27.7698 60.1494 27.884 60.3206C27.941 60.4348 28.1123 60.4348 27.884 60.4348C27.9981 60.8916 28.512 61.4625 28.9687 61.5196C28.9116 61.5767 28.9116 61.5767 28.8545 61.5196C28.9687 61.5767 29.0829 61.6908 29.14 61.7479C29.14 61.6337 29.14 61.6337 29.2541 61.6337C29.14 61.9763 29.8821 62.2047 29.6538 61.805C29.768 61.9192 29.768 61.8621 29.768 61.6908C29.768 61.7479 29.8251 62.0905 29.8251 62.0905C29.8821 62.2047 29.9963 62.1476 30.1105 62.2617C30.1676 62.0905 30.0534 61.9192 30.0534 61.6908C30.1676 61.7479 30.2247 61.7479 30.2247 61.6908C30.2247 61.805 30.1676 61.8621 30.3389 61.9192C29.9963 62.3759 30.6243 62.3188 30.8527 62.2617C30.7956 62.2617 30.7385 62.2047 30.7385 62.1476C30.8527 61.9763 30.9669 61.805 30.7385 61.5767C30.8527 61.5767 30.9098 61.6337 30.9098 61.7479C30.9098 61.6337 30.9098 61.5196 30.9098 61.4054C31.024 61.5196 31.0811 61.6908 31.024 61.8621C31.0811 61.7479 31.1952 61.6337 31.3094 61.6908C31.1952 61.8621 30.9098 62.0334 30.9669 62.2617C31.1952 62.3188 31.4236 62.2047 31.7091 62.2047C31.652 62.1476 31.7091 62.0905 31.8232 62.0905C31.9374 62.2617 32.2229 62.2047 32.4512 62.1476C32.4512 61.9192 32.6225 61.5767 32.3371 61.4054C32.7938 61.4054 32.28 62.0905 32.7367 62.1476C33.1934 62.2047 32.6225 61.5767 32.8509 61.2912C32.8509 61.4625 32.8509 61.6337 32.9651 61.7479C32.908 61.4625 33.0222 61.2341 33.0792 60.9487C33.1934 61.1199 33.0222 61.5196 33.0222 61.7479C33.0792 62.1476 33.1934 62.2047 33.7072 62.0334C33.6502 61.9763 33.5931 61.805 33.536 61.805C33.4789 61.6908 33.4218 61.5767 33.4218 61.4625C33.4218 61.2912 33.4789 61.0628 33.4789 61.0057C33.4218 60.6632 33.0792 60.3206 33.0222 59.9781C33.0792 60.0352 33.1363 60.0352 33.1363 59.9781C33.1363 60.0352 33.1934 60.0923 33.1934 60.0923C33.2505 60.0352 33.3076 60.0352 33.3076 60.1494C32.9651 60.4348 33.4789 60.8345 33.5931 61.0057C33.3076 61.1199 33.4789 61.4625 33.5931 61.6337C33.7643 61.9192 33.7643 61.805 34.0498 61.9763V61.9192C34.5065 62.2617 34.1069 61.0057 33.9356 61.0057C33.9356 61.0628 33.8785 61.0628 33.8785 61.1199C33.8785 61.1199 33.8214 61.0628 33.8785 61.0057C33.8785 60.9487 33.8785 60.7774 33.7643 60.6632C33.8214 60.7774 33.9356 60.8916 33.9927 60.9487C34.0498 60.9487 34.0498 61.0057 34.1069 61.0057C34.1069 60.8916 34.0498 60.7774 33.9927 60.6632C33.9927 60.6061 33.9927 60.4919 34.0498 60.4348C34.1069 60.6061 34.1069 60.6632 34.2211 60.4919C34.2782 60.6061 34.3352 60.7203 34.3923 60.8345H34.3352C34.3352 61.0057 34.164 61.7479 34.5636 61.7479C34.5065 61.6337 34.5065 61.5196 34.5636 61.4625C34.5636 61.5767 34.6207 61.6337 34.7349 61.6908C34.7349 61.6337 34.7349 61.6337 34.7349 61.6337C35.0203 61.6908 35.1345 61.3483 34.8491 61.2341C35.0203 61.177 35.0203 61.0628 34.9062 60.8916C34.7349 60.7774 34.6207 60.6061 34.5065 60.4919C34.5636 60.4348 34.5636 60.4348 34.5636 60.3206C34.6207 60.4919 34.792 60.8916 35.0203 60.6632C35.0203 60.8916 35.2487 61.177 35.42 61.2912C35.7054 61.4625 35.7625 61.2912 35.42 61.177C35.42 61.177 35.3629 61.177 35.3629 61.1199C35.42 61.1199 35.42 61.0628 35.42 61.0057H35.4771V60.9487C35.5342 60.9487 35.5342 60.9487 35.5913 61.0057C35.8196 61.1199 36.1051 61.2341 36.3334 61.1199C36.676 61.0057 36.3334 60.6061 36.676 60.549C36.4476 60.8345 36.7902 61.0628 36.6189 61.2341C36.676 61.2341 36.7331 61.2341 36.7902 61.2341H36.7331C37.0185 61.3483 37.304 61.4054 37.5894 61.3483C37.7036 61.0628 37.6465 61.0628 37.5894 61.0628C37.932 60.8916 39.9873 61.0057 40.0444 60.8345C40.2727 60.4919 40.1585 60.2636 40.0444 59.921C39.9302 59.5785 39.5876 59.293 39.5305 59.0076C39.6447 59.1217 40.5011 60.1494 40.6153 59.6356C40.6153 59.7497 40.5582 60.3206 40.8436 60.0352C40.9007 60.4919 41.2433 60.0352 41.3574 59.8068C41.5858 59.4072 41.8142 59.0076 42.0425 58.6079C42.3851 58.0941 42.5564 57.5232 42.6135 56.9523C42.6705 56.5526 42.4993 56.153 42.4993 55.8105C42.4993 55.2966 42.8418 55.1824 43.1844 54.897C43.6411 54.5544 43.9836 53.9835 44.4404 53.5839C44.8971 53.1272 45.468 52.8417 45.9818 52.4421C46.3815 52.0995 46.4386 51.5857 46.6098 51.129C47.2378 51.3003 47.8087 50.501 48.2084 50.1584C48.5509 50.6152 48.5509 51.0719 49.3502 50.8435C49.9782 50.6152 49.8069 50.1584 50.0924 49.6446C50.4349 49.873 50.7775 50.2726 51.0629 50.5581C51.2342 50.7293 51.3484 50.9577 51.5768 51.129C51.6338 51.1861 52.0335 51.3573 52.0335 51.4144C52.3189 51.757 52.0335 52.2708 52.376 52.5563C52.6615 52.7846 53.2324 52.7275 53.4608 52.4992C53.5749 52.385 53.6891 52.0995 53.8033 51.9854C53.9746 51.8141 54.1459 51.757 54.2029 51.4715C54.3742 51.0148 54.26 50.7294 54.6597 50.3868C54.888 50.2155 55.3448 50.1584 55.4589 49.9301C55.6302 49.6446 55.4019 49.0166 55.0022 49.0737C55.1164 48.5028 55.8015 48.2744 56.0869 47.7606C56.2582 47.4752 56.2011 47.1897 56.3153 46.9042C56.4295 46.5617 56.772 46.3904 56.8862 46.0479C57.1717 45.477 56.772 44.7348 57.1146 44.1639C57.3429 43.7071 57.9139 43.7071 57.6855 43.0791C57.971 43.1933 58.5419 43.1362 58.8273 42.9079C58.9415 42.7937 58.9986 42.6224 59.1128 42.5082C59.284 42.337 59.4553 42.2799 59.5695 42.1086C59.7979 41.709 59.6266 41.081 59.7408 40.6242C59.7979 40.3388 60.1404 39.825 59.6266 39.825C59.912 39.7108 60.0833 39.4824 60.3688 39.3111C60.5971 39.197 60.9397 39.1969 61.1681 38.9686C61.6819 38.4548 61.1681 37.7697 61.2822 37.1988C61.3964 36.6279 61.9673 36.4566 62.2528 35.9998C62.5382 35.4289 62.4241 34.7438 62.6524 34.1729C62.8237 33.7733 63.1662 33.3737 63.3946 32.974C63.7371 32.2889 64.0797 31.718 64.7648 31.4326C65.4499 31.1471 66.2492 31.09 66.763 30.5762C67.391 29.834 67.1626 28.1213 67.2768 27.4362C67.2768 27.4933 67.2768 27.2649 67.2768 27.4362C67.2768 27.4933 67.2768 27.3791 67.2768 27.4362C67.2768 27.4933 67.2768 27.2649 67.2768 27.4362C67.2768 27.4933 67.2197 27.1507 67.2768 27.4362C67.2768 27.4933 67.2197 27.0366 67.2768 27.4362Z" fill="url(#paint1_linear_3324_3377)"/>
<path d="M36.9573 61.1201C36.7861 61.1772 36.6148 61.2343 36.5006 61.1772C36.4435 61.1772 36.3293 61.1772 36.2722 61.1201V61.063H36.2151C36.101 61.063 35.9868 61.1201 35.9297 61.2914C36.2151 61.4626 36.6148 61.2343 36.9573 61.2343C36.9573 61.2343 36.9573 61.2343 36.9573 61.1201C36.9573 61.1772 36.9573 61.1772 36.9573 61.1201Z" fill="url(#paint2_linear_3324_3377)"/>
<path d="M35.8203 61.1205C35.7632 61.1776 35.649 61.1776 35.5919 61.1205C35.5349 61.0634 35.5349 61.0063 35.4778 60.9492C35.4207 60.9492 35.4207 61.0063 35.4207 61.1205C35.3636 61.1205 35.3065 61.1776 35.3065 61.2347C35.3065 61.2918 35.2494 61.3489 35.1923 61.4059C35.0781 61.463 35.0781 61.5201 35.0781 61.6343C35.2494 61.6914 35.4778 61.6343 35.5919 61.5772C35.649 61.5772 35.7061 61.5772 35.7632 61.5201C35.7632 61.4059 35.7632 61.3489 35.7632 61.2347C35.8203 61.1776 35.8774 61.1205 35.8203 61.1205Z" fill="url(#paint3_linear_3324_3377)"/>
<defs>
<linearGradient id="paint0_linear_3324_3377" x1="100.695" y1="-31.4502" x2="-2.80468" y2="96.0498" gradientUnits="userSpaceOnUse">
<stop stop-color="white"/>
<stop offset="1" stop-color="white" stop-opacity="0"/>
</linearGradient>
<linearGradient id="paint1_linear_3324_3377" x1="41.4431" y1="34.8596" x2="41.4431" y2="100.728" gradientUnits="userSpaceOnUse">
<stop stop-color="#94723F"/>
<stop offset="1" stop-color="#EEB30A"/>
</linearGradient>
<linearGradient id="paint2_linear_3324_3377" x1="36.4435" y1="61.1642" x2="36.4435" y2="61.6223" gradientUnits="userSpaceOnUse">
<stop stop-color="#94723F"/>
<stop offset="1" stop-color="#EEB30A"/>
</linearGradient>
<linearGradient id="paint3_linear_3324_3377" x1="35.461" y1="61.1949" x2="35.461" y2="62.3064" gradientUnits="userSpaceOnUse">
<stop stop-color="#94723F"/>
<stop offset="1" stop-color="#EEB30A"/>
</linearGradient>
</defs>
</svg>
