<svg width="325" height="325" viewBox="0 0 325 325" fill="none" xmlns="http://www.w3.org/2000/svg">
<path d="M170.943 307.807L166.406 307.999L167.122 324.939L171.659 324.747L170.943 307.807Z" fill="url(#paint0_linear_699_274)"/>
<path d="M156.441 307.933L156 324.882L160.54 325L160.981 308.051L156.441 307.933Z" fill="url(#paint1_linear_699_274)"/>
<path d="M146.54 307.196L144.938 324.075L149.459 324.504L151.061 307.625L146.54 307.196Z" fill="url(#paint2_linear_699_274)"/>
<path d="M136.707 305.752L133.958 322.482L138.439 323.219L141.188 306.488L136.707 305.752Z" fill="url(#paint3_linear_699_274)"/>
<path d="M126.991 303.669L123.105 320.172L127.526 321.213L131.412 304.71L126.991 303.669Z" fill="url(#paint4_linear_699_274)"/>
<path d="M117.435 300.885L112.436 317.086L116.775 318.425L121.774 302.224L117.435 300.885Z" fill="url(#paint5_linear_699_274)"/>
<path d="M108.086 297.504L101.994 313.326L106.232 314.958L112.324 299.136L108.086 297.504Z" fill="url(#paint6_linear_699_274)"/>
<path d="M99.0129 293.455L91.8556 308.825L95.9725 310.742L103.13 295.372L99.0129 293.455Z" fill="url(#paint7_linear_699_274)"/>
<path d="M90.2076 288.847L82.0163 303.692L85.9926 305.886L94.1838 291.041L90.2076 288.847Z" fill="url(#paint8_linear_699_274)"/>
<path d="M81.7633 283.625L72.5789 297.876L76.3963 300.337L85.5807 286.085L81.7633 283.625Z" fill="url(#paint9_linear_699_274)"/>
<path d="M73.6956 277.808L63.5608 291.4L67.2015 294.115L77.3363 280.523L73.6956 277.808Z" fill="url(#paint10_linear_699_274)"/>
<path d="M66.0212 271.501L54.9809 284.369L58.4275 287.326L69.4678 274.459L66.0212 271.501Z" fill="url(#paint11_linear_699_274)"/>
<path d="M58.8043 264.652L46.9122 276.737L50.1492 279.922L62.0412 267.837L58.8043 264.652Z" fill="url(#paint12_linear_699_274)"/>
<path d="M52.0918 257.332L39.4034 268.577L42.4156 271.976L55.1039 260.731L52.0918 257.332Z" fill="url(#paint13_linear_699_274)"/>
<path d="M45.8642 249.556L32.4385 259.91L35.2119 263.506L48.6376 253.152L45.8642 249.556Z" fill="url(#paint14_linear_699_274)"/>
<path d="M40.1858 241.423L26.0837 250.835L28.6048 254.612L42.7069 245.2L40.1858 241.423Z" fill="url(#paint15_linear_699_274)"/>
<path d="M35.0946 232.877L20.3835 241.306L22.6412 245.246L37.3523 236.818L35.0946 232.877Z" fill="url(#paint16_linear_699_274)"/>
<path d="M30.6044 224.016L15.3528 231.421L17.3365 235.507L32.5881 228.101L30.6044 224.016Z" fill="url(#paint17_linear_699_274)"/>
<path d="M26.695 214.884L10.9728 221.229L12.6726 225.441L28.3948 219.095L26.695 214.884Z" fill="url(#paint18_linear_699_274)"/>
<path d="M23.4403 205.491L7.32196 210.75L8.7306 215.067L24.8489 209.808L23.4403 205.491Z" fill="url(#paint19_linear_699_274)"/>
<path d="M20.8332 195.894L4.39383 200.041L5.50479 204.445L21.9442 200.297L20.8332 195.894Z" fill="url(#paint20_linear_699_274)"/>
<path d="M18.869 186.152L2.18455 189.166L2.99188 193.635L19.6764 190.621L18.869 186.152Z" fill="url(#paint21_linear_699_274)"/>
<path d="M17.6058 176.291L0.754623 178.161L1.25533 182.674L18.1065 180.805L17.6058 176.291Z" fill="url(#paint22_linear_699_274)"/>
<path d="M16.9945 166.379L0.0550632 167.095L0.246821 171.632L17.1862 170.916L16.9945 166.379Z" fill="url(#paint23_linear_699_274)"/>
<path d="M0.118087 155.97L0 160.51L16.9488 160.951L17.0669 156.411L0.118087 155.97Z" fill="url(#paint24_linear_699_274)"/>
<path d="M0.949403 144.94L0.521232 149.461L17.4002 151.06L17.8284 146.538L0.949403 144.94Z" fill="url(#paint25_linear_699_274)"/>
<path d="M2.52606 133.932L1.79059 138.413L18.5213 141.159L19.2568 136.678L2.52606 133.932Z" fill="url(#paint26_linear_699_274)"/>
<path d="M4.83895 123.083L3.7996 127.504L20.3042 131.384L21.3435 126.963L4.83895 123.083Z" fill="url(#paint27_linear_699_274)"/>
<path d="M7.90506 112.441L6.56592 116.78L22.7666 121.78L24.1057 117.44L7.90506 112.441Z" fill="url(#paint28_linear_699_274)"/>
<path d="M11.682 101.975L10.0501 106.213L25.8721 112.306L27.5041 108.068L11.682 101.975Z" fill="url(#paint29_linear_699_274)"/>
<path d="M16.1624 91.8339L14.2453 95.9508L29.615 103.108L31.5322 98.9911L16.1624 91.8339Z" fill="url(#paint30_linear_699_274)"/>
<path d="M21.339 82.0252L19.145 86.0014L33.9895 94.1926L36.1836 90.2164L21.339 82.0252Z" fill="url(#paint31_linear_699_274)"/>
<path d="M27.1486 72.5731L24.6885 76.3905L38.9399 85.5749L41.4 81.7575L27.1486 72.5731Z" fill="url(#paint32_linear_699_274)"/>
<path d="M33.6022 63.5405L30.8875 67.1812L44.4795 77.316L47.1941 73.6753L33.6022 63.5405Z" fill="url(#paint33_linear_699_274)"/>
<path d="M40.6575 54.9849L37.7003 58.4315L50.5676 69.4718L53.5248 66.0252L40.6575 54.9849Z" fill="url(#paint34_linear_699_274)"/>
<path d="M48.2669 46.9194L45.0815 50.1564L57.166 62.0484L60.3514 58.8115L48.2669 46.9194Z" fill="url(#paint35_linear_699_274)"/>
<path d="M56.4322 39.3871L53.0335 42.3993L64.279 55.0877L67.6777 52.0755L56.4322 39.3871Z" fill="url(#paint36_linear_699_274)"/>
<path d="M65.0816 32.4315L61.4849 35.2043L71.8367 48.6317L75.4333 45.8589L65.0816 32.4315Z" fill="url(#paint37_linear_699_274)"/>
<path d="M74.1772 26.092L70.3999 28.6131L79.8119 42.7152L83.5892 40.1941L74.1772 26.092Z" fill="url(#paint38_linear_699_274)"/>
<path d="M83.693 20.3677L79.7526 22.6254L88.1811 37.3364L92.1216 35.0788L83.693 20.3677Z" fill="url(#paint39_linear_699_274)"/>
<path d="M93.5887 15.3397L89.5031 17.3226L96.9062 32.5755L100.992 30.5925L93.5887 15.3397Z" fill="url(#paint40_linear_699_274)"/>
<path d="M103.789 10.9767L99.5782 12.6765L105.924 28.3987L110.135 26.6989L103.789 10.9767Z" fill="url(#paint41_linear_699_274)"/>
<path d="M114.263 7.3146L109.945 8.72324L115.204 24.8415L119.522 23.4329L114.263 7.3146Z" fill="url(#paint42_linear_699_274)"/>
<path d="M124.965 4.37517L120.562 5.48614L124.709 21.9255L129.113 20.8146L124.965 4.37517Z" fill="url(#paint43_linear_699_274)"/>
<path d="M135.842 2.1784L131.373 2.98651L134.39 19.6705L138.859 18.8624L135.842 2.1784Z" fill="url(#paint44_linear_699_274)"/>
<path d="M146.852 0.749802L142.338 1.25051L144.208 18.1017L148.721 17.601L146.852 0.749802Z" fill="url(#paint45_linear_699_274)"/>
<path d="M157.914 0.0584612L153.377 0.250219L154.092 17.1896L158.63 16.9979L157.914 0.0584612Z" fill="url(#paint46_linear_699_274)"/>
<path d="M164.475 0L164.034 16.9488L168.574 17.0669L169.014 0.118087L164.475 0Z" fill="url(#paint47_linear_699_274)"/>
<path d="M175.57 0.51606L173.969 17.3948L178.49 17.8238L180.092 0.945021L175.57 0.51606Z" fill="url(#paint48_linear_699_274)"/>
<path d="M186.601 1.78486L183.853 18.5151L188.334 19.2513L191.083 2.52111L186.601 1.78486Z" fill="url(#paint49_linear_699_274)"/>
<path d="M197.507 3.79756L193.621 20.3008L198.041 21.3416L201.927 4.83844L197.507 3.79756Z" fill="url(#paint50_linear_699_274)"/>
<path d="M208.23 6.54142L203.231 22.7421L207.57 24.0812L212.57 7.88056L208.23 6.54142Z" fill="url(#paint51_linear_699_274)"/>
<path d="M218.794 10.0466L212.702 25.8687L216.94 27.5006L223.033 11.6786L218.794 10.0466Z" fill="url(#paint52_linear_699_274)"/>
<path d="M229.031 14.2309L221.874 29.6006L225.991 31.5178L233.148 16.148L229.031 14.2309Z" fill="url(#paint53_linear_699_274)"/>
<path d="M239.037 19.1254L230.846 33.9699L234.822 36.164L243.013 21.3195L239.037 19.1254Z" fill="url(#paint54_linear_699_274)"/>
<path d="M248.62 24.6827L239.435 38.9341L243.252 41.3942L252.437 27.1428L248.62 24.6827Z" fill="url(#paint55_linear_699_274)"/>
<path d="M257.821 30.8823L247.686 44.4743L251.327 47.189L261.462 33.597L257.821 30.8823Z" fill="url(#paint56_linear_699_274)"/>
<path d="M266.595 37.7042L255.554 50.5715L259.001 53.5288L270.041 40.6614L266.595 37.7042Z" fill="url(#paint57_linear_699_274)"/>
<path d="M274.873 45.0993L262.981 57.1839L266.218 60.3692L278.11 48.2847L274.873 45.0993Z" fill="url(#paint58_linear_699_274)"/>
<path d="M282.61 53.0323L269.922 64.2778L272.934 67.6765L285.623 56.431L282.61 53.0323Z" fill="url(#paint59_linear_699_274)"/>
<path d="M289.797 61.462L276.371 71.8161L279.145 75.4123L292.57 65.0582L289.797 61.462Z" fill="url(#paint60_linear_699_274)"/>
<path d="M296.399 70.4082L282.297 79.8203L284.818 83.5976L298.92 74.1855L296.399 70.4082Z" fill="url(#paint61_linear_699_274)"/>
<path d="M302.389 79.767L287.677 88.1955L289.935 92.136L304.646 83.7075L302.389 79.767Z" fill="url(#paint62_linear_699_274)"/>
<path d="M307.683 89.4688L292.431 96.8746L294.415 100.96L309.667 93.5541L307.683 89.4688Z" fill="url(#paint63_linear_699_274)"/>
<path d="M312.342 99.5821L296.62 105.928L298.32 110.139L314.042 103.793L312.342 99.5821Z" fill="url(#paint64_linear_699_274)"/>
<path d="M316.289 109.953L300.171 115.212L301.58 119.529L317.698 114.271L316.289 109.953Z" fill="url(#paint65_linear_699_274)"/>
<path d="M319.513 120.587L303.073 124.732L304.183 129.136L320.623 124.991L319.513 120.587Z" fill="url(#paint66_linear_699_274)"/>
<path d="M322.017 131.379L305.333 134.393L306.14 138.862L322.825 135.848L322.017 131.379Z" fill="url(#paint67_linear_699_274)"/>
<path d="M323.762 142.333L306.911 144.203L307.412 148.716L324.263 146.847L323.762 142.333Z" fill="url(#paint68_linear_699_274)"/>
<path d="M324.749 153.392L307.81 154.105L308.001 158.643L324.94 157.93L324.749 153.392Z" fill="url(#paint69_linear_699_274)"/>
<path d="M308.051 164.019L307.933 168.558L324.882 168.999L325 164.459L308.051 164.019Z" fill="url(#paint70_linear_699_274)"/>
<path d="M307.622 173.961L307.194 178.482L324.073 180.08L324.501 175.559L307.622 173.961Z" fill="url(#paint71_linear_699_274)"/>
<path d="M306.522 183.849L305.786 188.33L322.516 191.079L323.252 186.598L306.522 183.849Z" fill="url(#paint72_linear_699_274)"/>
<path d="M304.69 193.596L303.65 198.017L320.155 201.897L321.194 197.476L304.69 193.596Z" fill="url(#paint73_linear_699_274)"/>
<path d="M302.264 203.251L300.925 207.59L317.125 212.59L318.464 208.25L302.264 203.251Z" fill="url(#paint74_linear_699_274)"/>
<path d="M299.139 212.683L297.507 216.921L313.329 223.014L314.961 218.776L299.139 212.683Z" fill="url(#paint75_linear_699_274)"/>
<path d="M295.395 221.881L293.478 225.998L308.848 233.155L310.765 229.038L295.395 221.881Z" fill="url(#paint76_linear_699_274)"/>
<path d="M291.061 230.854L288.867 234.831L303.711 243.022L305.905 239.046L291.061 230.854Z" fill="url(#paint77_linear_699_274)"/>
<path d="M286.076 239.429L283.616 243.247L297.867 252.431L300.327 248.614L286.076 239.429Z" fill="url(#paint78_linear_699_274)"/>
<path d="M280.543 247.681L277.828 251.322L291.42 261.457L294.135 257.816L280.543 247.681Z" fill="url(#paint79_linear_699_274)"/>
<path d="M274.455 255.574L271.497 259.02L284.365 270.06L287.322 266.614L274.455 255.574Z" fill="url(#paint80_linear_699_274)"/>
<path d="M267.845 262.962L264.66 266.199L276.745 278.091L279.93 274.854L267.845 262.962Z" fill="url(#paint81_linear_699_274)"/>
<path d="M260.747 269.906L257.348 272.918L268.594 285.606L271.992 282.594L260.747 269.906Z" fill="url(#paint82_linear_699_274)"/>
<path d="M253.177 276.416L249.58 279.189L259.932 292.616L263.529 289.844L253.177 276.416Z" fill="url(#paint83_linear_699_274)"/>
<path d="M245.192 282.305L241.414 284.826L250.826 298.928L254.604 296.407L245.192 282.305Z" fill="url(#paint84_linear_699_274)"/>
<path d="M236.833 287.647L232.893 289.904L241.322 304.615L245.262 302.358L236.833 287.647Z" fill="url(#paint85_linear_699_274)"/>
<path d="M228.102 292.461L224.017 294.444L231.42 309.696L235.505 307.713L228.102 292.461Z" fill="url(#paint86_linear_699_274)"/>
<path d="M219.076 296.639L214.864 298.339L221.21 314.061L225.422 312.361L219.076 296.639Z" fill="url(#paint87_linear_699_274)"/>
<path d="M209.816 300.149L205.498 301.557L210.757 317.676L215.075 316.267L209.816 300.149Z" fill="url(#paint88_linear_699_274)"/>
<path d="M200.316 303.062L195.912 304.173L200.06 320.613L204.463 319.502L200.316 303.062Z" fill="url(#paint89_linear_699_274)"/>
<path d="M190.618 305.335L186.149 306.143L189.163 322.827L193.633 322.02L190.618 305.335Z" fill="url(#paint90_linear_699_274)"/>
<path d="M180.81 306.906L176.296 307.407L178.166 324.258L182.679 323.757L180.81 306.906Z" fill="url(#paint91_linear_699_274)"/>
<path d="M91.306 147.04C90.322 146.858 89.656 147.403 89.4592 148.478L89.0807 150.507L92.1689 151.082L92.5473 149.053C92.7441 147.964 92.29 147.222 91.306 147.04Z" fill="url(#paint92_linear_699_274)"/>
<path d="M44.454 160.24C42.0319 160.301 40.6997 161.921 40.7603 164.615L40.8814 169.641L48.5715 169.459L48.4504 164.434C48.3898 161.739 46.9215 160.165 44.454 160.225V160.24Z" fill="url(#paint93_linear_699_274)"/>
<path d="M233.664 179.42C234.632 179.617 235.314 179.102 235.541 178.012L235.964 175.999L232.876 175.363L232.452 177.377C232.225 178.451 232.664 179.223 233.664 179.42Z" fill="url(#paint94_linear_699_274)"/>
<path d="M206.037 66.9451C210.094 68.7919 214.105 66.9148 216.225 62.2372C218.374 57.5141 217.133 53.3209 213.061 51.4741C208.989 49.6272 205.022 51.4438 202.873 56.182C200.723 60.905 201.965 65.0982 206.037 66.9451Z" fill="url(#paint95_linear_699_274)"/>
<path d="M90.428 173.819C90.1858 173.94 89.8982 174.077 89.7014 174.137C89.8982 174.137 90.2009 174.182 90.4885 174.228L93.8492 174.833L93.4253 172.169L90.428 173.804V173.819Z" fill="url(#paint96_linear_699_274)"/>
<path d="M107.095 201.113L101.691 205.155L102.69 206.502C103.886 208.092 105.627 208.303 107.292 207.062C108.987 205.806 109.275 204.035 108.033 202.385L107.095 201.113Z" fill="url(#paint97_linear_699_274)"/>
<path d="M178.803 228.089C177.032 228.528 176.215 230.117 176.714 232.176C177.214 234.235 178.682 235.264 180.454 234.84C182.225 234.401 183.042 232.782 182.543 230.753C182.028 228.694 180.575 227.665 178.803 228.089Z" fill="url(#paint98_linear_699_274)"/>
<path d="M45.6347 134.627C46.0586 134.839 46.7247 135.202 47.3302 135.581L54.3239 140.092L55.8529 133.673L47.5572 134.566C46.8912 134.612 46.1343 134.672 45.6347 134.627Z" fill="url(#paint99_linear_699_274)"/>
<path d="M162.651 113.055C135.388 113.055 113.211 135.248 113.211 162.511C113.211 189.775 135.388 211.952 162.651 211.952C189.915 211.952 212.107 189.775 212.107 162.511C212.107 135.248 189.915 113.055 162.651 113.055ZM181.014 161.391C181.014 162.102 180.968 162.799 180.893 163.495C180.211 169.626 176.487 174.864 171.295 177.664C168.691 179.072 165.724 179.859 162.56 179.859C157.247 179.859 152.433 177.589 149.057 173.986C148.361 173.244 147.725 172.442 147.165 171.579C145.227 168.657 144.092 165.145 144.092 161.406C144.092 160.922 144.107 160.437 144.153 159.953C145.682 161.391 147.392 162.662 149.209 163.768C150.329 170.11 155.885 174.955 162.56 174.955C164.544 174.955 166.436 174.531 168.146 173.743C172.854 171.624 176.124 166.886 176.124 161.391C176.124 160.846 176.094 160.331 176.033 159.817C175.791 157.712 175.064 155.744 173.959 154.049C173.641 153.549 173.293 153.08 172.915 152.626C170.417 149.689 166.708 147.827 162.56 147.827C160.275 147.827 158.125 148.403 156.248 149.402C154.764 148.191 153.796 146.889 153.387 145.39C156.097 143.831 159.23 142.938 162.56 142.938C165.891 142.938 169.1 143.846 171.825 145.435C175.216 147.403 177.925 150.431 179.5 154.064C180.484 156.32 181.014 158.802 181.014 161.406V161.391ZM160.093 129.707C164.665 129.707 170.75 130.691 175.67 134.264V129.707H179.152V146.329H175.67V144.648C175.488 144.028 175.261 143.422 175.019 142.832C172.733 137.397 168.116 133.295 160.714 133.295C153.311 133.295 149.496 137.836 149.254 143.256C149.254 143.437 149.254 143.604 149.254 143.785C149.254 144.618 149.345 145.405 149.512 146.147C149.86 147.736 150.601 149.099 151.616 150.34C151.979 150.794 152.403 151.248 152.857 151.657C153.069 151.854 153.281 152.051 153.523 152.248C154.265 152.868 155.067 153.459 155.945 154.004C158.398 155.578 161.319 156.925 164.301 158.303C166.95 159.484 169.645 160.71 172.173 162.102C171.961 164.903 170.553 167.446 168.328 169.111C166.042 167.688 163.408 166.447 160.729 165.191C157.686 163.813 154.583 162.42 151.767 160.74C151.389 160.513 151.01 160.286 150.647 160.044C149.845 159.529 149.073 158.969 148.346 158.394C147.892 158.045 147.438 157.652 147.029 157.258C143.956 154.382 141.912 150.688 141.912 145.481C141.912 139.38 145.591 129.722 160.108 129.722L160.093 129.707ZM162.409 195.3C157.141 195.3 151.116 193.832 146.726 190.895V195.3H143.244V178.678H146.726V182.115C149.451 188.321 155.506 191.515 162.772 191.515C170.039 191.515 175.67 187.58 175.67 180.313C175.67 180.041 175.67 179.768 175.64 179.511C178.395 177.528 180.62 174.97 182.21 172.048C182.951 173.865 183.375 175.908 183.375 178.255C183.375 188.2 175.746 195.285 162.394 195.285L162.409 195.3Z" fill="url(#paint100_linear_699_274)"/>
<path d="M144.168 228.21C144.077 228.376 143.91 228.649 143.744 228.891L141.776 231.676L144.38 232.403L144.153 228.997C144.153 228.725 144.138 228.407 144.153 228.21H144.168Z" fill="url(#paint101_linear_699_274)"/>
<path d="M209.11 218.582C209.836 219.4 210.714 219.415 211.592 218.658L212.985 217.432L210.729 214.858L209.352 216.069C208.459 216.856 208.398 217.765 209.11 218.582Z" fill="url(#paint102_linear_699_274)"/>
<path d="M204.22 268.22L210.275 265.616L204.614 259.5C204.175 259.001 203.675 258.41 203.418 257.986C203.509 258.456 203.615 259.212 203.66 259.909L204.22 268.22Z" fill="url(#paint103_linear_699_274)"/>
<path d="M225.701 125.559C225.883 125.363 226.095 125.12 226.261 124.999C226.079 125.06 225.777 125.151 225.489 125.196L222.144 125.862L223.521 128.178L225.701 125.559Z" fill="url(#paint104_linear_699_274)"/>
<path d="M267.694 160.361C267.785 164.827 271.206 167.613 276.337 167.507C281.53 167.401 284.769 164.464 284.663 159.998C284.573 155.532 281.212 152.747 276.02 152.853C270.827 152.959 267.588 155.896 267.694 160.361Z" fill="url(#paint105_linear_699_274)"/>
<path d="M151.207 263.936C146.772 263.436 143.562 266.403 142.987 271.565C142.412 276.727 144.894 280.33 149.33 280.814C153.765 281.299 156.99 278.286 157.55 273.185C158.125 268.023 155.642 264.42 151.207 263.936Z" fill="url(#paint106_linear_699_274)"/>
<path d="M151.555 95.798C153.357 95.4953 154.295 93.9512 153.947 91.8773C153.599 89.7731 152.221 88.6378 150.42 88.9405C148.618 89.2433 147.68 90.7571 148.028 92.8613C148.376 94.9503 149.754 96.1008 151.555 95.798Z" fill="url(#paint107_linear_699_274)"/>
<path d="M303.631 162.511C303.631 84.6565 240.521 21.5311 162.651 21.5311C84.7815 21.5311 21.6864 84.6413 21.6864 162.511C21.6864 240.381 84.7967 303.491 162.666 303.491C240.536 303.491 303.646 240.381 303.646 162.511H303.631ZM285.299 190.865L265.62 197.253L282.241 201.87L281.121 205.912L257.672 199.387L258.793 195.345L278.472 188.927L261.85 184.31L262.971 180.268L286.419 186.792L285.284 190.865H285.299ZM288.751 159.923C288.902 166.886 283.846 171.851 276.428 172.003C269.041 172.169 263.743 167.416 263.591 160.422C263.44 153.459 268.496 148.569 275.914 148.402C283.301 148.236 288.599 152.959 288.751 159.907V159.923ZM285.541 136.005L261.835 141.56L260.866 137.412L284.573 131.857L285.541 136.005ZM274.551 104.593L281.863 121.608L278.245 123.152L275.429 116.598L256.673 124.651L254.993 120.73L273.749 112.677L270.933 106.122L274.551 104.578V104.593ZM243.957 87.5781L256.174 78.1169L258.777 81.4927L246.773 90.7874C244.003 92.937 243.639 95.6164 245.759 98.3564C247.878 101.096 250.618 101.414 253.358 99.2949L265.362 90.0002L267.966 93.376L255.75 102.837C251.254 106.319 246.122 105.577 242.489 100.884C238.886 96.2219 239.416 91.0901 243.942 87.5781H243.957ZM240.082 63.6147L227.26 79.4944L235.177 85.8978L232.71 88.9557L221.477 79.8729L236.782 60.9504L240.097 63.6298L240.082 63.6147ZM198.816 54.3503C201.874 47.6139 208.413 44.889 214.756 47.7652C221.099 50.6415 223.385 57.3476 220.312 64.1143C217.254 70.8507 210.684 73.5755 204.311 70.6841C197.968 67.8079 195.743 61.1169 198.816 54.3654V54.3503ZM171.356 54.5925L175.564 55.2737C175.261 57.3173 176.714 58.8008 179.409 59.2398C182.21 59.694 184.177 58.7706 184.511 56.7572C184.768 55.1526 184.102 54.0626 182.21 53.3057L178.531 51.8222C174.595 50.2782 172.839 47.5836 173.445 43.9051C174.126 39.6967 178.092 37.3352 183.148 38.1678C188.007 38.9549 190.657 42.1642 190.081 46.5239L185.873 45.8427C186.115 43.7537 184.828 42.3004 182.467 41.9069C179.878 41.483 177.986 42.467 177.668 44.4652C177.396 46.1758 178.153 47.2808 180.09 48.068L183.738 49.5061C187.705 51.0653 189.37 53.4874 188.779 57.0751C188.053 61.5408 184.102 63.8721 178.803 63.0092C173.672 62.1766 170.765 58.8917 171.371 54.5773L171.356 54.5925ZM136.947 39.1972C142.578 38.0013 147.483 40.3931 149.375 45.3432L144.985 46.2817C143.577 43.6931 140.868 42.5578 137.704 43.239C133.299 44.1775 131.21 47.9469 132.285 53.0333C133.359 58.0742 136.841 60.7385 141.216 59.8151C144.44 59.1339 146.56 56.9086 146.772 54.1081L151.101 53.1846C151.252 58.3921 147.589 62.6459 141.958 63.8418C135.024 65.3102 129.499 61.45 127.925 53.987C126.35 46.5996 129.968 40.6807 136.947 39.2123V39.1972ZM113.952 46.751L123.762 69.019L119.856 70.7296L110.047 48.4616L113.952 46.751ZM89.3532 60.0421C93.8643 56.7875 99.2383 56.8935 102.705 60.5114L99.0566 63.1454C96.7557 61.2683 93.9854 61.6316 91.6088 63.3422C87.688 66.173 87.4912 70.6236 90.5642 74.8925C93.7432 79.2977 98.0121 79.8729 101.66 77.2389C105.097 74.7714 105.808 71.3805 103.537 68.2167L103.477 68.141L97.4974 72.4401L95.3024 69.3823L104.491 62.767L112.499 73.8783L109.578 75.9824L107.731 73.8631C107.731 76.149 106.262 78.8284 103.583 80.7509C98.0424 84.7473 91.2757 83.506 86.9008 77.4205C82.5714 71.4259 83.4191 64.3262 89.3683 60.0421H89.3532ZM70.3399 76.9815L73.3826 79.4642L66.51 87.8657L71.3541 91.8319L77.5153 84.3083L80.4218 86.685L74.2606 94.2086L79.2562 98.2958L86.1288 89.8942L89.1715 92.3769L79.6043 104.079L60.7576 88.6681L70.3248 76.9664L70.3399 76.9815ZM53.8698 98.9467L57.3969 100.688L54.2482 107.091L72.5652 116.098L70.6881 119.928L52.3711 110.921L49.2224 117.309L45.6953 115.583L53.8698 98.9619V98.9467ZM40.8965 131.251L66.616 128.36L65.5714 132.735L59.6374 133.34L57.518 142.181L62.5287 145.405L61.4993 149.704L39.8672 135.505L40.8814 131.266L40.8965 131.251ZM36.9607 164.721C36.8396 159.196 39.5493 155.896 44.348 155.79C47.6178 155.714 49.9793 157.198 51.2055 160.028L61.0906 155.169L61.1966 159.832L52.2046 164.161L52.3257 169.384L61.4085 169.172L61.4993 173.426L37.1726 173.986L36.9607 164.706V164.721ZM43.7273 204.534L38.8832 186.656L42.6828 185.627L44.5448 192.515L64.2544 187.171L65.3746 191.288L45.665 196.632L47.527 203.505L43.7273 204.534ZM71.4904 221.383L69.477 217.628C71.2785 216.629 71.5812 214.571 70.2945 212.164C68.9623 209.666 67.0247 208.667 65.2384 209.62C63.8003 210.393 63.3462 211.573 63.9063 213.541L64.9659 217.356C66.1164 221.428 65.0567 224.456 61.7718 226.212C58.0176 228.225 53.7335 226.499 51.3115 221.988C48.9802 217.644 49.9188 213.587 53.7335 211.392L55.7469 215.146C53.9455 216.221 53.567 218.128 54.6872 220.247C55.9285 222.563 57.8511 223.472 59.6374 222.518C61.1663 221.701 61.575 220.429 61.03 218.416L59.9552 214.646C58.7896 210.544 59.713 207.759 62.9072 206.033C66.9036 203.898 71.1573 205.624 73.6854 210.362C76.1377 214.949 75.3052 219.248 71.4904 221.398V221.383ZM111.939 256.488L108.23 253.96C109.214 251.159 107.927 248.676 105.505 247.026C101.524 244.302 97.2704 245.634 94.3033 249.978C91.2454 254.459 92.1537 258.668 95.8625 261.211C99.3594 263.603 102.781 263.118 104.976 259.909L105.036 259.833L98.9658 255.685L101.085 252.582L110.425 258.97L102.705 270.263L99.7378 268.235L101.1 265.782C98.9507 266.57 95.9382 266.085 93.2134 264.223C87.5821 260.378 86.4467 253.596 90.6702 247.405C94.8331 241.304 101.797 239.684 107.837 243.817C112.423 246.951 114.149 252.037 111.939 256.533V256.488ZM128.273 280.678L114.694 275.713L123.05 252.855L127.047 254.323L120.038 273.488L129.605 276.984L128.258 280.678H128.273ZM162.015 273.715C161.198 281.057 155.779 285.689 148.83 284.917C141.912 284.145 137.719 278.483 138.536 271.096C139.354 263.754 144.728 259.122 151.646 259.894C158.564 260.666 162.818 266.342 162 273.715H162.015ZM162.651 252.188C113.211 252.188 72.989 211.967 72.989 162.526C72.989 113.086 113.211 72.8489 162.651 72.8489C212.092 72.8489 252.329 113.086 252.329 162.526C252.329 211.967 212.092 252.188 162.651 252.188ZM183.451 283.539L173.717 285.068L169.948 261.029L179.515 259.53C184.253 258.789 187.538 260.802 188.159 264.814C188.583 267.478 187.689 269.567 185.57 270.884C188.234 271.308 189.809 273.018 190.248 275.819C190.884 279.936 188.401 282.782 183.436 283.554L183.451 283.539ZM216.86 272.867L212.834 268.462L204.478 272.049L204.886 277.999L200.814 279.74L199.3 253.899L203.312 252.188L220.978 271.096L216.845 272.867H216.86ZM230.409 265.071L215.937 245.482L219.373 242.954L231.514 259.379L239.719 253.324L242.05 256.488L230.424 265.086L230.409 265.071ZM267.709 218.87C266.21 217.992 264.908 218.31 263.485 219.839L260.836 222.73C257.96 225.879 255.099 226.56 251.965 224.728C248.06 222.442 247.303 217.916 249.997 213.284C252.616 208.788 256.719 207.244 260.533 209.363L258.384 213.042C256.582 212.027 254.675 212.845 253.297 215.206C251.874 217.659 252.026 219.823 253.782 220.853C255.19 221.67 256.446 221.443 257.824 219.929L260.518 217.023C263.379 213.905 266.513 213.223 269.737 215.1C273.416 217.25 274.203 221.791 271.63 226.227C269.147 230.481 265.211 231.813 261.351 229.724L263.5 226.045C265.362 227.014 267.179 226.348 268.39 224.274C269.722 222.003 269.48 219.899 267.724 218.87H267.709Z" fill="url(#paint108_linear_699_274)"/>
<path d="M183.92 265.888C183.602 263.814 182.104 262.906 179.742 263.269L174.747 264.057L175.776 270.596L180.877 269.794C183.178 269.431 184.268 268.023 183.935 265.873L183.92 265.888Z" fill="url(#paint109_linear_699_274)"/>
<path d="M162.651 75.8613C114.876 75.8613 76.0166 114.736 76.0166 162.511C76.0166 210.287 114.876 249.146 162.651 249.146C210.427 249.146 249.301 210.287 249.301 162.511C249.301 114.736 210.427 75.8613 162.651 75.8613ZM237.554 149.053L233.482 149.659L234.133 154.019L238.205 153.413L238.462 155.139L228.623 156.607L228.365 154.882L232.543 154.261L231.892 149.901L227.714 150.522L227.457 148.796L237.297 147.328L237.554 149.053ZM234.118 136.443C235.117 139.214 233.891 141.802 231.09 142.817C228.335 143.801 225.746 142.62 224.778 139.895L223.566 136.519L232.937 133.159L234.118 136.443ZM227.714 123.107L228.623 124.636L221.871 132.795L220.932 131.206L222.507 129.344L220.615 126.135L218.223 126.619L217.299 125.06L227.714 123.092V123.107ZM222.567 115.553L221.341 116.598L218.45 113.222L216.497 114.887L219.086 117.915L217.92 118.914L215.331 115.886L213.318 117.612L216.209 120.988L214.983 122.032L210.957 117.339L218.526 110.86L222.552 115.553H222.567ZM209.912 102.883L211.244 104.018L205.84 110.376L209.019 113.07L207.974 114.297L203.478 110.467L209.927 102.883H209.912ZM190.369 91.5443L191.943 92.2558L193.275 100.612L196.197 94.1934L197.756 94.9049L193.639 103.973L192.079 103.261L190.732 94.9049L187.811 101.323L186.251 100.612L190.369 91.5443ZM178.183 87.9868L184.177 89.4704L183.784 91.0296L179.47 89.9548L178.849 92.4374L182.709 93.3911L182.346 94.8898L178.486 93.9361L177.85 96.4944L182.164 97.5692L181.771 99.1284L175.776 97.6449L178.168 87.9868H178.183ZM161.501 86.3065L163.181 86.3974L165.997 94.4659L169.6 86.7001L171.31 86.791L170.826 96.7366L169.145 96.6458L169.297 93.5879C169.388 91.5897 169.418 90.9993 169.554 90.303L166.708 96.5398L165.104 96.4641L162.893 90.0002C162.954 90.6057 162.924 91.5443 162.863 92.7856L162.682 96.343L161.001 96.2673L161.486 86.3217L161.501 86.3065ZM150.193 87.3056C153.008 86.8364 155.309 88.6075 155.809 91.6048C156.308 94.587 154.689 97.0091 151.858 97.4784C149.042 97.9476 146.772 96.1765 146.272 93.1792C145.772 90.197 147.377 87.7749 150.193 87.3056ZM129.242 94.0118L132.708 98.2807C133.057 98.7197 133.405 99.1889 133.874 99.9307C133.692 99.0527 133.632 98.5077 133.571 97.9174L133.026 92.4526L134.797 91.7259L138.219 96.01C138.582 96.4641 138.945 96.9334 139.414 97.66C139.233 96.7366 139.157 96.1916 139.112 95.6618L138.597 90.1667L140.232 89.4855L141.216 99.855L139.657 100.491L134.934 94.587L135.675 102.111L134.086 102.762L127.561 94.6627L129.242 93.9663V94.0118ZM111.046 106.667L119.205 108.923L114.573 103.594L115.875 102.474L122.415 109.982L121.113 111.103L112.953 108.847L117.586 114.176L116.284 115.296L109.744 107.787L111.046 106.652V106.667ZM103.386 114.917L113.438 118.233L112.302 119.686L110.001 118.899L107.7 121.82L109.017 123.879L107.897 125.302L102.281 116.325L103.386 114.917ZM95.1813 127.119C96.2713 125.029 98.2997 124.106 100.359 124.787L99.5108 126.422C98.33 126.195 97.2552 126.755 96.6497 127.921C95.802 129.556 96.4529 131.191 98.33 132.175C100.207 133.159 101.948 132.75 102.796 131.13C103.416 129.934 103.265 128.693 102.448 127.891L103.28 126.286C104.96 127.603 105.354 129.858 104.264 131.948C102.917 134.521 100.268 135.248 97.4974 133.809C94.7575 132.371 93.834 129.692 95.1813 127.119ZM90.9578 137.216L100.374 140.425L99.8135 142.075L90.3977 138.866L90.9578 137.216ZM87.9756 148.221C88.3844 145.996 89.7619 144.906 91.6844 145.269C93.0015 145.511 93.8189 146.298 94.0762 147.54L98.436 146.419L98.0878 148.297L94.1217 149.281L93.7281 151.385L97.3915 152.066L97.0736 153.776L87.2793 151.96L87.9756 148.221ZM86.6889 158.045L88.2935 158.076L88.2178 162.496L90.9276 162.541L90.9881 158.833L92.5624 158.863L92.5019 162.572L96.574 162.647L96.5437 164.388L86.5829 164.222L86.6889 158.061V158.045ZM87.4155 173.622L96.6951 168.491L96.9827 170.307L94.8331 171.458L95.4235 175.136L97.8305 175.56L98.1181 177.346L87.7032 175.363L87.4155 173.592V173.622ZM97.0887 191.591L94.6969 192.711L96.574 196.738L95.1208 197.419L92.5019 191.803L101.539 187.595L104.143 193.211L102.69 193.892L100.813 189.865L98.4965 190.94L100.177 194.543L98.7842 195.194L97.1038 191.591H97.0887ZM108.427 208.546C106.081 210.302 103.265 209.923 101.524 207.607L99.3745 204.731L107.367 198.767L109.456 201.567C111.212 203.929 110.804 206.775 108.427 208.546ZM118.554 219.975C117.041 221.746 114.921 221.867 113.074 220.278C111.243 218.703 111.046 216.599 112.575 214.828L116.708 210.044L118.025 211.18L113.968 215.888C113.029 216.978 113.105 218.083 114.179 219.006C115.254 219.929 116.374 219.839 117.298 218.764L121.355 214.056L122.672 215.191L118.539 219.975H118.554ZM134.419 226.06L132.799 225.197C133.041 224.017 132.481 222.942 131.316 222.336C129.696 221.474 128.046 222.109 127.047 223.986C126.063 225.848 126.456 227.604 128.076 228.452C129.272 229.088 130.513 228.937 131.316 228.119L132.92 228.967C131.603 230.647 129.333 231.01 127.259 229.905C124.7 228.543 123.974 225.879 125.442 223.124C126.895 220.399 129.575 219.49 132.148 220.853C134.237 221.958 135.146 224.002 134.434 226.045L134.419 226.06ZM144.667 236.4L144.516 233.962L140.928 232.948L139.536 234.946L137.795 234.462L143.956 225.848L145.682 226.333L146.439 236.899L144.667 236.4ZM160.396 230.238L157.489 229.981L156.732 238.292L154.991 238.14L155.748 229.83L152.842 229.572L152.993 227.968L160.532 228.649L160.381 230.254L160.396 230.238ZM110.228 162.511C110.228 133.567 133.768 110.028 162.697 110.028C191.625 110.028 215.18 133.567 215.18 162.511C215.18 191.455 191.641 214.979 162.697 214.979C133.753 214.979 110.228 191.44 110.228 162.511ZM166.693 238.413L166.072 228.467L167.813 228.361L168.434 238.307L166.693 238.413ZM180.893 236.475C178.122 237.156 175.715 235.567 174.989 232.615C174.262 229.678 175.67 227.135 178.44 226.454C181.21 225.773 183.648 227.347 184.374 230.299C185.101 233.236 183.678 235.779 180.893 236.46V236.475ZM199.315 229.133L191.928 224.986L195.153 231.268L193.624 232.055L189.082 223.184L190.626 222.397L197.998 226.545L194.774 220.262L196.303 219.475L200.844 228.346L199.315 229.133ZM212.41 220.051C210.911 221.368 209.064 221.246 207.778 219.778C206.506 218.34 206.597 216.463 208.095 215.146L209.746 213.693L207.475 211.119L208.792 209.969L215.377 217.447L212.425 220.051H212.41ZM219.843 212.663L212.289 206.184L213.424 204.867L220.978 211.346L219.843 212.663ZM228.365 200.946L224.883 198.767L222.537 202.506L226.019 204.686L225.095 206.169L216.648 200.886L217.572 199.402L221.144 201.643L223.491 197.904L219.918 195.663L220.842 194.18L229.289 199.463L228.365 200.946ZM233.542 190.698C232.801 192.575 231.287 193.347 229.591 192.742L230.242 191.122C231.06 191.394 231.756 191.016 232.119 190.108C232.513 189.109 232.286 188.276 231.514 187.958C230.848 187.701 230.348 187.897 229.864 188.609L228.971 189.941C228.002 191.394 226.882 191.833 225.504 191.288C223.778 190.607 223.203 188.821 224.021 186.777C224.808 184.809 226.367 183.931 228.047 184.552L227.396 186.172C226.609 185.869 225.883 186.323 225.474 187.353C225.05 188.427 225.247 189.305 226.019 189.608C226.639 189.85 227.139 189.684 227.593 188.987L228.501 187.655C229.47 186.217 230.696 185.763 232.104 186.323C233.724 186.974 234.314 188.76 233.542 190.713V190.698ZM237.115 178.33C236.661 180.54 235.268 181.615 233.346 181.206C232.044 180.934 231.226 180.132 230.999 178.875L226.609 179.905L227.003 178.043L230.984 177.15L231.423 175.06L227.775 174.304L228.123 172.593L237.887 174.621L237.115 178.345V178.33ZM237.009 168.142L237.145 163.692L234.587 163.616L234.466 167.597L232.922 167.552L233.043 163.571L230.394 163.48L230.257 167.915L228.653 167.87L228.85 161.679L238.81 161.996L238.614 168.188L237.009 168.142Z" fill="url(#paint110_linear_699_274)"/>
<path d="M105.263 117.294C105.006 117.203 104.718 117.097 104.537 116.991C104.658 117.143 104.854 117.385 105.006 117.627L106.838 120.503L108.503 118.384L105.263 117.294Z" fill="url(#paint111_linear_699_274)"/>
<path d="M230.469 141.076C232.452 140.364 233.24 138.76 232.543 136.822L232.013 135.338L225.671 137.609L226.231 139.183C226.897 141.061 228.517 141.772 230.469 141.061V141.076Z" fill="url(#paint112_linear_699_274)"/>
<path d="M181.68 273.321L176.321 274.154L177.335 280.663L182.694 279.83C185.055 279.452 186.191 278.105 185.858 275.925C185.54 273.881 184.011 272.943 181.68 273.306V273.321Z" fill="url(#paint113_linear_699_274)"/>
<defs>
<linearGradient id="paint0_linear_699_274" x1="162.5" y1="0" x2="162.5" y2="355.431" gradientUnits="userSpaceOnUse">
<stop stop-color="white"/>
<stop offset="1" stop-color="white" stop-opacity="0.54"/>
</linearGradient>
<linearGradient id="paint1_linear_699_274" x1="162.5" y1="0" x2="162.5" y2="355.431" gradientUnits="userSpaceOnUse">
<stop stop-color="white"/>
<stop offset="1" stop-color="white" stop-opacity="0.54"/>
</linearGradient>
<linearGradient id="paint2_linear_699_274" x1="162.5" y1="0" x2="162.5" y2="355.431" gradientUnits="userSpaceOnUse">
<stop stop-color="white"/>
<stop offset="1" stop-color="white" stop-opacity="0.54"/>
</linearGradient>
<linearGradient id="paint3_linear_699_274" x1="162.5" y1="0" x2="162.5" y2="355.431" gradientUnits="userSpaceOnUse">
<stop stop-color="white"/>
<stop offset="1" stop-color="white" stop-opacity="0.54"/>
</linearGradient>
<linearGradient id="paint4_linear_699_274" x1="162.5" y1="0" x2="162.5" y2="355.431" gradientUnits="userSpaceOnUse">
<stop stop-color="white"/>
<stop offset="1" stop-color="white" stop-opacity="0.54"/>
</linearGradient>
<linearGradient id="paint5_linear_699_274" x1="162.5" y1="0" x2="162.5" y2="355.431" gradientUnits="userSpaceOnUse">
<stop stop-color="white"/>
<stop offset="1" stop-color="white" stop-opacity="0.54"/>
</linearGradient>
<linearGradient id="paint6_linear_699_274" x1="162.5" y1="0" x2="162.5" y2="355.431" gradientUnits="userSpaceOnUse">
<stop stop-color="white"/>
<stop offset="1" stop-color="white" stop-opacity="0.54"/>
</linearGradient>
<linearGradient id="paint7_linear_699_274" x1="162.5" y1="0" x2="162.5" y2="355.431" gradientUnits="userSpaceOnUse">
<stop stop-color="white"/>
<stop offset="1" stop-color="white" stop-opacity="0.54"/>
</linearGradient>
<linearGradient id="paint8_linear_699_274" x1="162.5" y1="0" x2="162.5" y2="355.431" gradientUnits="userSpaceOnUse">
<stop stop-color="white"/>
<stop offset="1" stop-color="white" stop-opacity="0.54"/>
</linearGradient>
<linearGradient id="paint9_linear_699_274" x1="162.5" y1="0" x2="162.5" y2="355.431" gradientUnits="userSpaceOnUse">
<stop stop-color="white"/>
<stop offset="1" stop-color="white" stop-opacity="0.54"/>
</linearGradient>
<linearGradient id="paint10_linear_699_274" x1="162.5" y1="0" x2="162.5" y2="355.431" gradientUnits="userSpaceOnUse">
<stop stop-color="white"/>
<stop offset="1" stop-color="white" stop-opacity="0.54"/>
</linearGradient>
<linearGradient id="paint11_linear_699_274" x1="162.5" y1="0" x2="162.5" y2="355.431" gradientUnits="userSpaceOnUse">
<stop stop-color="white"/>
<stop offset="1" stop-color="white" stop-opacity="0.54"/>
</linearGradient>
<linearGradient id="paint12_linear_699_274" x1="162.5" y1="0" x2="162.5" y2="355.431" gradientUnits="userSpaceOnUse">
<stop stop-color="white"/>
<stop offset="1" stop-color="white" stop-opacity="0.54"/>
</linearGradient>
<linearGradient id="paint13_linear_699_274" x1="162.5" y1="0" x2="162.5" y2="355.431" gradientUnits="userSpaceOnUse">
<stop stop-color="white"/>
<stop offset="1" stop-color="white" stop-opacity="0.54"/>
</linearGradient>
<linearGradient id="paint14_linear_699_274" x1="162.5" y1="0" x2="162.5" y2="355.431" gradientUnits="userSpaceOnUse">
<stop stop-color="white"/>
<stop offset="1" stop-color="white" stop-opacity="0.54"/>
</linearGradient>
<linearGradient id="paint15_linear_699_274" x1="162.5" y1="0" x2="162.5" y2="355.431" gradientUnits="userSpaceOnUse">
<stop stop-color="white"/>
<stop offset="1" stop-color="white" stop-opacity="0.54"/>
</linearGradient>
<linearGradient id="paint16_linear_699_274" x1="162.5" y1="0" x2="162.5" y2="355.431" gradientUnits="userSpaceOnUse">
<stop stop-color="white"/>
<stop offset="1" stop-color="white" stop-opacity="0.54"/>
</linearGradient>
<linearGradient id="paint17_linear_699_274" x1="162.5" y1="0" x2="162.5" y2="355.431" gradientUnits="userSpaceOnUse">
<stop stop-color="white"/>
<stop offset="1" stop-color="white" stop-opacity="0.54"/>
</linearGradient>
<linearGradient id="paint18_linear_699_274" x1="162.5" y1="0" x2="162.5" y2="355.431" gradientUnits="userSpaceOnUse">
<stop stop-color="white"/>
<stop offset="1" stop-color="white" stop-opacity="0.54"/>
</linearGradient>
<linearGradient id="paint19_linear_699_274" x1="162.5" y1="0" x2="162.5" y2="355.431" gradientUnits="userSpaceOnUse">
<stop stop-color="white"/>
<stop offset="1" stop-color="white" stop-opacity="0.54"/>
</linearGradient>
<linearGradient id="paint20_linear_699_274" x1="162.5" y1="0" x2="162.5" y2="355.431" gradientUnits="userSpaceOnUse">
<stop stop-color="white"/>
<stop offset="1" stop-color="white" stop-opacity="0.54"/>
</linearGradient>
<linearGradient id="paint21_linear_699_274" x1="162.5" y1="0" x2="162.5" y2="355.431" gradientUnits="userSpaceOnUse">
<stop stop-color="white"/>
<stop offset="1" stop-color="white" stop-opacity="0.54"/>
</linearGradient>
<linearGradient id="paint22_linear_699_274" x1="162.5" y1="0" x2="162.5" y2="355.431" gradientUnits="userSpaceOnUse">
<stop stop-color="white"/>
<stop offset="1" stop-color="white" stop-opacity="0.54"/>
</linearGradient>
<linearGradient id="paint23_linear_699_274" x1="162.5" y1="0" x2="162.5" y2="355.431" gradientUnits="userSpaceOnUse">
<stop stop-color="white"/>
<stop offset="1" stop-color="white" stop-opacity="0.54"/>
</linearGradient>
<linearGradient id="paint24_linear_699_274" x1="162.5" y1="0" x2="162.5" y2="355.431" gradientUnits="userSpaceOnUse">
<stop stop-color="white"/>
<stop offset="1" stop-color="white" stop-opacity="0.54"/>
</linearGradient>
<linearGradient id="paint25_linear_699_274" x1="162.5" y1="0" x2="162.5" y2="355.431" gradientUnits="userSpaceOnUse">
<stop stop-color="white"/>
<stop offset="1" stop-color="white" stop-opacity="0.54"/>
</linearGradient>
<linearGradient id="paint26_linear_699_274" x1="162.5" y1="0" x2="162.5" y2="355.431" gradientUnits="userSpaceOnUse">
<stop stop-color="white"/>
<stop offset="1" stop-color="white" stop-opacity="0.54"/>
</linearGradient>
<linearGradient id="paint27_linear_699_274" x1="162.5" y1="0" x2="162.5" y2="355.431" gradientUnits="userSpaceOnUse">
<stop stop-color="white"/>
<stop offset="1" stop-color="white" stop-opacity="0.54"/>
</linearGradient>
<linearGradient id="paint28_linear_699_274" x1="162.5" y1="0" x2="162.5" y2="355.431" gradientUnits="userSpaceOnUse">
<stop stop-color="white"/>
<stop offset="1" stop-color="white" stop-opacity="0.54"/>
</linearGradient>
<linearGradient id="paint29_linear_699_274" x1="162.5" y1="0" x2="162.5" y2="355.431" gradientUnits="userSpaceOnUse">
<stop stop-color="white"/>
<stop offset="1" stop-color="white" stop-opacity="0.54"/>
</linearGradient>
<linearGradient id="paint30_linear_699_274" x1="162.5" y1="0" x2="162.5" y2="355.431" gradientUnits="userSpaceOnUse">
<stop stop-color="white"/>
<stop offset="1" stop-color="white" stop-opacity="0.54"/>
</linearGradient>
<linearGradient id="paint31_linear_699_274" x1="162.5" y1="0" x2="162.5" y2="355.431" gradientUnits="userSpaceOnUse">
<stop stop-color="white"/>
<stop offset="1" stop-color="white" stop-opacity="0.54"/>
</linearGradient>
<linearGradient id="paint32_linear_699_274" x1="162.5" y1="0" x2="162.5" y2="355.431" gradientUnits="userSpaceOnUse">
<stop stop-color="white"/>
<stop offset="1" stop-color="white" stop-opacity="0.54"/>
</linearGradient>
<linearGradient id="paint33_linear_699_274" x1="162.5" y1="0" x2="162.5" y2="355.431" gradientUnits="userSpaceOnUse">
<stop stop-color="white"/>
<stop offset="1" stop-color="white" stop-opacity="0.54"/>
</linearGradient>
<linearGradient id="paint34_linear_699_274" x1="162.5" y1="0" x2="162.5" y2="355.431" gradientUnits="userSpaceOnUse">
<stop stop-color="white"/>
<stop offset="1" stop-color="white" stop-opacity="0.54"/>
</linearGradient>
<linearGradient id="paint35_linear_699_274" x1="162.5" y1="0" x2="162.5" y2="355.431" gradientUnits="userSpaceOnUse">
<stop stop-color="white"/>
<stop offset="1" stop-color="white" stop-opacity="0.54"/>
</linearGradient>
<linearGradient id="paint36_linear_699_274" x1="162.5" y1="0" x2="162.5" y2="355.431" gradientUnits="userSpaceOnUse">
<stop stop-color="white"/>
<stop offset="1" stop-color="white" stop-opacity="0.54"/>
</linearGradient>
<linearGradient id="paint37_linear_699_274" x1="162.5" y1="0" x2="162.5" y2="355.431" gradientUnits="userSpaceOnUse">
<stop stop-color="white"/>
<stop offset="1" stop-color="white" stop-opacity="0.54"/>
</linearGradient>
<linearGradient id="paint38_linear_699_274" x1="162.5" y1="0" x2="162.5" y2="355.431" gradientUnits="userSpaceOnUse">
<stop stop-color="white"/>
<stop offset="1" stop-color="white" stop-opacity="0.54"/>
</linearGradient>
<linearGradient id="paint39_linear_699_274" x1="162.5" y1="0" x2="162.5" y2="355.431" gradientUnits="userSpaceOnUse">
<stop stop-color="white"/>
<stop offset="1" stop-color="white" stop-opacity="0.54"/>
</linearGradient>
<linearGradient id="paint40_linear_699_274" x1="162.5" y1="0" x2="162.5" y2="355.431" gradientUnits="userSpaceOnUse">
<stop stop-color="white"/>
<stop offset="1" stop-color="white" stop-opacity="0.54"/>
</linearGradient>
<linearGradient id="paint41_linear_699_274" x1="162.5" y1="0" x2="162.5" y2="355.431" gradientUnits="userSpaceOnUse">
<stop stop-color="white"/>
<stop offset="1" stop-color="white" stop-opacity="0.54"/>
</linearGradient>
<linearGradient id="paint42_linear_699_274" x1="162.5" y1="0" x2="162.5" y2="355.431" gradientUnits="userSpaceOnUse">
<stop stop-color="white"/>
<stop offset="1" stop-color="white" stop-opacity="0.54"/>
</linearGradient>
<linearGradient id="paint43_linear_699_274" x1="162.5" y1="0" x2="162.5" y2="355.431" gradientUnits="userSpaceOnUse">
<stop stop-color="white"/>
<stop offset="1" stop-color="white" stop-opacity="0.54"/>
</linearGradient>
<linearGradient id="paint44_linear_699_274" x1="162.5" y1="0" x2="162.5" y2="355.431" gradientUnits="userSpaceOnUse">
<stop stop-color="white"/>
<stop offset="1" stop-color="white" stop-opacity="0.54"/>
</linearGradient>
<linearGradient id="paint45_linear_699_274" x1="162.5" y1="0" x2="162.5" y2="355.431" gradientUnits="userSpaceOnUse">
<stop stop-color="white"/>
<stop offset="1" stop-color="white" stop-opacity="0.54"/>
</linearGradient>
<linearGradient id="paint46_linear_699_274" x1="162.5" y1="0" x2="162.5" y2="355.431" gradientUnits="userSpaceOnUse">
<stop stop-color="white"/>
<stop offset="1" stop-color="white" stop-opacity="0.54"/>
</linearGradient>
<linearGradient id="paint47_linear_699_274" x1="162.5" y1="0" x2="162.5" y2="355.431" gradientUnits="userSpaceOnUse">
<stop stop-color="white"/>
<stop offset="1" stop-color="white" stop-opacity="0.54"/>
</linearGradient>
<linearGradient id="paint48_linear_699_274" x1="162.5" y1="0" x2="162.5" y2="355.431" gradientUnits="userSpaceOnUse">
<stop stop-color="white"/>
<stop offset="1" stop-color="white" stop-opacity="0.54"/>
</linearGradient>
<linearGradient id="paint49_linear_699_274" x1="162.5" y1="0" x2="162.5" y2="355.431" gradientUnits="userSpaceOnUse">
<stop stop-color="white"/>
<stop offset="1" stop-color="white" stop-opacity="0.54"/>
</linearGradient>
<linearGradient id="paint50_linear_699_274" x1="162.5" y1="0" x2="162.5" y2="355.431" gradientUnits="userSpaceOnUse">
<stop stop-color="white"/>
<stop offset="1" stop-color="white" stop-opacity="0.54"/>
</linearGradient>
<linearGradient id="paint51_linear_699_274" x1="162.5" y1="0" x2="162.5" y2="355.431" gradientUnits="userSpaceOnUse">
<stop stop-color="white"/>
<stop offset="1" stop-color="white" stop-opacity="0.54"/>
</linearGradient>
<linearGradient id="paint52_linear_699_274" x1="162.5" y1="0" x2="162.5" y2="355.431" gradientUnits="userSpaceOnUse">
<stop stop-color="white"/>
<stop offset="1" stop-color="white" stop-opacity="0.54"/>
</linearGradient>
<linearGradient id="paint53_linear_699_274" x1="162.5" y1="0" x2="162.5" y2="355.431" gradientUnits="userSpaceOnUse">
<stop stop-color="white"/>
<stop offset="1" stop-color="white" stop-opacity="0.54"/>
</linearGradient>
<linearGradient id="paint54_linear_699_274" x1="162.5" y1="0" x2="162.5" y2="355.431" gradientUnits="userSpaceOnUse">
<stop stop-color="white"/>
<stop offset="1" stop-color="white" stop-opacity="0.54"/>
</linearGradient>
<linearGradient id="paint55_linear_699_274" x1="162.5" y1="0" x2="162.5" y2="355.431" gradientUnits="userSpaceOnUse">
<stop stop-color="white"/>
<stop offset="1" stop-color="white" stop-opacity="0.54"/>
</linearGradient>
<linearGradient id="paint56_linear_699_274" x1="162.5" y1="0" x2="162.5" y2="355.431" gradientUnits="userSpaceOnUse">
<stop stop-color="white"/>
<stop offset="1" stop-color="white" stop-opacity="0.54"/>
</linearGradient>
<linearGradient id="paint57_linear_699_274" x1="162.5" y1="0" x2="162.5" y2="355.431" gradientUnits="userSpaceOnUse">
<stop stop-color="white"/>
<stop offset="1" stop-color="white" stop-opacity="0.54"/>
</linearGradient>
<linearGradient id="paint58_linear_699_274" x1="162.5" y1="0" x2="162.5" y2="355.431" gradientUnits="userSpaceOnUse">
<stop stop-color="white"/>
<stop offset="1" stop-color="white" stop-opacity="0.54"/>
</linearGradient>
<linearGradient id="paint59_linear_699_274" x1="162.5" y1="0" x2="162.5" y2="355.431" gradientUnits="userSpaceOnUse">
<stop stop-color="white"/>
<stop offset="1" stop-color="white" stop-opacity="0.54"/>
</linearGradient>
<linearGradient id="paint60_linear_699_274" x1="162.5" y1="0" x2="162.5" y2="355.431" gradientUnits="userSpaceOnUse">
<stop stop-color="white"/>
<stop offset="1" stop-color="white" stop-opacity="0.54"/>
</linearGradient>
<linearGradient id="paint61_linear_699_274" x1="162.5" y1="0" x2="162.5" y2="355.431" gradientUnits="userSpaceOnUse">
<stop stop-color="white"/>
<stop offset="1" stop-color="white" stop-opacity="0.54"/>
</linearGradient>
<linearGradient id="paint62_linear_699_274" x1="162.5" y1="0" x2="162.5" y2="355.431" gradientUnits="userSpaceOnUse">
<stop stop-color="white"/>
<stop offset="1" stop-color="white" stop-opacity="0.54"/>
</linearGradient>
<linearGradient id="paint63_linear_699_274" x1="162.5" y1="0" x2="162.5" y2="355.431" gradientUnits="userSpaceOnUse">
<stop stop-color="white"/>
<stop offset="1" stop-color="white" stop-opacity="0.54"/>
</linearGradient>
<linearGradient id="paint64_linear_699_274" x1="162.5" y1="0" x2="162.5" y2="355.431" gradientUnits="userSpaceOnUse">
<stop stop-color="white"/>
<stop offset="1" stop-color="white" stop-opacity="0.54"/>
</linearGradient>
<linearGradient id="paint65_linear_699_274" x1="162.5" y1="0" x2="162.5" y2="355.431" gradientUnits="userSpaceOnUse">
<stop stop-color="white"/>
<stop offset="1" stop-color="white" stop-opacity="0.54"/>
</linearGradient>
<linearGradient id="paint66_linear_699_274" x1="162.5" y1="0" x2="162.5" y2="355.431" gradientUnits="userSpaceOnUse">
<stop stop-color="white"/>
<stop offset="1" stop-color="white" stop-opacity="0.54"/>
</linearGradient>
<linearGradient id="paint67_linear_699_274" x1="162.5" y1="0" x2="162.5" y2="355.431" gradientUnits="userSpaceOnUse">
<stop stop-color="white"/>
<stop offset="1" stop-color="white" stop-opacity="0.54"/>
</linearGradient>
<linearGradient id="paint68_linear_699_274" x1="162.5" y1="0" x2="162.5" y2="355.431" gradientUnits="userSpaceOnUse">
<stop stop-color="white"/>
<stop offset="1" stop-color="white" stop-opacity="0.54"/>
</linearGradient>
<linearGradient id="paint69_linear_699_274" x1="162.5" y1="0" x2="162.5" y2="355.431" gradientUnits="userSpaceOnUse">
<stop stop-color="white"/>
<stop offset="1" stop-color="white" stop-opacity="0.54"/>
</linearGradient>
<linearGradient id="paint70_linear_699_274" x1="162.5" y1="0" x2="162.5" y2="355.431" gradientUnits="userSpaceOnUse">
<stop stop-color="white"/>
<stop offset="1" stop-color="white" stop-opacity="0.54"/>
</linearGradient>
<linearGradient id="paint71_linear_699_274" x1="162.5" y1="0" x2="162.5" y2="355.431" gradientUnits="userSpaceOnUse">
<stop stop-color="white"/>
<stop offset="1" stop-color="white" stop-opacity="0.54"/>
</linearGradient>
<linearGradient id="paint72_linear_699_274" x1="162.5" y1="0" x2="162.5" y2="355.431" gradientUnits="userSpaceOnUse">
<stop stop-color="white"/>
<stop offset="1" stop-color="white" stop-opacity="0.54"/>
</linearGradient>
<linearGradient id="paint73_linear_699_274" x1="162.5" y1="0" x2="162.5" y2="355.431" gradientUnits="userSpaceOnUse">
<stop stop-color="white"/>
<stop offset="1" stop-color="white" stop-opacity="0.54"/>
</linearGradient>
<linearGradient id="paint74_linear_699_274" x1="162.5" y1="0" x2="162.5" y2="355.431" gradientUnits="userSpaceOnUse">
<stop stop-color="white"/>
<stop offset="1" stop-color="white" stop-opacity="0.54"/>
</linearGradient>
<linearGradient id="paint75_linear_699_274" x1="162.5" y1="0" x2="162.5" y2="355.431" gradientUnits="userSpaceOnUse">
<stop stop-color="white"/>
<stop offset="1" stop-color="white" stop-opacity="0.54"/>
</linearGradient>
<linearGradient id="paint76_linear_699_274" x1="162.5" y1="0" x2="162.5" y2="355.431" gradientUnits="userSpaceOnUse">
<stop stop-color="white"/>
<stop offset="1" stop-color="white" stop-opacity="0.54"/>
</linearGradient>
<linearGradient id="paint77_linear_699_274" x1="162.5" y1="0" x2="162.5" y2="355.431" gradientUnits="userSpaceOnUse">
<stop stop-color="white"/>
<stop offset="1" stop-color="white" stop-opacity="0.54"/>
</linearGradient>
<linearGradient id="paint78_linear_699_274" x1="162.5" y1="0" x2="162.5" y2="355.431" gradientUnits="userSpaceOnUse">
<stop stop-color="white"/>
<stop offset="1" stop-color="white" stop-opacity="0.54"/>
</linearGradient>
<linearGradient id="paint79_linear_699_274" x1="162.5" y1="0" x2="162.5" y2="355.431" gradientUnits="userSpaceOnUse">
<stop stop-color="white"/>
<stop offset="1" stop-color="white" stop-opacity="0.54"/>
</linearGradient>
<linearGradient id="paint80_linear_699_274" x1="162.5" y1="0" x2="162.5" y2="355.431" gradientUnits="userSpaceOnUse">
<stop stop-color="white"/>
<stop offset="1" stop-color="white" stop-opacity="0.54"/>
</linearGradient>
<linearGradient id="paint81_linear_699_274" x1="162.5" y1="0" x2="162.5" y2="355.431" gradientUnits="userSpaceOnUse">
<stop stop-color="white"/>
<stop offset="1" stop-color="white" stop-opacity="0.54"/>
</linearGradient>
<linearGradient id="paint82_linear_699_274" x1="162.5" y1="0" x2="162.5" y2="355.431" gradientUnits="userSpaceOnUse">
<stop stop-color="white"/>
<stop offset="1" stop-color="white" stop-opacity="0.54"/>
</linearGradient>
<linearGradient id="paint83_linear_699_274" x1="162.5" y1="0" x2="162.5" y2="355.431" gradientUnits="userSpaceOnUse">
<stop stop-color="white"/>
<stop offset="1" stop-color="white" stop-opacity="0.54"/>
</linearGradient>
<linearGradient id="paint84_linear_699_274" x1="162.5" y1="0" x2="162.5" y2="355.431" gradientUnits="userSpaceOnUse">
<stop stop-color="white"/>
<stop offset="1" stop-color="white" stop-opacity="0.54"/>
</linearGradient>
<linearGradient id="paint85_linear_699_274" x1="162.5" y1="0" x2="162.5" y2="355.431" gradientUnits="userSpaceOnUse">
<stop stop-color="white"/>
<stop offset="1" stop-color="white" stop-opacity="0.54"/>
</linearGradient>
<linearGradient id="paint86_linear_699_274" x1="162.5" y1="0" x2="162.5" y2="355.431" gradientUnits="userSpaceOnUse">
<stop stop-color="white"/>
<stop offset="1" stop-color="white" stop-opacity="0.54"/>
</linearGradient>
<linearGradient id="paint87_linear_699_274" x1="162.5" y1="0" x2="162.5" y2="355.431" gradientUnits="userSpaceOnUse">
<stop stop-color="white"/>
<stop offset="1" stop-color="white" stop-opacity="0.54"/>
</linearGradient>
<linearGradient id="paint88_linear_699_274" x1="162.5" y1="0" x2="162.5" y2="355.431" gradientUnits="userSpaceOnUse">
<stop stop-color="white"/>
<stop offset="1" stop-color="white" stop-opacity="0.54"/>
</linearGradient>
<linearGradient id="paint89_linear_699_274" x1="162.5" y1="0" x2="162.5" y2="355.431" gradientUnits="userSpaceOnUse">
<stop stop-color="white"/>
<stop offset="1" stop-color="white" stop-opacity="0.54"/>
</linearGradient>
<linearGradient id="paint90_linear_699_274" x1="162.5" y1="0" x2="162.5" y2="355.431" gradientUnits="userSpaceOnUse">
<stop stop-color="white"/>
<stop offset="1" stop-color="white" stop-opacity="0.54"/>
</linearGradient>
<linearGradient id="paint91_linear_699_274" x1="162.5" y1="0" x2="162.5" y2="355.431" gradientUnits="userSpaceOnUse">
<stop stop-color="white"/>
<stop offset="1" stop-color="white" stop-opacity="0.54"/>
</linearGradient>
<linearGradient id="paint92_linear_699_274" x1="162.5" y1="0" x2="162.5" y2="355.431" gradientUnits="userSpaceOnUse">
<stop stop-color="white"/>
<stop offset="1" stop-color="white" stop-opacity="0.54"/>
</linearGradient>
<linearGradient id="paint93_linear_699_274" x1="162.5" y1="0" x2="162.5" y2="355.431" gradientUnits="userSpaceOnUse">
<stop stop-color="white"/>
<stop offset="1" stop-color="white" stop-opacity="0.54"/>
</linearGradient>
<linearGradient id="paint94_linear_699_274" x1="162.5" y1="0" x2="162.5" y2="355.431" gradientUnits="userSpaceOnUse">
<stop stop-color="white"/>
<stop offset="1" stop-color="white" stop-opacity="0.54"/>
</linearGradient>
<linearGradient id="paint95_linear_699_274" x1="162.5" y1="0" x2="162.5" y2="355.431" gradientUnits="userSpaceOnUse">
<stop stop-color="white"/>
<stop offset="1" stop-color="white" stop-opacity="0.54"/>
</linearGradient>
<linearGradient id="paint96_linear_699_274" x1="162.5" y1="0" x2="162.5" y2="355.431" gradientUnits="userSpaceOnUse">
<stop stop-color="white"/>
<stop offset="1" stop-color="white" stop-opacity="0.54"/>
</linearGradient>
<linearGradient id="paint97_linear_699_274" x1="162.5" y1="0" x2="162.5" y2="355.431" gradientUnits="userSpaceOnUse">
<stop stop-color="white"/>
<stop offset="1" stop-color="white" stop-opacity="0.54"/>
</linearGradient>
<linearGradient id="paint98_linear_699_274" x1="162.5" y1="0" x2="162.5" y2="355.431" gradientUnits="userSpaceOnUse">
<stop stop-color="white"/>
<stop offset="1" stop-color="white" stop-opacity="0.54"/>
</linearGradient>
<linearGradient id="paint99_linear_699_274" x1="162.5" y1="0" x2="162.5" y2="355.431" gradientUnits="userSpaceOnUse">
<stop stop-color="white"/>
<stop offset="1" stop-color="white" stop-opacity="0.54"/>
</linearGradient>
<linearGradient id="paint100_linear_699_274" x1="162.5" y1="0" x2="162.5" y2="355.431" gradientUnits="userSpaceOnUse">
<stop stop-color="white"/>
<stop offset="1" stop-color="white" stop-opacity="0.54"/>
</linearGradient>
<linearGradient id="paint101_linear_699_274" x1="162.5" y1="0" x2="162.5" y2="355.431" gradientUnits="userSpaceOnUse">
<stop stop-color="white"/>
<stop offset="1" stop-color="white" stop-opacity="0.54"/>
</linearGradient>
<linearGradient id="paint102_linear_699_274" x1="162.5" y1="0" x2="162.5" y2="355.431" gradientUnits="userSpaceOnUse">
<stop stop-color="white"/>
<stop offset="1" stop-color="white" stop-opacity="0.54"/>
</linearGradient>
<linearGradient id="paint103_linear_699_274" x1="162.5" y1="0" x2="162.5" y2="355.431" gradientUnits="userSpaceOnUse">
<stop stop-color="white"/>
<stop offset="1" stop-color="white" stop-opacity="0.54"/>
</linearGradient>
<linearGradient id="paint104_linear_699_274" x1="162.5" y1="0" x2="162.5" y2="355.431" gradientUnits="userSpaceOnUse">
<stop stop-color="white"/>
<stop offset="1" stop-color="white" stop-opacity="0.54"/>
</linearGradient>
<linearGradient id="paint105_linear_699_274" x1="162.5" y1="0" x2="162.5" y2="355.431" gradientUnits="userSpaceOnUse">
<stop stop-color="white"/>
<stop offset="1" stop-color="white" stop-opacity="0.54"/>
</linearGradient>
<linearGradient id="paint106_linear_699_274" x1="162.5" y1="0" x2="162.5" y2="355.431" gradientUnits="userSpaceOnUse">
<stop stop-color="white"/>
<stop offset="1" stop-color="white" stop-opacity="0.54"/>
</linearGradient>
<linearGradient id="paint107_linear_699_274" x1="162.5" y1="0" x2="162.5" y2="355.431" gradientUnits="userSpaceOnUse">
<stop stop-color="white"/>
<stop offset="1" stop-color="white" stop-opacity="0.54"/>
</linearGradient>
<linearGradient id="paint108_linear_699_274" x1="162.5" y1="0" x2="162.5" y2="355.431" gradientUnits="userSpaceOnUse">
<stop stop-color="white"/>
<stop offset="1" stop-color="white" stop-opacity="0.54"/>
</linearGradient>
<linearGradient id="paint109_linear_699_274" x1="162.5" y1="0" x2="162.5" y2="355.431" gradientUnits="userSpaceOnUse">
<stop stop-color="white"/>
<stop offset="1" stop-color="white" stop-opacity="0.54"/>
</linearGradient>
<linearGradient id="paint110_linear_699_274" x1="162.5" y1="0" x2="162.5" y2="355.431" gradientUnits="userSpaceOnUse">
<stop stop-color="white"/>
<stop offset="1" stop-color="white" stop-opacity="0.54"/>
</linearGradient>
<linearGradient id="paint111_linear_699_274" x1="162.5" y1="0" x2="162.5" y2="355.431" gradientUnits="userSpaceOnUse">
<stop stop-color="white"/>
<stop offset="1" stop-color="white" stop-opacity="0.54"/>
</linearGradient>
<linearGradient id="paint112_linear_699_274" x1="162.5" y1="0" x2="162.5" y2="355.431" gradientUnits="userSpaceOnUse">
<stop stop-color="white"/>
<stop offset="1" stop-color="white" stop-opacity="0.54"/>
</linearGradient>
<linearGradient id="paint113_linear_699_274" x1="162.5" y1="0" x2="162.5" y2="355.431" gradientUnits="userSpaceOnUse">
<stop stop-color="white"/>
<stop offset="1" stop-color="white" stop-opacity="0.54"/>
</linearGradient>
</defs>
</svg>
