<svg width="82" height="82" viewBox="0 0 82 82" fill="none" xmlns="http://www.w3.org/2000/svg">
<rect x="0.945312" y="0.799805" width="81" height="81" rx="40.5" fill="url(#paint0_linear_3324_3354)" fill-opacity="0.26"/>
<path d="M29.9301 45.2705H18.8125V58.5058H29.9301V45.2705Z" fill="url(#paint1_linear_3324_3354)"/>
<path d="M29.9301 61.1528H18.8125V63.7999H29.9301V61.1528Z" fill="url(#paint2_linear_3324_3354)"/>
<path d="M47.0005 32.0352H35.8828V58.5057H47.0005V32.0352Z" fill="url(#paint3_linear_3324_3354)"/>
<path d="M47.0005 61.1528H35.8828V63.7999H47.0005V61.1528Z" fill="url(#paint4_linear_3324_3354)"/>
<path d="M64.0786 18.7998H52.9609V58.5057H64.0786V18.7998Z" fill="url(#paint5_linear_3324_3354)"/>
<path d="M64.0786 61.1528H52.9609V63.7999H64.0786V61.1528Z" fill="url(#paint6_linear_3324_3354)"/>
<defs>
<linearGradient id="paint0_linear_3324_3354" x1="100.695" y1="-31.4502" x2="-2.80468" y2="96.0498" gradientUnits="userSpaceOnUse">
<stop stop-color="white"/>
<stop offset="1" stop-color="white" stop-opacity="0"/>
</linearGradient>
<linearGradient id="paint1_linear_3324_3354" x1="24.3713" y1="49.8587" x2="24.3713" y2="70.6154" gradientUnits="userSpaceOnUse">
<stop stop-color="#94723F"/>
<stop offset="1" stop-color="#EEB30A"/>
</linearGradient>
<linearGradient id="paint2_linear_3324_3354" x1="24.3713" y1="62.0705" x2="24.3713" y2="66.2218" gradientUnits="userSpaceOnUse">
<stop stop-color="#94723F"/>
<stop offset="1" stop-color="#EEB30A"/>
</linearGradient>
<linearGradient id="paint3_linear_3324_3354" x1="41.4416" y1="41.2115" x2="41.4416" y2="82.725" gradientUnits="userSpaceOnUse">
<stop stop-color="#94723F"/>
<stop offset="1" stop-color="#EEB30A"/>
</linearGradient>
<linearGradient id="paint4_linear_3324_3354" x1="41.4416" y1="62.0705" x2="41.4416" y2="66.2218" gradientUnits="userSpaceOnUse">
<stop stop-color="#94723F"/>
<stop offset="1" stop-color="#EEB30A"/>
</linearGradient>
<linearGradient id="paint5_linear_3324_3354" x1="58.5198" y1="32.5643" x2="58.5198" y2="94.8346" gradientUnits="userSpaceOnUse">
<stop stop-color="#94723F"/>
<stop offset="1" stop-color="#EEB30A"/>
</linearGradient>
<linearGradient id="paint6_linear_3324_3354" x1="58.5198" y1="62.0705" x2="58.5198" y2="66.2218" gradientUnits="userSpaceOnUse">
<stop stop-color="#94723F"/>
<stop offset="1" stop-color="#EEB30A"/>
</linearGradient>
</defs>
</svg>
