<svg width="82" height="82" viewBox="0 0 82 82" fill="none" xmlns="http://www.w3.org/2000/svg">
<rect x="0.945312" y="0.799805" width="81" height="81" rx="40.5" fill="url(#paint0_linear_3324_3350)" fill-opacity="0.26"/>
<path d="M64.5935 41.0602H59.0728C58.7566 41.0602 58.4533 41.1859 58.2297 41.4095C58.0061 41.6331 57.8805 41.9364 57.8805 42.2526C57.8805 42.5688 58.0061 42.8721 58.2297 43.0957C58.4533 43.3193 58.7566 43.4449 59.0728 43.4449H64.5935C64.9097 43.4449 65.213 43.3193 65.4366 43.0957C65.6602 42.8721 65.7858 42.5688 65.7858 42.2526C65.7858 41.9364 65.6602 41.6331 65.4366 41.4095C65.213 41.1859 64.9097 41.0602 64.5935 41.0602Z" fill="url(#paint1_linear_3324_3350)"/>
<path d="M57.1618 34.8645C57.3774 34.8687 57.5901 34.8141 57.777 34.7066L62.5572 31.9462C62.833 31.7852 63.0336 31.5213 63.1147 31.2124C63.1959 30.9036 63.1511 30.5751 62.9901 30.2993C62.8291 30.0235 62.5651 29.823 62.2562 29.7418C61.9474 29.6606 61.6189 29.7055 61.3431 29.8665L56.5629 32.6431C56.3345 32.7741 56.1558 32.9769 56.0547 33.2201C55.9537 33.4632 55.936 33.733 56.0044 33.9873C56.0728 34.2415 56.2234 34.466 56.4328 34.6257C56.6422 34.7854 56.8985 34.8712 57.1618 34.8699V34.8645Z" fill="url(#paint2_linear_3324_3350)"/>
<path d="M55.1092 21.1554C54.8502 20.9843 54.5346 20.9209 54.2296 20.9789C53.9245 21.0369 53.6542 21.2115 53.4759 21.4657L50.3617 26.0281C50.2619 26.157 50.1897 26.305 50.1494 26.4629C50.1091 26.6208 50.1015 26.7853 50.1273 26.9462C50.153 27.1071 50.2115 27.261 50.299 27.3985C50.3866 27.5359 50.5014 27.6539 50.6363 27.7453C50.7713 27.8366 50.9236 27.8993 51.0837 27.9295C51.2438 27.9597 51.4085 27.9568 51.5674 27.9209C51.7264 27.8849 51.8763 27.8168 52.0079 27.7207C52.1395 27.6246 52.25 27.5025 52.3326 27.362L55.425 22.7887C55.5956 22.529 55.658 22.2129 55.599 21.9079C55.5401 21.6028 55.3643 21.3328 55.1092 21.1554Z" fill="url(#paint3_linear_3324_3350)"/>
<path d="M31.5457 27.8792C31.7631 27.8797 31.9766 27.8207 32.1629 27.7087C32.3492 27.5966 32.5014 27.4357 32.6028 27.2434C32.7043 27.0511 32.7513 26.8347 32.7386 26.6176C32.726 26.4005 32.6542 26.191 32.5311 26.0118L29.4169 21.4494C29.3319 21.3133 29.2203 21.1958 29.0888 21.1038C28.9573 21.0119 28.8086 20.9475 28.6516 20.9144C28.4946 20.8813 28.3326 20.8802 28.1752 20.9112C28.0177 20.9423 27.8682 21.0047 27.7355 21.0949C27.6028 21.1851 27.4897 21.3011 27.4029 21.4361C27.3161 21.571 27.2574 21.7221 27.2304 21.8802C27.2033 22.0384 27.2085 22.2003 27.2456 22.3564C27.2826 22.5125 27.3508 22.6596 27.446 22.7887L30.5548 27.362C30.6651 27.5226 30.8131 27.6538 30.9859 27.7439C31.1586 27.8341 31.3508 27.8806 31.5457 27.8792Z" fill="url(#paint4_linear_3324_3350)"/>
<path d="M26.2755 32.6431L21.4898 29.8665C21.217 29.7215 20.8986 29.6881 20.6017 29.7732C20.3048 29.8583 20.0525 30.0554 19.8979 30.3228C19.7434 30.5903 19.6986 30.9073 19.7732 31.2071C19.8477 31.5068 20.0357 31.766 20.2975 31.9299L25.0777 34.6902C25.2134 34.7752 25.3649 34.832 25.523 34.8572C25.6812 34.8824 25.8428 34.8755 25.9982 34.8368C26.1536 34.7982 26.2996 34.7286 26.4276 34.6323C26.5555 34.536 26.6628 34.4149 26.7429 34.2763C26.823 34.1376 26.8744 33.9842 26.8939 33.8253C26.9135 33.6663 26.9008 33.5051 26.8567 33.3511C26.8125 33.1972 26.7378 33.0537 26.6371 32.9293C26.5363 32.8048 26.4114 32.702 26.27 32.6268L26.2755 32.6431Z" fill="url(#paint5_linear_3324_3350)"/>
<path d="M62.5355 52.3302L57.777 49.5699C57.5019 49.4089 57.1742 49.3638 56.8658 49.4444C56.5575 49.5251 56.2938 49.725 56.1328 50C55.9718 50.2751 55.9267 50.6029 56.0073 50.9112C56.088 51.2196 56.2878 51.4832 56.5629 51.6442L61.3431 54.4046C61.6159 54.5495 61.9343 54.583 62.2312 54.4978C62.5281 54.4127 62.7804 54.2157 62.935 53.9482C63.0895 53.6808 63.1343 53.3638 63.0597 53.064C62.9852 52.7642 62.7972 52.5051 62.5355 52.3411V52.3302Z" fill="url(#paint6_linear_3324_3350)"/>
<path d="M25.0831 49.5699L20.3029 52.3302C20.1615 52.4054 20.0366 52.5083 19.9359 52.6327C19.8351 52.7572 19.7604 52.9006 19.7162 53.0546C19.6721 53.2085 19.6594 53.3698 19.679 53.5287C19.6985 53.6877 19.7499 53.841 19.83 53.9797C19.9101 54.1184 20.0174 54.2395 20.1453 54.3358C20.2733 54.4321 20.4193 54.5016 20.5747 54.5403C20.7301 54.5789 20.8917 54.5858 21.0499 54.5607C21.208 54.5355 21.3595 54.4787 21.4952 54.3937L26.2755 51.6442C26.5372 51.4803 26.7252 51.2212 26.7997 50.9214C26.8743 50.6216 26.8295 50.3046 26.675 50.0372C26.5204 49.7697 26.2681 49.5727 25.9712 49.4876C25.6743 49.4024 25.3559 49.4359 25.0831 49.5808V49.5699Z" fill="url(#paint7_linear_3324_3350)"/>
<path d="M25.0069 42.2526C25.0069 41.9364 24.8813 41.6331 24.6577 41.4095C24.4341 41.1859 24.1308 41.0602 23.8146 41.0602H18.2939C17.9777 41.0602 17.6744 41.1859 17.4508 41.4095C17.2272 41.6331 17.1016 41.9364 17.1016 42.2526C17.1016 42.5688 17.2272 42.8721 17.4508 43.0957C17.6744 43.3193 17.9777 43.4449 18.2939 43.4449H23.8146C23.9711 43.4449 24.1262 43.4141 24.2708 43.3542C24.4155 43.2942 24.547 43.2064 24.6577 43.0957C24.7684 42.985 24.8562 42.8535 24.9161 42.7089C24.9761 42.5642 25.0069 42.4092 25.0069 42.2526Z" fill="url(#paint8_linear_3324_3350)"/>
<path d="M41.4001 24.7051C41.5567 24.7051 41.7117 24.6743 41.8564 24.6144C42.0011 24.5545 42.1325 24.4666 42.2432 24.3559C42.3539 24.2452 42.4418 24.1138 42.5017 23.9691C42.5616 23.8244 42.5925 23.6694 42.5925 23.5128V17.9921C42.5925 17.6759 42.4668 17.3726 42.2432 17.149C42.0196 16.9254 41.7163 16.7998 41.4001 16.7998C41.0839 16.7998 40.7806 16.9254 40.557 17.149C40.3334 17.3726 40.2078 17.6759 40.2078 17.9921V23.5128C40.2078 23.6694 40.2386 23.8244 40.2985 23.9691C40.3585 24.1138 40.4463 24.2452 40.557 24.3559C40.6677 24.4666 40.7992 24.5545 40.9438 24.6144C41.0885 24.6743 41.2435 24.7051 41.4001 24.7051Z" fill="url(#paint9_linear_3324_3350)"/>
<path d="M46.1422 56.6804H36.658C36.3418 56.6804 36.0385 56.806 35.8149 57.0296C35.5913 57.2532 35.4657 57.5565 35.4657 57.8727C35.4657 58.1889 35.5913 58.4922 35.8149 58.7158C36.0385 58.9394 36.3418 59.065 36.658 59.065H46.1422C46.2988 59.065 46.4539 59.0342 46.5985 58.9743C46.7432 58.9143 46.8746 58.8265 46.9853 58.7158C47.0961 58.6051 47.1839 58.4736 47.2438 58.329C47.3037 58.1843 47.3346 58.0293 47.3346 57.8727C47.3346 57.7161 47.3037 57.5611 47.2438 57.4164C47.1839 57.2717 47.0961 57.1403 46.9853 57.0296C46.8746 56.9189 46.7432 56.831 46.5985 56.7711C46.4539 56.7112 46.2988 56.6804 46.1422 56.6804Z" fill="url(#paint10_linear_3324_3350)"/>
<path d="M38.9392 63.7908V64.4441C38.9392 64.8027 39.0813 65.1467 39.3344 65.4008C39.5874 65.6549 39.9309 65.7984 40.2895 65.7998H42.2168C42.5744 65.7984 42.917 65.6557 43.17 65.4027C43.4229 65.1498 43.5656 64.8072 43.567 64.4496V63.818C44.3143 63.7765 45.0177 63.4514 45.5336 62.9092C46.0496 62.3669 46.3393 61.6483 46.3437 60.8998H36.4293C36.4335 61.602 36.6889 62.2796 37.1492 62.8098C37.6096 63.3401 38.2446 63.6881 38.9392 63.7908Z" fill="url(#paint11_linear_3324_3350)"/>
<path d="M41.4001 29.6378C34.7797 29.6378 29.4223 35.1476 29.4223 41.9368C29.4205 43.5173 29.718 45.0838 30.2989 46.5537C30.3715 46.7352 30.4477 46.9167 30.5276 47.0981C31.0469 48.2537 31.741 49.3225 32.5856 50.2668L35.629 54.9436H47.1821L50.2256 50.2668C51.0701 49.3225 51.7643 48.2537 52.2836 47.0981C52.3634 46.9203 52.4396 46.7388 52.5122 46.5537C53.0932 45.0838 53.3906 43.5173 53.3888 41.9368C53.3888 35.1421 48.0206 29.6378 41.4001 29.6378ZM40.8557 34.1676C39.5957 34.2422 38.3715 34.6155 37.2841 35.2565C35.0029 36.6121 33.816 39.0676 33.7561 42.4812C33.7504 42.7937 33.6223 43.0914 33.3993 43.3103C33.1763 43.5292 32.8763 43.6519 32.5638 43.6518C32.4072 43.649 32.2527 43.6153 32.1091 43.5528C31.9655 43.4902 31.8357 43.4 31.727 43.2872C31.6183 43.1745 31.5329 43.0414 31.4756 42.8957C31.4183 42.7499 31.3903 42.5943 31.3932 42.4377C31.4858 36.9932 34.0556 34.3745 36.1952 33.144C37.6255 32.3267 39.2314 31.8654 40.8775 31.7992C41.1937 31.7992 41.497 31.9249 41.7206 32.1485C41.9442 32.3721 42.0698 32.6754 42.0698 32.9916C42.0698 33.3078 41.9442 33.6111 41.7206 33.8347C41.497 34.0583 41.1937 34.1839 40.8775 34.1839L40.8557 34.1676Z" fill="url(#paint12_linear_3324_3350)"/>
<defs>
<linearGradient id="paint0_linear_3324_3350" x1="100.695" y1="-31.4502" x2="-2.80468" y2="96.0498" gradientUnits="userSpaceOnUse">
<stop stop-color="white"/>
<stop offset="1" stop-color="white" stop-opacity="0"/>
</linearGradient>
<linearGradient id="paint1_linear_3324_3350" x1="41.4437" y1="33.7862" x2="41.4437" y2="110.632" gradientUnits="userSpaceOnUse">
<stop stop-color="#94723F"/>
<stop offset="1" stop-color="#EEB30A"/>
</linearGradient>
<linearGradient id="paint2_linear_3324_3350" x1="41.4437" y1="33.7862" x2="41.4437" y2="110.632" gradientUnits="userSpaceOnUse">
<stop stop-color="#94723F"/>
<stop offset="1" stop-color="#EEB30A"/>
</linearGradient>
<linearGradient id="paint3_linear_3324_3350" x1="41.4437" y1="33.7862" x2="41.4437" y2="110.632" gradientUnits="userSpaceOnUse">
<stop stop-color="#94723F"/>
<stop offset="1" stop-color="#EEB30A"/>
</linearGradient>
<linearGradient id="paint4_linear_3324_3350" x1="41.4437" y1="33.7862" x2="41.4437" y2="110.632" gradientUnits="userSpaceOnUse">
<stop stop-color="#94723F"/>
<stop offset="1" stop-color="#EEB30A"/>
</linearGradient>
<linearGradient id="paint5_linear_3324_3350" x1="41.4437" y1="33.7862" x2="41.4437" y2="110.632" gradientUnits="userSpaceOnUse">
<stop stop-color="#94723F"/>
<stop offset="1" stop-color="#EEB30A"/>
</linearGradient>
<linearGradient id="paint6_linear_3324_3350" x1="41.4437" y1="33.7862" x2="41.4437" y2="110.632" gradientUnits="userSpaceOnUse">
<stop stop-color="#94723F"/>
<stop offset="1" stop-color="#EEB30A"/>
</linearGradient>
<linearGradient id="paint7_linear_3324_3350" x1="41.4437" y1="33.7862" x2="41.4437" y2="110.632" gradientUnits="userSpaceOnUse">
<stop stop-color="#94723F"/>
<stop offset="1" stop-color="#EEB30A"/>
</linearGradient>
<linearGradient id="paint8_linear_3324_3350" x1="41.4437" y1="33.7862" x2="41.4437" y2="110.632" gradientUnits="userSpaceOnUse">
<stop stop-color="#94723F"/>
<stop offset="1" stop-color="#EEB30A"/>
</linearGradient>
<linearGradient id="paint9_linear_3324_3350" x1="41.4437" y1="33.7862" x2="41.4437" y2="110.632" gradientUnits="userSpaceOnUse">
<stop stop-color="#94723F"/>
<stop offset="1" stop-color="#EEB30A"/>
</linearGradient>
<linearGradient id="paint10_linear_3324_3350" x1="41.4437" y1="33.7862" x2="41.4437" y2="110.632" gradientUnits="userSpaceOnUse">
<stop stop-color="#94723F"/>
<stop offset="1" stop-color="#EEB30A"/>
</linearGradient>
<linearGradient id="paint11_linear_3324_3350" x1="41.4437" y1="33.7862" x2="41.4437" y2="110.632" gradientUnits="userSpaceOnUse">
<stop stop-color="#94723F"/>
<stop offset="1" stop-color="#EEB30A"/>
</linearGradient>
<linearGradient id="paint12_linear_3324_3350" x1="41.4437" y1="33.7862" x2="41.4437" y2="110.632" gradientUnits="userSpaceOnUse">
<stop stop-color="#94723F"/>
<stop offset="1" stop-color="#EEB30A"/>
</linearGradient>
</defs>
</svg>
