<svg width="1440" height="1284" viewBox="0 0 1440 1284" fill="none" xmlns="http://www.w3.org/2000/svg">
<ellipse cx="720" cy="642" rx="873" ry="642" fill="url(#paint0_radial_619_306)"/>
<path d="M737.042 969.297L727.884 969.684L729.329 1003.88L738.487 1003.49L737.042 969.297Z" fill="url(#paint1_linear_619_306)" fill-opacity="0.1" style="mix-blend-mode:overlay"/>
<path d="M707.77 969.551L706.881 1003.76L716.044 1004L716.934 969.789L707.77 969.551Z" fill="url(#paint2_linear_619_306)" fill-opacity="0.1" style="mix-blend-mode:overlay"/>
<path d="M687.785 968.064L684.552 1002.13L693.678 1003L696.91 968.93L687.785 968.064Z" fill="url(#paint3_linear_619_306)" fill-opacity="0.1" style="mix-blend-mode:overlay"/>
<path d="M667.937 965.149L662.389 998.918L671.435 1000.4L676.983 966.635L667.937 965.149Z" fill="url(#paint4_linear_619_306)" fill-opacity="0.1" style="mix-blend-mode:overlay"/>
<path d="M648.327 960.944L640.484 994.255L649.406 996.356L657.25 963.045L648.327 960.944Z" fill="url(#paint5_linear_619_306)" fill-opacity="0.1" style="mix-blend-mode:overlay"/>
<path d="M629.038 955.325L618.947 988.025L627.706 990.728L637.797 958.028L629.038 955.325Z" fill="url(#paint6_linear_619_306)" fill-opacity="0.1" style="mix-blend-mode:overlay"/>
<path d="M610.168 948.5L597.871 980.436L606.425 983.73L618.723 951.794L610.168 948.5Z" fill="url(#paint7_linear_619_306)" fill-opacity="0.1" style="mix-blend-mode:overlay"/>
<path d="M591.854 940.328L577.407 971.351L585.717 975.221L600.163 944.197L591.854 940.328Z" fill="url(#paint8_linear_619_306)" fill-opacity="0.1" style="mix-blend-mode:overlay"/>
<path d="M574.081 931.027L557.547 960.99L565.573 965.419L582.106 935.456L574.081 931.027Z" fill="url(#paint9_linear_619_306)" fill-opacity="0.1" style="mix-blend-mode:overlay"/>
<path d="M557.036 920.486L538.498 949.252L546.203 954.218L564.741 925.452L557.036 920.486Z" fill="url(#paint10_linear_619_306)" fill-opacity="0.1" style="mix-blend-mode:overlay"/>
<path d="M540.752 908.745L520.295 936.18L527.644 941.659L548.1 914.224L540.752 908.745Z" fill="url(#paint11_linear_619_306)" fill-opacity="0.1" style="mix-blend-mode:overlay"/>
<path d="M525.261 896.015L502.977 921.987L509.934 927.956L532.218 901.984L525.261 896.015Z" fill="url(#paint12_linear_619_306)" fill-opacity="0.1" style="mix-blend-mode:overlay"/>
<path d="M510.694 882.19L486.691 906.582L493.224 913.012L517.228 888.62L510.694 882.19Z" fill="url(#paint13_linear_619_306)" fill-opacity="0.1" style="mix-blend-mode:overlay"/>
<path d="M497.145 867.415L471.534 890.113L477.614 896.973L503.225 874.275L497.145 867.415Z" fill="url(#paint14_linear_619_306)" fill-opacity="0.1" style="mix-blend-mode:overlay"/>
<path d="M484.575 851.719L457.476 872.619L463.074 879.877L490.173 858.978L484.575 851.719Z" fill="url(#paint15_linear_619_306)" fill-opacity="0.1" style="mix-blend-mode:overlay"/>
<path d="M473.113 835.302L444.649 854.3L449.738 861.925L478.202 842.927L473.113 835.302Z" fill="url(#paint16_linear_619_306)" fill-opacity="0.1" style="mix-blend-mode:overlay"/>
<path d="M462.837 818.054L433.143 835.066L437.7 843.02L467.394 826.007L462.837 818.054Z" fill="url(#paint17_linear_619_306)" fill-opacity="0.1" style="mix-blend-mode:overlay"/>
<path d="M453.774 800.167L422.989 815.115L426.993 823.361L457.778 808.413L453.774 800.167Z" fill="url(#paint18_linear_619_306)" fill-opacity="0.1" style="mix-blend-mode:overlay"/>
<path d="M445.883 781.734L414.148 794.543L417.579 803.043L449.314 790.234L445.883 781.734Z" fill="url(#paint19_linear_619_306)" fill-opacity="0.1" style="mix-blend-mode:overlay"/>
<path d="M439.313 762.776L406.779 773.391L409.622 782.105L442.157 771.49L439.313 762.776Z" fill="url(#paint20_linear_619_306)" fill-opacity="0.1" style="mix-blend-mode:overlay"/>
<path d="M434.051 743.404L400.869 751.776L403.111 760.664L436.293 752.292L434.051 743.404Z" fill="url(#paint21_linear_619_306)" fill-opacity="0.1" style="mix-blend-mode:overlay"/>
<path d="M430.086 723.74L396.409 729.824L398.039 738.845L431.716 732.761L430.086 723.74Z" fill="url(#paint22_linear_619_306)" fill-opacity="0.1" style="mix-blend-mode:overlay"/>
<path d="M427.537 703.837L393.523 707.611L394.534 716.721L428.547 712.948L427.537 703.837Z" fill="url(#paint23_linear_619_306)" fill-opacity="0.1" style="mix-blend-mode:overlay"/>
<path d="M426.303 683.829L392.111 685.275L392.498 694.433L426.69 692.988L426.303 683.829Z" fill="url(#paint24_linear_619_306)" fill-opacity="0.1" style="mix-blend-mode:overlay"/>
<path d="M392.238 662.819L392 671.983L426.211 672.873L426.449 663.709L392.238 662.819Z" fill="url(#paint25_linear_619_306)" fill-opacity="0.1" style="mix-blend-mode:overlay"/>
<path d="M393.916 640.556L393.052 649.682L427.122 652.908L427.986 643.782L393.916 640.556Z" fill="url(#paint26_linear_619_306)" fill-opacity="0.1" style="mix-blend-mode:overlay"/>
<path d="M397.099 618.336L395.614 627.382L429.385 632.924L430.869 623.879L397.099 618.336Z" fill="url(#paint27_linear_619_306)" fill-opacity="0.1" style="mix-blend-mode:overlay"/>
<path d="M401.767 596.438L399.669 605.362L432.983 613.194L435.081 604.271L401.767 596.438Z" fill="url(#paint28_linear_619_306)" fill-opacity="0.1" style="mix-blend-mode:overlay"/>
<path d="M407.956 574.957L405.253 583.716L437.953 593.807L440.656 585.048L407.956 574.957Z" fill="url(#paint29_linear_619_306)" fill-opacity="0.1" style="mix-blend-mode:overlay"/>
<path d="M415.58 553.833L412.286 562.387L444.222 574.685L447.516 566.131L415.58 553.833Z" fill="url(#paint30_linear_619_306)" fill-opacity="0.1" style="mix-blend-mode:overlay"/>
<path d="M424.623 533.363L420.754 541.673L451.777 556.12L455.646 547.81L424.623 533.363Z" fill="url(#paint31_linear_619_306)" fill-opacity="0.1" style="mix-blend-mode:overlay"/>
<path d="M435.072 513.565L430.643 521.59L460.606 538.124L465.035 530.098L435.072 513.565Z" fill="url(#paint32_linear_619_306)" fill-opacity="0.1" style="mix-blend-mode:overlay"/>
<path d="M446.798 494.486L441.833 502.191L470.599 520.73L475.564 513.024L446.798 494.486Z" fill="url(#paint33_linear_619_306)" fill-opacity="0.1" style="mix-blend-mode:overlay"/>
<path d="M459.825 476.254L454.345 483.603L481.78 504.059L487.26 496.711L459.825 476.254Z" fill="url(#paint34_linear_619_306)" fill-opacity="0.1" style="mix-blend-mode:overlay"/>
<path d="M474.066 458.985L468.097 465.942L494.069 488.226L500.038 481.269L474.066 458.985Z" fill="url(#paint35_linear_619_306)" fill-opacity="0.1" style="mix-blend-mode:overlay"/>
<path d="M489.425 442.705L482.995 449.239L507.387 473.242L513.817 466.709L489.425 442.705Z" fill="url(#paint36_linear_619_306)" fill-opacity="0.1" style="mix-blend-mode:overlay"/>
<path d="M505.906 427.501L499.046 433.581L521.745 459.192L528.605 453.112L505.906 427.501Z" fill="url(#paint37_linear_619_306)" fill-opacity="0.1" style="mix-blend-mode:overlay"/>
<path d="M523.365 413.462L516.105 419.058L537 446.161L544.259 440.565L523.365 413.462Z" fill="url(#paint38_linear_619_306)" fill-opacity="0.1" style="mix-blend-mode:overlay"/>
<path d="M541.724 400.666L534.099 405.754L553.097 434.219L560.722 429.13L541.724 400.666Z" fill="url(#paint39_linear_619_306)" fill-opacity="0.1" style="mix-blend-mode:overlay"/>
<path d="M560.931 389.111L552.977 393.668L569.99 423.362L577.944 418.805L560.931 389.111Z" fill="url(#paint40_linear_619_306)" fill-opacity="0.1" style="mix-blend-mode:overlay"/>
<path d="M580.905 378.963L572.659 382.965L587.601 413.752L595.848 409.75L580.905 378.963Z" fill="url(#paint41_linear_619_306)" fill-opacity="0.1" style="mix-blend-mode:overlay"/>
<path d="M601.495 370.156L592.995 373.587L605.803 405.322L614.304 401.891L601.495 370.156Z" fill="url(#paint42_linear_619_306)" fill-opacity="0.1" style="mix-blend-mode:overlay"/>
<path d="M622.635 362.764L613.921 365.608L624.535 398.142L633.25 395.298L622.635 362.764Z" fill="url(#paint43_linear_619_306)" fill-opacity="0.1" style="mix-blend-mode:overlay"/>
<path d="M644.237 356.831L635.349 359.074L643.721 392.256L652.609 390.013L644.237 356.831Z" fill="url(#paint44_linear_619_306)" fill-opacity="0.1" style="mix-blend-mode:overlay"/>
<path d="M666.192 352.397L657.171 354.028L663.261 387.704L672.281 386.073L666.192 352.397Z" fill="url(#paint45_linear_619_306)" fill-opacity="0.1" style="mix-blend-mode:overlay"/>
<path d="M688.415 349.513L679.304 350.524L683.077 384.538L692.188 383.527L688.415 349.513Z" fill="url(#paint46_linear_619_306)" fill-opacity="0.1" style="mix-blend-mode:overlay"/>
<path d="M710.743 348.118L701.585 348.505L703.03 382.697L712.188 382.31L710.743 348.118Z" fill="url(#paint47_linear_619_306)" fill-opacity="0.1" style="mix-blend-mode:overlay"/>
<path d="M723.986 348L723.096 382.21L732.259 382.449L733.149 348.238L723.986 348Z" fill="url(#paint48_linear_619_306)" fill-opacity="0.1" style="mix-blend-mode:overlay"/>
<path d="M746.382 349.042L743.15 383.111L752.275 383.977L755.508 349.907L746.382 349.042Z" fill="url(#paint49_linear_619_306)" fill-opacity="0.1" style="mix-blend-mode:overlay"/>
<path d="M768.648 351.603L763.099 385.372L772.145 386.858L777.693 353.089L768.648 351.603Z" fill="url(#paint50_linear_619_306)" fill-opacity="0.1" style="mix-blend-mode:overlay"/>
<path d="M790.66 355.665L782.816 388.976L791.739 391.077L799.583 357.766L790.66 355.665Z" fill="url(#paint51_linear_619_306)" fill-opacity="0.1" style="mix-blend-mode:overlay"/>
<path d="M812.305 361.204L802.214 393.904L810.973 396.607L821.064 363.907L812.305 361.204Z" fill="url(#paint52_linear_619_306)" fill-opacity="0.1" style="mix-blend-mode:overlay"/>
<path d="M833.628 368.279L821.331 400.215L829.885 403.509L842.183 371.573L833.628 368.279Z" fill="url(#paint53_linear_619_306)" fill-opacity="0.1" style="mix-blend-mode:overlay"/>
<path d="M854.291 376.724L839.844 407.748L848.154 411.617L862.601 380.594L854.291 376.724Z" fill="url(#paint54_linear_619_306)" fill-opacity="0.1" style="mix-blend-mode:overlay"/>
<path d="M874.487 386.604L857.953 416.567L865.979 420.996L882.512 391.033L874.487 386.604Z" fill="url(#paint55_linear_619_306)" fill-opacity="0.1" style="mix-blend-mode:overlay"/>
<path d="M893.829 397.821L875.291 426.587L882.996 431.553L901.534 402.787L893.829 397.821Z" fill="url(#paint56_linear_619_306)" fill-opacity="0.1" style="mix-blend-mode:overlay"/>
<path d="M912.402 410.335L891.945 437.77L899.294 443.249L919.75 415.814L912.402 410.335Z" fill="url(#paint57_linear_619_306)" fill-opacity="0.1" style="mix-blend-mode:overlay"/>
<path d="M930.111 424.105L907.827 450.077L914.784 456.046L937.068 430.074L930.111 424.105Z" fill="url(#paint58_linear_619_306)" fill-opacity="0.1" style="mix-blend-mode:overlay"/>
<path d="M946.821 439.031L922.817 463.423L929.351 469.853L953.354 445.461L946.821 439.031Z" fill="url(#paint59_linear_619_306)" fill-opacity="0.1" style="mix-blend-mode:overlay"/>
<path d="M962.438 455.044L936.827 477.742L942.907 484.602L968.518 461.904L962.438 455.044Z" fill="url(#paint60_linear_619_306)" fill-opacity="0.1" style="mix-blend-mode:overlay"/>
<path d="M976.944 472.059L949.845 492.958L955.443 500.217L982.542 479.317L976.944 472.059Z" fill="url(#paint61_linear_619_306)" fill-opacity="0.1" style="mix-blend-mode:overlay"/>
<path d="M990.27 490.116L961.805 509.114L966.894 516.739L995.358 497.741L990.27 490.116Z" fill="url(#paint62_linear_619_306)" fill-opacity="0.1" style="mix-blend-mode:overlay"/>
<path d="M1002.36 509.007L972.666 526.019L977.223 533.973L1006.92 516.96L1002.36 509.007Z" fill="url(#paint63_linear_619_306)" fill-opacity="0.1" style="mix-blend-mode:overlay"/>
<path d="M1013.05 528.589L982.262 543.538L986.266 551.784L1017.05 536.835L1013.05 528.589Z" fill="url(#paint64_linear_619_306)" fill-opacity="0.1" style="mix-blend-mode:overlay"/>
<path d="M1022.45 549.003L990.716 561.811L994.147 570.312L1025.88 557.503L1022.45 549.003Z" fill="url(#paint65_linear_619_306)" fill-opacity="0.1" style="mix-blend-mode:overlay"/>
<path d="M1030.42 569.936L997.884 580.551L1000.73 589.266L1033.26 578.651L1030.42 569.936Z" fill="url(#paint66_linear_619_306)" fill-opacity="0.1" style="mix-blend-mode:overlay"/>
<path d="M1036.93 591.401L1003.74 599.767L1005.98 608.655L1039.17 600.289L1036.93 591.401Z" fill="url(#paint67_linear_619_306)" fill-opacity="0.1" style="mix-blend-mode:overlay"/>
<path d="M1041.98 613.184L1008.3 619.267L1009.93 628.288L1043.61 622.204L1041.98 613.184Z" fill="url(#paint68_linear_619_306)" fill-opacity="0.1" style="mix-blend-mode:overlay"/>
<path d="M1045.5 635.295L1011.49 639.068L1012.5 648.179L1046.51 644.405L1045.5 635.295Z" fill="url(#paint69_linear_619_306)" fill-opacity="0.1" style="mix-blend-mode:overlay"/>
<path d="M1047.49 657.617L1013.3 659.056L1013.69 668.214L1047.88 666.775L1047.49 657.617Z" fill="url(#paint70_linear_619_306)" fill-opacity="0.1" style="mix-blend-mode:overlay"/>
<path d="M1013.79 679.065L1013.55 688.229L1047.76 689.119L1048 679.955L1013.79 679.065Z" fill="url(#paint71_linear_619_306)" fill-opacity="0.1" style="mix-blend-mode:overlay"/>
<path d="M1012.92 699.133L1012.06 708.259L1046.13 711.485L1046.99 702.359L1012.92 699.133Z" fill="url(#paint72_linear_619_306)" fill-opacity="0.1" style="mix-blend-mode:overlay"/>
<path d="M1010.7 719.092L1009.22 728.138L1042.99 733.686L1044.47 724.64L1010.7 719.092Z" fill="url(#paint73_linear_619_306)" fill-opacity="0.1" style="mix-blend-mode:overlay"/>
<path d="M1007 738.766L1004.91 747.689L1038.22 755.521L1040.32 746.598L1007 738.766Z" fill="url(#paint74_linear_619_306)" fill-opacity="0.1" style="mix-blend-mode:overlay"/>
<path d="M1002.11 758.254L999.405 767.013L1032.11 777.105L1034.81 768.346L1002.11 758.254Z" fill="url(#paint75_linear_619_306)" fill-opacity="0.1" style="mix-blend-mode:overlay"/>
<path d="M995.801 777.293L992.507 785.848L1024.44 798.145L1027.74 789.591L995.801 777.293Z" fill="url(#paint76_linear_619_306)" fill-opacity="0.1" style="mix-blend-mode:overlay"/>
<path d="M988.244 795.859L984.374 804.169L1015.4 818.615L1019.27 810.305L988.244 795.859Z" fill="url(#paint77_linear_619_306)" fill-opacity="0.1" style="mix-blend-mode:overlay"/>
<path d="M979.495 813.971L975.067 821.996L1005.03 838.53L1009.46 830.504L979.495 813.971Z" fill="url(#paint78_linear_619_306)" fill-opacity="0.1" style="mix-blend-mode:overlay"/>
<path d="M969.433 831.279L964.468 838.984L993.233 857.522L998.199 849.817L969.433 831.279Z" fill="url(#paint79_linear_619_306)" fill-opacity="0.1" style="mix-blend-mode:overlay"/>
<path d="M958.265 847.935L952.786 855.283L980.221 875.74L985.7 868.391L958.265 847.935Z" fill="url(#paint80_linear_619_306)" fill-opacity="0.1" style="mix-blend-mode:overlay"/>
<path d="M945.976 863.865L940.007 870.822L965.979 893.107L971.948 886.15L945.976 863.865Z" fill="url(#paint81_linear_619_306)" fill-opacity="0.1" style="mix-blend-mode:overlay"/>
<path d="M932.636 878.779L926.206 885.313L950.598 909.317L957.028 902.783L932.636 878.779Z" fill="url(#paint82_linear_619_306)" fill-opacity="0.1" style="mix-blend-mode:overlay"/>
<path d="M918.308 892.794L911.448 898.874L934.146 924.485L941.006 918.405L918.308 892.794Z" fill="url(#paint83_linear_619_306)" fill-opacity="0.1" style="mix-blend-mode:overlay"/>
<path d="M903.028 905.935L895.768 911.532L916.663 938.635L923.923 933.038L903.028 905.935Z" fill="url(#paint84_linear_619_306)" fill-opacity="0.1" style="mix-blend-mode:overlay"/>
<path d="M886.91 917.822L879.286 922.911L898.284 951.375L905.908 946.287L886.91 917.822Z" fill="url(#paint85_linear_619_306)" fill-opacity="0.1" style="mix-blend-mode:overlay"/>
<path d="M870.039 928.603L862.086 933.16L879.098 962.854L887.052 958.297L870.039 928.603Z" fill="url(#paint86_linear_619_306)" fill-opacity="0.1" style="mix-blend-mode:overlay"/>
<path d="M852.416 938.32L844.169 942.323L859.112 973.11L867.358 969.108L852.416 938.32Z" fill="url(#paint87_linear_619_306)" fill-opacity="0.1" style="mix-blend-mode:overlay"/>
<path d="M834.196 946.755L825.696 950.186L838.504 981.92L847.005 978.489L834.196 946.755Z" fill="url(#paint88_linear_619_306)" fill-opacity="0.1" style="mix-blend-mode:overlay"/>
<path d="M815.505 953.839L806.79 956.682L817.405 989.216L826.12 986.373L815.505 953.839Z" fill="url(#paint89_linear_619_306)" fill-opacity="0.1" style="mix-blend-mode:overlay"/>
<path d="M796.329 959.719L787.441 961.962L795.813 995.144L804.701 992.902L796.329 959.719Z" fill="url(#paint90_linear_619_306)" fill-opacity="0.1" style="mix-blend-mode:overlay"/>
<path d="M776.756 964.307L767.735 965.937L773.819 999.614L782.84 997.984L776.756 964.307Z" fill="url(#paint91_linear_619_306)" fill-opacity="0.1" style="mix-blend-mode:overlay"/>
<path d="M756.958 967.478L747.847 968.489L751.62 1002.5L760.731 1001.49L756.958 967.478Z" fill="url(#paint92_linear_619_306)" fill-opacity="0.1" style="mix-blend-mode:overlay"/>
<path d="M576.298 644.795C574.312 644.428 572.967 645.528 572.57 647.698L571.806 651.792L578.039 652.953L578.803 648.859C579.2 646.659 578.284 645.161 576.298 644.795Z" fill="url(#paint93_linear_619_306)" fill-opacity="0.1" style="mix-blend-mode:overlay"/>
<path d="M481.729 671.439C476.84 671.561 474.151 674.831 474.273 680.27L474.518 690.414L490.04 690.047L489.795 679.903C489.673 674.464 486.709 671.286 481.729 671.409V671.439Z" fill="url(#paint94_linear_619_306)" fill-opacity="0.1" style="mix-blend-mode:overlay"/>
<path d="M863.641 710.153C865.596 710.55 866.971 709.511 867.43 707.311L868.285 703.247L862.052 701.964L861.196 706.028C860.738 708.197 861.624 709.756 863.641 710.153Z" fill="url(#paint95_linear_619_306)" fill-opacity="0.1" style="mix-blend-mode:overlay"/>
<path d="M807.877 483.126C816.066 486.854 824.163 483.065 828.441 473.623C832.78 464.09 830.274 455.626 822.055 451.898C813.835 448.171 805.83 451.837 801.491 461.401C797.152 470.934 799.658 479.398 807.877 483.126Z" fill="url(#paint96_linear_619_306)" fill-opacity="0.1" style="mix-blend-mode:overlay"/>
<path d="M574.525 698.847C574.037 699.092 573.456 699.367 573.059 699.489C573.456 699.489 574.067 699.581 574.648 699.672L581.431 700.895L580.575 695.517L574.525 698.817V698.847Z" fill="url(#paint97_linear_619_306)" fill-opacity="0.1" style="mix-blend-mode:overlay"/>
<path d="M608.167 753.939L597.259 762.097L599.275 764.816C601.689 768.025 605.203 768.453 608.564 765.947C611.986 763.411 612.567 759.836 610.061 756.505L608.167 753.939Z" fill="url(#paint98_linear_619_306)" fill-opacity="0.1" style="mix-blend-mode:overlay"/>
<path d="M752.908 808.389C749.333 809.275 747.683 812.483 748.691 816.638C749.7 820.794 752.664 822.872 756.239 822.016C759.814 821.13 761.464 817.861 760.455 813.766C759.416 809.611 756.483 807.533 752.908 808.389Z" fill="url(#paint99_linear_619_306)" fill-opacity="0.1" style="mix-blend-mode:overlay"/>
<path d="M484.112 619.739C484.967 620.167 486.312 620.9 487.534 621.664L501.651 630.77L504.737 617.814L487.992 619.617C486.648 619.709 485.12 619.831 484.112 619.739Z" fill="url(#paint100_linear_619_306)" fill-opacity="0.1" style="mix-blend-mode:overlay"/>
<path d="M720.305 576.198C665.275 576.198 620.511 620.992 620.511 676.022C620.511 731.053 665.275 775.816 720.305 775.816C775.336 775.816 820.13 731.053 820.13 676.022C820.13 620.992 775.336 576.198 720.305 576.198ZM757.369 673.761C757.369 675.197 757.277 676.603 757.125 678.009C755.75 690.383 748.233 700.956 737.753 706.608C732.497 709.45 726.508 711.039 720.122 711.039C709.397 711.039 699.68 706.456 692.867 699.183C691.461 697.686 690.178 696.067 689.047 694.325C685.136 688.428 682.844 681.339 682.844 673.792C682.844 672.814 682.875 671.836 682.967 670.859C686.053 673.761 689.505 676.328 693.172 678.559C695.433 691.361 706.647 701.139 720.122 701.139C724.125 701.139 727.944 700.283 731.397 698.695C740.9 694.417 747.5 684.853 747.5 673.761C747.5 672.661 747.439 671.622 747.316 670.584C746.827 666.336 745.361 662.364 743.13 658.942C742.489 657.934 741.786 656.986 741.022 656.07C735.98 650.142 728.494 646.384 720.122 646.384C715.508 646.384 711.169 647.545 707.38 649.561C704.386 647.117 702.43 644.489 701.605 641.464C707.075 638.317 713.4 636.514 720.122 636.514C726.844 636.514 733.322 638.348 738.822 641.556C745.666 645.528 751.136 651.639 754.314 658.972C756.3 663.525 757.369 668.536 757.369 673.792V673.761ZM715.141 609.809C724.369 609.809 736.653 611.795 746.583 619.006V609.809H753.611V643.359H746.583V639.967C746.216 638.714 745.758 637.492 745.269 636.3C740.655 625.331 731.336 617.05 716.394 617.05C701.453 617.05 693.753 626.217 693.264 637.156C693.264 637.523 693.264 637.859 693.264 638.225C693.264 639.906 693.447 641.495 693.783 642.992C694.486 646.2 695.983 648.95 698.03 651.456C698.764 652.372 699.619 653.289 700.536 654.114C700.964 654.511 701.392 654.909 701.88 655.306C703.378 656.559 704.997 657.75 706.769 658.85C711.719 662.028 717.616 664.747 723.636 667.528C728.983 669.911 734.422 672.386 739.525 675.197C739.097 680.85 736.255 685.983 731.764 689.345C727.15 686.472 721.833 683.967 716.425 681.431C710.283 678.65 704.019 675.839 698.336 672.447C697.572 671.989 696.808 671.531 696.075 671.042C694.455 670.003 692.897 668.872 691.43 667.711C690.514 667.009 689.597 666.214 688.772 665.42C682.569 659.614 678.444 652.159 678.444 641.648C678.444 629.334 685.869 609.839 715.172 609.839L715.141 609.809ZM719.816 742.205C709.183 742.205 697.022 739.242 688.161 733.314V742.205H681.133V708.656H688.161V715.592C693.661 728.119 705.883 734.567 720.55 734.567C735.216 734.567 746.583 726.622 746.583 711.956C746.583 711.406 746.583 710.856 746.522 710.336C752.083 706.333 756.575 701.17 759.783 695.272C761.28 698.939 762.136 703.064 762.136 707.8C762.136 727.875 746.736 742.175 719.786 742.175L719.816 742.205Z" fill="url(#paint101_linear_619_306)" fill-opacity="0.1" style="mix-blend-mode:overlay"/>
<path d="M682.997 808.633C682.814 808.969 682.478 809.519 682.142 810.008L678.169 815.63L683.425 817.097L682.967 810.222C682.967 809.672 682.936 809.03 682.967 808.633H682.997Z" fill="url(#paint102_linear_619_306)" fill-opacity="0.1" style="mix-blend-mode:overlay"/>
<path d="M814.08 789.2C815.547 790.85 817.319 790.88 819.091 789.353L821.902 786.878L817.349 781.683L814.569 784.128C812.766 785.716 812.644 787.55 814.08 789.2Z" fill="url(#paint103_linear_619_306)" fill-opacity="0.1" style="mix-blend-mode:overlay"/>
<path d="M804.211 889.391L816.433 884.135L805.005 871.791C804.119 870.783 803.111 869.591 802.591 868.735C802.774 869.683 802.988 871.21 803.08 872.616L804.211 889.391Z" fill="url(#paint104_linear_619_306)" fill-opacity="0.1" style="mix-blend-mode:overlay"/>
<path d="M847.569 601.437C847.935 601.039 848.363 600.551 848.699 600.306C848.333 600.428 847.721 600.612 847.141 600.703L840.388 602.048L843.169 606.723L847.569 601.437Z" fill="url(#paint105_linear_619_306)" fill-opacity="0.1" style="mix-blend-mode:overlay"/>
<path d="M932.329 671.684C932.513 680.697 939.418 686.32 949.777 686.106C960.257 685.892 966.796 679.964 966.582 670.95C966.399 661.936 959.615 656.314 949.135 656.528C938.654 656.742 932.116 662.67 932.329 671.684Z" fill="url(#paint106_linear_619_306)" fill-opacity="0.1" style="mix-blend-mode:overlay"/>
<path d="M697.205 880.744C688.253 879.735 681.775 885.724 680.614 896.144C679.453 906.563 684.464 913.835 693.417 914.813C702.369 915.791 708.878 909.71 710.008 899.413C711.169 888.994 706.158 881.722 697.205 880.744Z" fill="url(#paint107_linear_619_306)" fill-opacity="0.1" style="mix-blend-mode:overlay"/>
<path d="M697.908 541.365C701.544 540.754 703.439 537.637 702.736 533.451C702.033 529.204 699.253 526.912 695.617 527.523C691.98 528.134 690.086 531.19 690.789 535.437C691.492 539.654 694.272 541.976 697.908 541.365Z" fill="url(#paint108_linear_619_306)" fill-opacity="0.1" style="mix-blend-mode:overlay"/>
<path d="M1004.87 676.022C1004.87 518.876 877.482 391.46 720.305 391.46C563.128 391.46 435.773 518.845 435.773 676.022C435.773 833.199 563.159 960.585 720.336 960.585C877.513 960.585 1004.9 833.199 1004.9 676.022H1004.87ZM967.865 733.253L928.143 746.147L961.693 755.467L959.432 763.625L912.102 750.455L914.363 742.297L954.085 729.342L920.535 720.022L922.796 711.864L970.126 725.033L967.835 733.253H967.865ZM974.832 670.797C975.138 684.853 964.932 694.875 949.96 695.181C935.049 695.517 924.354 685.922 924.049 671.806C923.743 657.75 933.949 647.881 948.921 647.545C963.832 647.209 974.526 656.742 974.832 670.767V670.797ZM968.354 622.52L920.505 633.734L918.549 625.362L966.399 614.148L968.354 622.52ZM946.171 559.117L960.929 593.462L953.627 596.578L947.943 583.348L910.085 599.603L906.693 591.689L944.552 575.434L938.868 562.203L946.171 559.087V559.117ZM884.418 524.773L909.077 505.676L914.332 512.49L890.102 531.251C884.51 535.59 883.777 540.998 888.055 546.529C892.332 552.059 897.863 552.701 903.393 548.423L927.624 529.662L932.879 536.476L908.221 555.573C899.146 562.601 888.788 561.103 881.455 551.631C874.182 542.22 875.252 531.862 884.388 524.773H884.418ZM876.596 476.404L850.716 508.456L866.696 521.381L861.716 527.554L839.044 509.22L869.935 471.026L876.627 476.434L876.596 476.404ZM793.302 457.704C799.474 444.107 812.674 438.607 825.477 444.412C838.28 450.218 842.894 463.754 836.691 477.412C830.519 491.009 817.258 496.509 804.394 490.673C791.591 484.868 787.1 471.362 793.302 457.734V457.704ZM737.875 458.193L746.369 459.568C745.758 463.693 748.691 466.687 754.13 467.573C759.783 468.49 763.755 466.626 764.427 462.562C764.947 459.323 763.602 457.123 759.783 455.596L752.358 452.601C744.414 449.485 740.869 444.046 742.091 436.621C743.466 428.126 751.472 423.36 761.677 425.04C771.486 426.629 776.833 433.107 775.672 441.907L767.177 440.532C767.666 436.315 765.069 433.382 760.302 432.587C755.077 431.732 751.258 433.718 750.616 437.751C750.066 441.204 751.594 443.435 755.505 445.023L762.869 447.926C770.875 451.073 774.236 455.962 773.044 463.204C771.577 472.218 763.602 476.923 752.908 475.182C742.55 473.501 736.683 466.871 737.905 458.162L737.875 458.193ZM668.422 427.118C679.789 424.704 689.689 429.532 693.508 439.523L684.647 441.418C681.806 436.193 676.336 433.901 669.95 435.276C661.058 437.171 656.842 444.779 659.011 455.046C661.181 465.221 668.208 470.598 677.039 468.734C683.547 467.359 687.825 462.868 688.253 457.215L696.992 455.351C697.297 465.862 689.903 474.448 678.536 476.862C664.542 479.826 653.389 472.034 650.211 456.971C647.033 442.06 654.336 430.112 668.422 427.149V427.118ZM622.009 442.365L641.808 487.312L633.925 490.765L614.125 445.818L622.009 442.365ZM572.356 469.193C581.462 462.623 592.309 462.837 599.306 470.14L591.942 475.457C587.298 471.668 581.706 472.401 576.909 475.854C568.995 481.568 568.598 490.551 574.8 499.168C581.217 508.059 589.834 509.22 597.198 503.904C604.134 498.923 605.57 492.079 600.986 485.693L600.864 485.54L588.795 494.218L584.364 488.045L602.911 474.693L619.075 497.12L613.178 501.368L609.45 497.09C609.45 501.704 606.486 507.112 601.078 510.993C589.895 519.059 576.237 516.554 567.406 504.27C558.667 492.17 560.378 477.84 572.387 469.193H572.356ZM533.978 503.384L540.12 508.395L526.248 525.354L536.026 533.359L548.462 518.173L554.328 522.97L541.892 538.156L551.976 546.406L565.848 529.448L571.989 534.459L552.678 558.078L514.637 526.973L533.948 503.354L533.978 503.384ZM500.734 547.72L507.854 551.234L501.498 564.159L538.47 582.339L534.681 590.07L497.709 571.89L491.354 584.784L484.234 581.301L500.734 547.751V547.72ZM474.548 612.925L526.462 607.089L524.353 615.92L512.376 617.142L508.098 634.986L518.212 641.495L516.134 650.173L472.47 621.512L474.518 612.956L474.548 612.925ZM466.604 680.483C466.359 669.331 471.829 662.67 481.515 662.456C488.115 662.303 492.881 665.297 495.356 671.011L515.309 661.203L515.523 670.614L497.373 679.353L497.617 689.895L515.951 689.467L516.134 698.053L467.031 699.183L466.604 680.453V680.483ZM480.262 760.844L470.484 724.758L478.154 722.681L481.912 736.583L521.695 725.797L523.956 734.108L484.173 744.894L487.931 758.767L480.262 760.844ZM536.301 794.852L532.237 787.275C535.873 785.258 536.484 781.103 533.887 776.244C531.198 771.203 527.287 769.186 523.681 771.111C520.778 772.669 519.862 775.053 520.992 779.025L523.131 786.725C525.453 794.944 523.315 801.055 516.684 804.6C509.106 808.664 500.459 805.18 495.57 796.075C490.865 787.305 492.759 779.116 500.459 774.686L504.523 782.264C500.887 784.433 500.123 788.283 502.384 792.561C504.89 797.236 508.77 799.069 512.376 797.144C515.462 795.494 516.287 792.927 515.187 788.864L513.017 781.255C510.665 772.975 512.528 767.353 518.976 763.869C527.042 759.561 535.628 763.044 540.731 772.608C545.681 781.866 544.001 790.544 536.301 794.883V794.852ZM617.945 865.71L610.459 860.608C612.445 854.955 609.848 849.944 604.959 846.613C596.923 841.113 588.336 843.802 582.348 852.572C576.175 861.616 578.009 870.11 585.495 875.244C592.553 880.072 599.459 879.094 603.889 872.616L604.011 872.463L591.759 864.091L596.036 857.827L614.889 870.722L599.306 893.516L593.317 889.422L596.067 884.472C591.728 886.06 585.648 885.083 580.148 881.324C568.781 873.563 566.489 859.874 575.014 847.377C583.417 835.063 597.473 831.794 609.664 840.136C618.922 846.461 622.406 856.727 617.945 865.802V865.71ZM650.914 914.538L623.506 904.516L640.372 858.377L648.439 861.341L634.292 900.024L653.603 907.083L650.883 914.538H650.914ZM719.022 900.483C717.372 915.302 706.433 924.652 692.408 923.094C678.444 921.535 669.981 910.108 671.631 895.196C673.281 880.377 684.128 871.027 698.092 872.585C712.055 874.144 720.641 885.602 718.991 900.483H719.022ZM720.305 857.033C620.511 857.033 539.326 775.847 539.326 676.053C539.326 576.259 620.511 495.043 720.305 495.043C820.099 495.043 901.316 576.259 901.316 676.053C901.316 775.847 820.099 857.033 720.305 857.033ZM762.289 920.313L742.641 923.399L735.033 874.877L754.344 871.852C763.908 870.355 770.538 874.419 771.791 882.516C772.647 887.894 770.844 892.11 766.566 894.769C771.944 895.624 775.122 899.077 776.008 904.73C777.291 913.041 772.28 918.785 762.258 920.344L762.289 920.313ZM829.724 898.771L821.597 889.88L804.73 897.122L805.555 909.13L797.336 912.644L794.28 860.486L802.377 857.033L838.035 895.196L829.694 898.771H829.724ZM857.071 883.035L827.86 843.497L834.796 838.394L859.302 871.547L875.863 859.324L880.569 865.71L857.102 883.066L857.071 883.035ZM932.36 789.78C929.335 788.008 926.707 788.65 923.835 791.736L918.488 797.572C912.682 803.927 906.907 805.302 900.582 801.605C892.699 796.991 891.171 787.855 896.61 778.505C901.896 769.43 910.177 766.314 917.877 770.591L913.538 778.016C909.902 775.969 906.052 777.619 903.271 782.386C900.399 787.336 900.705 791.705 904.249 793.783C907.091 795.433 909.627 794.975 912.407 791.919L917.846 786.053C923.621 779.758 929.946 778.383 936.454 782.172C943.879 786.511 945.468 795.677 940.274 804.63C935.263 813.216 927.318 815.905 919.527 811.689L923.866 804.264C927.624 806.219 931.291 804.875 933.735 800.689C936.424 796.105 935.935 791.858 932.391 789.78H932.36Z" fill="url(#paint109_linear_619_306)" fill-opacity="0.1" style="mix-blend-mode:overlay"/>
<path d="M763.236 884.685C762.594 880.499 759.569 878.666 754.802 879.399L744.719 880.988L746.797 894.188L757.094 892.569C761.738 891.835 763.939 888.994 763.266 884.655L763.236 884.685Z" fill="url(#paint110_linear_619_306)" fill-opacity="0.1" style="mix-blend-mode:overlay"/>
<path d="M720.305 501.123C623.872 501.123 545.437 579.589 545.437 676.022C545.437 772.455 623.872 850.891 720.305 850.891C816.738 850.891 895.205 772.455 895.205 676.022C895.205 579.589 816.738 501.123 720.305 501.123ZM871.494 648.859L863.274 650.081L864.588 658.881L872.807 657.659L873.327 661.142L853.466 664.106L852.946 660.622L861.38 659.37L860.066 650.57L851.633 651.823L851.113 648.339L870.974 645.375L871.494 648.859ZM864.557 623.406C866.574 628.998 864.099 634.223 858.446 636.27C852.885 638.256 847.66 635.873 845.705 630.373L843.26 623.559L862.174 616.775L864.557 623.406ZM851.633 596.487L853.466 599.573L839.838 616.042L837.944 612.834L841.121 609.076L837.302 602.598L832.474 603.576L830.61 600.428L851.633 596.456V596.487ZM841.244 581.24L838.769 583.348L832.933 576.534L828.991 579.895L834.216 586.006L831.863 588.023L826.638 581.912L822.574 585.395L828.41 592.209L825.935 594.317L817.808 584.845L833.085 571.767L841.213 581.24H841.244ZM815.699 555.665L818.388 557.956L807.48 570.79L813.897 576.228L811.788 578.703L802.713 570.973L815.73 555.665H815.699ZM776.252 532.779L779.43 534.215L782.119 551.081L788.016 538.126L791.163 539.562L782.852 557.865L779.705 556.428L776.986 539.562L771.088 552.517L767.941 551.081L776.252 532.779ZM751.655 525.598L763.755 528.593L762.961 531.74L754.252 529.57L753 534.581L760.791 536.506L760.058 539.531L752.266 537.606L750.983 542.77L759.691 544.94L758.897 548.087L746.797 545.092L751.625 525.598H751.655ZM717.983 522.206L721.375 522.39L727.058 538.676L734.33 523.001L737.783 523.184L736.805 543.259L733.414 543.076L733.719 536.904C733.903 532.87 733.964 531.679 734.239 530.273L728.494 542.862L725.255 542.709L720.794 529.662C720.916 530.884 720.855 532.779 720.733 535.284L720.366 542.465L716.975 542.312L717.953 522.237L717.983 522.206ZM695.158 524.223C700.842 523.276 705.486 526.851 706.494 532.901C707.503 538.92 704.233 543.809 698.519 544.756C692.836 545.704 688.253 542.129 687.244 536.079C686.236 530.059 689.475 525.17 695.158 524.223ZM652.87 537.759L659.867 546.376C660.57 547.262 661.272 548.209 662.22 549.706C661.853 547.934 661.731 546.834 661.608 545.642L660.508 534.612L664.083 533.145L670.989 541.792C671.722 542.709 672.456 543.656 673.403 545.123C673.036 543.259 672.883 542.159 672.792 541.09L671.753 529.998L675.053 528.623L677.039 549.554L673.892 550.837L664.358 538.92L665.856 554.106L662.647 555.42L649.478 539.073L652.87 537.667V537.759ZM616.142 563.303L632.611 567.856L623.261 557.101L625.889 554.84L639.089 569.995L636.461 572.256L619.992 567.703L629.342 578.459L626.714 580.72L613.514 565.565L616.142 563.273V563.303ZM600.681 579.956L620.97 586.648L618.678 589.581L614.034 587.992L609.389 593.889L612.048 598.045L609.786 600.917L598.45 582.798L600.681 579.956ZM584.12 604.584C586.32 600.367 590.414 598.503 594.57 599.878L592.859 603.178C590.475 602.72 588.306 603.851 587.084 606.203C585.373 609.503 586.686 612.803 590.475 614.789C594.264 616.775 597.778 615.95 599.489 612.681C600.742 610.267 600.436 607.762 598.786 606.142L600.467 602.903C603.859 605.562 604.653 610.114 602.453 614.331C599.734 619.525 594.386 620.992 588.795 618.089C583.264 615.187 581.4 609.778 584.12 604.584ZM575.595 624.964L594.6 631.442L593.47 634.773L574.464 628.295L575.595 624.964ZM569.575 647.178C570.4 642.686 573.181 640.486 577.062 641.22C579.72 641.709 581.37 643.298 581.889 645.803L590.689 643.542L589.986 647.331L581.981 649.317L581.187 653.564L588.581 654.939L587.939 658.392L568.17 654.725L569.575 647.178ZM566.978 667.009L570.217 667.07L570.064 675.992L575.534 676.084L575.656 668.597L578.834 668.659L578.712 676.145L586.931 676.297L586.87 679.811L566.764 679.475L566.978 667.039V667.009ZM568.445 698.45L587.175 688.092L587.756 691.758L583.417 694.081L584.609 701.506L589.467 702.361L590.048 705.967L569.025 701.964L568.445 698.389V698.45ZM587.97 734.719L583.142 736.98L586.931 745.108L583.998 746.483L578.712 735.147L596.953 726.653L602.209 737.989L599.275 739.364L595.486 731.236L590.811 733.405L594.203 740.678L591.392 741.992L588 734.719H587.97ZM610.856 768.941C606.12 772.486 600.436 771.722 596.923 767.047L592.584 761.242L608.717 749.203L612.934 754.855C616.478 759.622 615.653 765.366 610.856 768.941ZM631.297 792.011C628.242 795.586 623.964 795.83 620.236 792.622C616.539 789.444 616.142 785.197 619.228 781.622L627.57 771.966L630.228 774.258L622.039 783.761C620.145 785.961 620.297 788.191 622.467 790.055C624.636 791.919 626.897 791.736 628.761 789.566L636.95 780.064L639.608 782.355L631.267 792.011H631.297ZM663.319 804.294L660.05 802.552C660.539 800.169 659.408 798 657.056 796.777C653.786 795.036 650.456 796.319 648.439 800.108C646.453 803.866 647.247 807.411 650.517 809.122C652.931 810.405 655.436 810.1 657.056 808.45L660.295 810.161C657.636 813.552 653.053 814.286 648.867 812.055C643.703 809.305 642.236 803.927 645.2 798.366C648.133 792.866 653.542 791.033 658.736 793.783C662.953 796.014 664.786 800.139 663.35 804.264L663.319 804.294ZM684.006 825.163L683.7 820.244L676.458 818.197L673.647 822.23L670.133 821.252L682.569 803.866L686.053 804.844L687.581 826.172L684.006 825.163ZM715.753 812.727L709.886 812.208L708.358 828.983L704.844 828.677L706.372 811.902L700.505 811.383L700.811 808.144L716.028 809.519L715.722 812.758L715.753 812.727ZM614.492 676.022C614.492 617.6 662.006 570.087 720.397 570.087C778.788 570.087 826.333 617.6 826.333 676.022C826.333 734.444 778.819 781.928 720.397 781.928C661.975 781.928 614.492 734.414 614.492 676.022ZM728.464 829.227L727.211 809.152L730.725 808.939L731.978 829.013L728.464 829.227ZM757.125 825.316C751.533 826.691 746.675 823.483 745.208 817.525C743.741 811.597 746.583 806.464 752.175 805.089C757.766 803.714 762.686 806.891 764.152 812.85C765.619 818.777 762.747 823.911 757.125 825.286V825.316ZM794.311 810.497L779.4 802.125L785.908 814.805L782.822 816.394L773.655 798.489L776.772 796.9L791.652 805.272L785.144 792.591L788.23 791.002L797.397 808.908L794.311 810.497ZM820.741 792.164C817.716 794.822 813.988 794.577 811.391 791.614C808.824 788.711 809.008 784.922 812.033 782.264L815.363 779.33L810.78 774.136L813.438 771.814L826.73 786.908L820.772 792.164H820.741ZM835.744 777.253L820.497 764.175L822.788 761.517L838.035 774.594L835.744 777.253ZM852.946 753.603L845.919 749.203L841.183 756.75L848.21 761.15L846.346 764.144L829.297 753.48L831.16 750.486L838.372 755.008L843.108 747.461L835.897 742.939L837.76 739.944L854.81 750.608L852.946 753.603ZM863.396 732.917C861.899 736.706 858.844 738.264 855.421 737.042L856.735 733.772C858.385 734.322 859.791 733.558 860.524 731.725C861.319 729.708 860.86 728.028 859.302 727.386C857.957 726.867 856.949 727.264 855.971 728.7L854.169 731.389C852.213 734.322 849.952 735.208 847.172 734.108C843.688 732.733 842.527 729.128 844.177 725.003C845.766 721.031 848.913 719.258 852.305 720.511L850.991 723.781C849.402 723.169 847.935 724.086 847.11 726.164C846.255 728.333 846.652 730.105 848.21 730.717C849.463 731.206 850.471 730.869 851.388 729.464L853.221 726.775C855.177 723.872 857.652 722.956 860.494 724.086C863.763 725.4 864.955 729.006 863.396 732.947V732.917ZM870.607 707.953C869.691 712.414 866.88 714.583 862.999 713.758C860.371 713.208 858.721 711.589 858.263 709.053L849.402 711.131L850.196 707.372L858.233 705.569L859.119 701.353L851.755 699.825L852.458 696.372L872.166 700.467L870.607 707.983V707.953ZM870.394 687.389L870.669 678.406L865.505 678.253L865.26 686.289L862.144 686.197L862.388 678.161L857.041 677.978L856.766 686.931L853.527 686.839L853.924 674.342L874.03 674.984L873.632 687.481L870.394 687.389Z" fill="url(#paint111_linear_619_306)" fill-opacity="0.1" style="mix-blend-mode:overlay"/>
<path d="M604.47 584.753C603.95 584.57 603.37 584.356 603.003 584.142C603.248 584.448 603.645 584.937 603.95 585.426L607.648 591.231L611.009 586.953L604.47 584.753Z" fill="url(#paint112_linear_619_306)" fill-opacity="0.1" style="mix-blend-mode:overlay"/>
<path d="M857.194 632.756C861.196 631.32 862.785 628.081 861.38 624.17L860.31 621.175L847.508 625.759L848.638 628.937C849.983 632.725 853.252 634.161 857.194 632.725V632.756Z" fill="url(#paint113_linear_619_306)" fill-opacity="0.1" style="mix-blend-mode:overlay"/>
<path d="M758.714 899.688L747.897 901.369L749.944 914.507L760.761 912.827C765.527 912.063 767.819 909.344 767.147 904.944C766.505 900.819 763.419 898.924 758.714 899.658V899.688Z" fill="url(#paint114_linear_619_306)" fill-opacity="0.1" style="mix-blend-mode:overlay"/>
<g filter="url(#filter0_f_619_306)">
<circle cx="1142" cy="498" r="6" fill="url(#paint115_radial_619_306)"/>
</g>
<g filter="url(#filter1_f_619_306)">
<circle cx="67" cy="660" r="8" fill="url(#paint116_radial_619_306)"/>
</g>
<g filter="url(#filter2_f_619_306)">
<circle cx="555" cy="417" r="8" fill="url(#paint117_radial_619_306)"/>
</g>
<g filter="url(#filter3_f_619_306)">
<circle cx="797" cy="924" r="8" fill="url(#paint118_radial_619_306)"/>
</g>
<g filter="url(#filter4_f_619_306)">
<circle cx="1176" cy="803" r="14" fill="url(#paint119_radial_619_306)"/>
</g>
<g filter="url(#filter5_f_619_306)">
<circle cx="1371" cy="543" r="10" fill="url(#paint120_radial_619_306)"/>
</g>
<g filter="url(#filter6_f_619_306)">
<circle cx="238" cy="489" r="9" fill="url(#paint121_radial_619_306)"/>
</g>
<g filter="url(#filter7_f_619_306)">
<circle cx="319" cy="785" r="10" fill="url(#paint122_radial_619_306)"/>
</g>
<g filter="url(#filter8_f_619_306)">
<circle cx="514" cy="807" r="10" fill="url(#paint123_radial_619_306)"/>
</g>
<defs>
<filter id="filter0_f_619_306" x="1125" y="481" width="34" height="34" filterUnits="userSpaceOnUse" color-interpolation-filters="sRGB">
<feFlood flood-opacity="0" result="BackgroundImageFix"/>
<feBlend mode="normal" in="SourceGraphic" in2="BackgroundImageFix" result="shape"/>
<feGaussianBlur stdDeviation="5.5" result="effect1_foregroundBlur_619_306"/>
</filter>
<filter id="filter1_f_619_306" x="48" y="641" width="38" height="38" filterUnits="userSpaceOnUse" color-interpolation-filters="sRGB">
<feFlood flood-opacity="0" result="BackgroundImageFix"/>
<feBlend mode="normal" in="SourceGraphic" in2="BackgroundImageFix" result="shape"/>
<feGaussianBlur stdDeviation="5.5" result="effect1_foregroundBlur_619_306"/>
</filter>
<filter id="filter2_f_619_306" x="536" y="398" width="38" height="38" filterUnits="userSpaceOnUse" color-interpolation-filters="sRGB">
<feFlood flood-opacity="0" result="BackgroundImageFix"/>
<feBlend mode="normal" in="SourceGraphic" in2="BackgroundImageFix" result="shape"/>
<feGaussianBlur stdDeviation="5.5" result="effect1_foregroundBlur_619_306"/>
</filter>
<filter id="filter3_f_619_306" x="778" y="905" width="38" height="38" filterUnits="userSpaceOnUse" color-interpolation-filters="sRGB">
<feFlood flood-opacity="0" result="BackgroundImageFix"/>
<feBlend mode="normal" in="SourceGraphic" in2="BackgroundImageFix" result="shape"/>
<feGaussianBlur stdDeviation="5.5" result="effect1_foregroundBlur_619_306"/>
</filter>
<filter id="filter4_f_619_306" x="1151" y="778" width="50" height="50" filterUnits="userSpaceOnUse" color-interpolation-filters="sRGB">
<feFlood flood-opacity="0" result="BackgroundImageFix"/>
<feBlend mode="normal" in="SourceGraphic" in2="BackgroundImageFix" result="shape"/>
<feGaussianBlur stdDeviation="5.5" result="effect1_foregroundBlur_619_306"/>
</filter>
<filter id="filter5_f_619_306" x="1350" y="522" width="42" height="42" filterUnits="userSpaceOnUse" color-interpolation-filters="sRGB">
<feFlood flood-opacity="0" result="BackgroundImageFix"/>
<feBlend mode="normal" in="SourceGraphic" in2="BackgroundImageFix" result="shape"/>
<feGaussianBlur stdDeviation="5.5" result="effect1_foregroundBlur_619_306"/>
</filter>
<filter id="filter6_f_619_306" x="218" y="469" width="40" height="40" filterUnits="userSpaceOnUse" color-interpolation-filters="sRGB">
<feFlood flood-opacity="0" result="BackgroundImageFix"/>
<feBlend mode="normal" in="SourceGraphic" in2="BackgroundImageFix" result="shape"/>
<feGaussianBlur stdDeviation="5.5" result="effect1_foregroundBlur_619_306"/>
</filter>
<filter id="filter7_f_619_306" x="298" y="764" width="42" height="42" filterUnits="userSpaceOnUse" color-interpolation-filters="sRGB">
<feFlood flood-opacity="0" result="BackgroundImageFix"/>
<feBlend mode="normal" in="SourceGraphic" in2="BackgroundImageFix" result="shape"/>
<feGaussianBlur stdDeviation="5.5" result="effect1_foregroundBlur_619_306"/>
</filter>
<filter id="filter8_f_619_306" x="493" y="786" width="42" height="42" filterUnits="userSpaceOnUse" color-interpolation-filters="sRGB">
<feFlood flood-opacity="0" result="BackgroundImageFix"/>
<feBlend mode="normal" in="SourceGraphic" in2="BackgroundImageFix" result="shape"/>
<feGaussianBlur stdDeviation="5.5" result="effect1_foregroundBlur_619_306"/>
</filter>
<radialGradient id="paint0_radial_619_306" cx="0" cy="0" r="1" gradientUnits="userSpaceOnUse" gradientTransform="translate(720 642) rotate(-90) scale(642 821.414)">
<stop stop-color="#1A27C9" stop-opacity="0.34"/>
<stop offset="1" stop-color="#1A27C9" stop-opacity="0"/>
</radialGradient>
<linearGradient id="paint1_linear_619_306" x1="720" y1="348" x2="720" y2="1065.42" gradientUnits="userSpaceOnUse">
<stop stop-color="white"/>
<stop offset="1" stop-color="white" stop-opacity="0.54"/>
</linearGradient>
<linearGradient id="paint2_linear_619_306" x1="720" y1="348" x2="720" y2="1065.42" gradientUnits="userSpaceOnUse">
<stop stop-color="white"/>
<stop offset="1" stop-color="white" stop-opacity="0.54"/>
</linearGradient>
<linearGradient id="paint3_linear_619_306" x1="720" y1="348" x2="720" y2="1065.42" gradientUnits="userSpaceOnUse">
<stop stop-color="white"/>
<stop offset="1" stop-color="white" stop-opacity="0.54"/>
</linearGradient>
<linearGradient id="paint4_linear_619_306" x1="720" y1="348" x2="720" y2="1065.42" gradientUnits="userSpaceOnUse">
<stop stop-color="white"/>
<stop offset="1" stop-color="white" stop-opacity="0.54"/>
</linearGradient>
<linearGradient id="paint5_linear_619_306" x1="720" y1="348" x2="720" y2="1065.42" gradientUnits="userSpaceOnUse">
<stop stop-color="white"/>
<stop offset="1" stop-color="white" stop-opacity="0.54"/>
</linearGradient>
<linearGradient id="paint6_linear_619_306" x1="720" y1="348" x2="720" y2="1065.42" gradientUnits="userSpaceOnUse">
<stop stop-color="white"/>
<stop offset="1" stop-color="white" stop-opacity="0.54"/>
</linearGradient>
<linearGradient id="paint7_linear_619_306" x1="720" y1="348" x2="720" y2="1065.42" gradientUnits="userSpaceOnUse">
<stop stop-color="white"/>
<stop offset="1" stop-color="white" stop-opacity="0.54"/>
</linearGradient>
<linearGradient id="paint8_linear_619_306" x1="720" y1="348" x2="720" y2="1065.42" gradientUnits="userSpaceOnUse">
<stop stop-color="white"/>
<stop offset="1" stop-color="white" stop-opacity="0.54"/>
</linearGradient>
<linearGradient id="paint9_linear_619_306" x1="720" y1="348" x2="720" y2="1065.42" gradientUnits="userSpaceOnUse">
<stop stop-color="white"/>
<stop offset="1" stop-color="white" stop-opacity="0.54"/>
</linearGradient>
<linearGradient id="paint10_linear_619_306" x1="720" y1="348" x2="720" y2="1065.42" gradientUnits="userSpaceOnUse">
<stop stop-color="white"/>
<stop offset="1" stop-color="white" stop-opacity="0.54"/>
</linearGradient>
<linearGradient id="paint11_linear_619_306" x1="720" y1="348" x2="720" y2="1065.42" gradientUnits="userSpaceOnUse">
<stop stop-color="white"/>
<stop offset="1" stop-color="white" stop-opacity="0.54"/>
</linearGradient>
<linearGradient id="paint12_linear_619_306" x1="720" y1="348" x2="720" y2="1065.42" gradientUnits="userSpaceOnUse">
<stop stop-color="white"/>
<stop offset="1" stop-color="white" stop-opacity="0.54"/>
</linearGradient>
<linearGradient id="paint13_linear_619_306" x1="720" y1="348" x2="720" y2="1065.42" gradientUnits="userSpaceOnUse">
<stop stop-color="white"/>
<stop offset="1" stop-color="white" stop-opacity="0.54"/>
</linearGradient>
<linearGradient id="paint14_linear_619_306" x1="720" y1="348" x2="720" y2="1065.42" gradientUnits="userSpaceOnUse">
<stop stop-color="white"/>
<stop offset="1" stop-color="white" stop-opacity="0.54"/>
</linearGradient>
<linearGradient id="paint15_linear_619_306" x1="720" y1="348" x2="720" y2="1065.42" gradientUnits="userSpaceOnUse">
<stop stop-color="white"/>
<stop offset="1" stop-color="white" stop-opacity="0.54"/>
</linearGradient>
<linearGradient id="paint16_linear_619_306" x1="720" y1="348" x2="720" y2="1065.42" gradientUnits="userSpaceOnUse">
<stop stop-color="white"/>
<stop offset="1" stop-color="white" stop-opacity="0.54"/>
</linearGradient>
<linearGradient id="paint17_linear_619_306" x1="720" y1="348" x2="720" y2="1065.42" gradientUnits="userSpaceOnUse">
<stop stop-color="white"/>
<stop offset="1" stop-color="white" stop-opacity="0.54"/>
</linearGradient>
<linearGradient id="paint18_linear_619_306" x1="720" y1="348" x2="720" y2="1065.42" gradientUnits="userSpaceOnUse">
<stop stop-color="white"/>
<stop offset="1" stop-color="white" stop-opacity="0.54"/>
</linearGradient>
<linearGradient id="paint19_linear_619_306" x1="720" y1="348" x2="720" y2="1065.42" gradientUnits="userSpaceOnUse">
<stop stop-color="white"/>
<stop offset="1" stop-color="white" stop-opacity="0.54"/>
</linearGradient>
<linearGradient id="paint20_linear_619_306" x1="720" y1="348" x2="720" y2="1065.42" gradientUnits="userSpaceOnUse">
<stop stop-color="white"/>
<stop offset="1" stop-color="white" stop-opacity="0.54"/>
</linearGradient>
<linearGradient id="paint21_linear_619_306" x1="720" y1="348" x2="720" y2="1065.42" gradientUnits="userSpaceOnUse">
<stop stop-color="white"/>
<stop offset="1" stop-color="white" stop-opacity="0.54"/>
</linearGradient>
<linearGradient id="paint22_linear_619_306" x1="720" y1="348" x2="720" y2="1065.42" gradientUnits="userSpaceOnUse">
<stop stop-color="white"/>
<stop offset="1" stop-color="white" stop-opacity="0.54"/>
</linearGradient>
<linearGradient id="paint23_linear_619_306" x1="720" y1="348" x2="720" y2="1065.42" gradientUnits="userSpaceOnUse">
<stop stop-color="white"/>
<stop offset="1" stop-color="white" stop-opacity="0.54"/>
</linearGradient>
<linearGradient id="paint24_linear_619_306" x1="720" y1="348" x2="720" y2="1065.42" gradientUnits="userSpaceOnUse">
<stop stop-color="white"/>
<stop offset="1" stop-color="white" stop-opacity="0.54"/>
</linearGradient>
<linearGradient id="paint25_linear_619_306" x1="720" y1="348" x2="720" y2="1065.42" gradientUnits="userSpaceOnUse">
<stop stop-color="white"/>
<stop offset="1" stop-color="white" stop-opacity="0.54"/>
</linearGradient>
<linearGradient id="paint26_linear_619_306" x1="720" y1="348" x2="720" y2="1065.42" gradientUnits="userSpaceOnUse">
<stop stop-color="white"/>
<stop offset="1" stop-color="white" stop-opacity="0.54"/>
</linearGradient>
<linearGradient id="paint27_linear_619_306" x1="720" y1="348" x2="720" y2="1065.42" gradientUnits="userSpaceOnUse">
<stop stop-color="white"/>
<stop offset="1" stop-color="white" stop-opacity="0.54"/>
</linearGradient>
<linearGradient id="paint28_linear_619_306" x1="720" y1="348" x2="720" y2="1065.42" gradientUnits="userSpaceOnUse">
<stop stop-color="white"/>
<stop offset="1" stop-color="white" stop-opacity="0.54"/>
</linearGradient>
<linearGradient id="paint29_linear_619_306" x1="720" y1="348" x2="720" y2="1065.42" gradientUnits="userSpaceOnUse">
<stop stop-color="white"/>
<stop offset="1" stop-color="white" stop-opacity="0.54"/>
</linearGradient>
<linearGradient id="paint30_linear_619_306" x1="720" y1="348" x2="720" y2="1065.42" gradientUnits="userSpaceOnUse">
<stop stop-color="white"/>
<stop offset="1" stop-color="white" stop-opacity="0.54"/>
</linearGradient>
<linearGradient id="paint31_linear_619_306" x1="720" y1="348" x2="720" y2="1065.42" gradientUnits="userSpaceOnUse">
<stop stop-color="white"/>
<stop offset="1" stop-color="white" stop-opacity="0.54"/>
</linearGradient>
<linearGradient id="paint32_linear_619_306" x1="720" y1="348" x2="720" y2="1065.42" gradientUnits="userSpaceOnUse">
<stop stop-color="white"/>
<stop offset="1" stop-color="white" stop-opacity="0.54"/>
</linearGradient>
<linearGradient id="paint33_linear_619_306" x1="720" y1="348" x2="720" y2="1065.42" gradientUnits="userSpaceOnUse">
<stop stop-color="white"/>
<stop offset="1" stop-color="white" stop-opacity="0.54"/>
</linearGradient>
<linearGradient id="paint34_linear_619_306" x1="720" y1="348" x2="720" y2="1065.42" gradientUnits="userSpaceOnUse">
<stop stop-color="white"/>
<stop offset="1" stop-color="white" stop-opacity="0.54"/>
</linearGradient>
<linearGradient id="paint35_linear_619_306" x1="720" y1="348" x2="720" y2="1065.42" gradientUnits="userSpaceOnUse">
<stop stop-color="white"/>
<stop offset="1" stop-color="white" stop-opacity="0.54"/>
</linearGradient>
<linearGradient id="paint36_linear_619_306" x1="720" y1="348" x2="720" y2="1065.42" gradientUnits="userSpaceOnUse">
<stop stop-color="white"/>
<stop offset="1" stop-color="white" stop-opacity="0.54"/>
</linearGradient>
<linearGradient id="paint37_linear_619_306" x1="720" y1="348" x2="720" y2="1065.42" gradientUnits="userSpaceOnUse">
<stop stop-color="white"/>
<stop offset="1" stop-color="white" stop-opacity="0.54"/>
</linearGradient>
<linearGradient id="paint38_linear_619_306" x1="720" y1="348" x2="720" y2="1065.42" gradientUnits="userSpaceOnUse">
<stop stop-color="white"/>
<stop offset="1" stop-color="white" stop-opacity="0.54"/>
</linearGradient>
<linearGradient id="paint39_linear_619_306" x1="720" y1="348" x2="720" y2="1065.42" gradientUnits="userSpaceOnUse">
<stop stop-color="white"/>
<stop offset="1" stop-color="white" stop-opacity="0.54"/>
</linearGradient>
<linearGradient id="paint40_linear_619_306" x1="720" y1="348" x2="720" y2="1065.42" gradientUnits="userSpaceOnUse">
<stop stop-color="white"/>
<stop offset="1" stop-color="white" stop-opacity="0.54"/>
</linearGradient>
<linearGradient id="paint41_linear_619_306" x1="720" y1="348" x2="720" y2="1065.42" gradientUnits="userSpaceOnUse">
<stop stop-color="white"/>
<stop offset="1" stop-color="white" stop-opacity="0.54"/>
</linearGradient>
<linearGradient id="paint42_linear_619_306" x1="720" y1="348" x2="720" y2="1065.42" gradientUnits="userSpaceOnUse">
<stop stop-color="white"/>
<stop offset="1" stop-color="white" stop-opacity="0.54"/>
</linearGradient>
<linearGradient id="paint43_linear_619_306" x1="720" y1="348" x2="720" y2="1065.42" gradientUnits="userSpaceOnUse">
<stop stop-color="white"/>
<stop offset="1" stop-color="white" stop-opacity="0.54"/>
</linearGradient>
<linearGradient id="paint44_linear_619_306" x1="720" y1="348" x2="720" y2="1065.42" gradientUnits="userSpaceOnUse">
<stop stop-color="white"/>
<stop offset="1" stop-color="white" stop-opacity="0.54"/>
</linearGradient>
<linearGradient id="paint45_linear_619_306" x1="720" y1="348" x2="720" y2="1065.42" gradientUnits="userSpaceOnUse">
<stop stop-color="white"/>
<stop offset="1" stop-color="white" stop-opacity="0.54"/>
</linearGradient>
<linearGradient id="paint46_linear_619_306" x1="720" y1="348" x2="720" y2="1065.42" gradientUnits="userSpaceOnUse">
<stop stop-color="white"/>
<stop offset="1" stop-color="white" stop-opacity="0.54"/>
</linearGradient>
<linearGradient id="paint47_linear_619_306" x1="720" y1="348" x2="720" y2="1065.42" gradientUnits="userSpaceOnUse">
<stop stop-color="white"/>
<stop offset="1" stop-color="white" stop-opacity="0.54"/>
</linearGradient>
<linearGradient id="paint48_linear_619_306" x1="720" y1="348" x2="720" y2="1065.42" gradientUnits="userSpaceOnUse">
<stop stop-color="white"/>
<stop offset="1" stop-color="white" stop-opacity="0.54"/>
</linearGradient>
<linearGradient id="paint49_linear_619_306" x1="720" y1="348" x2="720" y2="1065.42" gradientUnits="userSpaceOnUse">
<stop stop-color="white"/>
<stop offset="1" stop-color="white" stop-opacity="0.54"/>
</linearGradient>
<linearGradient id="paint50_linear_619_306" x1="720" y1="348" x2="720" y2="1065.42" gradientUnits="userSpaceOnUse">
<stop stop-color="white"/>
<stop offset="1" stop-color="white" stop-opacity="0.54"/>
</linearGradient>
<linearGradient id="paint51_linear_619_306" x1="720" y1="348" x2="720" y2="1065.42" gradientUnits="userSpaceOnUse">
<stop stop-color="white"/>
<stop offset="1" stop-color="white" stop-opacity="0.54"/>
</linearGradient>
<linearGradient id="paint52_linear_619_306" x1="720" y1="348" x2="720" y2="1065.42" gradientUnits="userSpaceOnUse">
<stop stop-color="white"/>
<stop offset="1" stop-color="white" stop-opacity="0.54"/>
</linearGradient>
<linearGradient id="paint53_linear_619_306" x1="720" y1="348" x2="720" y2="1065.42" gradientUnits="userSpaceOnUse">
<stop stop-color="white"/>
<stop offset="1" stop-color="white" stop-opacity="0.54"/>
</linearGradient>
<linearGradient id="paint54_linear_619_306" x1="720" y1="348" x2="720" y2="1065.42" gradientUnits="userSpaceOnUse">
<stop stop-color="white"/>
<stop offset="1" stop-color="white" stop-opacity="0.54"/>
</linearGradient>
<linearGradient id="paint55_linear_619_306" x1="720" y1="348" x2="720" y2="1065.42" gradientUnits="userSpaceOnUse">
<stop stop-color="white"/>
<stop offset="1" stop-color="white" stop-opacity="0.54"/>
</linearGradient>
<linearGradient id="paint56_linear_619_306" x1="720" y1="348" x2="720" y2="1065.42" gradientUnits="userSpaceOnUse">
<stop stop-color="white"/>
<stop offset="1" stop-color="white" stop-opacity="0.54"/>
</linearGradient>
<linearGradient id="paint57_linear_619_306" x1="720" y1="348" x2="720" y2="1065.42" gradientUnits="userSpaceOnUse">
<stop stop-color="white"/>
<stop offset="1" stop-color="white" stop-opacity="0.54"/>
</linearGradient>
<linearGradient id="paint58_linear_619_306" x1="720" y1="348" x2="720" y2="1065.42" gradientUnits="userSpaceOnUse">
<stop stop-color="white"/>
<stop offset="1" stop-color="white" stop-opacity="0.54"/>
</linearGradient>
<linearGradient id="paint59_linear_619_306" x1="720" y1="348" x2="720" y2="1065.42" gradientUnits="userSpaceOnUse">
<stop stop-color="white"/>
<stop offset="1" stop-color="white" stop-opacity="0.54"/>
</linearGradient>
<linearGradient id="paint60_linear_619_306" x1="720" y1="348" x2="720" y2="1065.42" gradientUnits="userSpaceOnUse">
<stop stop-color="white"/>
<stop offset="1" stop-color="white" stop-opacity="0.54"/>
</linearGradient>
<linearGradient id="paint61_linear_619_306" x1="720" y1="348" x2="720" y2="1065.42" gradientUnits="userSpaceOnUse">
<stop stop-color="white"/>
<stop offset="1" stop-color="white" stop-opacity="0.54"/>
</linearGradient>
<linearGradient id="paint62_linear_619_306" x1="720" y1="348" x2="720" y2="1065.42" gradientUnits="userSpaceOnUse">
<stop stop-color="white"/>
<stop offset="1" stop-color="white" stop-opacity="0.54"/>
</linearGradient>
<linearGradient id="paint63_linear_619_306" x1="720" y1="348" x2="720" y2="1065.42" gradientUnits="userSpaceOnUse">
<stop stop-color="white"/>
<stop offset="1" stop-color="white" stop-opacity="0.54"/>
</linearGradient>
<linearGradient id="paint64_linear_619_306" x1="720" y1="348" x2="720" y2="1065.42" gradientUnits="userSpaceOnUse">
<stop stop-color="white"/>
<stop offset="1" stop-color="white" stop-opacity="0.54"/>
</linearGradient>
<linearGradient id="paint65_linear_619_306" x1="720" y1="348" x2="720" y2="1065.42" gradientUnits="userSpaceOnUse">
<stop stop-color="white"/>
<stop offset="1" stop-color="white" stop-opacity="0.54"/>
</linearGradient>
<linearGradient id="paint66_linear_619_306" x1="720" y1="348" x2="720" y2="1065.42" gradientUnits="userSpaceOnUse">
<stop stop-color="white"/>
<stop offset="1" stop-color="white" stop-opacity="0.54"/>
</linearGradient>
<linearGradient id="paint67_linear_619_306" x1="720" y1="348" x2="720" y2="1065.42" gradientUnits="userSpaceOnUse">
<stop stop-color="white"/>
<stop offset="1" stop-color="white" stop-opacity="0.54"/>
</linearGradient>
<linearGradient id="paint68_linear_619_306" x1="720" y1="348" x2="720" y2="1065.42" gradientUnits="userSpaceOnUse">
<stop stop-color="white"/>
<stop offset="1" stop-color="white" stop-opacity="0.54"/>
</linearGradient>
<linearGradient id="paint69_linear_619_306" x1="720" y1="348" x2="720" y2="1065.42" gradientUnits="userSpaceOnUse">
<stop stop-color="white"/>
<stop offset="1" stop-color="white" stop-opacity="0.54"/>
</linearGradient>
<linearGradient id="paint70_linear_619_306" x1="720" y1="348" x2="720" y2="1065.42" gradientUnits="userSpaceOnUse">
<stop stop-color="white"/>
<stop offset="1" stop-color="white" stop-opacity="0.54"/>
</linearGradient>
<linearGradient id="paint71_linear_619_306" x1="720" y1="348" x2="720" y2="1065.42" gradientUnits="userSpaceOnUse">
<stop stop-color="white"/>
<stop offset="1" stop-color="white" stop-opacity="0.54"/>
</linearGradient>
<linearGradient id="paint72_linear_619_306" x1="720" y1="348" x2="720" y2="1065.42" gradientUnits="userSpaceOnUse">
<stop stop-color="white"/>
<stop offset="1" stop-color="white" stop-opacity="0.54"/>
</linearGradient>
<linearGradient id="paint73_linear_619_306" x1="720" y1="348" x2="720" y2="1065.42" gradientUnits="userSpaceOnUse">
<stop stop-color="white"/>
<stop offset="1" stop-color="white" stop-opacity="0.54"/>
</linearGradient>
<linearGradient id="paint74_linear_619_306" x1="720" y1="348" x2="720" y2="1065.42" gradientUnits="userSpaceOnUse">
<stop stop-color="white"/>
<stop offset="1" stop-color="white" stop-opacity="0.54"/>
</linearGradient>
<linearGradient id="paint75_linear_619_306" x1="720" y1="348" x2="720" y2="1065.42" gradientUnits="userSpaceOnUse">
<stop stop-color="white"/>
<stop offset="1" stop-color="white" stop-opacity="0.54"/>
</linearGradient>
<linearGradient id="paint76_linear_619_306" x1="720" y1="348" x2="720" y2="1065.42" gradientUnits="userSpaceOnUse">
<stop stop-color="white"/>
<stop offset="1" stop-color="white" stop-opacity="0.54"/>
</linearGradient>
<linearGradient id="paint77_linear_619_306" x1="720" y1="348" x2="720" y2="1065.42" gradientUnits="userSpaceOnUse">
<stop stop-color="white"/>
<stop offset="1" stop-color="white" stop-opacity="0.54"/>
</linearGradient>
<linearGradient id="paint78_linear_619_306" x1="720" y1="348" x2="720" y2="1065.42" gradientUnits="userSpaceOnUse">
<stop stop-color="white"/>
<stop offset="1" stop-color="white" stop-opacity="0.54"/>
</linearGradient>
<linearGradient id="paint79_linear_619_306" x1="720" y1="348" x2="720" y2="1065.42" gradientUnits="userSpaceOnUse">
<stop stop-color="white"/>
<stop offset="1" stop-color="white" stop-opacity="0.54"/>
</linearGradient>
<linearGradient id="paint80_linear_619_306" x1="720" y1="348" x2="720" y2="1065.42" gradientUnits="userSpaceOnUse">
<stop stop-color="white"/>
<stop offset="1" stop-color="white" stop-opacity="0.54"/>
</linearGradient>
<linearGradient id="paint81_linear_619_306" x1="720" y1="348" x2="720" y2="1065.42" gradientUnits="userSpaceOnUse">
<stop stop-color="white"/>
<stop offset="1" stop-color="white" stop-opacity="0.54"/>
</linearGradient>
<linearGradient id="paint82_linear_619_306" x1="720" y1="348" x2="720" y2="1065.42" gradientUnits="userSpaceOnUse">
<stop stop-color="white"/>
<stop offset="1" stop-color="white" stop-opacity="0.54"/>
</linearGradient>
<linearGradient id="paint83_linear_619_306" x1="720" y1="348" x2="720" y2="1065.42" gradientUnits="userSpaceOnUse">
<stop stop-color="white"/>
<stop offset="1" stop-color="white" stop-opacity="0.54"/>
</linearGradient>
<linearGradient id="paint84_linear_619_306" x1="720" y1="348" x2="720" y2="1065.42" gradientUnits="userSpaceOnUse">
<stop stop-color="white"/>
<stop offset="1" stop-color="white" stop-opacity="0.54"/>
</linearGradient>
<linearGradient id="paint85_linear_619_306" x1="720" y1="348" x2="720" y2="1065.42" gradientUnits="userSpaceOnUse">
<stop stop-color="white"/>
<stop offset="1" stop-color="white" stop-opacity="0.54"/>
</linearGradient>
<linearGradient id="paint86_linear_619_306" x1="720" y1="348" x2="720" y2="1065.42" gradientUnits="userSpaceOnUse">
<stop stop-color="white"/>
<stop offset="1" stop-color="white" stop-opacity="0.54"/>
</linearGradient>
<linearGradient id="paint87_linear_619_306" x1="720" y1="348" x2="720" y2="1065.42" gradientUnits="userSpaceOnUse">
<stop stop-color="white"/>
<stop offset="1" stop-color="white" stop-opacity="0.54"/>
</linearGradient>
<linearGradient id="paint88_linear_619_306" x1="720" y1="348" x2="720" y2="1065.42" gradientUnits="userSpaceOnUse">
<stop stop-color="white"/>
<stop offset="1" stop-color="white" stop-opacity="0.54"/>
</linearGradient>
<linearGradient id="paint89_linear_619_306" x1="720" y1="348" x2="720" y2="1065.42" gradientUnits="userSpaceOnUse">
<stop stop-color="white"/>
<stop offset="1" stop-color="white" stop-opacity="0.54"/>
</linearGradient>
<linearGradient id="paint90_linear_619_306" x1="720" y1="348" x2="720" y2="1065.42" gradientUnits="userSpaceOnUse">
<stop stop-color="white"/>
<stop offset="1" stop-color="white" stop-opacity="0.54"/>
</linearGradient>
<linearGradient id="paint91_linear_619_306" x1="720" y1="348" x2="720" y2="1065.42" gradientUnits="userSpaceOnUse">
<stop stop-color="white"/>
<stop offset="1" stop-color="white" stop-opacity="0.54"/>
</linearGradient>
<linearGradient id="paint92_linear_619_306" x1="720" y1="348" x2="720" y2="1065.42" gradientUnits="userSpaceOnUse">
<stop stop-color="white"/>
<stop offset="1" stop-color="white" stop-opacity="0.54"/>
</linearGradient>
<linearGradient id="paint93_linear_619_306" x1="720" y1="348" x2="720" y2="1065.42" gradientUnits="userSpaceOnUse">
<stop stop-color="white"/>
<stop offset="1" stop-color="white" stop-opacity="0.54"/>
</linearGradient>
<linearGradient id="paint94_linear_619_306" x1="720" y1="348" x2="720" y2="1065.42" gradientUnits="userSpaceOnUse">
<stop stop-color="white"/>
<stop offset="1" stop-color="white" stop-opacity="0.54"/>
</linearGradient>
<linearGradient id="paint95_linear_619_306" x1="720" y1="348" x2="720" y2="1065.42" gradientUnits="userSpaceOnUse">
<stop stop-color="white"/>
<stop offset="1" stop-color="white" stop-opacity="0.54"/>
</linearGradient>
<linearGradient id="paint96_linear_619_306" x1="720" y1="348" x2="720" y2="1065.42" gradientUnits="userSpaceOnUse">
<stop stop-color="white"/>
<stop offset="1" stop-color="white" stop-opacity="0.54"/>
</linearGradient>
<linearGradient id="paint97_linear_619_306" x1="720" y1="348" x2="720" y2="1065.42" gradientUnits="userSpaceOnUse">
<stop stop-color="white"/>
<stop offset="1" stop-color="white" stop-opacity="0.54"/>
</linearGradient>
<linearGradient id="paint98_linear_619_306" x1="720" y1="348" x2="720" y2="1065.42" gradientUnits="userSpaceOnUse">
<stop stop-color="white"/>
<stop offset="1" stop-color="white" stop-opacity="0.54"/>
</linearGradient>
<linearGradient id="paint99_linear_619_306" x1="720" y1="348" x2="720" y2="1065.42" gradientUnits="userSpaceOnUse">
<stop stop-color="white"/>
<stop offset="1" stop-color="white" stop-opacity="0.54"/>
</linearGradient>
<linearGradient id="paint100_linear_619_306" x1="720" y1="348" x2="720" y2="1065.42" gradientUnits="userSpaceOnUse">
<stop stop-color="white"/>
<stop offset="1" stop-color="white" stop-opacity="0.54"/>
</linearGradient>
<linearGradient id="paint101_linear_619_306" x1="720" y1="348" x2="720" y2="1065.42" gradientUnits="userSpaceOnUse">
<stop stop-color="white"/>
<stop offset="1" stop-color="white" stop-opacity="0.54"/>
</linearGradient>
<linearGradient id="paint102_linear_619_306" x1="720" y1="348" x2="720" y2="1065.42" gradientUnits="userSpaceOnUse">
<stop stop-color="white"/>
<stop offset="1" stop-color="white" stop-opacity="0.54"/>
</linearGradient>
<linearGradient id="paint103_linear_619_306" x1="720" y1="348" x2="720" y2="1065.42" gradientUnits="userSpaceOnUse">
<stop stop-color="white"/>
<stop offset="1" stop-color="white" stop-opacity="0.54"/>
</linearGradient>
<linearGradient id="paint104_linear_619_306" x1="720" y1="348" x2="720" y2="1065.42" gradientUnits="userSpaceOnUse">
<stop stop-color="white"/>
<stop offset="1" stop-color="white" stop-opacity="0.54"/>
</linearGradient>
<linearGradient id="paint105_linear_619_306" x1="720" y1="348" x2="720" y2="1065.42" gradientUnits="userSpaceOnUse">
<stop stop-color="white"/>
<stop offset="1" stop-color="white" stop-opacity="0.54"/>
</linearGradient>
<linearGradient id="paint106_linear_619_306" x1="720" y1="348" x2="720" y2="1065.42" gradientUnits="userSpaceOnUse">
<stop stop-color="white"/>
<stop offset="1" stop-color="white" stop-opacity="0.54"/>
</linearGradient>
<linearGradient id="paint107_linear_619_306" x1="720" y1="348" x2="720" y2="1065.42" gradientUnits="userSpaceOnUse">
<stop stop-color="white"/>
<stop offset="1" stop-color="white" stop-opacity="0.54"/>
</linearGradient>
<linearGradient id="paint108_linear_619_306" x1="720" y1="348" x2="720" y2="1065.42" gradientUnits="userSpaceOnUse">
<stop stop-color="white"/>
<stop offset="1" stop-color="white" stop-opacity="0.54"/>
</linearGradient>
<linearGradient id="paint109_linear_619_306" x1="720" y1="348" x2="720" y2="1065.42" gradientUnits="userSpaceOnUse">
<stop stop-color="white"/>
<stop offset="1" stop-color="white" stop-opacity="0.54"/>
</linearGradient>
<linearGradient id="paint110_linear_619_306" x1="720" y1="348" x2="720" y2="1065.42" gradientUnits="userSpaceOnUse">
<stop stop-color="white"/>
<stop offset="1" stop-color="white" stop-opacity="0.54"/>
</linearGradient>
<linearGradient id="paint111_linear_619_306" x1="720" y1="348" x2="720" y2="1065.42" gradientUnits="userSpaceOnUse">
<stop stop-color="white"/>
<stop offset="1" stop-color="white" stop-opacity="0.54"/>
</linearGradient>
<linearGradient id="paint112_linear_619_306" x1="720" y1="348" x2="720" y2="1065.42" gradientUnits="userSpaceOnUse">
<stop stop-color="white"/>
<stop offset="1" stop-color="white" stop-opacity="0.54"/>
</linearGradient>
<linearGradient id="paint113_linear_619_306" x1="720" y1="348" x2="720" y2="1065.42" gradientUnits="userSpaceOnUse">
<stop stop-color="white"/>
<stop offset="1" stop-color="white" stop-opacity="0.54"/>
</linearGradient>
<linearGradient id="paint114_linear_619_306" x1="720" y1="348" x2="720" y2="1065.42" gradientUnits="userSpaceOnUse">
<stop stop-color="white"/>
<stop offset="1" stop-color="white" stop-opacity="0.54"/>
</linearGradient>
<radialGradient id="paint115_radial_619_306" cx="0" cy="0" r="1" gradientUnits="userSpaceOnUse" gradientTransform="translate(1142 498) rotate(90) scale(6)">
<stop stop-color="#7C82FF"/>
<stop offset="1" stop-color="#0008C1" stop-opacity="0.56"/>
</radialGradient>
<radialGradient id="paint116_radial_619_306" cx="0" cy="0" r="1" gradientUnits="userSpaceOnUse" gradientTransform="translate(67 660) rotate(90) scale(8)">
<stop stop-color="#7C82FF"/>
<stop offset="1" stop-color="#0008C1" stop-opacity="0.56"/>
</radialGradient>
<radialGradient id="paint117_radial_619_306" cx="0" cy="0" r="1" gradientUnits="userSpaceOnUse" gradientTransform="translate(555 417) rotate(90) scale(8)">
<stop stop-color="#7C82FF"/>
<stop offset="1" stop-color="#0008C1" stop-opacity="0.56"/>
</radialGradient>
<radialGradient id="paint118_radial_619_306" cx="0" cy="0" r="1" gradientUnits="userSpaceOnUse" gradientTransform="translate(797 924) rotate(90) scale(8)">
<stop stop-color="#7C82FF"/>
<stop offset="1" stop-color="#0008C1" stop-opacity="0.56"/>
</radialGradient>
<radialGradient id="paint119_radial_619_306" cx="0" cy="0" r="1" gradientUnits="userSpaceOnUse" gradientTransform="translate(1176 803) rotate(90) scale(14)">
<stop stop-color="#7C82FF"/>
<stop offset="1" stop-color="#0008C1" stop-opacity="0.56"/>
</radialGradient>
<radialGradient id="paint120_radial_619_306" cx="0" cy="0" r="1" gradientUnits="userSpaceOnUse" gradientTransform="translate(1371 543) rotate(90) scale(10)">
<stop stop-color="#7C82FF"/>
<stop offset="1" stop-color="#0008C1" stop-opacity="0.56"/>
</radialGradient>
<radialGradient id="paint121_radial_619_306" cx="0" cy="0" r="1" gradientUnits="userSpaceOnUse" gradientTransform="translate(238 489) rotate(90) scale(9)">
<stop stop-color="#7C82FF"/>
<stop offset="1" stop-color="#0008C1" stop-opacity="0.56"/>
</radialGradient>
<radialGradient id="paint122_radial_619_306" cx="0" cy="0" r="1" gradientUnits="userSpaceOnUse" gradientTransform="translate(319 785) rotate(90) scale(10)">
<stop stop-color="#7C82FF"/>
<stop offset="1" stop-color="#0008C1" stop-opacity="0.56"/>
</radialGradient>
<radialGradient id="paint123_radial_619_306" cx="0" cy="0" r="1" gradientUnits="userSpaceOnUse" gradientTransform="translate(514 807) rotate(90) scale(10)">
<stop stop-color="#7C82FF"/>
<stop offset="1" stop-color="#0008C1" stop-opacity="0.56"/>
</radialGradient>
</defs>
</svg>
