<svg width="1093" height="995" viewBox="0 0 1093 995" fill="none" xmlns="http://www.w3.org/2000/svg">
<ellipse cx="873" cy="353" rx="873" ry="642" fill="url(#paint0_radial_1248_6422)"/>
<g filter="url(#filter0_f_1248_6422)">
<circle cx="220" cy="371" r="8" fill="url(#paint1_radial_1248_6422)"/>
</g>
<g filter="url(#filter1_f_1248_6422)">
<circle cx="708" cy="128" r="8" fill="url(#paint2_radial_1248_6422)"/>
</g>
<g filter="url(#filter2_f_1248_6422)">
<circle cx="950" cy="635" r="8" fill="url(#paint3_radial_1248_6422)"/>
</g>
<g filter="url(#filter3_f_1248_6422)">
<circle cx="391" cy="200" r="9" fill="url(#paint4_radial_1248_6422)"/>
</g>
<g filter="url(#filter4_f_1248_6422)">
<circle cx="472" cy="496" r="10" fill="url(#paint5_radial_1248_6422)"/>
</g>
<g filter="url(#filter5_f_1248_6422)">
<circle cx="667" cy="518" r="10" fill="url(#paint6_radial_1248_6422)"/>
</g>
<path d="M791.268 573.036L784.944 573.303L785.942 596.914L792.266 596.647L791.268 573.036Z" fill="url(#paint7_linear_1248_6422)" style="mix-blend-mode:overlay"/>
<path d="M771.055 573.211L770.44 596.835L776.768 597L777.383 573.376L771.055 573.211Z" fill="url(#paint8_linear_1248_6422)" style="mix-blend-mode:overlay"/>
<path d="M757.254 572.185L755.022 595.711L761.323 596.309L763.555 572.782L757.254 572.185Z" fill="url(#paint9_linear_1248_6422)" style="mix-blend-mode:overlay"/>
<path d="M743.548 570.171L739.717 593.491L745.963 594.517L749.794 571.198L743.548 570.171Z" fill="url(#paint10_linear_1248_6422)" style="mix-blend-mode:overlay"/>
<path d="M730.007 567.268L724.59 590.271L730.752 591.721L736.168 568.718L730.007 567.268Z" fill="url(#paint11_linear_1248_6422)" style="mix-blend-mode:overlay"/>
<path d="M716.686 563.387L709.718 585.969L715.766 587.835L722.735 565.254L716.686 563.387Z" fill="url(#paint12_linear_1248_6422)" style="mix-blend-mode:overlay"/>
<path d="M703.656 558.674L695.164 580.728L701.071 583.003L709.563 560.949L703.656 558.674Z" fill="url(#paint13_linear_1248_6422)" style="mix-blend-mode:overlay"/>
<path d="M691.009 553.031L681.033 574.454L686.771 577.126L696.747 555.703L691.009 553.031Z" fill="url(#paint14_linear_1248_6422)" style="mix-blend-mode:overlay"/>
<path d="M678.735 546.609L667.318 567.3L672.86 570.358L684.278 549.667L678.735 546.609Z" fill="url(#paint15_linear_1248_6422)" style="mix-blend-mode:overlay"/>
<path d="M666.966 539.33L654.164 559.194L659.485 562.623L672.286 542.759L666.966 539.33Z" fill="url(#paint16_linear_1248_6422)" style="mix-blend-mode:overlay"/>
<path d="M655.72 531.222L641.594 550.167L646.669 553.951L660.795 535.006L655.72 531.222Z" fill="url(#paint17_linear_1248_6422)" style="mix-blend-mode:overlay"/>
<path d="M645.023 522.431L629.635 540.366L634.439 544.488L649.827 526.553L645.023 522.431Z" fill="url(#paint18_linear_1248_6422)" style="mix-blend-mode:overlay"/>
<path d="M634.964 512.884L618.388 529.728L622.9 534.168L639.476 517.324L634.964 512.884Z" fill="url(#paint19_linear_1248_6422)" style="mix-blend-mode:overlay"/>
<path d="M625.608 502.681L607.922 518.356L612.121 523.093L629.806 507.418L625.608 502.681Z" fill="url(#paint20_linear_1248_6422)" style="mix-blend-mode:overlay"/>
<path d="M616.928 491.843L598.214 506.275L602.08 511.287L620.793 496.855L616.928 491.843Z" fill="url(#paint21_linear_1248_6422)" style="mix-blend-mode:overlay"/>
<path d="M609.013 480.506L589.357 493.625L592.871 498.89L612.527 485.771L609.013 480.506Z" fill="url(#paint22_linear_1248_6422)" style="mix-blend-mode:overlay"/>
<path d="M601.917 468.595L581.412 480.343L584.558 485.836L605.063 474.087L601.917 468.595Z" fill="url(#paint23_linear_1248_6422)" style="mix-blend-mode:overlay"/>
<path d="M595.658 456.243L574.399 466.566L577.164 472.26L598.423 461.937L595.658 456.243Z" fill="url(#paint24_linear_1248_6422)" style="mix-blend-mode:overlay"/>
<path d="M590.209 443.515L568.294 452.36L570.664 458.23L592.578 449.384L590.209 443.515Z" fill="url(#paint25_linear_1248_6422)" style="mix-blend-mode:overlay"/>
<path d="M585.672 430.423L563.206 437.753L565.169 443.771L587.636 436.441L585.672 430.423Z" fill="url(#paint26_linear_1248_6422)" style="mix-blend-mode:overlay"/>
<path d="M582.038 417.046L559.124 422.827L560.673 428.964L583.587 423.183L582.038 417.046Z" fill="url(#paint27_linear_1248_6422)" style="mix-blend-mode:overlay"/>
<path d="M579.301 403.467L556.045 407.668L557.17 413.897L580.426 409.696L579.301 403.467Z" fill="url(#paint28_linear_1248_6422)" style="mix-blend-mode:overlay"/>
<path d="M577.54 389.723L554.052 392.329L554.75 398.62L578.238 396.014L577.54 389.723Z" fill="url(#paint29_linear_1248_6422)" style="mix-blend-mode:overlay"/>
<path d="M576.688 375.907L553.077 376.904L553.344 383.229L576.955 382.231L576.688 375.907Z" fill="url(#paint30_linear_1248_6422)" style="mix-blend-mode:overlay"/>
<path d="M553.165 361.398L553 367.726L576.624 368.341L576.789 362.013L553.165 361.398Z" fill="url(#paint31_linear_1248_6422)" style="mix-blend-mode:overlay"/>
<path d="M554.323 346.024L553.727 352.326L577.253 354.554L577.85 348.252L554.323 346.024Z" fill="url(#paint32_linear_1248_6422)" style="mix-blend-mode:overlay"/>
<path d="M556.521 330.681L555.496 336.927L578.816 340.754L579.841 334.508L556.521 330.681Z" fill="url(#paint33_linear_1248_6422)" style="mix-blend-mode:overlay"/>
<path d="M559.745 315.559L558.296 321.721L581.301 327.129L582.75 320.967L559.745 315.559Z" fill="url(#paint34_linear_1248_6422)" style="mix-blend-mode:overlay"/>
<path d="M564.018 300.725L562.152 306.773L584.733 313.742L586.6 307.693L564.018 300.725Z" fill="url(#paint35_linear_1248_6422)" style="mix-blend-mode:overlay"/>
<path d="M569.283 286.138L567.008 292.045L589.062 300.537L591.336 294.63L569.283 286.138Z" fill="url(#paint36_linear_1248_6422)" style="mix-blend-mode:overlay"/>
<path d="M575.528 272.002L572.856 277.741L594.279 287.717L596.951 281.978L575.528 272.002Z" fill="url(#paint37_linear_1248_6422)" style="mix-blend-mode:overlay"/>
<path d="M582.743 258.33L579.685 263.873L600.376 275.29L603.434 269.748L582.743 258.33Z" fill="url(#paint38_linear_1248_6422)" style="mix-blend-mode:overlay"/>
<path d="M590.841 245.156L587.412 250.477L607.276 263.278L610.705 257.957L590.841 245.156Z" fill="url(#paint39_linear_1248_6422)" style="mix-blend-mode:overlay"/>
<path d="M599.836 232.566L596.052 237.64L614.998 251.767L618.781 246.692L599.836 232.566Z" fill="url(#paint40_linear_1248_6422)" style="mix-blend-mode:overlay"/>
<path d="M609.67 220.64L605.548 225.444L623.483 240.833L627.605 236.029L609.67 220.64Z" fill="url(#paint41_linear_1248_6422)" style="mix-blend-mode:overlay"/>
<path d="M620.277 209.398L615.837 213.91L632.681 230.486L637.121 225.974L620.277 209.398Z" fill="url(#paint42_linear_1248_6422)" style="mix-blend-mode:overlay"/>
<path d="M631.658 198.9L626.921 203.098L642.595 220.784L647.332 216.585L631.658 198.9Z" fill="url(#paint43_linear_1248_6422)" style="mix-blend-mode:overlay"/>
<path d="M643.714 189.204L638.701 193.069L653.129 211.785L658.142 207.92L643.714 189.204Z" fill="url(#paint44_linear_1248_6422)" style="mix-blend-mode:overlay"/>
<path d="M656.392 180.368L651.127 183.882L664.246 203.538L669.511 200.024L656.392 180.368Z" fill="url(#paint45_linear_1248_6422)" style="mix-blend-mode:overlay"/>
<path d="M669.655 172.389L664.163 175.536L675.911 196.041L681.403 192.894L669.655 172.389Z" fill="url(#paint46_linear_1248_6422)" style="mix-blend-mode:overlay"/>
<path d="M683.448 165.381L677.754 168.145L688.072 189.405L693.767 186.641L683.448 165.381Z" fill="url(#paint47_linear_1248_6422)" style="mix-blend-mode:overlay"/>
<path d="M697.667 159.3L691.797 161.669L700.642 183.583L706.512 181.214L697.667 159.3Z" fill="url(#paint48_linear_1248_6422)" style="mix-blend-mode:overlay"/>
<path d="M712.265 154.195L706.247 156.159L713.577 178.625L719.595 176.662L712.265 154.195Z" fill="url(#paint49_linear_1248_6422)" style="mix-blend-mode:overlay"/>
<path d="M727.182 150.098L721.044 151.647L726.826 174.561L732.963 173.012L727.182 150.098Z" fill="url(#paint50_linear_1248_6422)" style="mix-blend-mode:overlay"/>
<path d="M742.343 147.036L736.114 148.163L740.319 171.418L746.548 170.291L742.343 147.036Z" fill="url(#paint51_linear_1248_6422)" style="mix-blend-mode:overlay"/>
<path d="M757.689 145.045L751.398 145.743L754.003 169.231L760.295 168.533L757.689 145.045Z" fill="url(#paint52_linear_1248_6422)" style="mix-blend-mode:overlay"/>
<path d="M773.108 144.081L766.783 144.349L767.781 167.96L774.106 167.692L773.108 144.081Z" fill="url(#paint53_linear_1248_6422)" style="mix-blend-mode:overlay"/>
<path d="M782.252 144L781.638 167.624L787.966 167.789L788.58 144.165L782.252 144Z" fill="url(#paint54_linear_1248_6422)" style="mix-blend-mode:overlay"/>
<path d="M797.718 144.719L795.486 168.246L801.788 168.844L804.02 145.317L797.718 144.719Z" fill="url(#paint55_linear_1248_6422)" style="mix-blend-mode:overlay"/>
<path d="M813.094 146.488L809.262 169.807L815.509 170.833L819.34 147.514L813.094 146.488Z" fill="url(#paint56_linear_1248_6422)" style="mix-blend-mode:overlay"/>
<path d="M828.294 149.293L822.878 172.296L829.039 173.747L834.456 150.744L828.294 149.293Z" fill="url(#paint57_linear_1248_6422)" style="mix-blend-mode:overlay"/>
<path d="M843.241 153.118L836.272 175.699L842.321 177.566L849.289 154.984L843.241 153.118Z" fill="url(#paint58_linear_1248_6422)" style="mix-blend-mode:overlay"/>
<path d="M857.966 158.003L849.474 180.057L855.381 182.332L863.873 160.278L857.966 158.003Z" fill="url(#paint59_linear_1248_6422)" style="mix-blend-mode:overlay"/>
<path d="M872.235 163.836L862.258 185.259L867.997 187.931L877.973 166.508L872.235 163.836Z" fill="url(#paint60_linear_1248_6422)" style="mix-blend-mode:overlay"/>
<path d="M886.18 170.658L874.763 191.349L880.305 194.407L891.723 173.716L886.18 170.658Z" fill="url(#paint61_linear_1248_6422)" style="mix-blend-mode:overlay"/>
<path d="M899.537 178.404L886.736 198.268L892.056 201.697L904.858 181.833L899.537 178.404Z" fill="url(#paint62_linear_1248_6422)" style="mix-blend-mode:overlay"/>
<path d="M912.363 187.045L898.236 205.99L903.311 209.774L917.437 190.829L912.363 187.045Z" fill="url(#paint63_linear_1248_6422)" style="mix-blend-mode:overlay"/>
<path d="M924.592 196.554L909.204 214.489L914.008 218.611L929.396 200.676L924.592 196.554Z" fill="url(#paint64_linear_1248_6422)" style="mix-blend-mode:overlay"/>
<path d="M936.131 206.862L919.555 223.706L924.067 228.145L940.643 211.301L936.131 206.862Z" fill="url(#paint65_linear_1248_6422)" style="mix-blend-mode:overlay"/>
<path d="M946.915 217.919L929.23 233.593L933.428 238.331L951.114 222.656L946.915 217.919Z" fill="url(#paint66_linear_1248_6422)" style="mix-blend-mode:overlay"/>
<path d="M956.932 229.669L938.219 244.101L942.085 249.113L960.798 234.681L956.932 229.669Z" fill="url(#paint67_linear_1248_6422)" style="mix-blend-mode:overlay"/>
<path d="M966.134 242.138L946.478 255.257L949.992 260.522L969.648 247.403L966.134 242.138Z" fill="url(#paint68_linear_1248_6422)" style="mix-blend-mode:overlay"/>
<path d="M974.483 255.183L953.978 266.931L957.125 272.423L977.63 260.675L974.483 255.183Z" fill="url(#paint69_linear_1248_6422)" style="mix-blend-mode:overlay"/>
<path d="M981.863 268.706L960.605 279.028L963.369 284.723L984.628 274.4L981.863 268.706Z" fill="url(#paint70_linear_1248_6422)" style="mix-blend-mode:overlay"/>
<path d="M988.357 282.802L966.443 291.647L968.812 297.517L990.726 288.672L988.357 282.802Z" fill="url(#paint71_linear_1248_6422)" style="mix-blend-mode:overlay"/>
<path d="M993.859 297.258L971.392 304.588L973.356 310.606L995.822 303.276L993.859 297.258Z" fill="url(#paint72_linear_1248_6422)" style="mix-blend-mode:overlay"/>
<path d="M998.352 312.08L975.437 317.857L976.985 323.995L999.9 318.218L998.352 312.08Z" fill="url(#paint73_linear_1248_6422)" style="mix-blend-mode:overlay"/>
<path d="M1001.84 327.122L978.587 331.323L979.712 337.552L1002.97 333.351L1001.84 327.122Z" fill="url(#paint74_linear_1248_6422)" style="mix-blend-mode:overlay"/>
<path d="M1004.27 342.391L980.787 344.997L981.485 351.288L1004.97 348.682L1004.27 342.391Z" fill="url(#paint75_linear_1248_6422)" style="mix-blend-mode:overlay"/>
<path d="M1005.65 357.805L982.039 358.799L982.306 365.123L1005.92 364.13L1005.65 357.805Z" fill="url(#paint76_linear_1248_6422)" style="mix-blend-mode:overlay"/>
<path d="M982.376 372.617L982.211 378.945L1005.84 379.559L1006 373.231L982.376 372.617Z" fill="url(#paint77_linear_1248_6422)" style="mix-blend-mode:overlay"/>
<path d="M981.778 386.474L981.181 392.776L1004.71 395.004L1005.3 388.702L981.778 386.474Z" fill="url(#paint78_linear_1248_6422)" style="mix-blend-mode:overlay"/>
<path d="M980.245 400.257L979.218 406.504L1002.54 410.335L1003.56 404.089L980.245 400.257Z" fill="url(#paint79_linear_1248_6422)" style="mix-blend-mode:overlay"/>
<path d="M977.691 413.843L976.242 420.005L999.247 425.413L1000.7 419.251L977.691 413.843Z" fill="url(#paint80_linear_1248_6422)" style="mix-blend-mode:overlay"/>
<path d="M974.309 427.301L972.443 433.349L995.024 440.318L996.89 434.269L974.309 427.301Z" fill="url(#paint81_linear_1248_6422)" style="mix-blend-mode:overlay"/>
<path d="M969.954 440.448L967.679 446.355L989.733 454.847L992.007 448.94L969.954 440.448Z" fill="url(#paint82_linear_1248_6422)" style="mix-blend-mode:overlay"/>
<path d="M964.736 453.268L962.063 459.007L983.486 468.983L986.159 463.244L964.736 453.268Z" fill="url(#paint83_linear_1248_6422)" style="mix-blend-mode:overlay"/>
<path d="M958.694 465.775L955.636 471.318L976.327 482.735L979.385 477.193L958.694 465.775Z" fill="url(#paint84_linear_1248_6422)" style="mix-blend-mode:overlay"/>
<path d="M951.746 477.728L948.317 483.048L968.181 495.85L971.61 490.529L951.746 477.728Z" fill="url(#paint85_linear_1248_6422)" style="mix-blend-mode:overlay"/>
<path d="M944.034 489.229L940.25 494.304L959.195 508.43L962.979 503.356L944.034 489.229Z" fill="url(#paint86_linear_1248_6422)" style="mix-blend-mode:overlay"/>
<path d="M935.548 500.23L931.426 505.034L949.361 520.423L953.483 515.619L935.548 500.23Z" fill="url(#paint87_linear_1248_6422)" style="mix-blend-mode:overlay"/>
<path d="M926.335 510.529L921.895 515.041L938.739 531.617L943.179 527.105L926.335 510.529Z" fill="url(#paint88_linear_1248_6422)" style="mix-blend-mode:overlay"/>
<path d="M916.441 520.207L911.704 524.406L927.378 542.091L932.116 537.893L916.441 520.207Z" fill="url(#paint89_linear_1248_6422)" style="mix-blend-mode:overlay"/>
<path d="M905.89 529.282L900.877 533.146L915.305 551.862L920.319 547.997L905.89 529.282Z" fill="url(#paint90_linear_1248_6422)" style="mix-blend-mode:overlay"/>
<path d="M894.76 537.49L889.495 541.004L902.613 560.66L907.879 557.146L894.76 537.49Z" fill="url(#paint91_linear_1248_6422)" style="mix-blend-mode:overlay"/>
<path d="M883.109 544.935L877.617 548.082L889.365 568.587L894.858 565.44L883.109 544.935Z" fill="url(#paint92_linear_1248_6422)" style="mix-blend-mode:overlay"/>
<path d="M870.939 551.645L865.245 554.409L875.563 575.669L881.258 572.905L870.939 551.645Z" fill="url(#paint93_linear_1248_6422)" style="mix-blend-mode:overlay"/>
<path d="M858.358 557.469L852.488 559.839L861.333 581.753L867.203 579.384L858.358 557.469Z" fill="url(#paint94_linear_1248_6422)" style="mix-blend-mode:overlay"/>
<path d="M845.451 562.361L839.433 564.324L846.763 586.791L852.781 584.827L845.451 562.361Z" fill="url(#paint95_linear_1248_6422)" style="mix-blend-mode:overlay"/>
<path d="M832.209 566.422L826.072 567.971L831.853 590.885L837.99 589.336L832.209 566.422Z" fill="url(#paint96_linear_1248_6422)" style="mix-blend-mode:overlay"/>
<path d="M818.693 569.59L812.464 570.716L816.665 593.971L822.894 592.846L818.693 569.59Z" fill="url(#paint97_linear_1248_6422)" style="mix-blend-mode:overlay"/>
<path d="M805.021 571.78L798.73 572.478L801.335 595.966L807.627 595.268L805.021 571.78Z" fill="url(#paint98_linear_1248_6422)" style="mix-blend-mode:overlay"/>
<path d="M680.267 348.951C678.895 348.698 677.967 349.458 677.692 350.956L677.165 353.783L681.469 354.585L681.997 351.758C682.271 350.238 681.638 349.204 680.267 348.951Z" fill="url(#paint99_linear_1248_6422)" style="mix-blend-mode:overlay"/>
<path d="M614.962 367.35C611.586 367.435 609.729 369.693 609.814 373.448L609.982 380.454L620.701 380.2L620.532 373.195C620.448 369.439 618.401 367.245 614.962 367.329V367.35Z" fill="url(#paint100_linear_1248_6422)" style="mix-blend-mode:overlay"/>
<path d="M878.691 394.084C880.041 394.358 880.991 393.641 881.307 392.122L881.898 389.316L877.594 388.429L877.003 391.236C876.686 392.734 877.298 393.81 878.691 394.084Z" fill="url(#paint101_linear_1248_6422)" style="mix-blend-mode:overlay"/>
<path d="M840.183 237.311C845.838 239.885 851.43 237.269 854.384 230.749C857.38 224.166 855.65 218.321 849.974 215.747C844.298 213.173 838.77 215.705 835.774 222.309C832.777 228.892 834.508 234.737 840.183 237.311Z" fill="url(#paint102_linear_1248_6422)" style="mix-blend-mode:overlay"/>
<path d="M679.043 386.277C678.705 386.446 678.304 386.636 678.03 386.72C678.304 386.72 678.726 386.784 679.127 386.847L683.811 387.691L683.221 383.977L679.043 386.256V386.277Z" fill="url(#paint103_linear_1248_6422)" style="mix-blend-mode:overlay"/>
<path d="M702.274 424.321L694.741 429.954L696.134 431.832C697.801 434.048 700.227 434.343 702.548 432.613C704.911 430.862 705.312 428.393 703.582 426.093L702.274 424.321Z" fill="url(#paint104_linear_1248_6422)" style="mix-blend-mode:overlay"/>
<path d="M802.225 461.921C799.756 462.533 798.616 464.748 799.313 467.618C800.009 470.487 802.056 471.922 804.524 471.331C806.993 470.719 808.133 468.462 807.436 465.634C806.719 462.765 804.693 461.33 802.225 461.921Z" fill="url(#paint105_linear_1248_6422)" style="mix-blend-mode:overlay"/>
<path d="M616.608 331.649C617.199 331.945 618.127 332.451 618.971 332.979L628.719 339.266L630.85 330.32L619.287 331.565C618.359 331.628 617.304 331.713 616.608 331.649Z" fill="url(#paint106_linear_1248_6422)" style="mix-blend-mode:overlay"/>
<path d="M779.711 301.582C741.71 301.582 710.798 332.514 710.798 370.515C710.798 408.517 741.71 439.428 779.711 439.428C817.712 439.428 848.645 408.517 848.645 370.515C848.645 332.514 817.712 301.582 779.711 301.582ZM805.305 368.954C805.305 369.946 805.242 370.916 805.136 371.887C804.187 380.432 798.996 387.733 791.759 391.637C788.13 393.599 783.994 394.696 779.584 394.696C772.178 394.696 765.468 391.531 760.763 386.509C759.792 385.475 758.906 384.357 758.126 383.154C755.425 379.082 753.842 374.187 753.842 368.975C753.842 368.3 753.863 367.625 753.927 366.95C756.058 368.954 758.442 370.726 760.974 372.267C762.535 381.108 770.279 387.86 779.584 387.86C782.348 387.86 784.986 387.269 787.37 386.172C793.932 383.218 798.49 376.613 798.49 368.954C798.49 368.194 798.448 367.477 798.363 366.76C798.026 363.827 797.013 361.084 795.473 358.721C795.029 358.024 794.544 357.37 794.017 356.737C790.535 352.644 785.366 350.048 779.584 350.048C776.398 350.048 773.402 350.85 770.786 352.243C768.718 350.555 767.367 348.74 766.798 346.651C770.575 344.478 774.942 343.233 779.584 343.233C784.226 343.233 788.699 344.499 792.497 346.715C797.224 349.458 801.001 353.678 803.195 358.742C804.567 361.886 805.305 365.346 805.305 368.975V368.954ZM776.145 324.792C782.517 324.792 790.999 326.163 797.857 331.143V324.792H802.71V347.96H797.857V345.617C797.604 344.752 797.287 343.908 796.95 343.085C793.763 335.511 787.328 329.792 777.01 329.792C766.692 329.792 761.375 336.122 761.037 343.676C761.037 343.929 761.037 344.162 761.037 344.415C761.037 345.575 761.164 346.672 761.396 347.706C761.881 349.922 762.915 351.821 764.329 353.551C764.835 354.184 765.426 354.817 766.059 355.387C766.355 355.661 766.65 355.935 766.988 356.21C768.021 357.075 769.14 357.898 770.364 358.657C773.782 360.852 777.854 362.73 782.011 364.65C785.703 366.295 789.459 368.005 792.983 369.946C792.687 373.849 790.725 377.394 787.623 379.715C784.437 377.732 780.766 376.001 777.031 374.25C772.79 372.33 768.465 370.389 764.54 368.047C764.012 367.73 763.485 367.414 762.979 367.076C761.86 366.359 760.784 365.578 759.771 364.776C759.138 364.291 758.505 363.742 757.936 363.194C753.652 359.185 750.804 354.036 750.804 346.778C750.804 338.275 755.931 324.813 776.166 324.813L776.145 324.792ZM779.373 416.218C772.03 416.218 763.633 414.171 757.514 410.078V416.218H752.661V393.05H757.514V397.84C761.312 406.491 769.752 410.943 779.88 410.943C790.008 410.943 797.857 405.457 797.857 395.329C797.857 394.949 797.857 394.569 797.815 394.211C801.655 391.447 804.757 387.881 806.972 383.808C808.006 386.34 808.597 389.189 808.597 392.459C808.597 406.322 797.962 416.197 779.352 416.197L779.373 416.218Z" fill="url(#paint107_linear_1248_6422)" style="mix-blend-mode:overlay"/>
<path d="M753.948 462.09C753.821 462.322 753.589 462.701 753.357 463.039L750.614 466.921L754.243 467.934L753.927 463.187C753.927 462.807 753.906 462.364 753.927 462.09H753.948Z" fill="url(#paint108_linear_1248_6422)" style="mix-blend-mode:overlay"/>
<path d="M844.467 448.67C845.48 449.809 846.703 449.83 847.927 448.775L849.868 447.066L846.724 443.479L844.804 445.167C843.559 446.265 843.475 447.531 844.467 448.67Z" fill="url(#paint109_linear_1248_6422)" style="mix-blend-mode:overlay"/>
<path d="M837.651 517.857L846.091 514.228L838.2 505.703C837.588 505.007 836.892 504.184 836.533 503.593C836.66 504.247 836.807 505.302 836.871 506.273L837.651 517.857Z" fill="url(#paint110_linear_1248_6422)" style="mix-blend-mode:overlay"/>
<path d="M867.592 319.01C867.846 318.736 868.141 318.398 868.373 318.23C868.12 318.314 867.698 318.441 867.297 318.504L862.634 319.432L864.554 322.661L867.592 319.01Z" fill="url(#paint111_linear_1248_6422)" style="mix-blend-mode:overlay"/>
<path d="M926.124 367.519C926.25 373.744 931.019 377.626 938.172 377.478C945.409 377.331 949.925 373.237 949.777 367.013C949.65 360.788 944.966 356.906 937.729 357.054C930.492 357.201 925.976 361.295 926.124 367.519Z" fill="url(#paint112_linear_1248_6422)" style="mix-blend-mode:overlay"/>
<path d="M763.759 511.886C757.577 511.189 753.104 515.325 752.302 522.52C751.5 529.715 754.961 534.737 761.143 535.412C767.325 536.087 771.819 531.888 772.6 524.778C773.402 517.583 769.942 512.561 763.759 511.886Z" fill="url(#paint113_linear_1248_6422)" style="mix-blend-mode:overlay"/>
<path d="M764.245 277.528C766.755 277.106 768.064 274.954 767.578 272.063C767.093 269.13 765.173 267.547 762.662 267.969C760.151 268.391 758.843 270.501 759.328 273.434C759.814 276.346 761.734 277.95 764.245 277.528Z" fill="url(#paint114_linear_1248_6422)" style="mix-blend-mode:overlay"/>
<path d="M976.215 370.515C976.215 261.998 888.249 174.011 779.711 174.011C671.172 174.011 583.228 261.977 583.228 370.515C583.228 479.054 671.194 567.02 779.732 567.02C888.27 567.02 976.236 479.054 976.236 370.515H976.215ZM950.663 410.036L923.233 418.94L946.401 425.376L944.84 431.009L912.156 421.915L913.717 416.281L941.147 407.335L917.979 400.899L919.541 395.266L952.225 404.36L950.642 410.036H950.663ZM955.474 366.907C955.685 376.613 948.638 383.534 938.299 383.745C928.002 383.977 920.617 377.352 920.406 367.604C920.195 357.898 927.242 351.082 937.581 350.85C947.878 350.618 955.263 357.201 955.474 366.886V366.907ZM951.001 333.569L917.958 341.313L916.608 335.532L949.65 327.788L951.001 333.569ZM935.682 289.787L945.873 313.503L940.831 315.655L936.906 306.519L910.763 317.744L908.421 312.279L934.564 301.054L930.639 291.918L935.682 289.766V289.787ZM893.039 266.07L910.067 252.883L913.696 257.588L896.964 270.544C893.102 273.54 892.596 277.275 895.55 281.094C898.504 284.913 902.323 285.356 906.142 282.402L922.874 269.446L926.504 274.152L909.476 287.339C903.209 292.192 896.056 291.158 890.992 284.617C885.97 278.119 886.709 270.966 893.018 266.07H893.039ZM887.637 232.669L869.766 254.803L880.801 263.728L877.362 267.991L861.706 255.331L883.038 228.956L887.658 232.69L887.637 232.669ZM830.119 219.756C834.381 210.366 843.496 206.568 852.337 210.577C861.178 214.586 864.364 223.934 860.081 233.365C855.819 242.755 846.661 246.553 837.778 242.523C828.937 238.514 825.835 229.188 830.119 219.777V219.756ZM791.843 220.094L797.709 221.043C797.287 223.892 799.313 225.959 803.069 226.571C806.972 227.204 809.715 225.917 810.179 223.111C810.538 220.874 809.61 219.355 806.972 218.3L801.845 216.232C796.359 214.08 793.911 210.324 794.755 205.197C795.705 199.331 801.233 196.04 808.28 197.2C815.053 198.297 818.746 202.77 817.944 208.847L812.078 207.898C812.416 204.986 810.622 202.96 807.331 202.412C803.723 201.821 801.085 203.192 800.642 205.978C800.262 208.362 801.317 209.902 804.018 210.999L809.103 213.004C814.631 215.177 816.952 218.553 816.129 223.554C815.117 229.778 809.61 233.028 802.225 231.825C795.072 230.665 791.02 226.086 791.864 220.072L791.843 220.094ZM743.883 198.635C751.732 196.968 758.569 200.302 761.206 207.201L755.087 208.51C753.125 204.902 749.348 203.319 744.938 204.269C738.798 205.577 735.886 210.831 737.384 217.92C738.882 224.947 743.735 228.66 749.833 227.373C754.328 226.424 757.282 223.322 757.577 219.418L763.612 218.131C763.823 225.39 758.716 231.319 750.867 232.986C741.203 235.032 733.502 229.652 731.307 219.25C729.113 208.953 734.156 200.703 743.883 198.656V198.635ZM711.832 209.164L725.505 240.202L720.061 242.586L706.388 211.548L711.832 209.164ZM677.545 227.69C683.832 223.153 691.323 223.301 696.155 228.344L691.07 232.015C687.863 229.399 684.001 229.905 680.689 232.289C675.224 236.235 674.949 242.438 679.233 248.389C683.664 254.529 689.614 255.331 694.699 251.659C699.489 248.22 700.48 243.493 697.315 239.084L697.231 238.978L688.896 244.97L685.837 240.708L698.645 231.488L709.807 246.975L705.734 249.908L703.16 246.954C703.16 250.14 701.113 253.875 697.379 256.554C689.656 262.125 680.224 260.395 674.126 251.912C668.092 243.557 669.273 233.661 677.566 227.69H677.545ZM651.043 251.3L655.284 254.761L645.705 266.471L652.457 272L661.044 261.513L665.096 264.826L656.508 275.312L663.471 281.009L673.05 269.299L677.291 272.759L663.956 289.069L637.687 267.59L651.022 251.279L651.043 251.3ZM628.086 281.917L633.002 284.343L628.614 293.268L654.145 305.823L651.528 311.161L625.997 298.607L621.608 307.511L616.692 305.105L628.086 281.938V281.917ZM610.003 326.944L645.852 322.914L644.397 329.012L636.125 329.856L633.171 342.178L640.155 346.672L638.721 352.665L608.569 332.873L609.982 326.965L610.003 326.944ZM604.517 373.596C604.349 365.895 608.126 361.295 614.814 361.147C619.372 361.042 622.663 363.109 624.373 367.055L638.151 360.282L638.299 366.781L625.765 372.815L625.934 380.095L638.594 379.799L638.721 385.729L604.813 386.509L604.517 373.575V373.596ZM613.949 429.089L607.197 404.17L612.493 402.735L615.089 412.336L642.561 404.887L644.122 410.627L616.65 418.075L619.245 427.654L613.949 429.089ZM652.647 452.573L649.84 447.341C652.351 445.948 652.773 443.078 650.98 439.724C649.123 436.242 646.422 434.849 643.932 436.179C641.928 437.255 641.295 438.901 642.076 441.644L643.553 446.961C645.156 452.637 643.679 456.857 639.1 459.304C633.868 462.111 627.896 459.705 624.52 453.417C621.271 447.362 622.579 441.707 627.896 438.647L630.703 443.88C628.192 445.378 627.664 448.037 629.226 450.991C630.956 454.219 633.635 455.485 636.125 454.156C638.256 453.017 638.826 451.244 638.067 448.438L636.568 443.184C634.944 437.466 636.231 433.583 640.683 431.178C646.253 428.203 652.182 430.608 655.706 437.213C659.124 443.606 657.964 449.598 652.647 452.595V452.573ZM709.026 501.504L703.856 497.981C705.228 494.077 703.434 490.617 700.058 488.317C694.509 484.519 688.58 486.376 684.444 492.431C680.182 498.677 681.448 504.543 686.618 508.088C691.492 511.421 696.26 510.746 699.32 506.273L699.404 506.167L690.943 500.386L693.897 496.061L706.916 504.965L696.155 520.705L692.019 517.878L693.918 514.46C690.922 515.557 686.723 514.882 682.925 512.286C675.076 506.927 673.493 497.474 679.38 488.844C685.183 480.341 694.889 478.083 703.308 483.844C709.701 488.211 712.106 495.301 709.026 501.568V501.504ZM731.793 535.222L712.866 528.301L724.513 496.44L730.084 498.487L720.314 525.2L733.65 530.074L731.772 535.222H731.793ZM778.825 525.516C777.685 535.75 770.131 542.206 760.447 541.13C750.804 540.054 744.959 532.163 746.099 521.866C747.238 511.632 754.728 505.176 764.371 506.252C774.014 507.328 779.943 515.24 778.804 525.516H778.825ZM779.711 495.512C710.798 495.512 654.736 439.449 654.736 370.537C654.736 301.624 710.798 245.54 779.711 245.54C848.624 245.54 904.707 301.624 904.707 370.537C904.707 439.449 848.624 495.512 779.711 495.512ZM808.702 539.21L795.135 541.341L789.881 507.834L803.216 505.745C809.821 504.712 814.399 507.518 815.264 513.109C815.855 516.823 814.61 519.735 811.656 521.57C815.37 522.161 817.564 524.546 818.176 528.449C819.062 534.188 815.602 538.155 808.681 539.231L808.702 539.21ZM855.27 524.335L849.657 518.194L838.01 523.195L838.58 531.487L832.904 533.914L830.794 497.896L836.385 495.512L861.009 521.866L855.249 524.335H855.27ZM874.154 513.468L853.983 486.165L858.773 482.641L875.695 505.534L887.131 497.094L890.38 501.504L874.176 513.489L874.154 513.468ZM926.145 449.071C924.056 447.847 922.241 448.29 920.258 450.421L916.566 454.451C912.557 458.84 908.569 459.79 904.201 457.237C898.757 454.05 897.702 447.742 901.458 441.285C905.108 435.018 910.826 432.866 916.144 435.82L913.147 440.947C910.636 439.534 907.978 440.673 906.058 443.965C904.074 447.383 904.285 450.4 906.733 451.835C908.695 452.974 910.446 452.658 912.367 450.548L916.122 446.497C920.11 442.15 924.478 441.201 928.972 443.817C934.1 446.813 935.197 453.143 931.61 459.325C928.149 465.255 922.663 467.111 917.283 464.2L920.279 459.072C922.874 460.423 925.406 459.494 927.094 456.604C928.951 453.439 928.614 450.506 926.166 449.071H926.145Z" fill="url(#paint115_linear_1248_6422)" style="mix-blend-mode:overlay"/>
<path d="M809.356 514.607C808.913 511.717 806.824 510.451 803.533 510.957L796.57 512.054L798.005 521.17L805.115 520.051C808.322 519.545 809.842 517.583 809.377 514.586L809.356 514.607Z" fill="url(#paint116_linear_1248_6422)" style="mix-blend-mode:overlay"/>
<path d="M779.711 249.739C713.119 249.739 658.956 303.924 658.956 370.515C658.956 437.107 713.119 491.271 779.711 491.271C846.302 491.271 900.487 437.107 900.487 370.515C900.487 303.924 846.302 249.739 779.711 249.739ZM884.114 351.758L878.438 352.602L879.345 358.678L885.021 357.834L885.38 360.24L871.665 362.286L871.306 359.881L877.13 359.016L876.222 352.939L870.399 353.804L870.04 351.399L883.755 349.352L884.114 351.758ZM879.324 334.181C880.717 338.043 879.008 341.651 875.104 343.064C871.264 344.436 867.656 342.79 866.305 338.992L864.617 334.287L877.678 329.603L879.324 334.181ZM870.399 315.592L871.665 317.723L862.254 329.096L860.946 326.881L863.14 324.285L860.503 319.812L857.169 320.487L855.882 318.314L870.399 315.571V315.592ZM863.225 305.063L861.516 306.519L857.486 301.814L854.764 304.135L858.372 308.355L856.747 309.747L853.139 305.527L850.333 307.933L854.363 312.638L852.654 314.094L847.041 307.553L857.591 298.522L863.204 305.063H863.225ZM845.585 287.403L847.442 288.985L839.909 297.847L844.34 301.603L842.884 303.312L836.618 297.974L845.606 287.403H845.585ZM818.345 271.599L820.539 272.59L822.396 284.238L826.469 275.291L828.642 276.283L822.903 288.922L820.729 287.93L818.851 276.283L814.779 285.229L812.606 284.238L818.345 271.599ZM801.359 266.64L809.715 268.708L809.166 270.881L803.153 269.383L802.288 272.844L807.668 274.173L807.162 276.262L801.781 274.932L800.895 278.498L806.909 279.996L806.36 282.17L798.005 280.102L801.338 266.64H801.359ZM778.107 264.298L780.449 264.425L784.374 275.671L789.396 264.847L791.78 264.973L791.105 278.836L788.763 278.709L788.974 274.447C789.1 271.662 789.143 270.839 789.332 269.868L785.366 278.562L783.129 278.456L780.048 269.446C780.133 270.29 780.091 271.599 780.006 273.329L779.753 278.287L777.411 278.182L778.086 264.319L778.107 264.298ZM762.346 265.691C766.27 265.037 769.477 267.505 770.174 271.683C770.87 275.84 768.612 279.216 764.667 279.87C760.742 280.524 757.577 278.055 756.881 273.877C756.184 269.721 758.421 266.345 762.346 265.691ZM733.143 275.038L737.975 280.988C738.46 281.6 738.946 282.254 739.6 283.288C739.347 282.064 739.262 281.305 739.178 280.482L738.418 272.865L740.887 271.852L745.655 277.823C746.162 278.456 746.668 279.11 747.322 280.123C747.069 278.836 746.964 278.076 746.9 277.338L746.183 269.679L748.462 268.729L749.833 283.183L747.66 284.069L741.077 275.84L742.111 286.326L739.895 287.234L730.801 275.945L733.143 274.975V275.038ZM707.781 292.678L719.154 295.821L712.697 288.394L714.512 286.833L723.627 297.298L721.812 298.86L710.44 295.716L716.896 303.143L715.082 304.705L705.966 294.239L707.781 292.656V292.678ZM697.104 304.177L711.115 308.798L709.532 310.824L706.325 309.726L703.118 313.799L704.954 316.668L703.392 318.652L695.564 306.139L697.104 304.177ZM685.668 321.184C687.187 318.272 690.015 316.985 692.884 317.934L691.703 320.213C690.057 319.897 688.559 320.677 687.715 322.302C686.533 324.581 687.441 326.86 690.057 328.231C692.673 329.603 695.1 329.033 696.281 326.775C697.147 325.108 696.936 323.378 695.796 322.26L696.957 320.023C699.299 321.859 699.847 325.003 698.328 327.915C696.45 331.502 692.758 332.514 688.896 330.51C685.077 328.505 683.79 324.771 685.668 321.184ZM679.781 335.257L692.905 339.731L692.125 342.03L679.001 337.557L679.781 335.257ZM675.625 350.597C676.194 347.495 678.114 345.976 680.794 346.483C682.63 346.82 683.769 347.917 684.128 349.648L690.205 348.086L689.719 350.703L684.191 352.074L683.643 355.007L688.749 355.956L688.306 358.341L674.654 355.809L675.625 350.597ZM673.831 364.291L676.068 364.333L675.962 370.494L679.739 370.558L679.823 365.388L682.018 365.43L681.933 370.6L687.609 370.705L687.567 373.132L673.683 372.9L673.831 364.312V364.291ZM674.844 386.003L687.778 378.85L688.179 381.382L685.183 382.986L686.006 388.113L689.361 388.704L689.762 391.193L675.245 388.429L674.844 385.961V386.003ZM688.327 411.049L684.993 412.61L687.609 418.223L685.584 419.172L681.933 411.344L694.53 405.478L698.159 413.306L696.134 414.256L693.517 408.643L690.289 410.141L692.631 415.163L690.69 416.07L688.348 411.049H688.327ZM704.131 434.681C700.86 437.128 696.936 436.601 694.509 433.372L691.513 429.363L702.654 421.05L705.565 424.953C708.013 428.245 707.443 432.212 704.131 434.681ZM718.247 450.611C716.137 453.08 713.183 453.249 710.608 451.033C708.055 448.839 707.781 445.906 709.912 443.437L715.672 436.77L717.508 438.352L711.853 444.914C710.545 446.433 710.651 447.974 712.149 449.261C713.647 450.548 715.208 450.421 716.495 448.923L722.15 442.361L723.986 443.944L718.225 450.611H718.247ZM740.359 459.093L738.102 457.891C738.439 456.245 737.659 454.747 736.034 453.903C733.776 452.7 731.476 453.586 730.084 456.203C728.712 458.798 729.261 461.246 731.518 462.427C733.185 463.313 734.916 463.102 736.034 461.963L738.27 463.145C736.435 465.487 733.27 465.993 730.379 464.453C726.813 462.554 725.8 458.84 727.847 455C729.873 451.202 733.607 449.936 737.194 451.835C740.106 453.375 741.372 456.224 740.38 459.072L740.359 459.093ZM754.644 473.505L754.433 470.108L749.432 468.694L747.491 471.479L745.065 470.804L753.652 458.798L756.058 459.473L757.113 474.201L754.644 473.505ZM776.567 464.917L772.516 464.558L771.461 476.142L769.034 475.931L770.089 464.347L766.038 463.989L766.249 461.752L776.757 462.701L776.546 464.938L776.567 464.917ZM706.642 370.515C706.642 330.172 739.452 297.362 779.774 297.362C820.096 297.362 852.928 330.172 852.928 370.515C852.928 410.859 820.117 443.648 779.774 443.648C739.431 443.648 706.642 410.838 706.642 370.515ZM785.345 476.311L784.479 462.448L786.906 462.301L787.771 476.163L785.345 476.311ZM805.136 473.61C801.275 474.56 797.92 472.344 796.907 468.23C795.895 464.136 797.857 460.591 801.718 459.642C805.579 458.692 808.977 460.887 809.989 465.001C811.002 469.095 809.019 472.64 805.136 473.589V473.61ZM830.815 463.377L820.518 457.595L825.013 466.352L822.881 467.449L816.551 455.084L818.704 453.987L828.979 459.769L824.485 451.012L826.616 449.915L832.946 462.279L830.815 463.377ZM849.067 450.717C846.978 452.552 844.404 452.384 842.61 450.337C840.838 448.332 840.964 445.716 843.053 443.88L845.353 441.855L842.188 438.268L844.024 436.664L853.202 447.087L849.088 450.717H849.067ZM859.427 440.42L848.898 431.389L850.48 429.553L861.009 438.584L859.427 440.42ZM871.306 424.088L866.453 421.05L863.182 426.262L868.035 429.3L866.748 431.368L854.975 424.004L856.262 421.936L861.241 425.059L864.512 419.847L859.532 416.725L860.819 414.657L872.593 422.021L871.306 424.088ZM878.522 409.804C877.488 412.42 875.378 413.496 873.015 412.652L873.922 410.395C875.062 410.774 876.032 410.247 876.539 408.981C877.087 407.588 876.771 406.428 875.695 405.985C874.766 405.626 874.07 405.9 873.395 406.892L872.15 408.749C870.8 410.774 869.238 411.386 867.318 410.627C864.913 409.677 864.111 407.187 865.25 404.339C866.348 401.596 868.521 400.372 870.863 401.237L869.956 403.495C868.858 403.073 867.846 403.706 867.276 405.141C866.685 406.639 866.959 407.862 868.035 408.284C868.901 408.622 869.597 408.39 870.23 407.419L871.496 405.563C872.846 403.558 874.555 402.925 876.518 403.706C878.775 404.613 879.598 407.103 878.522 409.825V409.804ZM883.502 392.565C882.869 395.646 880.928 397.144 878.248 396.574C876.433 396.194 875.294 395.076 874.977 393.325L868.858 394.759L869.407 392.164L874.956 390.919L875.568 388.007L870.483 386.952L870.968 384.568L884.578 387.395L883.502 392.586V392.565ZM883.354 378.365L883.544 372.161L879.978 372.056L879.809 377.605L877.657 377.542L877.826 371.992L874.133 371.866L873.944 378.048L871.707 377.985L871.981 369.355L885.865 369.798L885.591 378.428L883.354 378.365Z" fill="url(#paint117_linear_1248_6422)" style="mix-blend-mode:overlay"/>
<path d="M699.721 307.49C699.362 307.363 698.961 307.215 698.708 307.068C698.877 307.279 699.151 307.616 699.362 307.954L701.915 311.963L704.236 309.009L699.721 307.49Z" fill="url(#paint118_linear_1248_6422)" style="mix-blend-mode:overlay"/>
<path d="M874.239 340.638C877.003 339.646 878.1 337.41 877.13 334.709L876.391 332.641L867.55 335.806L868.331 338C869.259 340.617 871.517 341.608 874.239 340.617V340.638Z" fill="url(#paint119_linear_1248_6422)" style="mix-blend-mode:overlay"/>
<path d="M806.234 524.968L798.764 526.128L800.178 535.201L807.647 534.041C810.939 533.513 812.521 531.635 812.057 528.597C811.614 525.748 809.483 524.44 806.234 524.946V524.968Z" fill="url(#paint120_linear_1248_6422)" style="mix-blend-mode:overlay"/>
<defs>
<filter id="filter0_f_1248_6422" x="201" y="352" width="38" height="38" filterUnits="userSpaceOnUse" color-interpolation-filters="sRGB">
<feFlood flood-opacity="0" result="BackgroundImageFix"/>
<feBlend mode="normal" in="SourceGraphic" in2="BackgroundImageFix" result="shape"/>
<feGaussianBlur stdDeviation="5.5" result="effect1_foregroundBlur_1248_6422"/>
</filter>
<filter id="filter1_f_1248_6422" x="689" y="109" width="38" height="38" filterUnits="userSpaceOnUse" color-interpolation-filters="sRGB">
<feFlood flood-opacity="0" result="BackgroundImageFix"/>
<feBlend mode="normal" in="SourceGraphic" in2="BackgroundImageFix" result="shape"/>
<feGaussianBlur stdDeviation="5.5" result="effect1_foregroundBlur_1248_6422"/>
</filter>
<filter id="filter2_f_1248_6422" x="931" y="616" width="38" height="38" filterUnits="userSpaceOnUse" color-interpolation-filters="sRGB">
<feFlood flood-opacity="0" result="BackgroundImageFix"/>
<feBlend mode="normal" in="SourceGraphic" in2="BackgroundImageFix" result="shape"/>
<feGaussianBlur stdDeviation="5.5" result="effect1_foregroundBlur_1248_6422"/>
</filter>
<filter id="filter3_f_1248_6422" x="371" y="180" width="40" height="40" filterUnits="userSpaceOnUse" color-interpolation-filters="sRGB">
<feFlood flood-opacity="0" result="BackgroundImageFix"/>
<feBlend mode="normal" in="SourceGraphic" in2="BackgroundImageFix" result="shape"/>
<feGaussianBlur stdDeviation="5.5" result="effect1_foregroundBlur_1248_6422"/>
</filter>
<filter id="filter4_f_1248_6422" x="451" y="475" width="42" height="42" filterUnits="userSpaceOnUse" color-interpolation-filters="sRGB">
<feFlood flood-opacity="0" result="BackgroundImageFix"/>
<feBlend mode="normal" in="SourceGraphic" in2="BackgroundImageFix" result="shape"/>
<feGaussianBlur stdDeviation="5.5" result="effect1_foregroundBlur_1248_6422"/>
</filter>
<filter id="filter5_f_1248_6422" x="646" y="497" width="42" height="42" filterUnits="userSpaceOnUse" color-interpolation-filters="sRGB">
<feFlood flood-opacity="0" result="BackgroundImageFix"/>
<feBlend mode="normal" in="SourceGraphic" in2="BackgroundImageFix" result="shape"/>
<feGaussianBlur stdDeviation="5.5" result="effect1_foregroundBlur_1248_6422"/>
</filter>
<radialGradient id="paint0_radial_1248_6422" cx="0" cy="0" r="1" gradientUnits="userSpaceOnUse" gradientTransform="translate(873 353) rotate(-90) scale(642 821.414)">
<stop stop-color="#1A27C9" stop-opacity="0.34"/>
<stop offset="1" stop-color="#1A27C9" stop-opacity="0"/>
</radialGradient>
<radialGradient id="paint1_radial_1248_6422" cx="0" cy="0" r="1" gradientUnits="userSpaceOnUse" gradientTransform="translate(220 371) rotate(90) scale(8)">
<stop stop-color="#7C82FF"/>
<stop offset="1" stop-color="#0008C1" stop-opacity="0.56"/>
</radialGradient>
<radialGradient id="paint2_radial_1248_6422" cx="0" cy="0" r="1" gradientUnits="userSpaceOnUse" gradientTransform="translate(708 128) rotate(90) scale(8)">
<stop stop-color="#7C82FF"/>
<stop offset="1" stop-color="#0008C1" stop-opacity="0.56"/>
</radialGradient>
<radialGradient id="paint3_radial_1248_6422" cx="0" cy="0" r="1" gradientUnits="userSpaceOnUse" gradientTransform="translate(950 635) rotate(90) scale(8)">
<stop stop-color="#7C82FF"/>
<stop offset="1" stop-color="#0008C1" stop-opacity="0.56"/>
</radialGradient>
<radialGradient id="paint4_radial_1248_6422" cx="0" cy="0" r="1" gradientUnits="userSpaceOnUse" gradientTransform="translate(391 200) rotate(90) scale(9)">
<stop stop-color="#7C82FF"/>
<stop offset="1" stop-color="#0008C1" stop-opacity="0.56"/>
</radialGradient>
<radialGradient id="paint5_radial_1248_6422" cx="0" cy="0" r="1" gradientUnits="userSpaceOnUse" gradientTransform="translate(472 496) rotate(90) scale(10)">
<stop stop-color="#7C82FF"/>
<stop offset="1" stop-color="#0008C1" stop-opacity="0.56"/>
</radialGradient>
<radialGradient id="paint6_radial_1248_6422" cx="0" cy="0" r="1" gradientUnits="userSpaceOnUse" gradientTransform="translate(667 518) rotate(90) scale(10)">
<stop stop-color="#7C82FF"/>
<stop offset="1" stop-color="#0008C1" stop-opacity="0.56"/>
</radialGradient>
<linearGradient id="paint7_linear_1248_6422" x1="779.5" y1="144" x2="779.5" y2="639.416" gradientUnits="userSpaceOnUse">
<stop stop-color="white"/>
<stop offset="1" stop-color="white" stop-opacity="0.54"/>
</linearGradient>
<linearGradient id="paint8_linear_1248_6422" x1="779.5" y1="144" x2="779.5" y2="639.416" gradientUnits="userSpaceOnUse">
<stop stop-color="white"/>
<stop offset="1" stop-color="white" stop-opacity="0.54"/>
</linearGradient>
<linearGradient id="paint9_linear_1248_6422" x1="779.5" y1="144" x2="779.5" y2="639.416" gradientUnits="userSpaceOnUse">
<stop stop-color="white"/>
<stop offset="1" stop-color="white" stop-opacity="0.54"/>
</linearGradient>
<linearGradient id="paint10_linear_1248_6422" x1="779.5" y1="144" x2="779.5" y2="639.416" gradientUnits="userSpaceOnUse">
<stop stop-color="white"/>
<stop offset="1" stop-color="white" stop-opacity="0.54"/>
</linearGradient>
<linearGradient id="paint11_linear_1248_6422" x1="779.5" y1="144" x2="779.5" y2="639.416" gradientUnits="userSpaceOnUse">
<stop stop-color="white"/>
<stop offset="1" stop-color="white" stop-opacity="0.54"/>
</linearGradient>
<linearGradient id="paint12_linear_1248_6422" x1="779.5" y1="144" x2="779.5" y2="639.416" gradientUnits="userSpaceOnUse">
<stop stop-color="white"/>
<stop offset="1" stop-color="white" stop-opacity="0.54"/>
</linearGradient>
<linearGradient id="paint13_linear_1248_6422" x1="779.5" y1="144" x2="779.5" y2="639.416" gradientUnits="userSpaceOnUse">
<stop stop-color="white"/>
<stop offset="1" stop-color="white" stop-opacity="0.54"/>
</linearGradient>
<linearGradient id="paint14_linear_1248_6422" x1="779.5" y1="144" x2="779.5" y2="639.416" gradientUnits="userSpaceOnUse">
<stop stop-color="white"/>
<stop offset="1" stop-color="white" stop-opacity="0.54"/>
</linearGradient>
<linearGradient id="paint15_linear_1248_6422" x1="779.5" y1="144" x2="779.5" y2="639.416" gradientUnits="userSpaceOnUse">
<stop stop-color="white"/>
<stop offset="1" stop-color="white" stop-opacity="0.54"/>
</linearGradient>
<linearGradient id="paint16_linear_1248_6422" x1="779.5" y1="144" x2="779.5" y2="639.416" gradientUnits="userSpaceOnUse">
<stop stop-color="white"/>
<stop offset="1" stop-color="white" stop-opacity="0.54"/>
</linearGradient>
<linearGradient id="paint17_linear_1248_6422" x1="779.5" y1="144" x2="779.5" y2="639.416" gradientUnits="userSpaceOnUse">
<stop stop-color="white"/>
<stop offset="1" stop-color="white" stop-opacity="0.54"/>
</linearGradient>
<linearGradient id="paint18_linear_1248_6422" x1="779.5" y1="144" x2="779.5" y2="639.416" gradientUnits="userSpaceOnUse">
<stop stop-color="white"/>
<stop offset="1" stop-color="white" stop-opacity="0.54"/>
</linearGradient>
<linearGradient id="paint19_linear_1248_6422" x1="779.5" y1="144" x2="779.5" y2="639.416" gradientUnits="userSpaceOnUse">
<stop stop-color="white"/>
<stop offset="1" stop-color="white" stop-opacity="0.54"/>
</linearGradient>
<linearGradient id="paint20_linear_1248_6422" x1="779.5" y1="144" x2="779.5" y2="639.416" gradientUnits="userSpaceOnUse">
<stop stop-color="white"/>
<stop offset="1" stop-color="white" stop-opacity="0.54"/>
</linearGradient>
<linearGradient id="paint21_linear_1248_6422" x1="779.5" y1="144" x2="779.5" y2="639.416" gradientUnits="userSpaceOnUse">
<stop stop-color="white"/>
<stop offset="1" stop-color="white" stop-opacity="0.54"/>
</linearGradient>
<linearGradient id="paint22_linear_1248_6422" x1="779.5" y1="144" x2="779.5" y2="639.416" gradientUnits="userSpaceOnUse">
<stop stop-color="white"/>
<stop offset="1" stop-color="white" stop-opacity="0.54"/>
</linearGradient>
<linearGradient id="paint23_linear_1248_6422" x1="779.5" y1="144" x2="779.5" y2="639.416" gradientUnits="userSpaceOnUse">
<stop stop-color="white"/>
<stop offset="1" stop-color="white" stop-opacity="0.54"/>
</linearGradient>
<linearGradient id="paint24_linear_1248_6422" x1="779.5" y1="144" x2="779.5" y2="639.416" gradientUnits="userSpaceOnUse">
<stop stop-color="white"/>
<stop offset="1" stop-color="white" stop-opacity="0.54"/>
</linearGradient>
<linearGradient id="paint25_linear_1248_6422" x1="779.5" y1="144" x2="779.5" y2="639.416" gradientUnits="userSpaceOnUse">
<stop stop-color="white"/>
<stop offset="1" stop-color="white" stop-opacity="0.54"/>
</linearGradient>
<linearGradient id="paint26_linear_1248_6422" x1="779.5" y1="144" x2="779.5" y2="639.416" gradientUnits="userSpaceOnUse">
<stop stop-color="white"/>
<stop offset="1" stop-color="white" stop-opacity="0.54"/>
</linearGradient>
<linearGradient id="paint27_linear_1248_6422" x1="779.5" y1="144" x2="779.5" y2="639.416" gradientUnits="userSpaceOnUse">
<stop stop-color="white"/>
<stop offset="1" stop-color="white" stop-opacity="0.54"/>
</linearGradient>
<linearGradient id="paint28_linear_1248_6422" x1="779.5" y1="144" x2="779.5" y2="639.416" gradientUnits="userSpaceOnUse">
<stop stop-color="white"/>
<stop offset="1" stop-color="white" stop-opacity="0.54"/>
</linearGradient>
<linearGradient id="paint29_linear_1248_6422" x1="779.5" y1="144" x2="779.5" y2="639.416" gradientUnits="userSpaceOnUse">
<stop stop-color="white"/>
<stop offset="1" stop-color="white" stop-opacity="0.54"/>
</linearGradient>
<linearGradient id="paint30_linear_1248_6422" x1="779.5" y1="144" x2="779.5" y2="639.416" gradientUnits="userSpaceOnUse">
<stop stop-color="white"/>
<stop offset="1" stop-color="white" stop-opacity="0.54"/>
</linearGradient>
<linearGradient id="paint31_linear_1248_6422" x1="779.5" y1="144" x2="779.5" y2="639.416" gradientUnits="userSpaceOnUse">
<stop stop-color="white"/>
<stop offset="1" stop-color="white" stop-opacity="0.54"/>
</linearGradient>
<linearGradient id="paint32_linear_1248_6422" x1="779.5" y1="144" x2="779.5" y2="639.416" gradientUnits="userSpaceOnUse">
<stop stop-color="white"/>
<stop offset="1" stop-color="white" stop-opacity="0.54"/>
</linearGradient>
<linearGradient id="paint33_linear_1248_6422" x1="779.5" y1="144" x2="779.5" y2="639.416" gradientUnits="userSpaceOnUse">
<stop stop-color="white"/>
<stop offset="1" stop-color="white" stop-opacity="0.54"/>
</linearGradient>
<linearGradient id="paint34_linear_1248_6422" x1="779.5" y1="144" x2="779.5" y2="639.416" gradientUnits="userSpaceOnUse">
<stop stop-color="white"/>
<stop offset="1" stop-color="white" stop-opacity="0.54"/>
</linearGradient>
<linearGradient id="paint35_linear_1248_6422" x1="779.5" y1="144" x2="779.5" y2="639.416" gradientUnits="userSpaceOnUse">
<stop stop-color="white"/>
<stop offset="1" stop-color="white" stop-opacity="0.54"/>
</linearGradient>
<linearGradient id="paint36_linear_1248_6422" x1="779.5" y1="144" x2="779.5" y2="639.416" gradientUnits="userSpaceOnUse">
<stop stop-color="white"/>
<stop offset="1" stop-color="white" stop-opacity="0.54"/>
</linearGradient>
<linearGradient id="paint37_linear_1248_6422" x1="779.5" y1="144" x2="779.5" y2="639.416" gradientUnits="userSpaceOnUse">
<stop stop-color="white"/>
<stop offset="1" stop-color="white" stop-opacity="0.54"/>
</linearGradient>
<linearGradient id="paint38_linear_1248_6422" x1="779.5" y1="144" x2="779.5" y2="639.416" gradientUnits="userSpaceOnUse">
<stop stop-color="white"/>
<stop offset="1" stop-color="white" stop-opacity="0.54"/>
</linearGradient>
<linearGradient id="paint39_linear_1248_6422" x1="779.5" y1="144" x2="779.5" y2="639.416" gradientUnits="userSpaceOnUse">
<stop stop-color="white"/>
<stop offset="1" stop-color="white" stop-opacity="0.54"/>
</linearGradient>
<linearGradient id="paint40_linear_1248_6422" x1="779.5" y1="144" x2="779.5" y2="639.416" gradientUnits="userSpaceOnUse">
<stop stop-color="white"/>
<stop offset="1" stop-color="white" stop-opacity="0.54"/>
</linearGradient>
<linearGradient id="paint41_linear_1248_6422" x1="779.5" y1="144" x2="779.5" y2="639.416" gradientUnits="userSpaceOnUse">
<stop stop-color="white"/>
<stop offset="1" stop-color="white" stop-opacity="0.54"/>
</linearGradient>
<linearGradient id="paint42_linear_1248_6422" x1="779.5" y1="144" x2="779.5" y2="639.416" gradientUnits="userSpaceOnUse">
<stop stop-color="white"/>
<stop offset="1" stop-color="white" stop-opacity="0.54"/>
</linearGradient>
<linearGradient id="paint43_linear_1248_6422" x1="779.5" y1="144" x2="779.5" y2="639.416" gradientUnits="userSpaceOnUse">
<stop stop-color="white"/>
<stop offset="1" stop-color="white" stop-opacity="0.54"/>
</linearGradient>
<linearGradient id="paint44_linear_1248_6422" x1="779.5" y1="144" x2="779.5" y2="639.416" gradientUnits="userSpaceOnUse">
<stop stop-color="white"/>
<stop offset="1" stop-color="white" stop-opacity="0.54"/>
</linearGradient>
<linearGradient id="paint45_linear_1248_6422" x1="779.5" y1="144" x2="779.5" y2="639.416" gradientUnits="userSpaceOnUse">
<stop stop-color="white"/>
<stop offset="1" stop-color="white" stop-opacity="0.54"/>
</linearGradient>
<linearGradient id="paint46_linear_1248_6422" x1="779.5" y1="144" x2="779.5" y2="639.416" gradientUnits="userSpaceOnUse">
<stop stop-color="white"/>
<stop offset="1" stop-color="white" stop-opacity="0.54"/>
</linearGradient>
<linearGradient id="paint47_linear_1248_6422" x1="779.5" y1="144" x2="779.5" y2="639.416" gradientUnits="userSpaceOnUse">
<stop stop-color="white"/>
<stop offset="1" stop-color="white" stop-opacity="0.54"/>
</linearGradient>
<linearGradient id="paint48_linear_1248_6422" x1="779.5" y1="144" x2="779.5" y2="639.416" gradientUnits="userSpaceOnUse">
<stop stop-color="white"/>
<stop offset="1" stop-color="white" stop-opacity="0.54"/>
</linearGradient>
<linearGradient id="paint49_linear_1248_6422" x1="779.5" y1="144" x2="779.5" y2="639.416" gradientUnits="userSpaceOnUse">
<stop stop-color="white"/>
<stop offset="1" stop-color="white" stop-opacity="0.54"/>
</linearGradient>
<linearGradient id="paint50_linear_1248_6422" x1="779.5" y1="144" x2="779.5" y2="639.416" gradientUnits="userSpaceOnUse">
<stop stop-color="white"/>
<stop offset="1" stop-color="white" stop-opacity="0.54"/>
</linearGradient>
<linearGradient id="paint51_linear_1248_6422" x1="779.5" y1="144" x2="779.5" y2="639.416" gradientUnits="userSpaceOnUse">
<stop stop-color="white"/>
<stop offset="1" stop-color="white" stop-opacity="0.54"/>
</linearGradient>
<linearGradient id="paint52_linear_1248_6422" x1="779.5" y1="144" x2="779.5" y2="639.416" gradientUnits="userSpaceOnUse">
<stop stop-color="white"/>
<stop offset="1" stop-color="white" stop-opacity="0.54"/>
</linearGradient>
<linearGradient id="paint53_linear_1248_6422" x1="779.5" y1="144" x2="779.5" y2="639.416" gradientUnits="userSpaceOnUse">
<stop stop-color="white"/>
<stop offset="1" stop-color="white" stop-opacity="0.54"/>
</linearGradient>
<linearGradient id="paint54_linear_1248_6422" x1="779.5" y1="144" x2="779.5" y2="639.416" gradientUnits="userSpaceOnUse">
<stop stop-color="white"/>
<stop offset="1" stop-color="white" stop-opacity="0.54"/>
</linearGradient>
<linearGradient id="paint55_linear_1248_6422" x1="779.5" y1="144" x2="779.5" y2="639.416" gradientUnits="userSpaceOnUse">
<stop stop-color="white"/>
<stop offset="1" stop-color="white" stop-opacity="0.54"/>
</linearGradient>
<linearGradient id="paint56_linear_1248_6422" x1="779.5" y1="144" x2="779.5" y2="639.416" gradientUnits="userSpaceOnUse">
<stop stop-color="white"/>
<stop offset="1" stop-color="white" stop-opacity="0.54"/>
</linearGradient>
<linearGradient id="paint57_linear_1248_6422" x1="779.5" y1="144" x2="779.5" y2="639.416" gradientUnits="userSpaceOnUse">
<stop stop-color="white"/>
<stop offset="1" stop-color="white" stop-opacity="0.54"/>
</linearGradient>
<linearGradient id="paint58_linear_1248_6422" x1="779.5" y1="144" x2="779.5" y2="639.416" gradientUnits="userSpaceOnUse">
<stop stop-color="white"/>
<stop offset="1" stop-color="white" stop-opacity="0.54"/>
</linearGradient>
<linearGradient id="paint59_linear_1248_6422" x1="779.5" y1="144" x2="779.5" y2="639.416" gradientUnits="userSpaceOnUse">
<stop stop-color="white"/>
<stop offset="1" stop-color="white" stop-opacity="0.54"/>
</linearGradient>
<linearGradient id="paint60_linear_1248_6422" x1="779.5" y1="144" x2="779.5" y2="639.416" gradientUnits="userSpaceOnUse">
<stop stop-color="white"/>
<stop offset="1" stop-color="white" stop-opacity="0.54"/>
</linearGradient>
<linearGradient id="paint61_linear_1248_6422" x1="779.5" y1="144" x2="779.5" y2="639.416" gradientUnits="userSpaceOnUse">
<stop stop-color="white"/>
<stop offset="1" stop-color="white" stop-opacity="0.54"/>
</linearGradient>
<linearGradient id="paint62_linear_1248_6422" x1="779.5" y1="144" x2="779.5" y2="639.416" gradientUnits="userSpaceOnUse">
<stop stop-color="white"/>
<stop offset="1" stop-color="white" stop-opacity="0.54"/>
</linearGradient>
<linearGradient id="paint63_linear_1248_6422" x1="779.5" y1="144" x2="779.5" y2="639.416" gradientUnits="userSpaceOnUse">
<stop stop-color="white"/>
<stop offset="1" stop-color="white" stop-opacity="0.54"/>
</linearGradient>
<linearGradient id="paint64_linear_1248_6422" x1="779.5" y1="144" x2="779.5" y2="639.416" gradientUnits="userSpaceOnUse">
<stop stop-color="white"/>
<stop offset="1" stop-color="white" stop-opacity="0.54"/>
</linearGradient>
<linearGradient id="paint65_linear_1248_6422" x1="779.5" y1="144" x2="779.5" y2="639.416" gradientUnits="userSpaceOnUse">
<stop stop-color="white"/>
<stop offset="1" stop-color="white" stop-opacity="0.54"/>
</linearGradient>
<linearGradient id="paint66_linear_1248_6422" x1="779.5" y1="144" x2="779.5" y2="639.416" gradientUnits="userSpaceOnUse">
<stop stop-color="white"/>
<stop offset="1" stop-color="white" stop-opacity="0.54"/>
</linearGradient>
<linearGradient id="paint67_linear_1248_6422" x1="779.5" y1="144" x2="779.5" y2="639.416" gradientUnits="userSpaceOnUse">
<stop stop-color="white"/>
<stop offset="1" stop-color="white" stop-opacity="0.54"/>
</linearGradient>
<linearGradient id="paint68_linear_1248_6422" x1="779.5" y1="144" x2="779.5" y2="639.416" gradientUnits="userSpaceOnUse">
<stop stop-color="white"/>
<stop offset="1" stop-color="white" stop-opacity="0.54"/>
</linearGradient>
<linearGradient id="paint69_linear_1248_6422" x1="779.5" y1="144" x2="779.5" y2="639.416" gradientUnits="userSpaceOnUse">
<stop stop-color="white"/>
<stop offset="1" stop-color="white" stop-opacity="0.54"/>
</linearGradient>
<linearGradient id="paint70_linear_1248_6422" x1="779.5" y1="144" x2="779.5" y2="639.416" gradientUnits="userSpaceOnUse">
<stop stop-color="white"/>
<stop offset="1" stop-color="white" stop-opacity="0.54"/>
</linearGradient>
<linearGradient id="paint71_linear_1248_6422" x1="779.5" y1="144" x2="779.5" y2="639.416" gradientUnits="userSpaceOnUse">
<stop stop-color="white"/>
<stop offset="1" stop-color="white" stop-opacity="0.54"/>
</linearGradient>
<linearGradient id="paint72_linear_1248_6422" x1="779.5" y1="144" x2="779.5" y2="639.416" gradientUnits="userSpaceOnUse">
<stop stop-color="white"/>
<stop offset="1" stop-color="white" stop-opacity="0.54"/>
</linearGradient>
<linearGradient id="paint73_linear_1248_6422" x1="779.5" y1="144" x2="779.5" y2="639.416" gradientUnits="userSpaceOnUse">
<stop stop-color="white"/>
<stop offset="1" stop-color="white" stop-opacity="0.54"/>
</linearGradient>
<linearGradient id="paint74_linear_1248_6422" x1="779.5" y1="144" x2="779.5" y2="639.416" gradientUnits="userSpaceOnUse">
<stop stop-color="white"/>
<stop offset="1" stop-color="white" stop-opacity="0.54"/>
</linearGradient>
<linearGradient id="paint75_linear_1248_6422" x1="779.5" y1="144" x2="779.5" y2="639.416" gradientUnits="userSpaceOnUse">
<stop stop-color="white"/>
<stop offset="1" stop-color="white" stop-opacity="0.54"/>
</linearGradient>
<linearGradient id="paint76_linear_1248_6422" x1="779.5" y1="144" x2="779.5" y2="639.416" gradientUnits="userSpaceOnUse">
<stop stop-color="white"/>
<stop offset="1" stop-color="white" stop-opacity="0.54"/>
</linearGradient>
<linearGradient id="paint77_linear_1248_6422" x1="779.5" y1="144" x2="779.5" y2="639.416" gradientUnits="userSpaceOnUse">
<stop stop-color="white"/>
<stop offset="1" stop-color="white" stop-opacity="0.54"/>
</linearGradient>
<linearGradient id="paint78_linear_1248_6422" x1="779.5" y1="144" x2="779.5" y2="639.416" gradientUnits="userSpaceOnUse">
<stop stop-color="white"/>
<stop offset="1" stop-color="white" stop-opacity="0.54"/>
</linearGradient>
<linearGradient id="paint79_linear_1248_6422" x1="779.5" y1="144" x2="779.5" y2="639.416" gradientUnits="userSpaceOnUse">
<stop stop-color="white"/>
<stop offset="1" stop-color="white" stop-opacity="0.54"/>
</linearGradient>
<linearGradient id="paint80_linear_1248_6422" x1="779.5" y1="144" x2="779.5" y2="639.416" gradientUnits="userSpaceOnUse">
<stop stop-color="white"/>
<stop offset="1" stop-color="white" stop-opacity="0.54"/>
</linearGradient>
<linearGradient id="paint81_linear_1248_6422" x1="779.5" y1="144" x2="779.5" y2="639.416" gradientUnits="userSpaceOnUse">
<stop stop-color="white"/>
<stop offset="1" stop-color="white" stop-opacity="0.54"/>
</linearGradient>
<linearGradient id="paint82_linear_1248_6422" x1="779.5" y1="144" x2="779.5" y2="639.416" gradientUnits="userSpaceOnUse">
<stop stop-color="white"/>
<stop offset="1" stop-color="white" stop-opacity="0.54"/>
</linearGradient>
<linearGradient id="paint83_linear_1248_6422" x1="779.5" y1="144" x2="779.5" y2="639.416" gradientUnits="userSpaceOnUse">
<stop stop-color="white"/>
<stop offset="1" stop-color="white" stop-opacity="0.54"/>
</linearGradient>
<linearGradient id="paint84_linear_1248_6422" x1="779.5" y1="144" x2="779.5" y2="639.416" gradientUnits="userSpaceOnUse">
<stop stop-color="white"/>
<stop offset="1" stop-color="white" stop-opacity="0.54"/>
</linearGradient>
<linearGradient id="paint85_linear_1248_6422" x1="779.5" y1="144" x2="779.5" y2="639.416" gradientUnits="userSpaceOnUse">
<stop stop-color="white"/>
<stop offset="1" stop-color="white" stop-opacity="0.54"/>
</linearGradient>
<linearGradient id="paint86_linear_1248_6422" x1="779.5" y1="144" x2="779.5" y2="639.416" gradientUnits="userSpaceOnUse">
<stop stop-color="white"/>
<stop offset="1" stop-color="white" stop-opacity="0.54"/>
</linearGradient>
<linearGradient id="paint87_linear_1248_6422" x1="779.5" y1="144" x2="779.5" y2="639.416" gradientUnits="userSpaceOnUse">
<stop stop-color="white"/>
<stop offset="1" stop-color="white" stop-opacity="0.54"/>
</linearGradient>
<linearGradient id="paint88_linear_1248_6422" x1="779.5" y1="144" x2="779.5" y2="639.416" gradientUnits="userSpaceOnUse">
<stop stop-color="white"/>
<stop offset="1" stop-color="white" stop-opacity="0.54"/>
</linearGradient>
<linearGradient id="paint89_linear_1248_6422" x1="779.5" y1="144" x2="779.5" y2="639.416" gradientUnits="userSpaceOnUse">
<stop stop-color="white"/>
<stop offset="1" stop-color="white" stop-opacity="0.54"/>
</linearGradient>
<linearGradient id="paint90_linear_1248_6422" x1="779.5" y1="144" x2="779.5" y2="639.416" gradientUnits="userSpaceOnUse">
<stop stop-color="white"/>
<stop offset="1" stop-color="white" stop-opacity="0.54"/>
</linearGradient>
<linearGradient id="paint91_linear_1248_6422" x1="779.5" y1="144" x2="779.5" y2="639.416" gradientUnits="userSpaceOnUse">
<stop stop-color="white"/>
<stop offset="1" stop-color="white" stop-opacity="0.54"/>
</linearGradient>
<linearGradient id="paint92_linear_1248_6422" x1="779.5" y1="144" x2="779.5" y2="639.416" gradientUnits="userSpaceOnUse">
<stop stop-color="white"/>
<stop offset="1" stop-color="white" stop-opacity="0.54"/>
</linearGradient>
<linearGradient id="paint93_linear_1248_6422" x1="779.5" y1="144" x2="779.5" y2="639.416" gradientUnits="userSpaceOnUse">
<stop stop-color="white"/>
<stop offset="1" stop-color="white" stop-opacity="0.54"/>
</linearGradient>
<linearGradient id="paint94_linear_1248_6422" x1="779.5" y1="144" x2="779.5" y2="639.416" gradientUnits="userSpaceOnUse">
<stop stop-color="white"/>
<stop offset="1" stop-color="white" stop-opacity="0.54"/>
</linearGradient>
<linearGradient id="paint95_linear_1248_6422" x1="779.5" y1="144" x2="779.5" y2="639.416" gradientUnits="userSpaceOnUse">
<stop stop-color="white"/>
<stop offset="1" stop-color="white" stop-opacity="0.54"/>
</linearGradient>
<linearGradient id="paint96_linear_1248_6422" x1="779.5" y1="144" x2="779.5" y2="639.416" gradientUnits="userSpaceOnUse">
<stop stop-color="white"/>
<stop offset="1" stop-color="white" stop-opacity="0.54"/>
</linearGradient>
<linearGradient id="paint97_linear_1248_6422" x1="779.5" y1="144" x2="779.5" y2="639.416" gradientUnits="userSpaceOnUse">
<stop stop-color="white"/>
<stop offset="1" stop-color="white" stop-opacity="0.54"/>
</linearGradient>
<linearGradient id="paint98_linear_1248_6422" x1="779.5" y1="144" x2="779.5" y2="639.416" gradientUnits="userSpaceOnUse">
<stop stop-color="white"/>
<stop offset="1" stop-color="white" stop-opacity="0.54"/>
</linearGradient>
<linearGradient id="paint99_linear_1248_6422" x1="779.5" y1="144" x2="779.5" y2="639.416" gradientUnits="userSpaceOnUse">
<stop stop-color="white"/>
<stop offset="1" stop-color="white" stop-opacity="0.54"/>
</linearGradient>
<linearGradient id="paint100_linear_1248_6422" x1="779.5" y1="144" x2="779.5" y2="639.416" gradientUnits="userSpaceOnUse">
<stop stop-color="white"/>
<stop offset="1" stop-color="white" stop-opacity="0.54"/>
</linearGradient>
<linearGradient id="paint101_linear_1248_6422" x1="779.5" y1="144" x2="779.5" y2="639.416" gradientUnits="userSpaceOnUse">
<stop stop-color="white"/>
<stop offset="1" stop-color="white" stop-opacity="0.54"/>
</linearGradient>
<linearGradient id="paint102_linear_1248_6422" x1="779.5" y1="144" x2="779.5" y2="639.416" gradientUnits="userSpaceOnUse">
<stop stop-color="white"/>
<stop offset="1" stop-color="white" stop-opacity="0.54"/>
</linearGradient>
<linearGradient id="paint103_linear_1248_6422" x1="779.5" y1="144" x2="779.5" y2="639.416" gradientUnits="userSpaceOnUse">
<stop stop-color="white"/>
<stop offset="1" stop-color="white" stop-opacity="0.54"/>
</linearGradient>
<linearGradient id="paint104_linear_1248_6422" x1="779.5" y1="144" x2="779.5" y2="639.416" gradientUnits="userSpaceOnUse">
<stop stop-color="white"/>
<stop offset="1" stop-color="white" stop-opacity="0.54"/>
</linearGradient>
<linearGradient id="paint105_linear_1248_6422" x1="779.5" y1="144" x2="779.5" y2="639.416" gradientUnits="userSpaceOnUse">
<stop stop-color="white"/>
<stop offset="1" stop-color="white" stop-opacity="0.54"/>
</linearGradient>
<linearGradient id="paint106_linear_1248_6422" x1="779.5" y1="144" x2="779.5" y2="639.416" gradientUnits="userSpaceOnUse">
<stop stop-color="white"/>
<stop offset="1" stop-color="white" stop-opacity="0.54"/>
</linearGradient>
<linearGradient id="paint107_linear_1248_6422" x1="779.5" y1="144" x2="779.5" y2="639.416" gradientUnits="userSpaceOnUse">
<stop stop-color="white"/>
<stop offset="1" stop-color="white" stop-opacity="0.54"/>
</linearGradient>
<linearGradient id="paint108_linear_1248_6422" x1="779.5" y1="144" x2="779.5" y2="639.416" gradientUnits="userSpaceOnUse">
<stop stop-color="white"/>
<stop offset="1" stop-color="white" stop-opacity="0.54"/>
</linearGradient>
<linearGradient id="paint109_linear_1248_6422" x1="779.5" y1="144" x2="779.5" y2="639.416" gradientUnits="userSpaceOnUse">
<stop stop-color="white"/>
<stop offset="1" stop-color="white" stop-opacity="0.54"/>
</linearGradient>
<linearGradient id="paint110_linear_1248_6422" x1="779.5" y1="144" x2="779.5" y2="639.416" gradientUnits="userSpaceOnUse">
<stop stop-color="white"/>
<stop offset="1" stop-color="white" stop-opacity="0.54"/>
</linearGradient>
<linearGradient id="paint111_linear_1248_6422" x1="779.5" y1="144" x2="779.5" y2="639.416" gradientUnits="userSpaceOnUse">
<stop stop-color="white"/>
<stop offset="1" stop-color="white" stop-opacity="0.54"/>
</linearGradient>
<linearGradient id="paint112_linear_1248_6422" x1="779.5" y1="144" x2="779.5" y2="639.416" gradientUnits="userSpaceOnUse">
<stop stop-color="white"/>
<stop offset="1" stop-color="white" stop-opacity="0.54"/>
</linearGradient>
<linearGradient id="paint113_linear_1248_6422" x1="779.5" y1="144" x2="779.5" y2="639.416" gradientUnits="userSpaceOnUse">
<stop stop-color="white"/>
<stop offset="1" stop-color="white" stop-opacity="0.54"/>
</linearGradient>
<linearGradient id="paint114_linear_1248_6422" x1="779.5" y1="144" x2="779.5" y2="639.416" gradientUnits="userSpaceOnUse">
<stop stop-color="white"/>
<stop offset="1" stop-color="white" stop-opacity="0.54"/>
</linearGradient>
<linearGradient id="paint115_linear_1248_6422" x1="779.5" y1="144" x2="779.5" y2="639.416" gradientUnits="userSpaceOnUse">
<stop stop-color="white"/>
<stop offset="1" stop-color="white" stop-opacity="0.54"/>
</linearGradient>
<linearGradient id="paint116_linear_1248_6422" x1="779.5" y1="144" x2="779.5" y2="639.416" gradientUnits="userSpaceOnUse">
<stop stop-color="white"/>
<stop offset="1" stop-color="white" stop-opacity="0.54"/>
</linearGradient>
<linearGradient id="paint117_linear_1248_6422" x1="779.5" y1="144" x2="779.5" y2="639.416" gradientUnits="userSpaceOnUse">
<stop stop-color="white"/>
<stop offset="1" stop-color="white" stop-opacity="0.54"/>
</linearGradient>
<linearGradient id="paint118_linear_1248_6422" x1="779.5" y1="144" x2="779.5" y2="639.416" gradientUnits="userSpaceOnUse">
<stop stop-color="white"/>
<stop offset="1" stop-color="white" stop-opacity="0.54"/>
</linearGradient>
<linearGradient id="paint119_linear_1248_6422" x1="779.5" y1="144" x2="779.5" y2="639.416" gradientUnits="userSpaceOnUse">
<stop stop-color="white"/>
<stop offset="1" stop-color="white" stop-opacity="0.54"/>
</linearGradient>
<linearGradient id="paint120_linear_1248_6422" x1="779.5" y1="144" x2="779.5" y2="639.416" gradientUnits="userSpaceOnUse">
<stop stop-color="white"/>
<stop offset="1" stop-color="white" stop-opacity="0.54"/>
</linearGradient>
</defs>
</svg>
