<svg width="1093" height="995" viewBox="0 0 1093 995" fill="none" xmlns="http://www.w3.org/2000/svg">
<ellipse cx="873" cy="353" rx="873" ry="642" fill="url(#paint0_radial_688_402)"/>
<path d="M890.042 680.297L880.884 680.684L882.329 714.876L891.487 714.489L890.042 680.297Z" fill="url(#paint1_linear_688_402)" fill-opacity="0.35" style="mix-blend-mode:overlay"/>
<path d="M860.77 680.551L859.881 714.762L869.044 715L869.934 680.789L860.77 680.551Z" fill="url(#paint2_linear_688_402)" fill-opacity="0.35" style="mix-blend-mode:overlay"/>
<path d="M840.785 679.064L837.552 713.133L846.678 713.999L849.91 679.93L840.785 679.064Z" fill="url(#paint3_linear_688_402)" fill-opacity="0.35" style="mix-blend-mode:overlay"/>
<path d="M820.937 676.149L815.389 709.918L824.435 711.404L829.983 677.635L820.937 676.149Z" fill="url(#paint4_linear_688_402)" fill-opacity="0.35" style="mix-blend-mode:overlay"/>
<path d="M801.327 671.944L793.484 705.255L802.406 707.356L810.25 674.045L801.327 671.944Z" fill="url(#paint5_linear_688_402)" fill-opacity="0.35" style="mix-blend-mode:overlay"/>
<path d="M782.038 666.325L771.947 699.025L780.706 701.728L790.797 669.028L782.038 666.325Z" fill="url(#paint6_linear_688_402)" fill-opacity="0.35" style="mix-blend-mode:overlay"/>
<path d="M763.168 659.5L750.871 691.436L759.425 694.73L771.723 662.794L763.168 659.5Z" fill="url(#paint7_linear_688_402)" fill-opacity="0.35" style="mix-blend-mode:overlay"/>
<path d="M744.854 651.328L730.407 682.351L738.717 686.221L753.163 655.197L744.854 651.328Z" fill="url(#paint8_linear_688_402)" fill-opacity="0.35" style="mix-blend-mode:overlay"/>
<path d="M727.081 642.027L710.547 671.99L718.573 676.419L735.106 646.456L727.081 642.027Z" fill="url(#paint9_linear_688_402)" fill-opacity="0.35" style="mix-blend-mode:overlay"/>
<path d="M710.036 631.486L691.498 660.252L699.203 665.218L717.741 636.452L710.036 631.486Z" fill="url(#paint10_linear_688_402)" fill-opacity="0.35" style="mix-blend-mode:overlay"/>
<path d="M693.752 619.745L673.295 647.18L680.644 652.659L701.1 625.224L693.752 619.745Z" fill="url(#paint11_linear_688_402)" fill-opacity="0.35" style="mix-blend-mode:overlay"/>
<path d="M678.261 607.015L655.977 632.987L662.934 638.956L685.218 612.984L678.261 607.015Z" fill="url(#paint12_linear_688_402)" fill-opacity="0.35" style="mix-blend-mode:overlay"/>
<path d="M663.694 593.19L639.691 617.582L646.224 624.012L670.228 599.62L663.694 593.19Z" fill="url(#paint13_linear_688_402)" fill-opacity="0.35" style="mix-blend-mode:overlay"/>
<path d="M650.145 578.415L624.534 601.113L630.614 607.973L656.225 585.275L650.145 578.415Z" fill="url(#paint14_linear_688_402)" fill-opacity="0.35" style="mix-blend-mode:overlay"/>
<path d="M637.575 562.719L610.476 583.619L616.074 590.877L643.173 569.978L637.575 562.719Z" fill="url(#paint15_linear_688_402)" fill-opacity="0.35" style="mix-blend-mode:overlay"/>
<path d="M626.113 546.302L597.649 565.3L602.738 572.925L631.202 553.927L626.113 546.302Z" fill="url(#paint16_linear_688_402)" fill-opacity="0.35" style="mix-blend-mode:overlay"/>
<path d="M615.837 529.054L586.143 546.066L590.7 554.02L620.394 537.007L615.837 529.054Z" fill="url(#paint17_linear_688_402)" fill-opacity="0.35" style="mix-blend-mode:overlay"/>
<path d="M606.774 511.167L575.989 526.115L579.993 534.361L610.778 519.413L606.774 511.167Z" fill="url(#paint18_linear_688_402)" fill-opacity="0.35" style="mix-blend-mode:overlay"/>
<path d="M598.883 492.734L567.148 505.543L570.579 514.043L602.314 501.234L598.883 492.734Z" fill="url(#paint19_linear_688_402)" fill-opacity="0.35" style="mix-blend-mode:overlay"/>
<path d="M592.313 473.776L559.779 484.391L562.622 493.105L595.157 482.49L592.313 473.776Z" fill="url(#paint20_linear_688_402)" fill-opacity="0.35" style="mix-blend-mode:overlay"/>
<path d="M587.051 454.404L553.869 462.776L556.111 471.664L589.293 463.292L587.051 454.404Z" fill="url(#paint21_linear_688_402)" fill-opacity="0.35" style="mix-blend-mode:overlay"/>
<path d="M583.086 434.74L549.409 440.824L551.039 449.845L584.716 443.761L583.086 434.74Z" fill="url(#paint22_linear_688_402)" fill-opacity="0.35" style="mix-blend-mode:overlay"/>
<path d="M580.537 414.837L546.523 418.611L547.534 427.721L581.547 423.948L580.537 414.837Z" fill="url(#paint23_linear_688_402)" fill-opacity="0.35" style="mix-blend-mode:overlay"/>
<path d="M579.303 394.829L545.111 396.275L545.498 405.433L579.69 403.988L579.303 394.829Z" fill="url(#paint24_linear_688_402)" fill-opacity="0.35" style="mix-blend-mode:overlay"/>
<path d="M545.238 373.819L545 382.983L579.211 383.873L579.449 374.709L545.238 373.819Z" fill="url(#paint25_linear_688_402)" fill-opacity="0.35" style="mix-blend-mode:overlay"/>
<path d="M546.916 351.556L546.052 360.682L580.122 363.908L580.986 354.782L546.916 351.556Z" fill="url(#paint26_linear_688_402)" fill-opacity="0.35" style="mix-blend-mode:overlay"/>
<path d="M550.099 329.336L548.614 338.382L582.385 343.924L583.869 334.879L550.099 329.336Z" fill="url(#paint27_linear_688_402)" fill-opacity="0.35" style="mix-blend-mode:overlay"/>
<path d="M554.767 307.438L552.669 316.362L585.983 324.194L588.081 315.271L554.767 307.438Z" fill="url(#paint28_linear_688_402)" fill-opacity="0.35" style="mix-blend-mode:overlay"/>
<path d="M560.956 285.957L558.253 294.716L590.953 304.807L593.656 296.048L560.956 285.957Z" fill="url(#paint29_linear_688_402)" fill-opacity="0.35" style="mix-blend-mode:overlay"/>
<path d="M568.58 264.833L565.286 273.387L597.222 285.685L600.516 277.131L568.58 264.833Z" fill="url(#paint30_linear_688_402)" fill-opacity="0.35" style="mix-blend-mode:overlay"/>
<path d="M577.623 244.363L573.754 252.673L604.777 267.12L608.646 258.81L577.623 244.363Z" fill="url(#paint31_linear_688_402)" fill-opacity="0.35" style="mix-blend-mode:overlay"/>
<path d="M588.072 224.565L583.643 232.59L613.606 249.124L618.035 241.098L588.072 224.565Z" fill="url(#paint32_linear_688_402)" fill-opacity="0.35" style="mix-blend-mode:overlay"/>
<path d="M599.798 205.486L594.833 213.191L623.599 231.73L628.564 224.024L599.798 205.486Z" fill="url(#paint33_linear_688_402)" fill-opacity="0.35" style="mix-blend-mode:overlay"/>
<path d="M612.825 187.254L607.345 194.603L634.78 215.059L640.26 207.711L612.825 187.254Z" fill="url(#paint34_linear_688_402)" fill-opacity="0.35" style="mix-blend-mode:overlay"/>
<path d="M627.066 169.985L621.097 176.942L647.069 199.226L653.038 192.269L627.066 169.985Z" fill="url(#paint35_linear_688_402)" fill-opacity="0.35" style="mix-blend-mode:overlay"/>
<path d="M642.425 153.705L635.995 160.239L660.387 184.242L666.817 177.709L642.425 153.705Z" fill="url(#paint36_linear_688_402)" fill-opacity="0.35" style="mix-blend-mode:overlay"/>
<path d="M658.906 138.501L652.046 144.581L674.745 170.192L681.605 164.112L658.906 138.501Z" fill="url(#paint37_linear_688_402)" fill-opacity="0.35" style="mix-blend-mode:overlay"/>
<path d="M676.365 124.462L669.105 130.058L690 157.161L697.259 151.565L676.365 124.462Z" fill="url(#paint38_linear_688_402)" fill-opacity="0.35" style="mix-blend-mode:overlay"/>
<path d="M694.724 111.666L687.099 116.754L706.097 145.219L713.722 140.13L694.724 111.666Z" fill="url(#paint39_linear_688_402)" fill-opacity="0.35" style="mix-blend-mode:overlay"/>
<path d="M713.931 100.111L705.977 104.668L722.99 134.362L730.944 129.805L713.931 100.111Z" fill="url(#paint40_linear_688_402)" fill-opacity="0.35" style="mix-blend-mode:overlay"/>
<path d="M733.905 89.9625L725.659 93.9651L740.601 124.752L748.848 120.75L733.905 89.9625Z" fill="url(#paint41_linear_688_402)" fill-opacity="0.35" style="mix-blend-mode:overlay"/>
<path d="M754.495 81.1561L745.995 84.587L758.803 116.322L767.304 112.891L754.495 81.1561Z" fill="url(#paint42_linear_688_402)" fill-opacity="0.35" style="mix-blend-mode:overlay"/>
<path d="M775.635 73.7642L766.921 76.6075L777.535 109.142L786.25 106.298L775.635 73.7642Z" fill="url(#paint43_linear_688_402)" fill-opacity="0.35" style="mix-blend-mode:overlay"/>
<path d="M797.237 67.8311L788.349 70.0736L796.721 103.256L805.609 101.013L797.237 67.8311Z" fill="url(#paint44_linear_688_402)" fill-opacity="0.35" style="mix-blend-mode:overlay"/>
<path d="M819.192 63.397L810.171 65.0282L816.261 98.7041L825.281 97.0729L819.192 63.397Z" fill="url(#paint45_linear_688_402)" fill-opacity="0.35" style="mix-blend-mode:overlay"/>
<path d="M841.415 60.5134L832.304 61.5241L836.077 95.5375L845.188 94.5269L841.415 60.5134Z" fill="url(#paint46_linear_688_402)" fill-opacity="0.35" style="mix-blend-mode:overlay"/>
<path d="M863.743 59.118L854.585 59.5051L856.03 93.6966L865.188 93.3096L863.743 59.118Z" fill="url(#paint47_linear_688_402)" fill-opacity="0.35" style="mix-blend-mode:overlay"/>
<path d="M876.986 59L876.096 93.2105L885.259 93.4488L886.149 59.2384L876.986 59Z" fill="url(#paint48_linear_688_402)" fill-opacity="0.35" style="mix-blend-mode:overlay"/>
<path d="M899.382 60.0416L896.15 94.1107L905.275 94.9766L908.508 60.9075L899.382 60.0416Z" fill="url(#paint49_linear_688_402)" fill-opacity="0.35" style="mix-blend-mode:overlay"/>
<path d="M921.648 62.6027L916.099 96.372L925.145 97.8581L930.693 64.0888L921.648 62.6027Z" fill="url(#paint50_linear_688_402)" fill-opacity="0.35" style="mix-blend-mode:overlay"/>
<path d="M943.66 66.6652L935.816 99.9763L944.739 102.077L952.583 68.7662L943.66 66.6652Z" fill="url(#paint51_linear_688_402)" fill-opacity="0.35" style="mix-blend-mode:overlay"/>
<path d="M965.305 72.2036L955.214 104.904L963.973 107.607L974.064 74.9066L965.305 72.2036Z" fill="url(#paint52_linear_688_402)" fill-opacity="0.35" style="mix-blend-mode:overlay"/>
<path d="M986.628 79.2787L974.331 111.215L982.885 114.509L995.183 82.5727L986.628 79.2787Z" fill="url(#paint53_linear_688_402)" fill-opacity="0.35" style="mix-blend-mode:overlay"/>
<path d="M1007.29 87.7245L992.844 118.748L1001.15 122.617L1015.6 91.5941L1007.29 87.7245Z" fill="url(#paint54_linear_688_402)" fill-opacity="0.35" style="mix-blend-mode:overlay"/>
<path d="M1027.49 97.6038L1010.95 127.567L1018.98 131.996L1035.51 102.033L1027.49 97.6038Z" fill="url(#paint55_linear_688_402)" fill-opacity="0.35" style="mix-blend-mode:overlay"/>
<path d="M1046.83 108.821L1028.29 137.587L1036 142.553L1054.53 113.787L1046.83 108.821Z" fill="url(#paint56_linear_688_402)" fill-opacity="0.35" style="mix-blend-mode:overlay"/>
<path d="M1065.4 121.335L1044.95 148.77L1052.29 154.249L1072.75 126.814L1065.4 121.335Z" fill="url(#paint57_linear_688_402)" fill-opacity="0.35" style="mix-blend-mode:overlay"/>
<path d="M1083.11 135.105L1060.83 161.077L1067.78 167.046L1090.07 141.074L1083.11 135.105Z" fill="url(#paint58_linear_688_402)" fill-opacity="0.35" style="mix-blend-mode:overlay"/>
<path d="M1099.82 150.031L1075.82 174.423L1082.35 180.853L1106.35 156.461L1099.82 150.031Z" fill="url(#paint59_linear_688_402)" fill-opacity="0.35" style="mix-blend-mode:overlay"/>
<path d="M1115.44 166.044L1089.83 188.742L1095.91 195.602L1121.52 172.904L1115.44 166.044Z" fill="url(#paint60_linear_688_402)" fill-opacity="0.35" style="mix-blend-mode:overlay"/>
<path d="M1129.94 183.059L1102.84 203.958L1108.44 211.217L1135.54 190.317L1129.94 183.059Z" fill="url(#paint61_linear_688_402)" fill-opacity="0.35" style="mix-blend-mode:overlay"/>
<path d="M1143.27 201.116L1114.81 220.114L1119.89 227.739L1148.36 208.741L1143.27 201.116Z" fill="url(#paint62_linear_688_402)" fill-opacity="0.35" style="mix-blend-mode:overlay"/>
<path d="M1155.36 220.007L1125.67 237.019L1130.22 244.973L1159.92 227.96L1155.36 220.007Z" fill="url(#paint63_linear_688_402)" fill-opacity="0.35" style="mix-blend-mode:overlay"/>
<path d="M1166.05 239.589L1135.26 254.538L1139.27 262.784L1170.05 247.835L1166.05 239.589Z" fill="url(#paint64_linear_688_402)" fill-opacity="0.35" style="mix-blend-mode:overlay"/>
<path d="M1175.45 260.003L1143.72 272.811L1147.15 281.312L1178.88 268.503L1175.45 260.003Z" fill="url(#paint65_linear_688_402)" fill-opacity="0.35" style="mix-blend-mode:overlay"/>
<path d="M1183.42 280.936L1150.88 291.551L1153.73 300.266L1186.26 289.651L1183.42 280.936Z" fill="url(#paint66_linear_688_402)" fill-opacity="0.35" style="mix-blend-mode:overlay"/>
<path d="M1189.93 302.401L1156.74 310.767L1158.98 319.655L1192.17 311.289L1189.93 302.401Z" fill="url(#paint67_linear_688_402)" fill-opacity="0.35" style="mix-blend-mode:overlay"/>
<path d="M1194.98 324.184L1161.3 330.267L1162.93 339.288L1196.61 333.204L1194.98 324.184Z" fill="url(#paint68_linear_688_402)" fill-opacity="0.35" style="mix-blend-mode:overlay"/>
<path d="M1198.5 346.295L1164.49 350.068L1165.5 359.179L1199.51 355.405L1198.5 346.295Z" fill="url(#paint69_linear_688_402)" fill-opacity="0.35" style="mix-blend-mode:overlay"/>
<path d="M1200.49 368.617L1166.3 370.056L1166.69 379.214L1200.88 377.775L1200.49 368.617Z" fill="url(#paint70_linear_688_402)" fill-opacity="0.35" style="mix-blend-mode:overlay"/>
<path d="M1166.79 390.065L1166.55 399.229L1200.76 400.119L1201 390.955L1166.79 390.065Z" fill="url(#paint71_linear_688_402)" fill-opacity="0.35" style="mix-blend-mode:overlay"/>
<path d="M1165.92 410.133L1165.06 419.259L1199.13 422.485L1199.99 413.359L1165.92 410.133Z" fill="url(#paint72_linear_688_402)" fill-opacity="0.35" style="mix-blend-mode:overlay"/>
<path d="M1163.7 430.092L1162.22 439.138L1195.99 444.686L1197.47 435.64L1163.7 430.092Z" fill="url(#paint73_linear_688_402)" fill-opacity="0.35" style="mix-blend-mode:overlay"/>
<path d="M1160 449.766L1157.91 458.689L1191.22 466.521L1193.32 457.598L1160 449.766Z" fill="url(#paint74_linear_688_402)" fill-opacity="0.35" style="mix-blend-mode:overlay"/>
<path d="M1155.11 469.254L1152.4 478.013L1185.11 488.105L1187.81 479.346L1155.11 469.254Z" fill="url(#paint75_linear_688_402)" fill-opacity="0.35" style="mix-blend-mode:overlay"/>
<path d="M1148.8 488.293L1145.51 496.848L1177.44 509.145L1180.74 500.591L1148.8 488.293Z" fill="url(#paint76_linear_688_402)" fill-opacity="0.35" style="mix-blend-mode:overlay"/>
<path d="M1141.24 506.859L1137.37 515.169L1168.4 529.615L1172.27 521.305L1141.24 506.859Z" fill="url(#paint77_linear_688_402)" fill-opacity="0.35" style="mix-blend-mode:overlay"/>
<path d="M1132.5 524.971L1128.07 532.996L1158.03 549.53L1162.46 541.504L1132.5 524.971Z" fill="url(#paint78_linear_688_402)" fill-opacity="0.35" style="mix-blend-mode:overlay"/>
<path d="M1122.43 542.279L1117.47 549.984L1146.23 568.522L1151.2 560.817L1122.43 542.279Z" fill="url(#paint79_linear_688_402)" fill-opacity="0.35" style="mix-blend-mode:overlay"/>
<path d="M1111.27 558.935L1105.79 566.283L1133.22 586.74L1138.7 579.391L1111.27 558.935Z" fill="url(#paint80_linear_688_402)" fill-opacity="0.35" style="mix-blend-mode:overlay"/>
<path d="M1098.98 574.865L1093.01 581.822L1118.98 604.107L1124.95 597.15L1098.98 574.865Z" fill="url(#paint81_linear_688_402)" fill-opacity="0.35" style="mix-blend-mode:overlay"/>
<path d="M1085.64 589.779L1079.21 596.313L1103.6 620.317L1110.03 613.783L1085.64 589.779Z" fill="url(#paint82_linear_688_402)" fill-opacity="0.35" style="mix-blend-mode:overlay"/>
<path d="M1071.31 603.794L1064.45 609.874L1087.15 635.485L1094.01 629.405L1071.31 603.794Z" fill="url(#paint83_linear_688_402)" fill-opacity="0.35" style="mix-blend-mode:overlay"/>
<path d="M1056.03 616.935L1048.77 622.532L1069.66 649.635L1076.92 644.038L1056.03 616.935Z" fill="url(#paint84_linear_688_402)" fill-opacity="0.35" style="mix-blend-mode:overlay"/>
<path d="M1039.91 628.822L1032.29 633.911L1051.28 662.375L1058.91 657.287L1039.91 628.822Z" fill="url(#paint85_linear_688_402)" fill-opacity="0.35" style="mix-blend-mode:overlay"/>
<path d="M1023.04 639.603L1015.09 644.16L1032.1 673.854L1040.05 669.297L1023.04 639.603Z" fill="url(#paint86_linear_688_402)" fill-opacity="0.35" style="mix-blend-mode:overlay"/>
<path d="M1005.42 649.32L997.169 653.323L1012.11 684.11L1020.36 680.108L1005.42 649.32Z" fill="url(#paint87_linear_688_402)" fill-opacity="0.35" style="mix-blend-mode:overlay"/>
<path d="M987.196 657.755L978.696 661.186L991.504 692.92L1000 689.489L987.196 657.755Z" fill="url(#paint88_linear_688_402)" fill-opacity="0.35" style="mix-blend-mode:overlay"/>
<path d="M968.505 664.839L959.79 667.682L970.405 700.216L979.12 697.373L968.505 664.839Z" fill="url(#paint89_linear_688_402)" fill-opacity="0.35" style="mix-blend-mode:overlay"/>
<path d="M949.329 670.719L940.441 672.962L948.813 706.144L957.701 703.902L949.329 670.719Z" fill="url(#paint90_linear_688_402)" fill-opacity="0.35" style="mix-blend-mode:overlay"/>
<path d="M929.756 675.307L920.735 676.937L926.819 710.614L935.84 708.984L929.756 675.307Z" fill="url(#paint91_linear_688_402)" fill-opacity="0.35" style="mix-blend-mode:overlay"/>
<path d="M909.958 678.478L900.847 679.489L904.62 713.503L913.731 712.492L909.958 678.478Z" fill="url(#paint92_linear_688_402)" fill-opacity="0.35" style="mix-blend-mode:overlay"/>
<path d="M729.298 355.795C727.312 355.428 725.967 356.528 725.57 358.698L724.806 362.792L731.039 363.953L731.803 359.859C732.2 357.659 731.284 356.161 729.298 355.795Z" fill="url(#paint93_linear_688_402)" fill-opacity="0.35" style="mix-blend-mode:overlay"/>
<path d="M634.729 382.439C629.84 382.561 627.151 385.831 627.273 391.27L627.518 401.414L643.04 401.047L642.795 390.903C642.673 385.464 639.709 382.286 634.729 382.409V382.439Z" fill="url(#paint94_linear_688_402)" fill-opacity="0.35" style="mix-blend-mode:overlay"/>
<path d="M1016.64 421.153C1018.6 421.55 1019.97 420.511 1020.43 418.311L1021.29 414.247L1015.05 412.964L1014.2 417.028C1013.74 419.197 1014.62 420.756 1016.64 421.153Z" fill="url(#paint95_linear_688_402)" fill-opacity="0.35" style="mix-blend-mode:overlay"/>
<path d="M960.877 194.126C969.066 197.854 977.163 194.065 981.441 184.623C985.78 175.09 983.274 166.626 975.055 162.898C966.835 159.171 958.83 162.837 954.491 172.401C950.152 181.934 952.658 190.398 960.877 194.126Z" fill="url(#paint96_linear_688_402)" fill-opacity="0.35" style="mix-blend-mode:overlay"/>
<path d="M727.525 409.847C727.037 410.092 726.456 410.367 726.059 410.489C726.456 410.489 727.067 410.581 727.648 410.672L734.431 411.895L733.575 406.517L727.525 409.817V409.847Z" fill="url(#paint97_linear_688_402)" fill-opacity="0.35" style="mix-blend-mode:overlay"/>
<path d="M761.167 464.939L750.259 473.097L752.275 475.816C754.689 479.025 758.203 479.453 761.564 476.947C764.986 474.411 765.567 470.836 763.061 467.505L761.167 464.939Z" fill="url(#paint98_linear_688_402)" fill-opacity="0.35" style="mix-blend-mode:overlay"/>
<path d="M905.908 519.389C902.333 520.275 900.683 523.483 901.691 527.638C902.7 531.794 905.664 533.872 909.239 533.016C912.814 532.13 914.464 528.861 913.455 524.766C912.416 520.611 909.483 518.533 905.908 519.389Z" fill="url(#paint99_linear_688_402)" fill-opacity="0.35" style="mix-blend-mode:overlay"/>
<path d="M637.112 330.739C637.967 331.167 639.312 331.9 640.534 332.664L654.651 341.77L657.737 328.814L640.992 330.617C639.648 330.709 638.12 330.831 637.112 330.739Z" fill="url(#paint100_linear_688_402)" fill-opacity="0.35" style="mix-blend-mode:overlay"/>
<path d="M873.305 287.198C818.275 287.198 773.511 331.992 773.511 387.022C773.511 442.053 818.275 486.816 873.305 486.816C928.336 486.816 973.13 442.053 973.13 387.022C973.13 331.992 928.336 287.198 873.305 287.198ZM910.369 384.761C910.369 386.197 910.277 387.603 910.125 389.009C908.75 401.383 901.233 411.956 890.753 417.608C885.497 420.45 879.508 422.039 873.122 422.039C862.397 422.039 852.68 417.456 845.867 410.183C844.461 408.686 843.178 407.067 842.047 405.325C838.136 399.428 835.844 392.339 835.844 384.792C835.844 383.814 835.875 382.836 835.967 381.859C839.053 384.761 842.505 387.328 846.172 389.559C848.433 402.361 859.647 412.139 873.122 412.139C877.125 412.139 880.944 411.283 884.397 409.695C893.9 405.417 900.5 395.853 900.5 384.761C900.5 383.661 900.439 382.622 900.316 381.584C899.827 377.336 898.361 373.364 896.13 369.942C895.489 368.934 894.786 367.986 894.022 367.07C888.98 361.142 881.494 357.384 873.122 357.384C868.508 357.384 864.169 358.545 860.38 360.561C857.386 358.117 855.43 355.489 854.605 352.464C860.075 349.317 866.4 347.514 873.122 347.514C879.844 347.514 886.322 349.348 891.822 352.556C898.666 356.528 904.136 362.639 907.314 369.972C909.3 374.525 910.369 379.536 910.369 384.792V384.761ZM868.141 320.809C877.369 320.809 889.653 322.795 899.583 330.006V320.809H906.611V354.359H899.583V350.967C899.216 349.714 898.758 348.492 898.269 347.3C893.655 336.331 884.336 328.05 869.394 328.05C854.453 328.05 846.753 337.217 846.264 348.156C846.264 348.523 846.264 348.859 846.264 349.225C846.264 350.906 846.447 352.495 846.783 353.992C847.486 357.2 848.983 359.95 851.03 362.456C851.764 363.372 852.619 364.289 853.536 365.114C853.964 365.511 854.392 365.909 854.88 366.306C856.378 367.559 857.997 368.75 859.769 369.85C864.719 373.028 870.616 375.747 876.636 378.528C881.983 380.911 887.422 383.386 892.525 386.197C892.097 391.85 889.255 396.983 884.764 400.345C880.15 397.472 874.833 394.967 869.425 392.431C863.283 389.65 857.019 386.839 851.336 383.447C850.572 382.989 849.808 382.531 849.075 382.042C847.455 381.003 845.897 379.872 844.43 378.711C843.514 378.009 842.597 377.214 841.772 376.42C835.569 370.614 831.444 363.159 831.444 352.648C831.444 340.334 838.869 320.839 868.172 320.839L868.141 320.809ZM872.816 453.205C862.183 453.205 850.022 450.242 841.161 444.314V453.205H834.133V419.656H841.161V426.592C846.661 439.119 858.883 445.567 873.55 445.567C888.216 445.567 899.583 437.622 899.583 422.956C899.583 422.406 899.583 421.856 899.522 421.336C905.083 417.333 909.575 412.17 912.783 406.272C914.28 409.939 915.136 414.064 915.136 418.8C915.136 438.875 899.736 453.175 872.786 453.175L872.816 453.205Z" fill="url(#paint101_linear_688_402)" fill-opacity="0.35" style="mix-blend-mode:overlay"/>
<path d="M835.997 519.633C835.814 519.969 835.478 520.519 835.142 521.008L831.169 526.63L836.425 528.097L835.967 521.222C835.967 520.672 835.936 520.03 835.967 519.633H835.997Z" fill="url(#paint102_linear_688_402)" fill-opacity="0.35" style="mix-blend-mode:overlay"/>
<path d="M967.08 500.2C968.547 501.85 970.319 501.88 972.091 500.353L974.902 497.878L970.349 492.683L967.569 495.128C965.766 496.716 965.644 498.55 967.08 500.2Z" fill="url(#paint103_linear_688_402)" fill-opacity="0.35" style="mix-blend-mode:overlay"/>
<path d="M957.211 600.391L969.433 595.135L958.005 582.791C957.119 581.783 956.111 580.591 955.591 579.735C955.774 580.683 955.988 582.21 956.08 583.616L957.211 600.391Z" fill="url(#paint104_linear_688_402)" fill-opacity="0.35" style="mix-blend-mode:overlay"/>
<path d="M1000.57 312.437C1000.94 312.039 1001.36 311.551 1001.7 311.306C1001.33 311.428 1000.72 311.612 1000.14 311.703L993.388 313.048L996.169 317.723L1000.57 312.437Z" fill="url(#paint105_linear_688_402)" fill-opacity="0.35" style="mix-blend-mode:overlay"/>
<path d="M1085.33 382.684C1085.51 391.697 1092.42 397.32 1102.78 397.106C1113.26 396.892 1119.8 390.964 1119.58 381.95C1119.4 372.936 1112.62 367.314 1102.13 367.528C1091.65 367.742 1085.12 373.67 1085.33 382.684Z" fill="url(#paint106_linear_688_402)" fill-opacity="0.35" style="mix-blend-mode:overlay"/>
<path d="M850.205 591.744C841.253 590.735 834.775 596.724 833.614 607.144C832.453 617.563 837.464 624.835 846.417 625.813C855.369 626.791 861.878 620.71 863.008 610.413C864.169 599.994 859.158 592.722 850.205 591.744Z" fill="url(#paint107_linear_688_402)" fill-opacity="0.35" style="mix-blend-mode:overlay"/>
<path d="M850.908 252.365C854.544 251.754 856.439 248.637 855.736 244.451C855.033 240.204 852.253 237.912 848.617 238.523C844.98 239.134 843.086 242.19 843.789 246.437C844.492 250.654 847.272 252.976 850.908 252.365Z" fill="url(#paint108_linear_688_402)" fill-opacity="0.35" style="mix-blend-mode:overlay"/>
<path d="M1157.87 387.022C1157.87 229.876 1030.48 102.46 873.305 102.46C716.128 102.46 588.773 229.845 588.773 387.022C588.773 544.199 716.159 671.585 873.336 671.585C1030.51 671.585 1157.9 544.199 1157.9 387.022H1157.87ZM1120.87 444.253L1081.14 457.147L1114.69 466.467L1112.43 474.625L1065.1 461.455L1067.36 453.297L1107.08 440.342L1073.53 431.022L1075.8 422.864L1123.13 436.033L1120.83 444.253H1120.87ZM1127.83 381.797C1128.14 395.853 1117.93 405.875 1102.96 406.181C1088.05 406.517 1077.35 396.922 1077.05 382.806C1076.74 368.75 1086.95 358.881 1101.92 358.545C1116.83 358.209 1127.53 367.742 1127.83 381.767V381.797ZM1121.35 333.52L1073.5 344.734L1071.55 336.362L1119.4 325.148L1121.35 333.52ZM1099.17 270.117L1113.93 304.462L1106.63 307.578L1100.94 294.348L1063.09 310.603L1059.69 302.689L1097.55 286.434L1091.87 273.203L1099.17 270.087V270.117ZM1037.42 235.773L1062.08 216.676L1067.33 223.49L1043.1 242.251C1037.51 246.59 1036.78 251.998 1041.05 257.529C1045.33 263.059 1050.86 263.701 1056.39 259.423L1080.62 240.662L1085.88 247.476L1061.22 266.573C1052.15 273.601 1041.79 272.103 1034.45 262.631C1027.18 253.22 1028.25 242.862 1037.39 235.773H1037.42ZM1029.6 187.404L1003.72 219.456L1019.7 232.381L1014.72 238.554L992.044 220.22L1022.94 182.026L1029.63 187.434L1029.6 187.404ZM946.302 168.704C952.474 155.107 965.674 149.607 978.477 155.412C991.28 161.218 995.894 174.754 989.691 188.412C983.519 202.009 970.258 207.509 957.394 201.673C944.591 195.868 940.1 182.362 946.302 168.734V168.704ZM890.875 169.193L899.369 170.568C898.758 174.693 901.691 177.687 907.13 178.573C912.783 179.49 916.755 177.626 917.427 173.562C917.947 170.323 916.602 168.123 912.783 166.596L905.358 163.601C897.414 160.485 893.869 155.046 895.091 147.621C896.466 139.126 904.472 134.36 914.677 136.04C924.486 137.629 929.833 144.107 928.672 152.907L920.177 151.532C920.666 147.315 918.069 144.382 913.302 143.587C908.077 142.732 904.258 144.718 903.616 148.751C903.066 152.204 904.594 154.435 908.505 156.023L915.869 158.926C923.875 162.073 927.236 166.962 926.044 174.204C924.577 183.218 916.602 187.923 905.908 186.182C895.55 184.501 889.683 177.871 890.905 169.162L890.875 169.193ZM821.422 138.118C832.789 135.704 842.689 140.532 846.508 150.523L837.647 152.418C834.806 147.193 829.336 144.901 822.95 146.276C814.058 148.171 809.842 155.779 812.011 166.046C814.181 176.221 821.208 181.598 830.039 179.734C836.547 178.359 840.825 173.868 841.253 168.215L849.992 166.351C850.297 176.862 842.903 185.448 831.536 187.862C817.542 190.826 806.389 183.034 803.211 167.971C800.033 153.06 807.336 141.112 821.422 138.149V138.118ZM775.009 153.365L794.808 198.312L786.925 201.765L767.125 156.818L775.009 153.365ZM725.356 180.193C734.462 173.623 745.309 173.837 752.306 181.14L744.942 186.457C740.298 182.668 734.706 183.401 729.909 186.854C721.995 192.568 721.598 201.551 727.8 210.168C734.217 219.059 742.834 220.22 750.198 214.904C757.134 209.923 758.57 203.079 753.986 196.693L753.864 196.54L741.795 205.218L737.364 199.045L755.911 185.693L772.075 208.12L766.178 212.368L762.45 208.09C762.45 212.704 759.486 218.112 754.078 221.993C742.895 230.059 729.237 227.554 720.406 215.27C711.667 203.17 713.378 188.84 725.387 180.193H725.356ZM686.978 214.384L693.12 219.395L679.248 236.354L689.026 244.359L701.462 229.173L707.328 233.97L694.892 249.156L704.976 257.406L718.848 240.448L724.989 245.459L705.678 269.078L667.637 237.973L686.948 214.354L686.978 214.384ZM653.734 258.72L660.854 262.234L654.498 275.159L691.47 293.339L687.681 301.07L650.709 282.89L644.354 295.784L637.234 292.301L653.734 258.751V258.72ZM627.548 323.925L679.462 318.089L677.353 326.92L665.376 328.142L661.098 345.986L671.212 352.495L669.134 361.173L625.47 332.512L627.518 323.956L627.548 323.925ZM619.604 391.483C619.359 380.331 624.829 373.67 634.515 373.456C641.115 373.303 645.881 376.297 648.356 382.011L668.309 372.203L668.523 381.614L650.373 390.353L650.617 400.895L668.951 400.467L669.134 409.053L620.031 410.183L619.604 391.453V391.483ZM633.262 471.844L623.484 435.758L631.154 433.681L634.912 447.583L674.695 436.797L676.956 445.108L637.173 455.894L640.931 469.767L633.262 471.844ZM689.301 505.852L685.237 498.275C688.873 496.258 689.484 492.103 686.887 487.244C684.198 482.203 680.287 480.186 676.681 482.111C673.778 483.669 672.862 486.053 673.992 490.025L676.131 497.725C678.453 505.944 676.315 512.055 669.684 515.6C662.106 519.664 653.459 516.18 648.57 507.075C643.865 498.305 645.759 490.116 653.459 485.686L657.523 493.264C653.887 495.433 653.123 499.283 655.384 503.561C657.89 508.236 661.77 510.069 665.376 508.144C668.462 506.494 669.287 503.927 668.187 499.864L666.017 492.255C663.665 483.975 665.528 478.353 671.976 474.869C680.042 470.561 688.628 474.044 693.731 483.608C698.681 492.866 697.001 501.544 689.301 505.883V505.852ZM770.945 576.71L763.459 571.608C765.445 565.955 762.848 560.944 757.959 557.613C749.923 552.113 741.336 554.802 735.348 563.572C729.175 572.616 731.009 581.11 738.495 586.244C745.553 591.072 752.459 590.094 756.889 583.616L757.011 583.463L744.759 575.091L749.036 568.827L767.889 581.722L752.306 604.516L746.317 600.422L749.067 595.472C744.728 597.06 738.648 596.083 733.148 592.324C721.781 584.563 719.489 570.874 728.014 558.377C736.417 546.063 750.473 542.794 762.664 551.136C771.922 557.461 775.406 567.727 770.945 576.802V576.71ZM803.914 625.538L776.506 615.516L793.372 569.377L801.439 572.341L787.292 611.024L806.603 618.083L803.883 625.538H803.914ZM872.022 611.483C870.372 626.302 859.433 635.652 845.408 634.094C831.444 632.535 822.981 621.108 824.631 606.196C826.281 591.377 837.128 582.027 851.092 583.585C865.055 585.144 873.641 596.602 871.991 611.483H872.022ZM873.305 568.033C773.511 568.033 692.326 486.847 692.326 387.053C692.326 287.259 773.511 206.043 873.305 206.043C973.099 206.043 1054.32 287.259 1054.32 387.053C1054.32 486.847 973.099 568.033 873.305 568.033ZM915.289 631.313L895.641 634.399L888.033 585.877L907.344 582.852C916.908 581.355 923.538 585.419 924.791 593.516C925.647 598.894 923.844 603.11 919.566 605.769C924.944 606.624 928.122 610.077 929.008 615.73C930.291 624.041 925.28 629.785 915.258 631.344L915.289 631.313ZM982.724 609.771L974.597 600.88L957.73 608.122L958.555 620.13L950.336 623.644L947.28 571.486L955.377 568.033L991.035 606.196L982.694 609.771H982.724ZM1010.07 594.035L980.86 554.497L987.796 549.394L1012.3 582.547L1028.86 570.324L1033.57 576.71L1010.1 594.066L1010.07 594.035ZM1085.36 500.78C1082.33 499.008 1079.71 499.65 1076.84 502.736L1071.49 508.572C1065.68 514.927 1059.91 516.302 1053.58 512.605C1045.7 507.991 1044.17 498.855 1049.61 489.505C1054.9 480.43 1063.18 477.314 1070.88 481.591L1066.54 489.016C1062.9 486.969 1059.05 488.619 1056.27 493.386C1053.4 498.336 1053.7 502.705 1057.25 504.783C1060.09 506.433 1062.63 505.975 1065.41 502.919L1070.85 497.053C1076.62 490.758 1082.95 489.383 1089.45 493.172C1096.88 497.511 1098.47 506.677 1093.27 515.63C1088.26 524.216 1080.32 526.905 1072.53 522.689L1076.87 515.264C1080.62 517.219 1084.29 515.875 1086.73 511.689C1089.42 507.105 1088.93 502.858 1085.39 500.78H1085.36Z" fill="url(#paint109_linear_688_402)" fill-opacity="0.35" style="mix-blend-mode:overlay"/>
<path d="M916.236 595.685C915.594 591.499 912.569 589.666 907.802 590.399L897.719 591.988L899.797 605.188L910.094 603.569C914.738 602.835 916.939 599.994 916.266 595.655L916.236 595.685Z" fill="url(#paint110_linear_688_402)" fill-opacity="0.35" style="mix-blend-mode:overlay"/>
<path d="M873.305 212.123C776.872 212.123 698.437 290.589 698.437 387.022C698.437 483.455 776.872 561.891 873.305 561.891C969.738 561.891 1048.2 483.455 1048.2 387.022C1048.2 290.589 969.738 212.123 873.305 212.123ZM1024.49 359.859L1016.27 361.081L1017.59 369.881L1025.81 368.659L1026.33 372.142L1006.47 375.106L1005.95 371.622L1014.38 370.37L1013.07 361.57L1004.63 362.823L1004.11 359.339L1023.97 356.375L1024.49 359.859ZM1017.56 334.406C1019.57 339.998 1017.1 345.223 1011.45 347.27C1005.89 349.256 1000.66 346.873 998.705 341.373L996.26 334.559L1015.17 327.775L1017.56 334.406ZM1004.63 307.487L1006.47 310.573L992.838 327.042L990.944 323.834L994.121 320.076L990.302 313.598L985.474 314.576L983.61 311.428L1004.63 307.456V307.487ZM994.244 292.24L991.769 294.348L985.933 287.534L981.991 290.895L987.216 297.006L984.863 299.023L979.638 292.912L975.574 296.395L981.41 303.209L978.935 305.317L970.808 295.845L986.085 282.767L994.213 292.24H994.244ZM968.699 266.665L971.388 268.956L960.48 281.79L966.897 287.228L964.788 289.703L955.713 281.973L968.73 266.665H968.699ZM929.252 243.779L932.43 245.215L935.119 262.081L941.016 249.126L944.163 250.562L935.852 268.865L932.705 267.428L929.986 250.562L924.088 263.517L920.941 262.081L929.252 243.779ZM904.655 236.598L916.755 239.593L915.961 242.74L907.252 240.57L906 245.581L913.791 247.506L913.058 250.531L905.266 248.606L903.983 253.77L912.691 255.94L911.897 259.087L899.797 256.092L904.625 236.598H904.655ZM870.983 233.206L874.375 233.39L880.058 249.676L887.33 234.001L890.783 234.184L889.805 254.259L886.414 254.076L886.719 247.904C886.903 243.87 886.964 242.679 887.239 241.273L881.494 253.862L878.255 253.709L873.794 240.662C873.916 241.884 873.855 243.779 873.733 246.284L873.366 253.465L869.975 253.312L870.953 233.237L870.983 233.206ZM848.158 235.223C853.842 234.276 858.486 237.851 859.494 243.901C860.503 249.92 857.233 254.809 851.519 255.756C845.836 256.704 841.253 253.129 840.244 247.079C839.236 241.059 842.475 236.17 848.158 235.223ZM805.87 248.759L812.867 257.376C813.57 258.262 814.272 259.209 815.22 260.706C814.853 258.934 814.731 257.834 814.608 256.642L813.508 245.612L817.083 244.145L823.989 252.792C824.722 253.709 825.456 254.656 826.403 256.123C826.036 254.259 825.883 253.159 825.792 252.09L824.753 240.998L828.053 239.623L830.039 260.554L826.892 261.837L817.358 249.92L818.856 265.106L815.647 266.42L802.478 250.073L805.87 248.667V248.759ZM769.142 274.303L785.611 278.856L776.261 268.101L778.889 265.84L792.089 280.995L789.461 283.256L772.992 278.703L782.342 289.459L779.714 291.72L766.514 276.565L769.142 274.273V274.303ZM753.681 290.956L773.97 297.648L771.678 300.581L767.034 298.992L762.389 304.889L765.048 309.045L762.786 311.917L751.45 293.798L753.681 290.956ZM737.12 315.584C739.32 311.367 743.414 309.503 747.57 310.878L745.859 314.178C743.475 313.72 741.306 314.851 740.084 317.203C738.373 320.503 739.686 323.803 743.475 325.789C747.264 327.775 750.778 326.95 752.489 323.681C753.742 321.267 753.436 318.762 751.786 317.142L753.467 313.903C756.859 316.562 757.653 321.114 755.453 325.331C752.734 330.525 747.386 331.992 741.795 329.089C736.264 326.187 734.4 320.778 737.12 315.584ZM728.595 335.964L747.6 342.442L746.47 345.773L727.464 339.295L728.595 335.964ZM722.575 358.178C723.4 353.686 726.181 351.486 730.062 352.22C732.72 352.709 734.37 354.298 734.889 356.803L743.689 354.542L742.986 358.331L734.981 360.317L734.187 364.564L741.581 365.939L740.939 369.392L721.17 365.725L722.575 358.178ZM719.978 378.009L723.217 378.07L723.064 386.992L728.534 387.084L728.656 379.597L731.834 379.659L731.712 387.145L739.931 387.297L739.87 390.811L719.764 390.475L719.978 378.039V378.009ZM721.445 409.45L740.175 399.092L740.756 402.758L736.417 405.081L737.609 412.506L742.467 413.361L743.048 416.967L722.025 412.964L721.445 409.389V409.45ZM740.97 445.719L736.142 447.98L739.931 456.108L736.998 457.483L731.712 446.147L749.953 437.653L755.209 448.989L752.275 450.364L748.486 442.236L743.811 444.405L747.203 451.678L744.392 452.992L741 445.719H740.97ZM763.856 479.941C759.12 483.486 753.436 482.722 749.923 478.047L745.584 472.242L761.717 460.203L765.934 465.855C769.478 470.622 768.653 476.366 763.856 479.941ZM784.297 503.011C781.242 506.586 776.964 506.83 773.236 503.622C769.539 500.444 769.142 496.197 772.228 492.622L780.57 482.966L783.228 485.258L775.039 494.761C773.145 496.961 773.297 499.191 775.467 501.055C777.636 502.919 779.897 502.736 781.761 500.566L789.95 491.064L792.608 493.355L784.267 503.011H784.297ZM816.319 515.294L813.05 513.552C813.539 511.169 812.408 509 810.056 507.777C806.786 506.036 803.456 507.319 801.439 511.108C799.453 514.866 800.247 518.411 803.517 520.122C805.931 521.405 808.436 521.1 810.056 519.45L813.295 521.161C810.636 524.552 806.053 525.286 801.867 523.055C796.703 520.305 795.236 514.927 798.2 509.366C801.133 503.866 806.542 502.033 811.736 504.783C815.953 507.014 817.786 511.139 816.35 515.264L816.319 515.294ZM837.006 536.163L836.7 531.244L829.458 529.197L826.647 533.23L823.133 532.252L835.569 514.866L839.053 515.844L840.581 537.172L837.006 536.163ZM868.753 523.727L862.886 523.208L861.358 539.983L857.844 539.677L859.372 522.902L853.505 522.383L853.811 519.144L869.028 520.519L868.722 523.758L868.753 523.727ZM767.492 387.022C767.492 328.6 815.006 281.087 873.397 281.087C931.788 281.087 979.333 328.6 979.333 387.022C979.333 445.444 931.819 492.928 873.397 492.928C814.975 492.928 767.492 445.414 767.492 387.022ZM881.464 540.227L880.211 520.152L883.725 519.939L884.978 540.013L881.464 540.227ZM910.125 536.316C904.533 537.691 899.675 534.483 898.208 528.525C896.741 522.597 899.583 517.464 905.175 516.089C910.766 514.714 915.686 517.891 917.152 523.85C918.619 529.777 915.747 534.911 910.125 536.286V536.316ZM947.311 521.497L932.4 513.125L938.908 525.805L935.822 527.394L926.655 509.489L929.772 507.9L944.652 516.272L938.144 503.591L941.23 502.002L950.397 519.908L947.311 521.497ZM973.741 503.164C970.716 505.822 966.988 505.577 964.391 502.614C961.824 499.711 962.008 495.922 965.033 493.264L968.363 490.33L963.78 485.136L966.438 482.814L979.73 497.908L973.772 503.164H973.741ZM988.744 488.253L973.497 475.175L975.788 472.517L991.035 485.594L988.744 488.253ZM1005.95 464.603L998.919 460.203L994.183 467.75L1001.21 472.15L999.346 475.144L982.297 464.48L984.16 461.486L991.372 466.008L996.108 458.461L988.897 453.939L990.76 450.944L1007.81 461.608L1005.95 464.603ZM1016.4 443.917C1014.9 447.706 1011.84 449.264 1008.42 448.042L1009.74 444.772C1011.39 445.322 1012.79 444.558 1013.52 442.725C1014.32 440.708 1013.86 439.028 1012.3 438.386C1010.96 437.867 1009.95 438.264 1008.97 439.7L1007.17 442.389C1005.21 445.322 1002.95 446.208 1000.17 445.108C996.688 443.733 995.527 440.128 997.177 436.003C998.766 432.031 1001.91 430.258 1005.3 431.511L1003.99 434.781C1002.4 434.169 1000.94 435.086 1000.11 437.164C999.255 439.333 999.652 441.105 1001.21 441.717C1002.46 442.206 1003.47 441.869 1004.39 440.464L1006.22 437.775C1008.18 434.872 1010.65 433.956 1013.49 435.086C1016.76 436.4 1017.95 440.006 1016.4 443.947V443.917ZM1023.61 418.953C1022.69 423.414 1019.88 425.583 1016 424.758C1013.37 424.208 1011.72 422.589 1011.26 420.053L1002.4 422.131L1003.2 418.372L1011.23 416.569L1012.12 412.353L1004.75 410.825L1005.46 407.372L1025.17 411.467L1023.61 418.983V418.953ZM1023.39 398.389L1023.67 389.406L1018.5 389.253L1018.26 397.289L1015.14 397.197L1015.39 389.161L1010.04 388.978L1009.77 397.931L1006.53 397.839L1006.92 385.342L1027.03 385.984L1026.63 398.481L1023.39 398.389Z" fill="url(#paint111_linear_688_402)" fill-opacity="0.35" style="mix-blend-mode:overlay"/>
<path d="M757.47 295.753C756.95 295.57 756.37 295.356 756.003 295.142C756.248 295.448 756.645 295.937 756.95 296.426L760.648 302.231L764.009 297.953L757.47 295.753Z" fill="url(#paint112_linear_688_402)" fill-opacity="0.35" style="mix-blend-mode:overlay"/>
<path d="M1010.19 343.756C1014.2 342.32 1015.79 339.081 1014.38 335.17L1013.31 332.175L1000.51 336.759L1001.64 339.937C1002.98 343.725 1006.25 345.161 1010.19 343.725V343.756Z" fill="url(#paint113_linear_688_402)" fill-opacity="0.35" style="mix-blend-mode:overlay"/>
<path d="M911.714 610.688L900.897 612.369L902.944 625.507L913.761 623.827C918.527 623.063 920.819 620.344 920.147 615.944C919.505 611.819 916.419 609.924 911.714 610.658V610.688Z" fill="url(#paint114_linear_688_402)" fill-opacity="0.35" style="mix-blend-mode:overlay"/>
<g filter="url(#filter0_f_688_402)">
<circle cx="220" cy="371" r="8" fill="url(#paint115_radial_688_402)"/>
</g>
<g filter="url(#filter1_f_688_402)">
<circle cx="708" cy="128" r="8" fill="url(#paint116_radial_688_402)"/>
</g>
<g filter="url(#filter2_f_688_402)">
<circle cx="950" cy="635" r="8" fill="url(#paint117_radial_688_402)"/>
</g>
<g filter="url(#filter3_f_688_402)">
<circle cx="391" cy="200" r="9" fill="url(#paint118_radial_688_402)"/>
</g>
<g filter="url(#filter4_f_688_402)">
<circle cx="472" cy="496" r="10" fill="url(#paint119_radial_688_402)"/>
</g>
<g filter="url(#filter5_f_688_402)">
<circle cx="667" cy="518" r="10" fill="url(#paint120_radial_688_402)"/>
</g>
<defs>
<filter id="filter0_f_688_402" x="201" y="352" width="38" height="38" filterUnits="userSpaceOnUse" color-interpolation-filters="sRGB">
<feFlood flood-opacity="0" result="BackgroundImageFix"/>
<feBlend mode="normal" in="SourceGraphic" in2="BackgroundImageFix" result="shape"/>
<feGaussianBlur stdDeviation="5.5" result="effect1_foregroundBlur_688_402"/>
</filter>
<filter id="filter1_f_688_402" x="689" y="109" width="38" height="38" filterUnits="userSpaceOnUse" color-interpolation-filters="sRGB">
<feFlood flood-opacity="0" result="BackgroundImageFix"/>
<feBlend mode="normal" in="SourceGraphic" in2="BackgroundImageFix" result="shape"/>
<feGaussianBlur stdDeviation="5.5" result="effect1_foregroundBlur_688_402"/>
</filter>
<filter id="filter2_f_688_402" x="931" y="616" width="38" height="38" filterUnits="userSpaceOnUse" color-interpolation-filters="sRGB">
<feFlood flood-opacity="0" result="BackgroundImageFix"/>
<feBlend mode="normal" in="SourceGraphic" in2="BackgroundImageFix" result="shape"/>
<feGaussianBlur stdDeviation="5.5" result="effect1_foregroundBlur_688_402"/>
</filter>
<filter id="filter3_f_688_402" x="371" y="180" width="40" height="40" filterUnits="userSpaceOnUse" color-interpolation-filters="sRGB">
<feFlood flood-opacity="0" result="BackgroundImageFix"/>
<feBlend mode="normal" in="SourceGraphic" in2="BackgroundImageFix" result="shape"/>
<feGaussianBlur stdDeviation="5.5" result="effect1_foregroundBlur_688_402"/>
</filter>
<filter id="filter4_f_688_402" x="451" y="475" width="42" height="42" filterUnits="userSpaceOnUse" color-interpolation-filters="sRGB">
<feFlood flood-opacity="0" result="BackgroundImageFix"/>
<feBlend mode="normal" in="SourceGraphic" in2="BackgroundImageFix" result="shape"/>
<feGaussianBlur stdDeviation="5.5" result="effect1_foregroundBlur_688_402"/>
</filter>
<filter id="filter5_f_688_402" x="646" y="497" width="42" height="42" filterUnits="userSpaceOnUse" color-interpolation-filters="sRGB">
<feFlood flood-opacity="0" result="BackgroundImageFix"/>
<feBlend mode="normal" in="SourceGraphic" in2="BackgroundImageFix" result="shape"/>
<feGaussianBlur stdDeviation="5.5" result="effect1_foregroundBlur_688_402"/>
</filter>
<radialGradient id="paint0_radial_688_402" cx="0" cy="0" r="1" gradientUnits="userSpaceOnUse" gradientTransform="translate(873 353) rotate(-90) scale(642 821.414)">
<stop stop-color="#1A27C9" stop-opacity="0.34"/>
<stop offset="1" stop-color="#1A27C9" stop-opacity="0"/>
</radialGradient>
<linearGradient id="paint1_linear_688_402" x1="873" y1="59" x2="873" y2="776.423" gradientUnits="userSpaceOnUse">
<stop stop-color="white"/>
<stop offset="1" stop-color="white" stop-opacity="0.54"/>
</linearGradient>
<linearGradient id="paint2_linear_688_402" x1="873" y1="59" x2="873" y2="776.423" gradientUnits="userSpaceOnUse">
<stop stop-color="white"/>
<stop offset="1" stop-color="white" stop-opacity="0.54"/>
</linearGradient>
<linearGradient id="paint3_linear_688_402" x1="873" y1="59" x2="873" y2="776.423" gradientUnits="userSpaceOnUse">
<stop stop-color="white"/>
<stop offset="1" stop-color="white" stop-opacity="0.54"/>
</linearGradient>
<linearGradient id="paint4_linear_688_402" x1="873" y1="59" x2="873" y2="776.423" gradientUnits="userSpaceOnUse">
<stop stop-color="white"/>
<stop offset="1" stop-color="white" stop-opacity="0.54"/>
</linearGradient>
<linearGradient id="paint5_linear_688_402" x1="873" y1="59" x2="873" y2="776.423" gradientUnits="userSpaceOnUse">
<stop stop-color="white"/>
<stop offset="1" stop-color="white" stop-opacity="0.54"/>
</linearGradient>
<linearGradient id="paint6_linear_688_402" x1="873" y1="59" x2="873" y2="776.423" gradientUnits="userSpaceOnUse">
<stop stop-color="white"/>
<stop offset="1" stop-color="white" stop-opacity="0.54"/>
</linearGradient>
<linearGradient id="paint7_linear_688_402" x1="873" y1="59" x2="873" y2="776.423" gradientUnits="userSpaceOnUse">
<stop stop-color="white"/>
<stop offset="1" stop-color="white" stop-opacity="0.54"/>
</linearGradient>
<linearGradient id="paint8_linear_688_402" x1="873" y1="59" x2="873" y2="776.423" gradientUnits="userSpaceOnUse">
<stop stop-color="white"/>
<stop offset="1" stop-color="white" stop-opacity="0.54"/>
</linearGradient>
<linearGradient id="paint9_linear_688_402" x1="873" y1="59" x2="873" y2="776.423" gradientUnits="userSpaceOnUse">
<stop stop-color="white"/>
<stop offset="1" stop-color="white" stop-opacity="0.54"/>
</linearGradient>
<linearGradient id="paint10_linear_688_402" x1="873" y1="59" x2="873" y2="776.423" gradientUnits="userSpaceOnUse">
<stop stop-color="white"/>
<stop offset="1" stop-color="white" stop-opacity="0.54"/>
</linearGradient>
<linearGradient id="paint11_linear_688_402" x1="873" y1="59" x2="873" y2="776.423" gradientUnits="userSpaceOnUse">
<stop stop-color="white"/>
<stop offset="1" stop-color="white" stop-opacity="0.54"/>
</linearGradient>
<linearGradient id="paint12_linear_688_402" x1="873" y1="59" x2="873" y2="776.423" gradientUnits="userSpaceOnUse">
<stop stop-color="white"/>
<stop offset="1" stop-color="white" stop-opacity="0.54"/>
</linearGradient>
<linearGradient id="paint13_linear_688_402" x1="873" y1="59" x2="873" y2="776.423" gradientUnits="userSpaceOnUse">
<stop stop-color="white"/>
<stop offset="1" stop-color="white" stop-opacity="0.54"/>
</linearGradient>
<linearGradient id="paint14_linear_688_402" x1="873" y1="59" x2="873" y2="776.423" gradientUnits="userSpaceOnUse">
<stop stop-color="white"/>
<stop offset="1" stop-color="white" stop-opacity="0.54"/>
</linearGradient>
<linearGradient id="paint15_linear_688_402" x1="873" y1="59" x2="873" y2="776.423" gradientUnits="userSpaceOnUse">
<stop stop-color="white"/>
<stop offset="1" stop-color="white" stop-opacity="0.54"/>
</linearGradient>
<linearGradient id="paint16_linear_688_402" x1="873" y1="59" x2="873" y2="776.423" gradientUnits="userSpaceOnUse">
<stop stop-color="white"/>
<stop offset="1" stop-color="white" stop-opacity="0.54"/>
</linearGradient>
<linearGradient id="paint17_linear_688_402" x1="873" y1="59" x2="873" y2="776.423" gradientUnits="userSpaceOnUse">
<stop stop-color="white"/>
<stop offset="1" stop-color="white" stop-opacity="0.54"/>
</linearGradient>
<linearGradient id="paint18_linear_688_402" x1="873" y1="59" x2="873" y2="776.423" gradientUnits="userSpaceOnUse">
<stop stop-color="white"/>
<stop offset="1" stop-color="white" stop-opacity="0.54"/>
</linearGradient>
<linearGradient id="paint19_linear_688_402" x1="873" y1="59" x2="873" y2="776.423" gradientUnits="userSpaceOnUse">
<stop stop-color="white"/>
<stop offset="1" stop-color="white" stop-opacity="0.54"/>
</linearGradient>
<linearGradient id="paint20_linear_688_402" x1="873" y1="59" x2="873" y2="776.423" gradientUnits="userSpaceOnUse">
<stop stop-color="white"/>
<stop offset="1" stop-color="white" stop-opacity="0.54"/>
</linearGradient>
<linearGradient id="paint21_linear_688_402" x1="873" y1="59" x2="873" y2="776.423" gradientUnits="userSpaceOnUse">
<stop stop-color="white"/>
<stop offset="1" stop-color="white" stop-opacity="0.54"/>
</linearGradient>
<linearGradient id="paint22_linear_688_402" x1="873" y1="59" x2="873" y2="776.423" gradientUnits="userSpaceOnUse">
<stop stop-color="white"/>
<stop offset="1" stop-color="white" stop-opacity="0.54"/>
</linearGradient>
<linearGradient id="paint23_linear_688_402" x1="873" y1="59" x2="873" y2="776.423" gradientUnits="userSpaceOnUse">
<stop stop-color="white"/>
<stop offset="1" stop-color="white" stop-opacity="0.54"/>
</linearGradient>
<linearGradient id="paint24_linear_688_402" x1="873" y1="59" x2="873" y2="776.423" gradientUnits="userSpaceOnUse">
<stop stop-color="white"/>
<stop offset="1" stop-color="white" stop-opacity="0.54"/>
</linearGradient>
<linearGradient id="paint25_linear_688_402" x1="873" y1="59" x2="873" y2="776.423" gradientUnits="userSpaceOnUse">
<stop stop-color="white"/>
<stop offset="1" stop-color="white" stop-opacity="0.54"/>
</linearGradient>
<linearGradient id="paint26_linear_688_402" x1="873" y1="59" x2="873" y2="776.423" gradientUnits="userSpaceOnUse">
<stop stop-color="white"/>
<stop offset="1" stop-color="white" stop-opacity="0.54"/>
</linearGradient>
<linearGradient id="paint27_linear_688_402" x1="873" y1="59" x2="873" y2="776.423" gradientUnits="userSpaceOnUse">
<stop stop-color="white"/>
<stop offset="1" stop-color="white" stop-opacity="0.54"/>
</linearGradient>
<linearGradient id="paint28_linear_688_402" x1="873" y1="59" x2="873" y2="776.423" gradientUnits="userSpaceOnUse">
<stop stop-color="white"/>
<stop offset="1" stop-color="white" stop-opacity="0.54"/>
</linearGradient>
<linearGradient id="paint29_linear_688_402" x1="873" y1="59" x2="873" y2="776.423" gradientUnits="userSpaceOnUse">
<stop stop-color="white"/>
<stop offset="1" stop-color="white" stop-opacity="0.54"/>
</linearGradient>
<linearGradient id="paint30_linear_688_402" x1="873" y1="59" x2="873" y2="776.423" gradientUnits="userSpaceOnUse">
<stop stop-color="white"/>
<stop offset="1" stop-color="white" stop-opacity="0.54"/>
</linearGradient>
<linearGradient id="paint31_linear_688_402" x1="873" y1="59" x2="873" y2="776.423" gradientUnits="userSpaceOnUse">
<stop stop-color="white"/>
<stop offset="1" stop-color="white" stop-opacity="0.54"/>
</linearGradient>
<linearGradient id="paint32_linear_688_402" x1="873" y1="59" x2="873" y2="776.423" gradientUnits="userSpaceOnUse">
<stop stop-color="white"/>
<stop offset="1" stop-color="white" stop-opacity="0.54"/>
</linearGradient>
<linearGradient id="paint33_linear_688_402" x1="873" y1="59" x2="873" y2="776.423" gradientUnits="userSpaceOnUse">
<stop stop-color="white"/>
<stop offset="1" stop-color="white" stop-opacity="0.54"/>
</linearGradient>
<linearGradient id="paint34_linear_688_402" x1="873" y1="59" x2="873" y2="776.423" gradientUnits="userSpaceOnUse">
<stop stop-color="white"/>
<stop offset="1" stop-color="white" stop-opacity="0.54"/>
</linearGradient>
<linearGradient id="paint35_linear_688_402" x1="873" y1="59" x2="873" y2="776.423" gradientUnits="userSpaceOnUse">
<stop stop-color="white"/>
<stop offset="1" stop-color="white" stop-opacity="0.54"/>
</linearGradient>
<linearGradient id="paint36_linear_688_402" x1="873" y1="59" x2="873" y2="776.423" gradientUnits="userSpaceOnUse">
<stop stop-color="white"/>
<stop offset="1" stop-color="white" stop-opacity="0.54"/>
</linearGradient>
<linearGradient id="paint37_linear_688_402" x1="873" y1="59" x2="873" y2="776.423" gradientUnits="userSpaceOnUse">
<stop stop-color="white"/>
<stop offset="1" stop-color="white" stop-opacity="0.54"/>
</linearGradient>
<linearGradient id="paint38_linear_688_402" x1="873" y1="59" x2="873" y2="776.423" gradientUnits="userSpaceOnUse">
<stop stop-color="white"/>
<stop offset="1" stop-color="white" stop-opacity="0.54"/>
</linearGradient>
<linearGradient id="paint39_linear_688_402" x1="873" y1="59" x2="873" y2="776.423" gradientUnits="userSpaceOnUse">
<stop stop-color="white"/>
<stop offset="1" stop-color="white" stop-opacity="0.54"/>
</linearGradient>
<linearGradient id="paint40_linear_688_402" x1="873" y1="59" x2="873" y2="776.423" gradientUnits="userSpaceOnUse">
<stop stop-color="white"/>
<stop offset="1" stop-color="white" stop-opacity="0.54"/>
</linearGradient>
<linearGradient id="paint41_linear_688_402" x1="873" y1="59" x2="873" y2="776.423" gradientUnits="userSpaceOnUse">
<stop stop-color="white"/>
<stop offset="1" stop-color="white" stop-opacity="0.54"/>
</linearGradient>
<linearGradient id="paint42_linear_688_402" x1="873" y1="59" x2="873" y2="776.423" gradientUnits="userSpaceOnUse">
<stop stop-color="white"/>
<stop offset="1" stop-color="white" stop-opacity="0.54"/>
</linearGradient>
<linearGradient id="paint43_linear_688_402" x1="873" y1="59" x2="873" y2="776.423" gradientUnits="userSpaceOnUse">
<stop stop-color="white"/>
<stop offset="1" stop-color="white" stop-opacity="0.54"/>
</linearGradient>
<linearGradient id="paint44_linear_688_402" x1="873" y1="59" x2="873" y2="776.423" gradientUnits="userSpaceOnUse">
<stop stop-color="white"/>
<stop offset="1" stop-color="white" stop-opacity="0.54"/>
</linearGradient>
<linearGradient id="paint45_linear_688_402" x1="873" y1="59" x2="873" y2="776.423" gradientUnits="userSpaceOnUse">
<stop stop-color="white"/>
<stop offset="1" stop-color="white" stop-opacity="0.54"/>
</linearGradient>
<linearGradient id="paint46_linear_688_402" x1="873" y1="59" x2="873" y2="776.423" gradientUnits="userSpaceOnUse">
<stop stop-color="white"/>
<stop offset="1" stop-color="white" stop-opacity="0.54"/>
</linearGradient>
<linearGradient id="paint47_linear_688_402" x1="873" y1="59" x2="873" y2="776.423" gradientUnits="userSpaceOnUse">
<stop stop-color="white"/>
<stop offset="1" stop-color="white" stop-opacity="0.54"/>
</linearGradient>
<linearGradient id="paint48_linear_688_402" x1="873" y1="59" x2="873" y2="776.423" gradientUnits="userSpaceOnUse">
<stop stop-color="white"/>
<stop offset="1" stop-color="white" stop-opacity="0.54"/>
</linearGradient>
<linearGradient id="paint49_linear_688_402" x1="873" y1="59" x2="873" y2="776.423" gradientUnits="userSpaceOnUse">
<stop stop-color="white"/>
<stop offset="1" stop-color="white" stop-opacity="0.54"/>
</linearGradient>
<linearGradient id="paint50_linear_688_402" x1="873" y1="59" x2="873" y2="776.423" gradientUnits="userSpaceOnUse">
<stop stop-color="white"/>
<stop offset="1" stop-color="white" stop-opacity="0.54"/>
</linearGradient>
<linearGradient id="paint51_linear_688_402" x1="873" y1="59" x2="873" y2="776.423" gradientUnits="userSpaceOnUse">
<stop stop-color="white"/>
<stop offset="1" stop-color="white" stop-opacity="0.54"/>
</linearGradient>
<linearGradient id="paint52_linear_688_402" x1="873" y1="59" x2="873" y2="776.423" gradientUnits="userSpaceOnUse">
<stop stop-color="white"/>
<stop offset="1" stop-color="white" stop-opacity="0.54"/>
</linearGradient>
<linearGradient id="paint53_linear_688_402" x1="873" y1="59" x2="873" y2="776.423" gradientUnits="userSpaceOnUse">
<stop stop-color="white"/>
<stop offset="1" stop-color="white" stop-opacity="0.54"/>
</linearGradient>
<linearGradient id="paint54_linear_688_402" x1="873" y1="59" x2="873" y2="776.423" gradientUnits="userSpaceOnUse">
<stop stop-color="white"/>
<stop offset="1" stop-color="white" stop-opacity="0.54"/>
</linearGradient>
<linearGradient id="paint55_linear_688_402" x1="873" y1="59" x2="873" y2="776.423" gradientUnits="userSpaceOnUse">
<stop stop-color="white"/>
<stop offset="1" stop-color="white" stop-opacity="0.54"/>
</linearGradient>
<linearGradient id="paint56_linear_688_402" x1="873" y1="59" x2="873" y2="776.423" gradientUnits="userSpaceOnUse">
<stop stop-color="white"/>
<stop offset="1" stop-color="white" stop-opacity="0.54"/>
</linearGradient>
<linearGradient id="paint57_linear_688_402" x1="873" y1="59" x2="873" y2="776.423" gradientUnits="userSpaceOnUse">
<stop stop-color="white"/>
<stop offset="1" stop-color="white" stop-opacity="0.54"/>
</linearGradient>
<linearGradient id="paint58_linear_688_402" x1="873" y1="59" x2="873" y2="776.423" gradientUnits="userSpaceOnUse">
<stop stop-color="white"/>
<stop offset="1" stop-color="white" stop-opacity="0.54"/>
</linearGradient>
<linearGradient id="paint59_linear_688_402" x1="873" y1="59" x2="873" y2="776.423" gradientUnits="userSpaceOnUse">
<stop stop-color="white"/>
<stop offset="1" stop-color="white" stop-opacity="0.54"/>
</linearGradient>
<linearGradient id="paint60_linear_688_402" x1="873" y1="59" x2="873" y2="776.423" gradientUnits="userSpaceOnUse">
<stop stop-color="white"/>
<stop offset="1" stop-color="white" stop-opacity="0.54"/>
</linearGradient>
<linearGradient id="paint61_linear_688_402" x1="873" y1="59" x2="873" y2="776.423" gradientUnits="userSpaceOnUse">
<stop stop-color="white"/>
<stop offset="1" stop-color="white" stop-opacity="0.54"/>
</linearGradient>
<linearGradient id="paint62_linear_688_402" x1="873" y1="59" x2="873" y2="776.423" gradientUnits="userSpaceOnUse">
<stop stop-color="white"/>
<stop offset="1" stop-color="white" stop-opacity="0.54"/>
</linearGradient>
<linearGradient id="paint63_linear_688_402" x1="873" y1="59" x2="873" y2="776.423" gradientUnits="userSpaceOnUse">
<stop stop-color="white"/>
<stop offset="1" stop-color="white" stop-opacity="0.54"/>
</linearGradient>
<linearGradient id="paint64_linear_688_402" x1="873" y1="59" x2="873" y2="776.423" gradientUnits="userSpaceOnUse">
<stop stop-color="white"/>
<stop offset="1" stop-color="white" stop-opacity="0.54"/>
</linearGradient>
<linearGradient id="paint65_linear_688_402" x1="873" y1="59" x2="873" y2="776.423" gradientUnits="userSpaceOnUse">
<stop stop-color="white"/>
<stop offset="1" stop-color="white" stop-opacity="0.54"/>
</linearGradient>
<linearGradient id="paint66_linear_688_402" x1="873" y1="59" x2="873" y2="776.423" gradientUnits="userSpaceOnUse">
<stop stop-color="white"/>
<stop offset="1" stop-color="white" stop-opacity="0.54"/>
</linearGradient>
<linearGradient id="paint67_linear_688_402" x1="873" y1="59" x2="873" y2="776.423" gradientUnits="userSpaceOnUse">
<stop stop-color="white"/>
<stop offset="1" stop-color="white" stop-opacity="0.54"/>
</linearGradient>
<linearGradient id="paint68_linear_688_402" x1="873" y1="59" x2="873" y2="776.423" gradientUnits="userSpaceOnUse">
<stop stop-color="white"/>
<stop offset="1" stop-color="white" stop-opacity="0.54"/>
</linearGradient>
<linearGradient id="paint69_linear_688_402" x1="873" y1="59" x2="873" y2="776.423" gradientUnits="userSpaceOnUse">
<stop stop-color="white"/>
<stop offset="1" stop-color="white" stop-opacity="0.54"/>
</linearGradient>
<linearGradient id="paint70_linear_688_402" x1="873" y1="59" x2="873" y2="776.423" gradientUnits="userSpaceOnUse">
<stop stop-color="white"/>
<stop offset="1" stop-color="white" stop-opacity="0.54"/>
</linearGradient>
<linearGradient id="paint71_linear_688_402" x1="873" y1="59" x2="873" y2="776.423" gradientUnits="userSpaceOnUse">
<stop stop-color="white"/>
<stop offset="1" stop-color="white" stop-opacity="0.54"/>
</linearGradient>
<linearGradient id="paint72_linear_688_402" x1="873" y1="59" x2="873" y2="776.423" gradientUnits="userSpaceOnUse">
<stop stop-color="white"/>
<stop offset="1" stop-color="white" stop-opacity="0.54"/>
</linearGradient>
<linearGradient id="paint73_linear_688_402" x1="873" y1="59" x2="873" y2="776.423" gradientUnits="userSpaceOnUse">
<stop stop-color="white"/>
<stop offset="1" stop-color="white" stop-opacity="0.54"/>
</linearGradient>
<linearGradient id="paint74_linear_688_402" x1="873" y1="59" x2="873" y2="776.423" gradientUnits="userSpaceOnUse">
<stop stop-color="white"/>
<stop offset="1" stop-color="white" stop-opacity="0.54"/>
</linearGradient>
<linearGradient id="paint75_linear_688_402" x1="873" y1="59" x2="873" y2="776.423" gradientUnits="userSpaceOnUse">
<stop stop-color="white"/>
<stop offset="1" stop-color="white" stop-opacity="0.54"/>
</linearGradient>
<linearGradient id="paint76_linear_688_402" x1="873" y1="59" x2="873" y2="776.423" gradientUnits="userSpaceOnUse">
<stop stop-color="white"/>
<stop offset="1" stop-color="white" stop-opacity="0.54"/>
</linearGradient>
<linearGradient id="paint77_linear_688_402" x1="873" y1="59" x2="873" y2="776.423" gradientUnits="userSpaceOnUse">
<stop stop-color="white"/>
<stop offset="1" stop-color="white" stop-opacity="0.54"/>
</linearGradient>
<linearGradient id="paint78_linear_688_402" x1="873" y1="59" x2="873" y2="776.423" gradientUnits="userSpaceOnUse">
<stop stop-color="white"/>
<stop offset="1" stop-color="white" stop-opacity="0.54"/>
</linearGradient>
<linearGradient id="paint79_linear_688_402" x1="873" y1="59" x2="873" y2="776.423" gradientUnits="userSpaceOnUse">
<stop stop-color="white"/>
<stop offset="1" stop-color="white" stop-opacity="0.54"/>
</linearGradient>
<linearGradient id="paint80_linear_688_402" x1="873" y1="59" x2="873" y2="776.423" gradientUnits="userSpaceOnUse">
<stop stop-color="white"/>
<stop offset="1" stop-color="white" stop-opacity="0.54"/>
</linearGradient>
<linearGradient id="paint81_linear_688_402" x1="873" y1="59" x2="873" y2="776.423" gradientUnits="userSpaceOnUse">
<stop stop-color="white"/>
<stop offset="1" stop-color="white" stop-opacity="0.54"/>
</linearGradient>
<linearGradient id="paint82_linear_688_402" x1="873" y1="59" x2="873" y2="776.423" gradientUnits="userSpaceOnUse">
<stop stop-color="white"/>
<stop offset="1" stop-color="white" stop-opacity="0.54"/>
</linearGradient>
<linearGradient id="paint83_linear_688_402" x1="873" y1="59" x2="873" y2="776.423" gradientUnits="userSpaceOnUse">
<stop stop-color="white"/>
<stop offset="1" stop-color="white" stop-opacity="0.54"/>
</linearGradient>
<linearGradient id="paint84_linear_688_402" x1="873" y1="59" x2="873" y2="776.423" gradientUnits="userSpaceOnUse">
<stop stop-color="white"/>
<stop offset="1" stop-color="white" stop-opacity="0.54"/>
</linearGradient>
<linearGradient id="paint85_linear_688_402" x1="873" y1="59" x2="873" y2="776.423" gradientUnits="userSpaceOnUse">
<stop stop-color="white"/>
<stop offset="1" stop-color="white" stop-opacity="0.54"/>
</linearGradient>
<linearGradient id="paint86_linear_688_402" x1="873" y1="59" x2="873" y2="776.423" gradientUnits="userSpaceOnUse">
<stop stop-color="white"/>
<stop offset="1" stop-color="white" stop-opacity="0.54"/>
</linearGradient>
<linearGradient id="paint87_linear_688_402" x1="873" y1="59" x2="873" y2="776.423" gradientUnits="userSpaceOnUse">
<stop stop-color="white"/>
<stop offset="1" stop-color="white" stop-opacity="0.54"/>
</linearGradient>
<linearGradient id="paint88_linear_688_402" x1="873" y1="59" x2="873" y2="776.423" gradientUnits="userSpaceOnUse">
<stop stop-color="white"/>
<stop offset="1" stop-color="white" stop-opacity="0.54"/>
</linearGradient>
<linearGradient id="paint89_linear_688_402" x1="873" y1="59" x2="873" y2="776.423" gradientUnits="userSpaceOnUse">
<stop stop-color="white"/>
<stop offset="1" stop-color="white" stop-opacity="0.54"/>
</linearGradient>
<linearGradient id="paint90_linear_688_402" x1="873" y1="59" x2="873" y2="776.423" gradientUnits="userSpaceOnUse">
<stop stop-color="white"/>
<stop offset="1" stop-color="white" stop-opacity="0.54"/>
</linearGradient>
<linearGradient id="paint91_linear_688_402" x1="873" y1="59" x2="873" y2="776.423" gradientUnits="userSpaceOnUse">
<stop stop-color="white"/>
<stop offset="1" stop-color="white" stop-opacity="0.54"/>
</linearGradient>
<linearGradient id="paint92_linear_688_402" x1="873" y1="59" x2="873" y2="776.423" gradientUnits="userSpaceOnUse">
<stop stop-color="white"/>
<stop offset="1" stop-color="white" stop-opacity="0.54"/>
</linearGradient>
<linearGradient id="paint93_linear_688_402" x1="873" y1="59" x2="873" y2="776.423" gradientUnits="userSpaceOnUse">
<stop stop-color="white"/>
<stop offset="1" stop-color="white" stop-opacity="0.54"/>
</linearGradient>
<linearGradient id="paint94_linear_688_402" x1="873" y1="59" x2="873" y2="776.423" gradientUnits="userSpaceOnUse">
<stop stop-color="white"/>
<stop offset="1" stop-color="white" stop-opacity="0.54"/>
</linearGradient>
<linearGradient id="paint95_linear_688_402" x1="873" y1="59" x2="873" y2="776.423" gradientUnits="userSpaceOnUse">
<stop stop-color="white"/>
<stop offset="1" stop-color="white" stop-opacity="0.54"/>
</linearGradient>
<linearGradient id="paint96_linear_688_402" x1="873" y1="59" x2="873" y2="776.423" gradientUnits="userSpaceOnUse">
<stop stop-color="white"/>
<stop offset="1" stop-color="white" stop-opacity="0.54"/>
</linearGradient>
<linearGradient id="paint97_linear_688_402" x1="873" y1="59" x2="873" y2="776.423" gradientUnits="userSpaceOnUse">
<stop stop-color="white"/>
<stop offset="1" stop-color="white" stop-opacity="0.54"/>
</linearGradient>
<linearGradient id="paint98_linear_688_402" x1="873" y1="59" x2="873" y2="776.423" gradientUnits="userSpaceOnUse">
<stop stop-color="white"/>
<stop offset="1" stop-color="white" stop-opacity="0.54"/>
</linearGradient>
<linearGradient id="paint99_linear_688_402" x1="873" y1="59" x2="873" y2="776.423" gradientUnits="userSpaceOnUse">
<stop stop-color="white"/>
<stop offset="1" stop-color="white" stop-opacity="0.54"/>
</linearGradient>
<linearGradient id="paint100_linear_688_402" x1="873" y1="59" x2="873" y2="776.423" gradientUnits="userSpaceOnUse">
<stop stop-color="white"/>
<stop offset="1" stop-color="white" stop-opacity="0.54"/>
</linearGradient>
<linearGradient id="paint101_linear_688_402" x1="873" y1="59" x2="873" y2="776.423" gradientUnits="userSpaceOnUse">
<stop stop-color="white"/>
<stop offset="1" stop-color="white" stop-opacity="0.54"/>
</linearGradient>
<linearGradient id="paint102_linear_688_402" x1="873" y1="59" x2="873" y2="776.423" gradientUnits="userSpaceOnUse">
<stop stop-color="white"/>
<stop offset="1" stop-color="white" stop-opacity="0.54"/>
</linearGradient>
<linearGradient id="paint103_linear_688_402" x1="873" y1="59" x2="873" y2="776.423" gradientUnits="userSpaceOnUse">
<stop stop-color="white"/>
<stop offset="1" stop-color="white" stop-opacity="0.54"/>
</linearGradient>
<linearGradient id="paint104_linear_688_402" x1="873" y1="59" x2="873" y2="776.423" gradientUnits="userSpaceOnUse">
<stop stop-color="white"/>
<stop offset="1" stop-color="white" stop-opacity="0.54"/>
</linearGradient>
<linearGradient id="paint105_linear_688_402" x1="873" y1="59" x2="873" y2="776.423" gradientUnits="userSpaceOnUse">
<stop stop-color="white"/>
<stop offset="1" stop-color="white" stop-opacity="0.54"/>
</linearGradient>
<linearGradient id="paint106_linear_688_402" x1="873" y1="59" x2="873" y2="776.423" gradientUnits="userSpaceOnUse">
<stop stop-color="white"/>
<stop offset="1" stop-color="white" stop-opacity="0.54"/>
</linearGradient>
<linearGradient id="paint107_linear_688_402" x1="873" y1="59" x2="873" y2="776.423" gradientUnits="userSpaceOnUse">
<stop stop-color="white"/>
<stop offset="1" stop-color="white" stop-opacity="0.54"/>
</linearGradient>
<linearGradient id="paint108_linear_688_402" x1="873" y1="59" x2="873" y2="776.423" gradientUnits="userSpaceOnUse">
<stop stop-color="white"/>
<stop offset="1" stop-color="white" stop-opacity="0.54"/>
</linearGradient>
<linearGradient id="paint109_linear_688_402" x1="873" y1="59" x2="873" y2="776.423" gradientUnits="userSpaceOnUse">
<stop stop-color="white"/>
<stop offset="1" stop-color="white" stop-opacity="0.54"/>
</linearGradient>
<linearGradient id="paint110_linear_688_402" x1="873" y1="59" x2="873" y2="776.423" gradientUnits="userSpaceOnUse">
<stop stop-color="white"/>
<stop offset="1" stop-color="white" stop-opacity="0.54"/>
</linearGradient>
<linearGradient id="paint111_linear_688_402" x1="873" y1="59" x2="873" y2="776.423" gradientUnits="userSpaceOnUse">
<stop stop-color="white"/>
<stop offset="1" stop-color="white" stop-opacity="0.54"/>
</linearGradient>
<linearGradient id="paint112_linear_688_402" x1="873" y1="59" x2="873" y2="776.423" gradientUnits="userSpaceOnUse">
<stop stop-color="white"/>
<stop offset="1" stop-color="white" stop-opacity="0.54"/>
</linearGradient>
<linearGradient id="paint113_linear_688_402" x1="873" y1="59" x2="873" y2="776.423" gradientUnits="userSpaceOnUse">
<stop stop-color="white"/>
<stop offset="1" stop-color="white" stop-opacity="0.54"/>
</linearGradient>
<linearGradient id="paint114_linear_688_402" x1="873" y1="59" x2="873" y2="776.423" gradientUnits="userSpaceOnUse">
<stop stop-color="white"/>
<stop offset="1" stop-color="white" stop-opacity="0.54"/>
</linearGradient>
<radialGradient id="paint115_radial_688_402" cx="0" cy="0" r="1" gradientUnits="userSpaceOnUse" gradientTransform="translate(220 371) rotate(90) scale(8)">
<stop stop-color="#7C82FF"/>
<stop offset="1" stop-color="#0008C1" stop-opacity="0.56"/>
</radialGradient>
<radialGradient id="paint116_radial_688_402" cx="0" cy="0" r="1" gradientUnits="userSpaceOnUse" gradientTransform="translate(708 128) rotate(90) scale(8)">
<stop stop-color="#7C82FF"/>
<stop offset="1" stop-color="#0008C1" stop-opacity="0.56"/>
</radialGradient>
<radialGradient id="paint117_radial_688_402" cx="0" cy="0" r="1" gradientUnits="userSpaceOnUse" gradientTransform="translate(950 635) rotate(90) scale(8)">
<stop stop-color="#7C82FF"/>
<stop offset="1" stop-color="#0008C1" stop-opacity="0.56"/>
</radialGradient>
<radialGradient id="paint118_radial_688_402" cx="0" cy="0" r="1" gradientUnits="userSpaceOnUse" gradientTransform="translate(391 200) rotate(90) scale(9)">
<stop stop-color="#7C82FF"/>
<stop offset="1" stop-color="#0008C1" stop-opacity="0.56"/>
</radialGradient>
<radialGradient id="paint119_radial_688_402" cx="0" cy="0" r="1" gradientUnits="userSpaceOnUse" gradientTransform="translate(472 496) rotate(90) scale(10)">
<stop stop-color="#7C82FF"/>
<stop offset="1" stop-color="#0008C1" stop-opacity="0.56"/>
</radialGradient>
<radialGradient id="paint120_radial_688_402" cx="0" cy="0" r="1" gradientUnits="userSpaceOnUse" gradientTransform="translate(667 518) rotate(90) scale(10)">
<stop stop-color="#7C82FF"/>
<stop offset="1" stop-color="#0008C1" stop-opacity="0.56"/>
</radialGradient>
</defs>
</svg>
