<svg width="18" height="18" viewBox="0 0 18 18" fill="none" xmlns="http://www.w3.org/2000/svg">
<mask id="mask0_2111_2503" style="mask-type:alpha" maskUnits="userSpaceOnUse" x="3" y="3" width="12" height="12">
<path d="M3.90625 9.75H12.2838L8.62375 13.41C8.33125 13.7025 8.33125 14.1825 8.62375 14.475C8.91625 14.7675 9.38875 14.7675 9.68125 14.475L14.6237 9.5325C14.9163 9.24 14.9163 8.7675 14.6237 8.475L9.68875 3.525C9.54863 3.38456 9.35839 3.30563 9.16 3.30563C8.96161 3.30563 8.77137 3.38456 8.63125 3.525C8.33875 3.8175 8.33875 4.29 8.63125 4.5825L12.2838 8.25H3.90625C3.49375 8.25 3.15625 8.5875 3.15625 9C3.15625 9.4125 3.49375 9.75 3.90625 9.75Z" fill="black"/>
</mask>
<g mask="url(#mask0_2111_2503)">
<rect width="18" height="18" fill="white"/>
</g>
</svg>
