<svg width="54" height="58" viewBox="0 0 54 58" fill="none" xmlns="http://www.w3.org/2000/svg">
<path fill-rule="evenodd" clip-rule="evenodd" d="M30.7 3.58024C29.7928 3.44066 30.0161 2.05885 30.9094 2.21238C37.4835 3.2313 43.3737 6.69281 47.5331 11.8013C47.7703 12.1084 47.7285 12.5411 47.4354 12.7784C47.1423 13.0157 46.6956 12.9738 46.4583 12.6807C42.5222 7.82339 36.9391 4.55728 30.7 3.58024ZM50.4223 19.52C50.2827 19.1571 50.4642 18.7663 50.8271 18.6267C51.19 18.4871 51.5808 18.6686 51.7204 19.0315C54.0932 25.2147 54.0932 32.0401 51.7204 38.2233C51.5808 38.5862 51.176 38.7677 50.8271 38.6281C50.4642 38.4885 50.2827 38.0838 50.4223 37.7348C52.6556 31.8865 52.6695 25.3543 50.4223 19.52ZM46.4583 44.5602C46.6956 44.267 47.1423 44.2252 47.4354 44.4624C47.7424 44.6997 47.7843 45.1464 47.5331 45.4395C43.3876 50.562 37.4975 54.0095 30.9094 55.0424C30.0022 55.182 29.7928 53.8141 30.7 53.6746C36.9252 52.6975 42.5362 49.4035 46.4583 44.5602ZM22.8 53.6606C23.7072 53.8002 23.4978 55.168 22.5906 55.0285C16.0165 54.0095 10.1263 50.548 5.96693 45.4255C5.71569 45.1324 5.77152 44.6858 6.06464 44.4485C6.35775 44.2112 6.8044 44.2531 7.04168 44.5462C10.9778 49.4174 16.5609 52.6836 22.8 53.6606ZM3.07768 37.7209C3.21726 38.0838 3.03581 38.4746 2.67291 38.6142C2.31001 38.7537 1.91919 38.5723 1.77961 38.2094C-0.593204 32.0261 -0.593204 25.2008 1.77961 19.0175C1.91919 18.6546 2.32396 18.4731 2.67291 18.6127C3.03581 18.7523 3.21726 19.1571 3.07768 19.506C0.844443 25.3543 0.830486 31.8865 3.07768 37.7209ZM7.04168 12.6807C6.8044 12.9738 6.35775 13.0296 6.06464 12.7784C5.77152 12.5271 5.71569 12.0945 5.96693 11.8013C10.1124 6.69281 16.0025 3.2313 22.5906 2.21238C23.4978 2.0728 23.7072 3.44066 22.8 3.58024C16.5748 4.54332 10.9638 7.83735 7.04168 12.6807ZM6.8044 16.3795L11.7036 19.185C12.4992 19.6456 11.8013 20.846 11.0057 20.3993L6.05068 17.5659C4.59907 18.9198 2.2123 18.2498 1.69587 16.3097C1.31901 14.9 2.15647 13.4484 3.5662 13.0715C5.57612 12.5551 7.39062 14.4114 6.8044 16.3795ZM46.6537 41.0009L41.7267 38.1256C41.3917 37.9302 41.28 37.5115 41.4754 37.1765C41.6708 36.8415 42.1035 36.7299 42.4245 36.9253L47.3097 39.7726C48.7195 38.2792 51.2458 38.9073 51.7902 40.9032C52.4043 43.1783 49.9338 45.0626 47.9099 43.8762C46.891 43.304 46.4025 42.1315 46.6537 41.0009ZM3.60807 16.7005C3.94306 16.868 4.20826 16.9518 4.59907 16.8401C5.67382 16.547 5.86923 15.0954 4.90614 14.5371C3.95702 13.9927 2.77061 14.8581 3.06372 15.9468C3.13351 16.2539 3.31496 16.533 3.60807 16.7005ZM48.0216 41.9361C48.3007 42.955 49.6965 43.276 50.3386 42.2013C50.855 41.3499 50.0315 40.0937 48.9149 40.4007C48.2449 40.5682 47.8541 41.2522 48.0216 41.9361ZM6.1763 39.7866L11.0615 36.9392C11.3965 36.7438 11.8152 36.8555 12.0106 37.1905C12.206 37.5255 12.0944 37.9442 11.7594 38.1396L6.83231 41.0149C7.27896 42.955 5.49237 44.6858 3.5662 44.1693C1.31901 43.5692 0.872359 40.5124 2.92415 39.312C4.01285 38.6979 5.35279 38.9073 6.1763 39.7866ZM47.4354 17.5798L42.4804 20.4133C41.6848 20.8739 40.9869 19.6596 41.7825 19.1989L46.6956 16.3934C46.1094 14.4254 47.9239 12.5551 49.9198 13.0855C52.195 13.6856 52.5997 16.7703 50.5619 17.9288C49.543 18.515 48.2728 18.3615 47.4354 17.5798ZM4.9201 42.6759C5.84131 42.1036 5.6459 40.6799 4.58512 40.4007C3.58016 40.1216 2.58916 41.1684 3.2033 42.285C3.49641 42.8154 4.33388 43.0388 4.85031 42.7177C4.87823 42.7038 4.89219 42.6759 4.9201 42.6759ZM48.9149 16.854C49.9338 17.1332 50.9108 16.0585 50.2967 14.9837C49.8082 14.1044 48.3287 14.2021 48.0216 15.3187C47.8541 15.9887 48.2449 16.6726 48.9149 16.854ZM26.1359 52.0136L26.1079 46.3607C26.1079 45.9838 26.415 45.6628 26.8058 45.6628C27.1966 45.6628 27.5037 45.9699 27.5037 46.3607L27.5316 52.0555C29.4299 52.6277 30.044 55.0424 28.6343 56.4521C26.9733 58.1131 24.112 56.9267 24.112 54.5818C24.098 53.3535 24.9495 52.2927 26.1359 52.0136ZM27.5177 5.18538L27.5037 10.8801C27.5037 11.257 27.1966 11.578 26.8058 11.578C26.415 11.578 26.1079 11.271 26.1079 10.8801L26.1359 5.22725C24.1399 4.75269 23.4141 2.25425 24.8797 0.774735C26.5406 -0.886236 29.402 0.300172 29.402 2.65903C29.402 3.83148 28.6203 4.85039 27.5177 5.18538ZM28.0062 54.5818C28.0062 53.4652 26.6523 52.9069 25.8707 53.7025C25.0751 54.4841 25.6334 55.838 26.75 55.838C27.4479 55.838 28.0062 55.2797 28.0062 54.5818ZM27.6293 3.53837C28.4249 2.75673 27.8666 1.40283 26.75 1.40283C25.6334 1.40283 25.0751 2.75673 25.8707 3.53837C26.3592 4.02689 27.1408 4.02689 27.6293 3.53837ZM37.316 19.2548C36.4646 19.6316 35.5852 19.9666 34.678 20.2458C35.5434 22.479 36.0738 25.1031 36.1436 27.9225H40.8473C40.6938 24.6006 39.3957 21.5857 37.316 19.2548ZM17.2308 18.18C17.9287 18.4731 18.6406 18.7244 19.3664 18.9477C20.0084 17.6217 20.818 16.3795 21.809 15.3745C20.1061 16.0166 18.5568 16.9797 17.2308 18.18ZM27.4479 20.0364C29.2764 19.9945 31.049 19.7433 32.7658 19.3246C31.5375 16.882 29.6951 14.9 27.4479 14.551V20.0364ZM34.1336 18.9477C34.8594 18.7244 35.5852 18.4592 36.2831 18.18C34.9571 16.9797 33.4078 16.0166 31.705 15.3885C32.682 16.3795 33.4916 17.6217 34.1336 18.9477ZM16.184 37.9861C17.0354 37.6092 17.9148 37.2882 18.822 36.9951C17.9566 34.7618 17.4402 32.1378 17.3564 29.3183H12.6387C12.8062 32.6402 14.1043 35.6551 16.184 37.9861ZM20.162 36.6182C22.0602 36.1297 24.0422 35.8505 26.0521 35.8087V29.3183H18.7522C18.822 32.0121 19.3384 34.5245 20.162 36.6182ZM36.2692 39.0608C35.5713 38.7677 34.8594 38.5164 34.1197 38.2931C33.4776 39.6331 32.6681 40.8614 31.6771 41.8663C33.3939 41.2243 34.9432 40.2612 36.2692 39.0608ZM32.7658 37.9163C31.049 37.4975 29.2764 37.2463 27.4479 37.2044V42.7038C29.6951 42.3409 31.5375 40.3589 32.7658 37.9163ZM19.3664 38.2792C18.6406 38.5025 17.9287 38.7677 17.2308 39.0468C18.5568 40.2472 20.1061 41.2103 21.809 41.8523C20.818 40.8614 20.0084 39.6191 19.3664 38.2792ZM26.75 13.0994C35.32 13.0994 42.271 20.0504 42.271 28.6204C42.271 37.1905 35.32 44.1414 26.75 44.1414C18.18 44.1414 11.229 37.1905 11.229 28.6204C11.229 20.0504 18.18 13.0994 26.75 13.0994Z" fill="#D7AC43"/>
</svg>
