<svg
                  xmlns="http://www.w3.org/2000/svg"
                  width="20"
                  height="21"
                  viewBox="0 0 20 21"
                  fill="none"
                >
                  <path
                    fill-rule="evenodd"
                    clip-rule="evenodd"
                    d="M5.29279 10.3053C5.48031 10.1178 5.73462 10.0125 5.99979 10.0125C6.26495 10.0125 6.51926 10.1178 6.70679 10.3053L9.99979 13.5983L13.2928 10.3053C13.385 10.2098 13.4954 10.1336 13.6174 10.0812C13.7394 10.0288 13.8706 10.0012 14.0034 10C14.1362 9.99888 14.2678 10.0242 14.3907 10.0745C14.5136 10.1247 14.6253 10.199 14.7192 10.2929C14.8131 10.3868 14.8873 10.4984 14.9376 10.6213C14.9879 10.7442 15.0132 10.8759 15.012 11.0087C15.0109 11.1415 14.9833 11.2727 14.9309 11.3947C14.8785 11.5167 14.8023 11.627 14.7068 11.7193L10.7068 15.7193C10.5193 15.9068 10.265 16.0121 9.99979 16.0121C9.73462 16.0121 9.48031 15.9068 9.29279 15.7193L5.29279 11.7193C5.10532 11.5318 5 11.2775 5 11.0123C5 10.7471 5.10532 10.4928 5.29279 10.3053Z"
                    fill="white"
                  />
                </svg>