<svg width="60" height="60" viewBox="0 0 60 60" fill="none" xmlns="http://www.w3.org/2000/svg">
<g id="noun-excellence-6623936 1">
<path id="Vector" d="M29.0986 9.6462V1.70121C29.0986 1.31304 29.4116 1 29.7998 1C30.188 1 30.501 1.31304 30.501 1.70121V9.6462C30.501 10.0344 30.188 10.3474 29.7998 10.3474C29.4116 10.3474 29.0986 10.0344 29.0986 9.6462ZM29.7998 49.2522C29.4116 49.2522 29.0986 49.5652 29.0986 49.9534V57.8984C29.0986 58.2866 29.4116 58.5996 29.7998 58.5996C30.188 58.5996 30.501 58.2866 30.501 57.8984V49.9534C30.501 49.5652 30.188 49.2522 29.7998 49.2522ZM44.5503 43.5548C44.2748 43.2794 43.8303 43.2794 43.5548 43.5548C43.2794 43.8303 43.2794 44.2748 43.5548 44.5503L49.1708 50.1663C49.3085 50.304 49.4901 50.3729 49.6654 50.3729C49.847 50.3729 50.0223 50.304 50.16 50.1663C50.4355 49.8908 50.4355 49.4463 50.16 49.1708L44.5503 43.5548ZM15.0493 16.0448C15.187 16.1825 15.3686 16.2514 15.5439 16.2514C15.7192 16.2514 15.9008 16.1825 16.0385 16.0448C16.314 15.7693 16.314 15.3248 16.0385 15.0493L10.4225 9.43333C10.1471 9.15786 9.70255 9.15786 9.42707 9.43333C9.1516 9.70881 9.1516 10.1533 9.42707 10.4288L15.0493 16.0448ZM10.3474 29.7998C10.3474 29.4116 10.0344 29.0986 9.6462 29.0986H1.70121C1.31304 29.0986 1 29.4116 1 29.7998C1 30.188 1.31304 30.501 1.70121 30.501H9.6462C10.0344 30.501 10.3474 30.188 10.3474 29.7998ZM57.8984 29.0986H49.9534C49.5652 29.0986 49.2522 29.4116 49.2522 29.7998C49.2522 30.188 49.5652 30.501 49.9534 30.501H57.8984C58.2866 30.501 58.5996 30.188 58.5996 29.7998C58.5996 29.4116 58.2866 29.0986 57.8984 29.0986ZM44.0494 16.2514C44.231 16.2514 44.4063 16.1825 44.5441 16.0448L50.16 10.4288C50.4355 10.1533 50.4355 9.70881 50.16 9.43333C49.8845 9.15786 49.44 9.15786 49.1645 9.43333L43.5486 15.0493C43.2731 15.3248 43.2731 15.7693 43.5486 16.0448C43.6926 16.1825 43.8741 16.2514 44.0494 16.2514ZM15.0493 43.5548L9.43333 49.1708C9.15786 49.4463 9.15786 49.8908 9.43333 50.1663C9.57107 50.304 9.75264 50.3729 9.92794 50.3729C10.1032 50.3729 10.2848 50.304 10.4225 50.1663L16.0385 44.5503C16.314 44.2748 16.314 43.8303 16.0385 43.5548C15.7693 43.2794 15.3248 43.2794 15.0493 43.5548ZM36.8057 41.8707L30.0252 38.1267C29.8749 38.0453 29.7247 38.0453 29.5744 38.1267L22.7939 41.8707C22.5059 42.0272 22.1992 42.1086 21.8861 42.1086C21.4979 42.1086 21.116 41.9896 20.7905 41.7455C20.1957 41.3135 19.914 40.5997 20.0517 39.8735L21.5167 32.2728C21.548 32.1038 21.5042 31.9598 21.379 31.8408L15.7255 26.5504C15.187 26.0496 14.9992 25.3045 15.2246 24.6033C15.45 23.9021 16.0448 23.4138 16.7773 23.3261L24.4593 22.3682C24.6346 22.3494 24.7536 22.2618 24.8224 22.1052L28.1094 15.0931C28.4224 14.4295 29.0735 14.0163 29.8061 14.0163C30.5386 14.0163 31.1897 14.4295 31.5028 15.0931L34.7897 22.1052C34.8648 22.2618 34.9838 22.3494 35.1528 22.3682L42.8348 23.3261C43.5611 23.42 44.1559 23.9084 44.3875 24.6033C44.6129 25.3045 44.4251 26.0496 43.8867 26.5504L38.2331 31.8408C38.1079 31.9598 38.0578 32.0975 38.0954 32.2728L39.5604 39.8735C39.6982 40.5935 39.4164 41.3135 38.8217 41.7455C38.2144 42.1775 37.4505 42.2213 36.8057 41.8707ZM37.9827 40.606C38.1392 40.4933 38.2018 40.3243 38.1643 40.1364L36.6992 32.5358C36.574 31.8909 36.7806 31.2648 37.2565 30.8141L42.91 25.5237C43.0477 25.3922 43.0915 25.2169 43.0352 25.0353C42.9788 24.8538 42.8411 24.7411 42.647 24.716L34.965 23.7581C34.3139 23.6767 33.7817 23.2885 33.5 22.6938L30.213 15.6816C30.1316 15.5063 29.9814 15.4124 29.7873 15.4124C29.5932 15.4124 29.4429 15.5063 29.3615 15.6816L26.0746 22.6938C25.7929 23.2885 25.2607 23.6767 24.6096 23.7581L16.9275 24.716C16.7397 24.7411 16.602 24.8538 16.5394 25.0353C16.483 25.2169 16.5269 25.3922 16.6646 25.5237L22.3181 30.8141C22.8002 31.2648 23.0005 31.8909 22.8753 32.5358L21.4103 40.1364C21.3727 40.3243 21.4416 40.4933 21.5919 40.606C21.7484 40.7187 21.9237 40.7312 22.0927 40.6373L28.8732 36.8933C29.1612 36.7368 29.468 36.6554 29.781 36.6554C30.0878 36.6554 30.4008 36.7368 30.6888 36.8933L37.4693 40.6373C37.6509 40.7312 37.8324 40.7187 37.9827 40.606ZM38.1643 48.1503C38.014 47.7934 37.6071 47.6244 37.2439 47.7684C36.8871 47.9186 36.718 48.3256 36.862 48.6887L38.5587 52.7833C38.6714 53.0525 38.9344 53.2153 39.2098 53.2153C39.2975 53.2153 39.3914 53.1965 39.479 53.159C39.8359 53.0087 40.005 52.6017 39.861 52.2386L38.1643 48.1503ZM21.4353 11.4493C21.548 11.7185 21.811 11.8813 22.0865 11.8813C22.1741 11.8813 22.268 11.8625 22.3557 11.825C22.7125 11.6747 22.8816 11.2678 22.7376 10.9046L21.0409 6.81005C20.8906 6.45318 20.4837 6.28414 20.1206 6.42814C19.7637 6.5784 19.5947 6.98535 19.7387 7.34848L21.4353 11.4493ZM52.7833 38.5587L48.6887 36.862C48.3319 36.7118 47.9186 36.8808 47.7684 37.2439C47.6181 37.6008 47.7872 38.014 48.1503 38.1643L52.2449 39.861C52.3325 39.8985 52.4264 39.9173 52.5141 39.9173C52.7896 39.9173 53.0525 39.7545 53.1652 39.4853C53.3092 39.1159 53.1402 38.709 52.7833 38.5587ZM6.81631 21.0409L10.9109 22.7376C10.9985 22.7752 11.0925 22.7939 11.1801 22.7939C11.4556 22.7939 11.7185 22.6312 11.8312 22.3619C11.9815 22.0051 11.8124 21.5919 11.4493 21.4416L7.35474 19.7449C6.99787 19.5947 6.58466 19.7637 6.4344 20.1268C6.2904 20.4837 6.45944 20.8906 6.81631 21.0409ZM47.7746 22.3557C47.8873 22.6249 48.1503 22.7877 48.4258 22.7877C48.5134 22.7877 48.6073 22.7689 48.695 22.7313L52.7896 21.0346C53.1464 20.8844 53.3155 20.4774 53.1715 20.1143C53.0212 19.7574 52.6143 19.5884 52.2511 19.7324L48.1566 21.4291C47.7934 21.5856 47.6244 21.9988 47.7746 22.3557ZM11.825 37.2439C11.6747 36.8871 11.2678 36.718 10.9046 36.862L6.81005 38.5587C6.45318 38.709 6.28414 39.1159 6.42814 39.479C6.54083 39.7483 6.80379 39.911 7.07926 39.911C7.16691 39.911 7.26083 39.8923 7.34848 39.8547L11.4431 38.158C11.8062 38.014 11.9752 37.6008 11.825 37.2439ZM37.2439 11.825C37.3316 11.8625 37.4255 11.8813 37.5131 11.8813C37.7886 11.8813 38.0516 11.7185 38.1643 11.4493L39.861 7.35474C40.0112 6.99787 39.8422 6.58466 39.479 6.4344C39.1222 6.28414 38.709 6.45318 38.5587 6.81631L36.862 10.9109C36.718 11.2678 36.8871 11.681 37.2439 11.825ZM22.3557 47.7746C21.9988 47.6244 21.5856 47.7934 21.4353 48.1566L19.7387 52.2511C19.5884 52.608 19.7574 53.0212 20.1206 53.1715C20.2082 53.209 20.3021 53.2278 20.3898 53.2278C20.6653 53.2278 20.9282 53.065 21.0409 52.7958L22.7376 48.7012C22.8816 48.3319 22.7125 47.9186 22.3557 47.7746Z" fill="#D7AC43"/>
</g>
</svg>
