<svg width="55" height="60" viewBox="0 0 55 60" fill="none" xmlns="http://www.w3.org/2000/svg">
<path d="M53.8497 9.99602L27.39 0.0715706C27.1832 -0.0238569 26.9765 -0.0238569 26.6664 0.0715706L0.516792 9.99602C0.206717 10.0915 0 10.3777 0 10.7594C0 11.0457 0.206717 11.4274 0.516792 11.5229L3.41082 12.668V17.6302L0.620148 22.8787C0.103357 23.9284 0.103358 25.0736 0.826866 26.0278C1.44702 26.9821 2.58396 27.5547 3.82426 27.5547H4.23769C5.47799 27.5547 6.61493 26.9821 7.23508 26.0278C7.85523 25.0736 7.95859 23.9284 7.4418 22.8787L4.75448 17.6302V13.2406L9.19889 15.0537V24.8827C9.19889 25.4553 9.30225 25.9324 9.50897 26.505C6.51157 30.1312 4.9612 34.4254 4.9612 39.1968C4.9612 44.7316 7.23508 49.9801 11.2661 53.8926C15.4004 57.8052 20.8784 60 26.6664 60C32.4545 60 37.8291 57.8052 41.9635 53.8926C46.0978 49.9801 48.2683 44.7316 48.2683 39.1968C48.2683 34.2346 47.1314 30.6083 44.3407 27.2684C44.7542 26.505 45.0642 25.7416 45.0642 24.8827V15.0537L53.7463 11.6183C54.0564 11.5229 54.2631 11.1412 54.2631 10.8549C54.3665 10.4732 54.1598 10.1869 53.8497 9.99602ZM6.2015 25.3598C5.78807 25.9324 5.06456 26.3141 4.23769 26.3141H3.82426C2.99739 26.3141 2.27388 25.9324 1.86045 25.3598C1.44702 24.7873 1.44702 24.0239 1.75709 23.3559L4.03097 19.1571L6.2015 23.3559C6.61493 24.0239 6.61493 24.7873 6.2015 25.3598ZM15.297 31.1809C14.2634 33.4712 13.7467 35.7614 13.6433 38.338H6.71829C6.82165 34.4254 8.06195 30.9901 10.4392 28.0318C11.4728 29.2724 13.1265 30.3221 15.297 31.1809ZM25.7362 33.1849V38.4334H15.4004C15.5037 35.9523 15.9172 33.9483 16.9508 31.8489C19.5347 32.5169 22.5321 33.0895 25.7362 33.1849ZM36.4855 32.0398C37.4157 34.1392 37.9325 36.0477 38.0359 38.338H27.5967V33.1849C30.8008 33.1849 33.9015 32.7078 36.4855 32.0398ZM46.6146 40.0557C46.4079 44.0636 44.9609 47.7853 42.5836 50.7435C41.7568 50.171 40.2064 49.2167 37.8291 48.3578C38.8627 45.9722 39.5862 43.2048 39.6896 39.9602H46.6146V40.0557ZM36.1754 47.8807C33.9015 47.2127 31.0075 46.7356 27.4933 46.6402V40.0557H37.9325C37.9325 42.8231 37.3124 45.3996 36.1754 47.8807ZM6.71829 40.0557H13.6433C13.7467 43.3956 14.5735 46.2584 15.6071 48.6441C13.3332 49.503 11.6795 50.3618 10.8526 50.839C8.47538 47.7853 6.92501 44.0636 6.71829 40.0557ZM15.4004 40.0557H25.7362V46.6402C22.5321 46.7356 19.6381 47.4036 17.2608 48.0716C16.1239 45.5905 15.5037 42.9185 15.4004 40.0557ZM25.7362 48.2624V57.7097C24.5993 56.9463 22.9455 55.7058 21.1885 53.8926C19.9482 52.5567 18.8112 51.1252 17.9843 49.5984C20.2582 48.9304 22.9455 48.3578 25.7362 48.2624ZM27.5967 48.2624C30.8008 48.3578 33.3847 48.835 35.4519 49.4076C34.625 51.0298 33.4881 52.4612 32.1444 53.8926C30.3873 55.8012 28.6303 57.0417 27.4933 57.8052V48.2624H27.5967ZM11.9896 52.1749C12.9198 51.6978 14.3668 50.9344 16.434 50.171C17.4676 52.1749 18.8112 53.7972 19.9482 55.0378C21.1885 56.3738 22.4288 57.4235 23.4623 58.1869C18.9146 57.4235 14.8836 55.2286 11.9896 52.1749ZM29.9739 58.0914C31.0075 57.328 32.2478 56.2783 33.4881 54.9423C34.7284 53.6064 36.072 51.9841 37.1056 49.8847C37.5191 50.0756 37.9325 50.171 38.3459 50.3618C39.7929 50.9344 40.8265 51.6024 41.4467 51.9841C38.5527 55.1332 34.5217 57.328 29.9739 58.0914ZM46.6146 38.338H39.793C39.6896 35.8569 39.1728 33.7575 38.2426 31.4672C40.4131 30.7038 42.1702 29.7495 43.4105 28.6044C45.4777 31.3718 46.5112 34.33 46.6146 38.338ZM43.4105 24.8827C43.4105 26.505 41.7568 28.1272 38.8627 29.3678C38.1392 29.6541 37.4157 29.9404 36.6922 30.1312C36.6922 30.1312 36.6922 30.1312 36.5888 30.1312C33.7982 30.9901 30.5941 31.3718 27.0799 31.3718C23.2556 31.3718 19.6381 30.7992 16.744 29.7495C16.2273 29.5586 15.8138 29.3678 15.4004 29.2724C12.5064 28.0318 10.8526 26.4095 10.8526 24.7873V15.7217L26.5631 22.1153C26.6664 22.1153 26.7698 22.2107 26.8732 22.2107C26.9765 22.2107 27.0799 22.2107 27.1832 22.1153L43.4105 15.7217V24.8827ZM44.0306 13.7177L27.0799 20.493L10.4392 13.8131L7.85523 12.7634L26.5631 10.3777C26.7698 10.4732 26.9765 10.5686 27.1832 10.5686C27.7 10.5686 28.1135 10.1869 28.1135 9.70974C28.1135 9.2326 27.7 8.85089 27.1832 8.85089C26.8732 8.85089 26.5631 9.04175 26.3564 9.2326L5.58135 11.8091L3.20411 10.8549L27.0799 1.78926L51.2657 10.8549L44.0306 13.7177Z" fill="#D7AC43"/>
</svg>
