<svg width="25" height="24" viewBox="0 0 25 24" fill="none" xmlns="http://www.w3.org/2000/svg">
<g id="bi:calendar2-date">
<g id="Group">
<path id="Vector" d="M10.9591 17.653V10.6521H10.1282C9.53385 10.9704 8.95884 11.3237 8.40625 11.71V12.6222C8.89844 12.2849 9.67806 11.8084 10.0574 11.6024H10.0731V17.653H10.9591ZM12.5183 15.9402C12.58 16.7802 13.2979 17.7856 14.7535 17.7856C16.4046 17.7856 17.3785 16.3864 17.3785 14.0174C17.3785 11.479 16.3534 10.5156 14.8152 10.5156C13.5998 10.5156 12.4566 11.3976 12.4566 12.8899C12.4566 14.4124 13.5381 15.2131 14.6564 15.2131C15.6355 15.2131 16.2708 14.7196 16.4716 14.1762H16.507C16.5017 15.9034 15.9019 17.0164 14.7942 17.0164C13.9227 17.0164 13.4712 16.4258 13.4161 15.9402H12.5183ZM16.3941 12.8991C16.3941 13.8126 15.6604 14.4479 14.8401 14.4479C14.0513 14.4479 13.3386 13.9452 13.3386 12.8729C13.3386 11.7927 14.1025 11.2847 14.8716 11.2847C15.7024 11.2847 16.3941 11.8071 16.3941 12.8991Z" fill="white"/>
<path id="Vector_2" d="M7.09375 1C7.2678 1 7.43472 1.06914 7.55779 1.19221C7.68086 1.31528 7.75 1.4822 7.75 1.65625V2.3125H18.25V1.65625C18.25 1.4822 18.3191 1.31528 18.4422 1.19221C18.5653 1.06914 18.7322 1 18.9062 1C19.0803 1 19.2472 1.06914 19.3703 1.19221C19.4934 1.31528 19.5625 1.4822 19.5625 1.65625V2.3125H20.875C21.5712 2.3125 22.2389 2.58906 22.7312 3.08134C23.2234 3.57363 23.5 4.24131 23.5 4.9375V19.375C23.5 20.0712 23.2234 20.7389 22.7312 21.2312C22.2389 21.7234 21.5712 22 20.875 22H5.125C4.42881 22 3.76113 21.7234 3.26884 21.2312C2.77656 20.7389 2.5 20.0712 2.5 19.375V4.9375C2.5 4.24131 2.77656 3.57363 3.26884 3.08134C3.76113 2.58906 4.42881 2.3125 5.125 2.3125H6.4375V1.65625C6.4375 1.4822 6.50664 1.31528 6.62971 1.19221C6.75278 1.06914 6.9197 1 7.09375 1ZM5.125 3.625C4.7769 3.625 4.44306 3.76328 4.19692 4.00942C3.95078 4.25556 3.8125 4.5894 3.8125 4.9375V19.375C3.8125 19.7231 3.95078 20.0569 4.19692 20.3031C4.44306 20.5492 4.7769 20.6875 5.125 20.6875H20.875C21.2231 20.6875 21.5569 20.5492 21.8031 20.3031C22.0492 20.0569 22.1875 19.7231 22.1875 19.375V4.9375C22.1875 4.5894 22.0492 4.25556 21.8031 4.00942C21.5569 3.76328 21.2231 3.625 20.875 3.625H5.125Z" fill="white"/>
<path id="Vector_3" d="M5.78125 6.25C5.78125 6.07595 5.85039 5.90903 5.97346 5.78596C6.09653 5.66289 6.26345 5.59375 6.4375 5.59375H19.5625C19.7365 5.59375 19.9035 5.66289 20.0265 5.78596C20.1496 5.90903 20.2188 6.07595 20.2188 6.25V7.5625C20.2188 7.73655 20.1496 7.90347 20.0265 8.02654C19.9035 8.14961 19.7365 8.21875 19.5625 8.21875H6.4375C6.26345 8.21875 6.09653 8.14961 5.97346 8.02654C5.85039 7.90347 5.78125 7.73655 5.78125 7.5625V6.25Z" fill="white"/>
</g>
</g>
</svg>
