<svg width="60" height="60" viewBox="0 0 60 60" fill="none" xmlns="http://www.w3.org/2000/svg">
<g id="noun-mentor-2449028 1">
<path id="Vector" d="M14.379 5C10.7135 5 7.72102 8.00185 7.72102 11.679C7.72102 15.3562 10.7135 18.337 14.379 18.337C18.0446 18.337 21.037 15.3562 21.037 11.679C21.037 8.00185 18.0446 5 14.379 5ZM14.379 6.3442C17.3193 6.3442 19.6928 8.72946 19.6928 11.679C19.6928 14.6286 17.3193 16.9928 14.379 16.9928C11.4388 16.9928 9.06523 14.6286 9.06523 11.679C9.06523 8.72946 11.4388 6.3442 14.379 6.3442ZM45.4217 11.385C41.7562 11.385 38.7637 14.3868 38.7637 18.064C38.7637 21.7411 41.7562 24.743 45.4217 24.743C49.0873 24.743 52.0798 21.7411 52.0798 18.064C52.0798 14.3868 49.0873 11.385 45.4217 11.385ZM45.4217 12.7502C48.362 12.7502 50.7356 15.1144 50.7356 18.064C50.7356 21.0135 48.362 23.3988 45.4217 23.3988C42.4815 23.3988 40.1079 21.0135 40.1079 18.064C40.1079 15.1144 42.4815 12.7502 45.4217 12.7502ZM14.379 22.9997C6.98433 22.9997 1 28.8777 1 36.1687V47.6575C1.00002 47.8357 1.07083 48.0067 1.19687 48.1327C1.32291 48.2587 1.49385 48.3296 1.6721 48.3296H43.9725C44.0616 48.3308 44.15 48.3144 44.2327 48.2812C44.3153 48.248 44.3905 48.1987 44.454 48.1361C44.5174 48.0736 44.5677 47.9991 44.6021 47.9169C44.6365 47.8347 44.6542 47.7466 44.6542 47.6575C44.6542 47.5684 44.6365 47.4802 44.6021 47.3981C44.5677 47.3159 44.5174 47.2414 44.454 47.1788C44.3905 47.1163 44.3153 47.067 44.2327 47.0338C44.15 47.0006 44.0616 46.9841 43.9725 46.9854H2.3442V36.1687C2.3442 29.6112 7.69287 24.3439 14.379 24.3439C21.0652 24.3439 26.4139 29.6112 26.4139 36.1687V42.8477C26.4126 42.9368 26.4291 43.0252 26.4623 43.1079C26.4955 43.1905 26.5448 43.2658 26.6073 43.3292C26.6699 43.3926 26.7444 43.443 26.8265 43.4773C26.9087 43.5117 26.9969 43.5294 27.086 43.5294C27.175 43.5294 27.2632 43.5117 27.3454 43.4773C27.4276 43.443 27.5021 43.3926 27.5646 43.3292C27.6271 43.2658 27.6764 43.1905 27.7097 43.1079C27.7429 43.0252 27.7593 42.9368 27.7581 42.8477V36.1687C27.7581 28.8777 21.7737 22.9997 14.379 22.9997ZM45.4217 29.3847C38.0271 29.3847 32.0427 35.2627 32.0427 42.5537C32.0415 42.6428 32.0579 42.7312 32.0911 42.8138C32.1243 42.8965 32.1736 42.9717 32.2362 43.0351C32.2987 43.0986 32.3732 43.1489 32.4554 43.1833C32.5376 43.2177 32.6257 43.2354 32.7148 43.2354C32.8039 43.2354 32.8921 43.2177 32.9742 43.1833C33.0564 43.1489 33.1309 43.0986 33.1935 43.0351C33.256 42.9717 33.3053 42.8965 33.3385 42.8138C33.3717 42.7312 33.3882 42.6428 33.3869 42.5537C33.3869 35.9962 38.7356 30.7289 45.4217 30.7289C52.1079 30.7289 57.4566 35.9962 57.4566 42.5537V53.3913H32.7148C32.6258 53.3901 32.5373 53.4065 32.4547 53.4398C32.372 53.473 32.2968 53.5223 32.2334 53.5848C32.17 53.6473 32.1196 53.7219 32.0852 53.804C32.0508 53.8862 32.0331 53.9744 32.0331 54.0635C32.0331 54.1525 32.0508 54.2407 32.0852 54.3229C32.1196 54.405 32.17 54.4796 32.2334 54.5421C32.2968 54.6046 32.372 54.6539 32.4547 54.6871C32.5373 54.7204 32.6258 54.7368 32.7148 54.7356H58.1287C58.3069 54.7355 58.4779 54.6647 58.6039 54.5387C58.7299 54.4126 58.8008 54.2417 58.8008 54.0635V42.5537C58.8008 35.2627 52.8164 29.3847 45.4217 29.3847Z" fill="#D7AC43"/>
</g>
</svg>
