<svg width="60" height="60" viewBox="0 0 60 60" fill="none" xmlns="http://www.w3.org/2000/svg">
<g id="noun-publish-6210648 1">
<path id="Vector" d="M55.2337 2.62834C54.9628 2.35461 54.6225 2.15989 54.2492 2.06513C53.8759 1.97038 53.4839 1.97915 53.1152 2.09053L16.0457 13.2402C15.0476 13.5479 14.1586 14.1352 13.484 14.9325C12.8094 15.7299 12.3775 16.7039 12.2395 17.7392C12.1014 18.7745 12.263 19.8276 12.7052 20.7739C13.1473 21.7201 13.8513 22.5198 14.734 23.0782L19.1086 25.8066L7.04068 37.8746C6.73193 38.1824 6.55812 38.6004 6.55751 39.0364C6.55689 39.4724 6.72952 39.8909 7.0374 40.1996C7.34529 40.5084 7.76321 40.6822 8.19924 40.6828C8.63527 40.6834 9.05369 40.5108 9.36245 40.2029L21.9682 27.6037L23.516 28.5482C24.3285 29.057 25.2608 29.3425 26.2189 29.3759C27.177 29.4092 28.1269 29.1894 28.9728 28.7384L29.3467 28.535L29.1499 28.9089C28.6993 29.7558 28.4791 30.7063 28.5113 31.6651C28.5436 32.6239 28.8271 33.5575 29.3336 34.3722L29.4582 34.5756C29.6895 34.9443 30.0579 35.2061 30.4822 35.3033C30.9066 35.4004 31.3521 35.325 31.7209 35.0937C32.0897 34.8623 32.3514 34.494 32.4486 34.0696C32.5458 33.6453 32.4704 33.1997 32.239 32.831L32.1144 32.6342C31.9116 32.3098 31.7981 31.9375 31.7854 31.5552C31.7728 31.1728 31.8614 30.7938 32.0423 30.4567L34.0099 26.7445C34.2271 26.342 34.3086 25.8802 34.2424 25.4277C34.1762 24.9752 33.9658 24.5561 33.6424 24.2328C33.319 23.9094 32.8999 23.6989 32.4474 23.6327C31.9949 23.5665 31.5331 23.6481 31.1306 23.8653L27.4119 25.8329C27.0743 26.0182 26.6935 26.1104 26.3086 26.1C25.9236 26.0897 25.5484 25.9771 25.2213 25.7738L16.4655 20.317C16.1145 20.0918 15.835 19.7711 15.66 19.3926C15.485 19.0141 15.4217 18.5935 15.4775 18.1802C15.5332 17.7669 15.7059 17.3782 15.975 17.0596C16.2441 16.741 16.5986 16.5059 16.9967 16.3818L52.0134 5.88799L41.4868 40.8588C41.3649 41.2588 41.1308 41.6155 40.8123 41.8864C40.4937 42.1573 40.104 42.3311 39.6896 42.387C39.2752 42.443 38.8534 42.3787 38.4744 42.202C38.0954 42.0253 37.7751 41.7434 37.5516 41.39L35.866 38.6944L38.8961 35.6709C39.0485 35.5184 39.1695 35.3374 39.252 35.1382C39.3345 34.9391 39.3769 34.7256 39.3769 34.51C39.3769 34.2944 39.3345 34.0809 39.252 33.8817C39.1695 33.6825 39.0485 33.5015 38.8961 33.3491C38.7436 33.1966 38.5626 33.0757 38.3635 32.9932C38.1643 32.9107 37.9508 32.8682 37.7352 32.8682C37.5196 32.8682 37.3061 32.9107 37.1069 32.9932C36.9078 33.0757 36.7268 33.1966 36.5743 33.3491L23.7849 46.1385C23.477 46.4507 23.3058 46.8725 23.3089 47.3109C23.312 47.7494 23.4891 48.1687 23.8013 48.4766C24.1136 48.7845 24.5353 48.9558 24.9738 48.9527C25.4123 48.9496 25.8316 48.7725 26.1395 48.4602L33.4852 41.0752L34.7641 43.128C35.246 43.9131 35.921 44.5616 36.7247 45.0117C37.5284 45.4618 38.434 45.6984 39.3552 45.699C39.6052 45.7001 39.8549 45.6848 40.1029 45.6531C41.1477 45.5218 42.1313 45.088 42.933 44.4052C43.7346 43.7225 44.3193 42.8203 44.6152 41.8098L55.7649 4.74022C55.8759 4.37309 55.885 3.98273 55.7915 3.61079C55.6979 3.23886 55.5051 2.89929 55.2337 2.62834ZM32.1079 48.8997L25.077 55.9437C24.9245 56.0961 24.8036 56.2771 24.7211 56.4763C24.6386 56.6755 24.5961 56.889 24.5961 57.1045C24.5961 57.3201 24.6386 57.5336 24.7211 57.7328C24.8036 57.932 24.9245 58.113 25.077 58.2654C25.2294 58.4179 25.4104 58.5388 25.6096 58.6213C25.8088 58.7038 26.0223 58.7463 26.2379 58.7463C26.4535 58.7463 26.667 58.7038 26.8661 58.6213C27.0653 58.5388 27.2463 58.4179 27.3988 58.2654L34.4296 51.2214C34.7375 50.9135 34.9105 50.496 34.9105 50.0605C34.9105 49.6251 34.7375 49.2076 34.4296 48.8997C34.1218 48.5918 33.7042 48.4188 33.2688 48.4188C32.8333 48.4188 32.4158 48.5918 32.1079 48.8997ZM5.93227 29.9255C6.15239 29.9313 6.37135 29.8917 6.57556 29.8094C6.77977 29.727 6.96487 29.6036 7.11938 29.4467L11.6645 24.9081C11.9724 24.6002 12.1454 24.1826 12.1454 23.7472C12.1454 23.3118 11.9724 22.8942 11.6645 22.5863C11.3566 22.2784 10.9391 22.1055 10.5037 22.1055C10.0682 22.1055 9.65065 22.2784 9.34277 22.5863L4.80418 27.1249C4.57427 27.3542 4.41764 27.6467 4.35413 27.9651C4.29062 28.2836 4.32309 28.6137 4.44744 28.9137C4.57178 29.2136 4.7824 29.4699 5.05258 29.6501C5.32276 29.8302 5.64034 29.9261 5.96506 29.9255H5.93227ZM19.9875 37.4745L4.41722 53.0513C4.13798 53.3637 3.98892 53.7711 4.00064 54.1899C4.01236 54.6088 4.18398 55.0072 4.48025 55.3035C4.77652 55.5997 5.17497 55.7714 5.59379 55.7831C6.01262 55.7948 6.42005 55.6457 6.73242 55.3665L22.3092 39.7897C22.4656 39.6382 22.5903 39.4571 22.6759 39.2569C22.7615 39.0568 22.8064 38.8416 22.808 38.6239C22.8096 38.4062 22.7678 38.1903 22.6851 37.9889C22.6024 37.7875 22.4803 37.6046 22.3262 37.4509C22.172 37.2972 21.9888 37.1757 21.7872 37.0935C21.5855 37.0114 21.3696 36.9702 21.1519 36.9724C20.9342 36.9746 20.7191 37.0201 20.5192 37.1063C20.3193 37.1925 20.1385 37.3177 19.9875 37.4745Z" fill="#D7AC43"/>
</g>
</svg>
