<svg width="60" height="60" viewBox="0 0 60 60" fill="none" xmlns="http://www.w3.org/2000/svg">
<g id="noun-mentorship-960969 1">
<g id="Group">
<g id="Group_2">
<path id="Vector" d="M18.0164 30.3367H41.4858C41.8097 30.3367 42.0725 30.0739 42.0725 29.75V20.3622C42.0725 17.4509 39.7033 15.0816 36.7919 15.0816H33.7972C35.9435 13.731 37.3787 11.3465 37.3787 8.62755C37.3787 4.42184 33.9568 1 29.7511 1C25.5454 1 22.1236 4.42184 22.1236 8.62755C22.1236 11.3465 23.5575 13.731 25.705 15.0816H22.7103C19.7989 15.0816 17.4297 17.4509 17.4297 20.3622V29.75C17.4297 30.0739 17.6925 30.3367 18.0164 30.3367ZM23.297 8.62755C23.297 5.06842 26.192 2.17347 29.7511 2.17347C33.3102 2.17347 36.2052 5.06842 36.2052 8.62755C36.2052 12.1867 33.3102 15.0816 29.7511 15.0816C26.192 15.0816 23.297 12.1867 23.297 8.62755ZM18.6032 20.3622C18.6032 18.0975 20.4455 16.2551 22.7103 16.2551H36.7919C39.0567 16.2551 40.8991 18.0975 40.8991 20.3622V29.1633H18.6032V20.3622Z" fill="#D7AC43"/>
<path id="Vector_2" d="M15.6684 47.9388H14.252C15.463 46.9707 16.2551 45.4991 16.2551 43.8316C16.2551 40.9203 13.8859 38.551 10.9745 38.551C8.06311 38.551 5.69388 40.9203 5.69388 43.8316C5.69388 45.4991 6.48597 46.9707 7.69699 47.9388H6.28061C3.36923 47.9388 1 50.308 1 53.2194V57.9133C1 58.2371 1.26286 58.5 1.58673 58.5H20.3622C20.6861 58.5 20.949 58.2371 20.949 57.9133V53.2194C20.949 50.308 18.5797 47.9388 15.6684 47.9388ZM6.86735 43.8316C6.86735 41.5668 8.70969 39.7245 10.9745 39.7245C13.2393 39.7245 15.0816 41.5668 15.0816 43.8316C15.0816 46.0964 13.2393 47.9388 10.9745 47.9388C8.70969 47.9388 6.86735 46.0964 6.86735 43.8316ZM19.7755 57.3265H2.17347V53.2194C2.17347 50.9546 4.01582 49.1123 6.28061 49.1123H15.6684C17.9332 49.1123 19.7755 50.9546 19.7755 53.2194V57.3265Z" fill="#D7AC43"/>
<path id="Vector_3" d="M53.2191 47.9388H51.8039C53.0138 46.9707 53.8059 45.4991 53.8059 43.8316C53.8059 40.9203 51.4366 38.551 48.5253 38.551C45.6139 38.551 43.2447 40.9203 43.2447 43.8316C43.2447 45.4991 44.0368 46.9707 45.2466 47.9388H43.8314C40.92 47.9388 38.5508 50.308 38.5508 53.2194V57.9133C38.5508 58.2371 38.8136 58.5 39.1375 58.5H57.913C58.2369 58.5 58.4998 58.2371 58.4998 57.9133V53.2194C58.4998 50.308 56.1305 47.9388 53.2191 47.9388ZM44.4181 43.8316C44.4181 41.5668 46.2605 39.7245 48.5253 39.7245C50.7901 39.7245 52.6324 41.5668 52.6324 43.8316C52.6324 46.0964 50.7901 47.9388 48.5253 47.9388C46.2605 47.9388 44.4181 46.0964 44.4181 43.8316ZM57.3263 57.3265H39.7243V53.2194C39.7243 50.9546 41.5666 49.1123 43.8314 49.1123H53.2191C55.4839 49.1123 57.3263 50.9546 57.3263 53.2194V57.3265Z" fill="#D7AC43"/>
<path id="Vector_4" d="M36.7895 43.2449H30.3354V36.7908C30.3354 36.467 30.0725 36.2041 29.7486 36.2041C29.4248 36.2041 29.1619 36.467 29.1619 36.7908V43.2449H22.7078C22.384 43.2449 22.1211 43.5078 22.1211 43.8317C22.1211 44.1555 22.384 44.4184 22.7078 44.4184H36.7895C37.1133 44.4184 37.3762 44.1555 37.3762 43.8317C37.3762 43.5078 37.1133 43.2449 36.7895 43.2449Z" fill="#D7AC43"/>
</g>
</g>
</g>
</svg>
