<svg width="60" height="60" viewBox="0 0 60 60" fill="none" xmlns="http://www.w3.org/2000/svg">
<g id="noun-success-6627785 1">
<path id="Vector" d="M42.0896 26.4435H35.5508C35.0882 26.4435 34.7134 26.8182 34.7134 27.2809V58.0975C34.7134 58.5601 35.0882 58.9349 35.5508 58.9349H42.0896C42.5522 58.9349 42.927 58.5601 42.927 58.0975V27.2809C42.927 26.8182 42.5522 26.4435 42.0896 26.4435ZM41.2522 57.2601H36.3882V28.1183H41.2522V57.2601ZM31.5186 32.9026H24.9799C24.5173 32.9026 24.1425 33.2774 24.1425 33.74V58.0975C24.1425 58.5601 24.5173 58.9349 24.9799 58.9349H31.5186C31.9813 58.9349 32.3561 58.5601 32.3561 58.0975V33.74C32.3554 33.2774 31.9806 32.9026 31.5186 32.9026ZM30.6812 57.2601H25.8173V34.5774H30.6812V57.2601ZM20.9471 39.3617H14.4083C13.9457 39.3617 13.5709 39.7365 13.5709 40.1991V58.0975C13.5709 58.5601 13.9457 58.9349 14.4083 58.9349H20.9471C21.4097 58.9349 21.7845 58.5601 21.7845 58.0975V40.1991C21.7845 39.7365 21.4097 39.3617 20.9471 39.3617ZM20.1097 57.2601H15.2458V41.0359H20.1097V57.2601ZM10.3755 45.8201H3.83741C3.37478 45.8201 3 46.1949 3 46.6576V58.0969C3 58.5595 3.37478 58.9343 3.83741 58.9343H10.3761C10.8388 58.9343 11.2136 58.5595 11.2136 58.0969V46.6576C11.2129 46.1956 10.8381 45.8201 10.3755 45.8201ZM9.53873 57.2601H4.67418V47.495H9.5381L9.53873 57.2601ZM52.6611 19.9844H46.1224C45.6598 19.9844 45.285 20.3591 45.285 20.8218V58.0975C45.285 58.5601 45.6598 58.9349 46.1224 58.9349H52.6611C53.1238 58.9349 53.4986 58.5601 53.4986 58.0975V20.8218C53.4986 20.3591 53.1238 19.9844 52.6611 19.9844ZM51.8237 57.2601H46.9598V21.6592H51.8237V57.2601ZM6.20553 38.3903C5.9818 37.9858 6.12906 37.4764 6.53418 37.2527C17.6278 31.1285 28.4041 23.4648 35.1773 16.9229L31.4125 16.8521C30.9498 16.8433 30.582 16.4616 30.5909 15.9996C30.5997 15.5369 30.9833 15.1691 31.4434 15.178L37.2105 15.286C37.4323 15.2905 37.644 15.3821 37.7976 15.5426C37.9518 15.7025 38.0359 15.9174 38.0315 16.1392L37.9228 21.9057C37.9139 22.3677 37.5297 22.7355 37.0702 22.7273C36.6082 22.7184 36.2404 22.3367 36.2486 21.8747L36.3187 18.1503C29.3869 24.8533 18.7199 32.4387 7.34315 38.7189C7.21485 38.7897 7.07581 38.8232 6.93929 38.8232C6.64415 38.8232 6.35848 38.6671 6.20553 38.3903ZM57.2596 7.71586C57.1566 7.39796 56.8741 7.17171 56.541 7.14074L51.976 6.71603L50.1609 2.5056C50.0288 2.19845 49.7261 2 49.3918 2C49.0574 2 48.7553 2.19908 48.6226 2.5056L46.8075 6.71603L42.2419 7.14137C41.9088 7.17234 41.6263 7.3986 41.5233 7.7165C41.4203 8.03439 41.5157 8.38326 41.7666 8.60383L45.2104 11.6311L44.2036 16.1045C44.1303 16.4306 44.258 16.7694 44.5285 16.9659C44.799 17.1625 45.1605 17.1789 45.4481 17.0089L49.3911 14.6692L53.3349 17.0089C53.4669 17.0872 53.6148 17.1258 53.7621 17.1258C53.9353 17.1258 54.1084 17.0721 54.2544 16.9659C54.5249 16.7694 54.6526 16.4306 54.5793 16.1045L53.5725 11.6311L57.0163 8.60383C57.2672 8.38263 57.3633 8.03376 57.2596 7.71586ZM52.0936 10.7008C51.8636 10.9031 51.7624 11.2146 51.8294 11.5136L52.5183 14.5763L49.8177 12.9742C49.6863 12.8958 49.5384 12.8572 49.3905 12.8572C49.2426 12.8572 49.0947 12.8964 48.9633 12.9742L46.2633 14.5763L46.9522 11.513C47.0192 11.214 46.9181 10.9024 46.6881 10.7002L44.33 8.62722L47.4566 8.33586C47.7612 8.30742 48.0266 8.11466 48.148 7.83342L49.3905 4.9502L50.6337 7.83342C50.755 8.11466 51.0198 8.30742 51.3251 8.33586L54.451 8.62658L52.0936 10.7008Z" fill="#D7AC43"/>
</g>
</svg>
