<svg width="60" height="60" viewBox="0 0 60 60" fill="none" xmlns="http://www.w3.org/2000/svg">
<path d="M20.7158 50.5273C20.7158 46.6194 17.5473 45.0887 15.254 45.0887C12.9607 45.0887 9.8668 46.8718 9.8668 50.5273C9.8668 53.2332 9.41074 54.8564 9.01571 55.7552C8.81811 56.2046 9.14344 56.7057 9.63443 56.7057C9.80914 56.7057 9.97703 56.7731 10.1031 56.894L10.9088 57.666C11.1741 57.9202 11.5936 57.9166 11.8545 57.658L12.3112 57.2053C12.5855 56.9332 13.0315 56.9455 13.2906 57.232L13.5762 57.5477C13.8515 57.8522 14.3318 57.8437 14.5965 57.53L14.7737 57.32C15.0444 56.9991 15.5388 56.9991 15.8095 57.32L15.9866 57.53C16.2511 57.8437 16.7316 57.8522 17.007 57.5477L17.2925 57.232C17.5516 56.9455 17.9976 56.9334 18.2719 57.2053L18.7286 57.658C18.9895 57.9166 19.409 57.9202 19.6743 57.666L20.48 56.894C20.6061 56.7731 20.774 56.7057 20.9487 56.7057C21.4397 56.7057 21.765 56.2046 21.5674 55.7552C21.1722 54.8567 20.7161 53.2333 20.7161 50.5273H20.7158ZM18.9486 50.9983C18.9486 53.1243 17.2189 54.854 15.0929 54.854C12.9668 54.854 11.2371 53.1243 11.2371 50.9983C11.2371 50.6649 11.2841 50.343 11.3641 50.0343H14.1161C14.387 50.0343 14.6454 49.9202 14.8282 49.7202L15.1694 49.3463C15.5399 48.9403 16.1743 48.9258 16.5631 49.3146L17.0006 49.7522C17.1812 49.9327 17.4264 50.0343 17.682 50.0343H18.8217C18.9016 50.343 18.9486 50.6649 18.9486 50.9983Z" fill="#D7AC43"/>
<path d="M15.0892 13.4065C17.751 13.4065 19.9089 11.2487 19.9089 8.58688C19.9089 5.92504 17.751 3.76721 15.0892 3.76721C12.4274 3.76721 10.2695 5.92504 10.2695 8.58688C10.2695 11.2487 12.4274 13.4065 15.0892 13.4065ZM15.0892 12.4426C12.9631 12.4426 11.2335 10.7129 11.2335 8.58688C11.2335 8.42341 11.2471 8.26316 11.267 8.10491H14.8307C15.0886 8.10491 15.3356 8.00169 15.5167 7.81814L15.9166 7.41309C16.2923 7.03254 16.906 7.03053 17.2842 7.40867L17.6979 7.82236C17.8786 8.0033 18.1238 8.10492 18.3795 8.10492H18.9114C18.9313 8.26316 18.945 8.42342 18.945 8.58688C18.945 10.7129 17.2153 12.4426 15.0892 12.4426Z" fill="#D7AC43"/>
<path d="M18.9453 30.2751C18.9453 36.3975 23.9084 41.3601 30.0303 41.3601C36.1522 41.3601 41.1153 36.3971 41.1153 30.2751C41.1153 24.1532 36.1522 19.1902 30.0303 19.1902C23.9084 19.1902 18.9453 24.1532 18.9453 30.2751ZM26.4367 20.825C26.8135 21.2202 27.6803 21.7504 29.6222 21.7504C31.7279 21.7504 32.8547 21.1274 33.3612 20.7286C34.6446 21.1778 35.8076 21.8771 36.7972 22.7701H34.0807C33.8502 22.7701 33.6415 22.9059 33.548 23.1163C33.4004 23.4483 32.9885 23.566 32.6879 23.3619L32.4694 23.2137C32.327 23.1171 32.1493 23.0884 31.9838 23.135L29.5264 23.828C29.3659 23.8732 29.2324 23.9851 29.1599 24.1351L28.6331 25.2231C28.5797 25.3334 28.4931 25.4239 28.3853 25.4822L27.3057 26.0652C27.1171 26.167 26.9997 26.364 26.9997 26.5783V26.5945C26.9997 26.9166 27.2607 27.1775 27.5828 27.1775H29.3643C29.5956 27.1775 29.7832 27.3651 29.7832 27.5964C29.7832 27.8278 29.9708 28.0153 30.2021 28.0153H30.6604C30.8917 28.0153 31.0793 27.8278 31.0793 27.5964V27.1046L32.7184 28.0153L32.7913 28.9624L32.2814 28.4525H29.9926C28.7277 28.4525 27.5132 28.9479 26.6091 29.8326C26.3231 30.1125 26.1618 30.4959 26.1618 30.8961C26.1618 31.2907 26.3187 31.6691 26.5976 31.9482L26.6912 32.042C26.9703 32.321 27.3487 32.4778 27.7433 32.4778H28.5283C28.94 32.4778 29.2738 32.8116 29.2738 33.2232V33.5887L28.6247 35.6341C28.4767 36.1006 28.601 36.6107 28.947 36.9567C29.1926 37.2023 29.526 37.3405 29.8734 37.3405C31.0119 37.3405 32.0389 36.6567 32.4779 35.6062L32.7598 34.9314C33.3816 33.444 33.7016 31.848 33.7016 30.2359H34.0477C34.2991 30.2359 34.5029 30.0321 34.5029 29.7806V29.4181C34.5029 29.1667 34.7067 28.9629 34.9582 28.9629C35.2096 28.9629 35.4134 28.759 35.4134 28.5076V27.3238L38.258 30.1684C38.7555 30.6658 39.4166 30.9593 40.1144 31.003C39.824 35.0549 37.1435 38.4466 33.4743 39.7807C33.1275 39.3817 32.276 38.8007 30.2411 38.8007C28.2179 38.8007 27.1007 39.3751 26.5669 39.7739C26.0198 39.5737 25.4943 39.3313 24.9959 39.044V38.1794C24.9959 37.8927 24.9209 37.6109 24.7788 37.3619L23.6104 35.3172C23.4682 35.0682 23.3933 34.7865 23.3933 34.4997V33.6348C23.3933 33.1869 23.2109 32.7584 22.8884 32.4477C22.5814 32.1521 22.1717 31.9868 21.7454 31.9868H20.0649C20.0436 31.8621 20.0241 31.7368 20.0073 31.6105L20.9658 30.7137C21.5709 30.1475 21.9679 29.3943 22.0932 28.5751C22.2695 27.4214 22.9809 26.4189 24.0116 25.8717L24.8695 25.416C25.3284 25.1724 25.6154 24.6953 25.6154 24.1756C25.6154 23.4 24.9867 22.7712 24.2109 22.7712H23.2634C24.185 21.9389 25.2569 21.2755 26.4368 20.8253L26.4367 20.825Z" fill="#D7AC43"/>
<path d="M50.0729 4.40983C50.0729 3.07899 48.9942 2 47.6631 2C46.332 2 45.2533 3.07899 45.2533 4.40983C45.2533 4.57571 45.2701 4.73777 45.3021 4.89421C45.2856 4.89401 45.2697 4.8918 45.2533 4.8918C42.5914 4.8918 40.4336 7.04962 40.4336 9.71147C40.4336 12.3733 42.5914 14.5311 45.2533 14.5311C47.9151 14.5311 50.0729 12.3733 50.0729 9.71147C50.0729 8.47625 49.6044 7.35325 48.8403 6.50036C49.5727 6.08687 50.0729 5.31089 50.0729 4.40983ZM45.2533 13.5669C43.2334 13.5669 41.5744 12.0048 41.4134 10.0257C43.7526 9.77346 44.7998 8.32315 45.2597 7.20498C45.6848 8.5583 46.6909 10.2143 49.0572 10.3137C48.7664 12.154 47.1739 13.5669 45.2533 13.5669Z" fill="#D7AC43"/>
<path d="M46.2454 46.1802C43.5836 46.1802 41.4258 48.3381 41.4258 50.9999C41.4258 53.6618 43.5836 55.8196 46.2454 55.8196C48.9073 55.8196 51.0651 53.6618 51.0651 50.9999C51.0651 48.3381 48.9073 46.1802 46.2454 46.1802ZM46.2454 54.8556C44.4401 54.8556 42.9249 53.6067 42.5076 51.9287C45.5082 51.8837 46.9331 50.6219 47.6058 49.3746C48.044 50.0309 48.8017 50.6147 50.0879 50.7376C50.0937 50.8246 50.1012 50.9113 50.1012 50.9999C50.1012 53.1259 48.3715 54.8556 46.2454 54.8556Z" fill="#D7AC43"/>
<path d="M58.2995 24.9737C58.2995 23.6429 57.2207 22.5639 55.8897 22.5639C54.5586 22.5639 53.4798 23.6429 53.4798 24.9737C53.4798 25.1396 53.4967 25.3017 53.5286 25.4581C53.5122 25.4579 53.4963 25.4557 53.4798 25.4557C50.818 25.4557 48.6602 27.6135 48.6602 30.2754C48.6602 32.9372 50.818 35.095 53.4798 35.095C56.1417 35.095 58.2995 32.9372 58.2995 30.2754C58.2995 29.0402 57.831 27.9172 57.0668 27.0643C57.7992 26.6508 58.2995 25.8748 58.2995 24.9737ZM53.4798 34.1309C51.46 34.1309 49.801 32.5687 49.64 30.5896C51.9791 30.3374 53.0264 28.8871 53.4863 27.7689C53.9114 29.1222 54.9175 30.7782 57.2837 30.8776C56.993 32.7179 55.4004 34.1309 53.4798 34.1309Z" fill="#D7AC43"/>
<path d="M12.6228 32.4863C12.7027 33.0154 12.7581 33.5779 12.7581 34.1296C12.7581 34.5573 13.1048 34.9043 13.5327 34.9043C13.9606 34.9043 14.3072 34.5575 14.3072 34.1296C14.3072 33.2609 14.192 32.3819 14.047 31.6185C14.1885 31.6852 14.3361 31.7485 14.4972 31.8033C14.5801 31.8316 14.6645 31.8451 14.7474 31.8451C15.0697 31.8451 15.3708 31.6424 15.4804 31.3203C15.6186 30.9153 15.4025 30.4752 14.9975 30.3371C13.6907 29.8913 13.4935 28.7906 13.4871 28.7534C13.4815 28.7125 13.4724 28.6721 13.4604 28.6325C12.7637 26.3737 10.4332 25.504 9.60182 25.2604C9.22769 24.6362 8.49208 24.0976 7.25727 24.0976C5.72824 24.0976 5.00526 24.8947 4.42433 25.5353C3.92008 26.0914 3.58671 26.4587 2.75573 26.4587C2.32778 26.4587 1.98098 26.8055 1.98098 27.2332C1.98098 27.661 2.3276 28.0078 2.75573 28.0078C3.08326 28.0078 3.3674 27.9652 3.62748 27.9007C3.28488 28.1532 2.95391 28.2877 2.75573 28.2877C2.32778 28.2877 1.98098 28.6345 1.98098 29.0622C1.98098 29.49 2.3276 29.8368 2.75573 29.8368C2.99912 29.8368 3.27563 29.7811 3.56425 29.6779C3.56164 29.6986 3.55722 29.7187 3.55481 29.7394C3.23852 29.9577 2.93969 30.0687 2.75575 30.0687C2.3278 30.0687 1.981 30.4155 1.981 30.8433C1.981 31.271 2.32762 31.6178 2.75575 31.6178C3.01902 31.6178 3.32084 31.5527 3.63496 31.432C3.04513 31.9592 2.34591 32.294 1.77454 32.294C1.3468 32.294 1 32.6408 1 33.0685C1 33.4963 1.34682 33.8431 1.77454 33.8431C2.54286 33.8431 3.33992 33.5485 4.05323 33.0659C3.72449 33.492 3.31961 33.812 2.85836 33.9828C2.45732 34.1314 2.2527 34.5772 2.4013 34.9783C2.51717 35.2908 2.81298 35.4839 3.12787 35.4839C3.21744 35.4839 3.30841 35.4683 3.39717 35.4354C4.13881 35.1606 4.78421 34.6636 5.29029 34.0035C6.12148 34.6855 7.18422 35.0949 8.34315 35.0949C10.2074 35.0949 11.8211 34.0346 12.6228 32.4861L12.6228 32.4863ZM8.34313 34.1312C7.36918 34.1312 6.48112 33.7653 5.80174 33.1677C5.4965 32.8992 5.23485 32.5837 5.02659 32.2321C4.91433 32.0427 4.81834 31.8433 4.73962 31.635C4.65407 31.4093 4.5894 31.174 4.54743 30.9304C4.5157 30.7462 4.49662 30.558 4.49221 30.3659C4.4912 30.3356 4.48739 30.306 4.48739 30.2755C4.48739 30.1679 4.49482 30.0622 4.50345 29.9568C4.56591 29.9536 4.62695 29.949 4.6872 29.944C5.04145 29.9142 5.36375 29.856 5.65273 29.7707C5.90858 29.6951 6.13791 29.5983 6.34779 29.4877C7.53865 28.8591 8.02565 27.7281 8.21803 26.8051C8.27646 27.6118 8.50821 28.524 9.22114 28.8579C9.61796 29.0439 9.92802 29.3708 10.0532 29.7908C10.2572 30.4746 10.7675 31.3999 11.9872 31.524C11.4673 33.0382 10.0321 34.1313 8.34316 34.1313L8.34313 34.1312Z" fill="#D7AC43"/>
<path d="M21.6851 10.0328H22.1671C22.4335 10.0328 22.649 9.8169 22.649 9.55081C22.649 9.28473 22.4335 9.06885 22.1671 9.06885H21.6851C21.4186 9.06885 21.2031 9.28473 21.2031 9.55081C21.2031 9.8169 21.4188 10.0328 21.6851 10.0328Z" fill="#D7AC43"/>
<path d="M24.1304 10.0328H24.6124C24.8789 10.0328 25.0943 9.8169 25.0943 9.55081C25.0943 9.28473 24.8789 9.06885 24.6124 9.06885H24.1304C23.8639 9.06885 23.6484 9.28473 23.6484 9.55081C23.6484 9.8169 23.8641 10.0328 24.1304 10.0328Z" fill="#D7AC43"/>
<path d="M26.5757 10.0328H27.0577C27.3242 10.0328 27.5397 9.8169 27.5397 9.55081C27.5397 9.28473 27.3242 9.06885 27.0577 9.06885H26.5757C26.3092 9.06885 26.0938 9.28473 26.0938 9.55081C26.0938 9.8169 26.3094 10.0328 26.5757 10.0328Z" fill="#D7AC43"/>
<path d="M29.021 10.0328H29.503C29.7695 10.0328 29.985 9.8169 29.985 9.55081C29.985 9.28473 29.7695 9.06885 29.503 9.06885H29.021C28.7545 9.06885 28.5391 9.28473 28.5391 9.55081C28.5391 9.8169 28.7547 10.0328 29.021 10.0328Z" fill="#D7AC43"/>
<path d="M31.4702 10.0328H31.9522C32.2187 10.0328 32.4342 9.8169 32.4342 9.55081C32.4342 9.28473 32.2187 9.06885 31.9522 9.06885H31.4702C31.2038 9.06885 30.9883 9.28473 30.9883 9.55081C30.9883 9.8169 31.204 10.0328 31.4702 10.0328Z" fill="#D7AC43"/>
<path d="M33.9156 10.0328H34.3975C34.664 10.0328 34.8795 9.8169 34.8795 9.55081C34.8795 9.28473 34.664 9.06885 34.3975 9.06885H33.9156C33.6491 9.06885 33.4336 9.28473 33.4336 9.55081C33.4336 9.8169 33.6493 10.0328 33.9156 10.0328Z" fill="#D7AC43"/>
<path d="M36.3609 10.0328H36.8428C37.1093 10.0328 37.3248 9.8169 37.3248 9.55081C37.3248 9.28473 37.1093 9.06885 36.8428 9.06885H36.3609C36.0944 9.06885 35.8789 9.28473 35.8789 9.55081C35.8789 9.8169 36.0946 10.0328 36.3609 10.0328Z" fill="#D7AC43"/>
<path d="M38.8062 10.0328H39.2882C39.5546 10.0328 39.7701 9.8169 39.7701 9.55081C39.7701 9.28473 39.5546 9.06885 39.2882 9.06885H38.8062C38.5397 9.06885 38.3242 9.28473 38.3242 9.55081C38.3242 9.8169 38.5399 10.0328 38.8062 10.0328Z" fill="#D7AC43"/>
<path d="M22.7999 49.554H22.3179C22.0514 49.554 21.8359 49.7699 21.8359 50.036C21.8359 50.3021 22.0514 50.5179 22.3179 50.5179H22.7999C23.0664 50.5179 23.2818 50.3021 23.2818 50.036C23.2818 49.7699 23.0664 49.554 22.7999 49.554Z" fill="#D7AC43"/>
<path d="M25.21 49.554H24.7281C24.4616 49.554 24.2461 49.7699 24.2461 50.036C24.2461 50.3021 24.4616 50.5179 24.7281 50.5179H25.21C25.4765 50.5179 25.692 50.3021 25.692 50.036C25.692 49.7699 25.4765 49.554 25.21 49.554Z" fill="#D7AC43"/>
<path d="M27.6202 49.554H27.1382C26.8717 49.554 26.6562 49.7699 26.6562 50.036C26.6562 50.3021 26.8717 50.5179 27.1382 50.5179H27.6202C27.8867 50.5179 28.1022 50.3021 28.1022 50.036C28.1022 49.7699 27.8867 49.554 27.6202 49.554Z" fill="#D7AC43"/>
<path d="M30.0303 49.554H29.5484C29.2819 49.554 29.0664 49.7699 29.0664 50.036C29.0664 50.3021 29.2819 50.5179 29.5484 50.5179H30.0303C30.2968 50.5179 30.5123 50.3021 30.5123 50.036C30.5123 49.7699 30.2968 49.554 30.0303 49.554Z" fill="#D7AC43"/>
<path d="M32.4405 49.554H31.9585C31.692 49.554 31.4766 49.7699 31.4766 50.036C31.4766 50.3021 31.692 50.5179 31.9585 50.5179H32.4405C32.707 50.5179 32.9225 50.3021 32.9225 50.036C32.9225 49.7699 32.707 49.554 32.4405 49.554Z" fill="#D7AC43"/>
<path d="M34.8507 49.554H34.3687C34.1022 49.554 33.8867 49.7699 33.8867 50.036C33.8867 50.3021 34.1022 50.5179 34.3687 50.5179H34.8507C35.1171 50.5179 35.3326 50.3021 35.3326 50.036C35.3326 49.7699 35.1171 49.554 34.8507 49.554Z" fill="#D7AC43"/>
<path d="M37.2608 49.554H36.7788C36.5124 49.554 36.2969 49.7699 36.2969 50.036C36.2969 50.3021 36.5124 50.5179 36.7788 50.5179H37.2608C37.5273 50.5179 37.7428 50.3021 37.7428 50.036C37.7428 49.7699 37.5273 49.554 37.2608 49.554Z" fill="#D7AC43"/>
<path d="M39.6671 49.554H39.1851C38.9186 49.554 38.7031 49.7699 38.7031 50.036C38.7031 50.3021 38.9186 50.5179 39.1851 50.5179H39.6671C39.9335 50.5179 40.149 50.3021 40.149 50.036C40.149 49.7699 39.9335 49.554 39.6671 49.554Z" fill="#D7AC43"/>
<path d="M17.9796 28.8295H17.4976C17.2311 28.8295 17.0156 29.0453 17.0156 29.3114C17.0156 29.5775 17.2311 29.7934 17.4976 29.7934H17.9796C18.246 29.7934 18.4615 29.5775 18.4615 29.3114C18.4615 29.0453 18.246 28.8295 17.9796 28.8295Z" fill="#D7AC43"/>
<path d="M15.0913 29.7934H15.5733C15.8398 29.7934 16.0553 29.5775 16.0553 29.3114C16.0553 29.0453 15.8398 28.8295 15.5733 28.8295H15.0913C14.8249 28.8295 14.6094 29.0453 14.6094 29.3114C14.6094 29.5775 14.8249 29.7934 15.0913 29.7934Z" fill="#D7AC43"/>
<path d="M42.5601 28.8295C42.2936 28.8295 42.0781 29.0453 42.0781 29.3114C42.0781 29.5775 42.2936 29.7934 42.5601 29.7934H43.0421C43.3085 29.7934 43.524 29.5775 43.524 29.3114C43.524 29.0453 43.3085 28.8295 43.0421 28.8295H42.5601Z" fill="#D7AC43"/>
<path d="M45.9693 29.3114C45.9693 29.0453 45.7539 28.8295 45.4874 28.8295H45.0054C44.7389 28.8295 44.5234 29.0453 44.5234 29.3114C44.5234 29.5775 44.7389 29.7934 45.0054 29.7934H45.4874C45.7539 29.7934 45.9693 29.5775 45.9693 29.3114Z" fill="#D7AC43"/>
<path d="M48.4147 29.3114C48.4147 29.0453 48.1992 28.8295 47.9327 28.8295H47.4507C47.1842 28.8295 46.9688 29.0453 46.9688 29.3114C46.9688 29.5775 47.1842 29.7934 47.4507 29.7934H47.9327C48.1992 29.7934 48.4147 29.5775 48.4147 29.3114Z" fill="#D7AC43"/>
<path d="M11.6817 41.5124C11.766 41.6823 11.9367 41.7807 12.1142 41.7807C12.1857 41.7807 12.2588 41.7647 12.3275 41.7309C12.5661 41.6128 12.6641 41.3239 12.546 41.0851L12.3323 40.6529C12.2136 40.4144 11.9257 40.3164 11.6865 40.4345C11.4479 40.5525 11.3499 40.8415 11.468 41.0803L11.6817 41.5124Z" fill="#D7AC43"/>
<path d="M10.6187 39.3518C10.7025 39.5219 10.8734 39.6205 11.0513 39.6205C11.1228 39.6205 11.1953 39.6044 11.264 39.5709C11.5025 39.453 11.6009 39.164 11.4829 38.9254L11.2696 38.4933C11.1519 38.2549 10.8639 38.1573 10.6243 38.2742C10.3858 38.3921 10.2874 38.681 10.4054 38.9196L10.6187 39.3518Z" fill="#D7AC43"/>
<path d="M12.7554 43.6721C12.8392 43.8422 13.0101 43.9408 13.188 43.9408C13.2595 43.9408 13.332 43.9247 13.4007 43.8912C13.6392 43.7733 13.7377 43.4843 13.6196 43.2457L13.4063 42.8136C13.289 42.5752 13.0006 42.4776 12.7611 42.5945C12.5225 42.7124 12.4241 43.0013 12.5422 43.2399L12.7554 43.6721Z" fill="#D7AC43"/>
<path d="M10.1995 36.3316C10.0808 36.093 9.79285 35.995 9.55371 36.1131C9.31513 36.2312 9.21713 36.5202 9.33522 36.7589L9.54888 37.1911C9.63323 37.361 9.80392 37.4594 9.98145 37.4594C10.0529 37.4594 10.126 37.4433 10.1947 37.4096C10.4333 37.2915 10.5313 37.0025 10.4132 36.7638L10.1995 36.3316Z" fill="#D7AC43"/>
<path d="M47.1712 45.0401C47.2399 45.074 47.3124 45.0899 47.3839 45.0899C47.5618 45.0899 47.7327 44.9913 47.8165 44.8212L47.943 44.5647C48.0611 44.3262 47.9627 44.0372 47.7241 43.9195C47.4863 43.8014 47.1965 43.8998 47.0788 44.1384L46.9523 44.3948C46.8342 44.6334 46.9327 44.9224 47.1712 45.0401Z" fill="#D7AC43"/>
<path d="M50.9291 37.4384C50.6895 37.3203 50.4015 37.4187 50.2833 37.6569L50.0696 38.0891C49.9515 38.3276 50.0493 38.6166 50.2881 38.7349C50.3568 38.7688 50.4297 38.7847 50.5014 38.7847C50.6789 38.7847 50.8496 38.6863 50.934 38.5164L51.1476 38.0842C51.2655 37.8457 51.1677 37.5565 50.9291 37.4384Z" fill="#D7AC43"/>
<path d="M49.2221 40.8953C49.2908 40.929 49.3633 40.9449 49.4348 40.9449C49.6127 40.9449 49.7836 40.8462 49.8674 40.6762L50.0806 40.244C50.1987 40.0054 50.1003 39.7164 49.8617 39.5985C49.6232 39.4817 49.3342 39.5791 49.2165 39.8176L49.0032 40.2498C48.8849 40.4884 48.9834 40.7774 49.2221 40.8953Z" fill="#D7AC43"/>
<path d="M51.9944 35.2772C51.7553 35.1605 51.4669 35.2577 51.3492 35.4963L51.1359 35.9284C51.0178 36.167 51.1162 36.456 51.3548 36.5739C51.4235 36.6076 51.496 36.6235 51.5675 36.6235C51.7454 36.6235 51.9163 36.5249 52 36.3548L52.2133 35.9226C52.3314 35.684 52.233 35.395 51.9944 35.2772Z" fill="#D7AC43"/>
<path d="M48.7963 41.7589C48.5567 41.6408 48.2687 41.7388 48.1505 41.9774L47.9368 42.4095C47.8187 42.6481 47.9165 42.9371 48.1553 43.0553C48.224 43.0893 48.2969 43.1051 48.3686 43.1051C48.5461 43.1051 48.7168 43.0067 48.8011 42.8368L49.0148 42.4047C49.1329 42.1659 49.0349 41.8769 48.7963 41.7589Z" fill="#D7AC43"/>
<path d="M49.6539 20.4217C49.7376 20.5918 49.9085 20.6904 50.0864 20.6904C50.1579 20.6904 50.2304 20.6743 50.2991 20.6408C50.5377 20.5229 50.6361 20.2339 50.518 19.9953L50.3047 19.5632C50.1871 19.3244 49.8985 19.2264 49.6595 19.3441C49.4209 19.462 49.3225 19.7509 49.4406 19.9895L49.6539 20.4217Z" fill="#D7AC43"/>
<path d="M49.0166 18.53C49.0881 18.53 49.1612 18.514 49.2299 18.4802C49.4684 18.3621 49.5664 18.0732 49.4483 17.8344L49.2347 17.4022C49.116 17.1637 48.828 17.0655 48.5889 17.1838C48.3503 17.3018 48.2523 17.5908 48.3704 17.8296L48.584 18.2617C48.6684 18.4316 48.8391 18.53 49.0166 18.53Z" fill="#D7AC43"/>
<path d="M47.9536 16.37C48.0251 16.37 48.0976 16.354 48.1663 16.3204C48.4049 16.2026 48.5033 15.9136 48.3852 15.675L48.1719 15.2428C48.0542 15.0041 47.7663 14.9061 47.5267 15.0237C47.2881 15.1416 47.1897 15.4306 47.3078 15.6692L47.5211 16.1013C47.605 16.2714 47.7757 16.37 47.9536 16.37Z" fill="#D7AC43"/>
<path d="M50.7168 22.5827C50.8012 22.7528 50.9715 22.8512 51.1494 22.8512C51.2209 22.8512 51.294 22.8351 51.3627 22.8014C51.6012 22.6835 51.6992 22.3943 51.5812 22.1559L51.3675 21.7236C51.2494 21.4852 50.9612 21.387 50.7217 21.5049C50.4831 21.6228 50.3851 21.9119 50.5032 22.1503L50.7168 22.5827Z" fill="#D7AC43"/>
<path d="M51.7675 24.6961C51.8512 24.8661 52.0221 24.9648 52.2001 24.9648C52.2716 24.9648 52.3447 24.9487 52.4127 24.9149C52.6513 24.7973 52.7497 24.5083 52.6316 24.2697L52.4415 23.8845C52.3238 23.646 52.0344 23.5476 51.7962 23.6656C51.5576 23.7833 51.4592 24.0723 51.5773 24.3109L51.7675 24.6961Z" fill="#D7AC43"/>
<path d="M37.7943 39.8149C37.6489 39.5928 37.3505 39.5315 37.127 39.6771C36.9049 39.8235 36.8432 40.1224 36.9896 40.3448L37.2547 40.7475C37.3469 40.8883 37.5009 40.9644 37.6575 40.9644C37.7483 40.9644 37.8401 40.9387 37.922 40.8851C38.1441 40.7387 38.2058 40.4398 38.0594 40.2173L37.7943 39.8149Z" fill="#D7AC43"/>
<path d="M39.1185 41.8286C38.9725 41.6067 38.6743 41.5451 38.4512 41.6908C38.2291 41.8372 38.1674 42.1361 38.3138 42.3586L38.5789 42.7612C38.6711 42.902 38.8251 42.9781 38.9818 42.9781C39.0725 42.9781 39.1643 42.9524 39.2462 42.8988C39.4683 42.7524 39.53 42.4535 39.3836 42.2311L39.1185 41.8286Z" fill="#D7AC43"/>
<path d="M41.1035 45.7174C40.8814 45.8638 40.8198 46.1626 40.9662 46.3851L41.0885 46.5711C41.1807 46.7118 41.3347 46.7879 41.4913 46.7879C41.5821 46.7879 41.6745 46.7622 41.7558 46.7086C41.9779 46.5622 42.0396 46.2634 41.8932 46.0409L41.7709 45.8549C41.6255 45.6328 41.326 45.5712 41.1035 45.7174Z" fill="#D7AC43"/>
<path d="M40.5695 44.9125C40.7922 44.7663 40.8539 44.4675 40.7079 44.2452L40.4434 43.8425C40.297 43.6202 39.9982 43.559 39.7761 43.7042C39.5534 43.8504 39.4917 44.1492 39.6377 44.3715L39.9022 44.7741C39.995 44.9151 40.1488 44.9916 40.3057 44.9916C40.3962 44.9916 40.488 44.9659 40.5695 44.9125Z" fill="#D7AC43"/>
<path d="M21.9298 41.691C21.7067 41.545 21.4083 41.6066 21.2625 41.8287L20.9974 42.2314C20.851 42.4537 20.9127 42.7527 21.1348 42.8991C21.2167 42.9527 21.3085 42.9784 21.3993 42.9784C21.5559 42.9784 21.7099 42.9021 21.8021 42.7615L22.0672 42.3589C22.2136 42.1362 22.1519 41.8373 21.9298 41.691Z" fill="#D7AC43"/>
<path d="M19.9383 43.8413L19.6732 44.244C19.5268 44.4663 19.5885 44.7653 19.8106 44.9117C19.8925 44.9653 19.9843 44.991 20.0751 44.991C20.2317 44.991 20.3857 44.9147 20.4779 44.7741L20.743 44.3715C20.8894 44.1492 20.8277 43.8501 20.6056 43.7038C20.3831 43.5576 20.0843 43.6192 19.9383 43.8413Z" fill="#D7AC43"/>
<path d="M23.2501 39.6772C23.027 39.5316 22.7286 39.5926 22.5828 39.815L22.3178 40.2176C22.1714 40.4399 22.233 40.7389 22.4551 40.8853C22.5371 40.9389 22.6288 40.9646 22.7196 40.9646C22.8762 40.9646 23.0303 40.8883 23.1224 40.7477L23.3875 40.3451C23.5339 40.1226 23.4722 39.8236 23.2501 39.6772Z" fill="#D7AC43"/>
<path d="M19.6159 16.2026L19.9153 16.5806C20.0103 16.7007 20.1517 16.7631 20.2936 16.7631C20.3981 16.7631 20.5041 16.729 20.5925 16.6589C20.8009 16.4936 20.8363 16.1906 20.671 15.9819L20.3716 15.604C20.2063 15.3955 19.9028 15.3598 19.6942 15.5257C19.4859 15.6907 19.4506 15.9938 19.6159 16.2026Z" fill="#D7AC43"/>
<path d="M21.4067 18.4709C21.5017 18.5914 21.6425 18.6541 21.7851 18.6541C21.8895 18.6541 21.9949 18.6201 22.0835 18.55C22.2925 18.3852 22.3277 18.0819 22.1626 17.8733L21.8638 17.4953C21.6995 17.2871 21.3965 17.2507 21.187 17.4162C20.978 17.5811 20.9428 17.8843 21.1079 18.093L21.4067 18.4709Z" fill="#D7AC43"/>
<path d="M19.0952 14.7701C19.3043 14.6052 19.3394 14.302 19.1743 14.0933L18.8755 13.7154C18.7108 13.5067 18.4082 13.4706 18.1987 13.6363C17.9897 13.8011 17.9545 14.1044 18.1196 14.313L18.4184 14.691C18.5134 14.8115 18.6542 14.8741 18.7968 14.8741C18.9014 14.8741 19.0068 14.8402 19.0952 14.7701Z" fill="#D7AC43"/>
<path d="M22.6041 19.9827L22.9035 20.3607C22.9985 20.4808 23.1399 20.5432 23.2818 20.5432C23.3863 20.5432 23.4923 20.5091 23.5807 20.439C23.7891 20.2737 23.8245 19.9707 23.6592 19.762L23.3598 19.3841C23.1951 19.1759 22.891 19.1399 22.6824 19.3058C22.4741 19.4709 22.439 19.7739 22.6041 19.9827Z" fill="#D7AC43"/>
<path d="M39.2053 16.0532L39.192 16.0737C39.048 16.2974 39.1191 16.5854 39.343 16.7296C39.4207 16.7798 39.5087 16.8033 39.5963 16.8033C39.7595 16.8033 39.922 16.7207 40.0156 16.5747C40.1596 16.351 40.0951 16.0528 39.871 15.9088C39.6477 15.7642 39.3498 15.8289 39.2053 16.0532Z" fill="#D7AC43"/>
<path d="M40.3498 14.2215L40.3365 14.242C40.1926 14.4657 40.2636 14.7537 40.4876 14.8979C40.5653 14.9481 40.6532 14.9716 40.7408 14.9716C40.9041 14.9716 41.0665 14.889 41.1601 14.743C41.3041 14.5193 41.2396 14.2211 41.0155 14.0771C40.7922 13.9325 40.4944 13.9972 40.3498 14.2215Z" fill="#D7AC43"/>
<path d="M38.0099 18.7496C38.0919 18.8032 38.1836 18.8289 38.2744 18.8289C38.431 18.8289 38.5851 18.7526 38.6772 18.612L38.9423 18.2094C39.0887 17.9871 39.0271 17.688 38.805 17.5417C38.5822 17.3955 38.2834 17.4573 38.1377 17.6794L37.8726 18.0821C37.726 18.3042 37.7876 18.6032 38.0099 18.7496Z" fill="#D7AC43"/>
<path d="M36.8094 19.6937L36.5443 20.0963C36.3979 20.3186 36.4596 20.6177 36.6817 20.764C36.7636 20.8177 36.8554 20.8434 36.9462 20.8434C37.1028 20.8434 37.2568 20.7671 37.349 20.6265L37.6141 20.2238C37.7605 20.0015 37.6988 19.7025 37.4767 19.5561C37.2536 19.4105 36.9551 19.4716 36.8094 19.6937Z" fill="#D7AC43"/>
<path d="M12.2846 20.4947C12.3533 20.5284 12.4258 20.5443 12.4973 20.5443C12.6752 20.5443 12.8461 20.4457 12.9299 20.2756L13.1431 19.8432C13.2612 19.6044 13.1628 19.3157 12.9242 19.1978C12.6851 19.0805 12.3967 19.1787 12.279 19.4169L12.0657 19.8492C11.9474 20.088 12.0459 20.3766 12.2846 20.4947Z" fill="#D7AC43"/>
<path d="M10.1517 24.8155C10.2204 24.8493 10.2929 24.8651 10.3644 24.8651C10.5423 24.8651 10.7132 24.7665 10.797 24.5964L11.0102 24.1643C11.1283 23.9257 11.0299 23.6367 10.7913 23.5188C10.5522 23.4024 10.2638 23.4996 10.1461 23.7379L9.93283 24.1701C9.81474 24.4087 9.91296 24.6977 10.1517 24.8155Z" fill="#D7AC43"/>
<path d="M13.3545 18.3331C13.4232 18.367 13.4961 18.3829 13.5678 18.3829C13.7453 18.3829 13.916 18.2845 14.0003 18.1146L14.214 17.6824C14.3321 17.4439 14.2343 17.1549 13.9955 17.0366C13.7563 16.9185 13.4679 17.0165 13.3497 17.2551L13.136 17.6873C13.0179 17.9261 13.1157 18.2151 13.3545 18.3331Z" fill="#D7AC43"/>
<path d="M11.8588 21.3577C11.6192 21.2403 11.3312 21.3377 11.213 21.5764L10.9993 22.0088C10.8812 22.2472 10.979 22.5364 11.2178 22.6543C11.2865 22.6882 11.3594 22.7041 11.4311 22.7041C11.609 22.7041 11.7793 22.6057 11.8636 22.4356L12.0773 22.0032C12.1954 21.765 12.0974 21.4758 11.8588 21.3577Z" fill="#D7AC43"/>
<path d="M14.4212 16.173C14.4899 16.2067 14.5624 16.2226 14.6339 16.2226C14.8118 16.2226 14.9827 16.1239 15.0665 15.9539L15.2797 15.5217C15.3978 15.2831 15.2994 14.9941 15.0608 14.8762C14.8213 14.7594 14.5327 14.8572 14.4156 15.0953L14.2023 15.5275C14.0842 15.7661 14.1827 16.0551 14.4212 16.173Z" fill="#D7AC43"/>
</svg>
