<svg width="60" height="60" viewBox="0 0 60 60" fill="none" xmlns="http://www.w3.org/2000/svg">
<g id="noun-growth-6623896 1">
<path id="Vector" d="M22.5316 15.9681C22.4502 15.5862 22.6944 15.2168 23.07 15.1354C32.5741 13.1194 39.1605 9.22511 44.2381 2.58233L42.629 2.75763C42.2408 2.80146 41.8965 2.51972 41.8527 2.13781C41.8088 1.74963 42.0906 1.40528 42.4725 1.36146L45.6655 1.00459C46.0537 0.960761 46.3981 1.2425 46.4419 1.62441L46.7988 4.81746C46.8426 5.20563 46.5608 5.54998 46.1789 5.59381C45.7908 5.63763 45.4464 5.35589 45.4026 4.97398L45.2461 3.57155C42.5414 7.06511 39.4109 9.8199 35.717 11.9674C32.2172 13.9959 28.1789 15.4797 23.3643 16.5065C23.3142 16.519 23.2641 16.519 23.2203 16.519C22.8947 16.5253 22.6005 16.2936 22.5316 15.9681ZM58.5442 31.9083C58.3688 32.8036 57.8179 33.5862 57.0165 34.0432L37.7894 45.1437C35.9299 46.2143 34.0704 46.7152 31.9229 46.7152H25.9125C24.4287 46.7152 23.8652 46.7966 22.9198 48.437L22.181 49.7204C22.7194 50.0648 23.1076 50.5782 23.2767 51.2043C23.452 51.8617 23.3643 52.5441 23.0262 53.1326L20.597 57.3337C20.1274 58.1476 19.2697 58.6046 18.3932 58.6046C17.9612 58.6046 17.5292 58.4982 17.1285 58.2665L2.27143 49.6891C1.6829 49.351 1.26343 48.8001 1.08812 48.149C0.912817 47.4916 1.00047 46.8091 1.33856 46.2206L3.76778 42.0196C4.45021 40.8363 5.9403 40.4168 7.14239 41.0429L7.88117 39.7594C8.03769 39.4902 8.21299 39.0895 8.41334 38.6324C9.60917 35.9215 11.9633 30.606 19.445 31.351V22.8362C19.445 21.7907 20.2965 20.9392 21.342 20.9392H26.2193C27.2648 20.9392 28.1163 21.7907 28.1163 22.8362V31.8769H30.3264V18.0529C30.3264 17.0074 31.1779 16.1559 32.2234 16.1559H37.1007C38.1462 16.1559 38.9977 17.0074 38.9977 18.0529V34.8696L41.2078 33.5924V13.2696C41.2078 12.2241 42.0593 11.3726 43.1048 11.3726H47.9821C49.0276 11.3726 49.8791 12.2241 49.8791 13.2696V28.615C53.7796 26.6241 56.5782 27.6509 57.9243 29.3601C58.4878 30.0801 58.7195 31.0067 58.5442 31.9083ZM42.6102 32.7785L48.4704 29.3976V13.2696C48.4704 13.0004 48.2513 12.775 47.9758 12.775H43.0986C42.8294 12.775 42.604 12.9942 42.604 13.2696V32.7785H42.6102ZM31.7288 18.0529V31.8895C34.6902 31.9896 36.5622 33.0164 37.589 34.3312V18.0529C37.589 17.7837 37.3699 17.5583 37.0944 17.5583H32.2172C31.948 17.5583 31.7288 17.7775 31.7288 18.0529ZM20.8537 31.5451C21.3358 31.6328 21.8241 31.7392 22.3438 31.8769H26.7139V22.8362C26.7139 22.567 26.4947 22.3416 26.2193 22.3416H21.3483C21.0791 22.3416 20.8537 22.5608 20.8537 22.8362V31.5451ZM21.918 51.5674C21.8367 51.2731 21.6488 51.029 21.3921 50.8787L6.53508 42.3013C6.35978 42.2011 6.16569 42.151 5.9716 42.151C5.87143 42.151 5.77125 42.1636 5.67108 42.1886C5.37682 42.27 5.13265 42.4578 4.98238 42.7145L2.55317 46.9156C2.4029 47.1785 2.36534 47.4853 2.44047 47.7796C2.52186 48.0738 2.70969 48.318 2.96638 48.4683L17.8234 57.0457C18.0864 57.1959 18.3932 57.2335 18.6874 57.1584C18.9817 57.077 19.2259 56.8891 19.3761 56.6324L21.8053 52.4314C21.9619 52.1684 21.9994 51.8617 21.918 51.5674ZM56.8161 30.2303C55.7581 28.8905 53.3977 28.1768 49.9417 30.174L38.5782 36.7291C38.6596 37.5869 38.3904 38.4383 37.8269 39.0832C37.2321 39.7719 36.3556 40.1726 35.4415 40.1726H25.7497C25.3615 40.1726 25.0485 39.8596 25.0485 39.4714C25.0485 39.0832 25.3615 38.7702 25.7497 38.7702H35.4415C35.9549 38.7702 36.437 38.551 36.7688 38.1691C37.1007 37.7872 37.2447 37.2801 37.1758 36.773C36.9316 35.0888 35.2474 33.2856 31.253 33.2856H22.2499C22.1873 33.2856 22.1247 33.2794 22.0683 33.2606C13.3532 30.919 11.068 36.103 9.70308 39.1959C9.48395 39.6968 9.29613 40.1225 9.10204 40.4606L8.36952 41.7316L20.9727 49.013L21.7052 47.742C23.0137 45.4818 24.1657 45.319 25.9125 45.319H31.9229C33.8387 45.319 35.429 44.8933 37.0881 43.9354L56.3153 32.8349C56.7598 32.5782 57.0666 32.1462 57.1605 31.6516C57.2607 31.1444 57.1355 30.631 56.8161 30.2303Z" fill="#D7AC43"/>
</g>
</svg>
