<svg width="32" height="32" viewBox="0 0 32 32" fill="none" xmlns="http://www.w3.org/2000/svg">
<g id="simple-icons:icon" clip-path="url(#clip0_2134_2660)">
<path id="Vector" d="M2.57013 31.9135C1.95076 31.7894 1.38197 31.4848 0.935429 31.038C0.488884 30.5912 0.184559 30.0222 0.0607941 29.4028C-0.0411791 28.8872 -0.0145566 28.3543 0.138309 27.8514C0.291174 27.3485 0.565575 26.891 0.937258 26.5193C1.30894 26.1476 1.76646 25.8732 2.26938 25.7203C2.77231 25.5675 3.30514 25.5408 3.82079 25.6428C4.43998 25.7668 5.00864 26.0712 5.45517 26.5178C5.9017 26.9643 6.20613 27.5329 6.33013 28.1521C6.4321 28.6678 6.40548 29.2006 6.25261 29.7035C6.09975 30.2065 5.82535 30.664 5.45366 31.0357C5.08198 31.4074 4.62446 31.6818 4.12154 31.8346C3.61862 31.9875 3.08578 32.0154 2.57013 31.9135ZM28.1808 6.35747C27.5616 6.23347 26.9929 5.92904 26.5464 5.48251C26.0999 5.03599 25.7955 4.46733 25.6715 3.84814C25.5695 3.33248 25.5961 2.79965 25.749 2.29673C25.9018 1.79381 26.1762 1.33629 26.5479 0.964602C26.9196 0.592919 27.3771 0.318518 27.8801 0.165653C28.383 0.0127872 28.9158 -0.0138353 29.4315 0.0881379C30.0507 0.212139 30.6193 0.516569 31.0658 0.963095C31.5124 1.40962 31.8168 1.97828 31.9408 2.59747C32.0428 3.11313 32.0161 3.64596 31.8633 4.14888C31.7104 4.6518 31.436 5.10932 31.0643 5.48101C30.6926 5.85269 30.2351 6.12709 29.7322 6.27996C29.2293 6.43282 28.6964 6.45944 28.1808 6.35747ZM16.0288 8.01347C17.5581 8.01347 18.9875 8.44547 20.2021 9.19081L23.6488 5.74414C21.1879 3.91464 18.1512 3.03116 15.0929 3.25499C12.0347 3.47881 9.15891 4.79501 6.99062 6.9633C4.82233 9.13159 3.50613 12.0073 3.28231 15.0656C3.05849 18.1238 3.94196 21.1606 5.77146 23.6215L9.21946 20.1735C8.47762 18.963 8.07183 17.5767 8.0439 16.1573C8.01597 14.7379 8.3669 13.3366 9.06054 12.0979C9.75419 10.8592 10.7655 9.82782 11.9903 9.1099C13.2151 8.39198 14.6091 8.01351 16.0288 8.01347ZM22.8381 11.8268C23.7754 13.3564 24.1704 15.157 23.9595 16.9384C23.7486 18.7199 22.9441 20.3785 21.6756 21.647C20.4072 22.9155 18.7486 23.7199 16.9671 23.9308C15.1856 24.1417 13.3851 23.7467 11.8555 22.8095L8.40746 26.2561C10.8683 28.0856 13.9051 28.9691 16.9633 28.7453C20.0216 28.5215 22.8973 27.2053 25.0656 25.037C27.2339 22.8687 28.5501 19.9929 28.7739 16.9347C28.9978 13.8764 28.1143 10.8397 26.2848 8.37881L22.8381 11.8268Z" fill="#FFBD00"/>
</g>
<defs>
<clipPath id="clip0_2134_2660">
<rect width="32" height="32" fill="white"/>
</clipPath>
</defs>
</svg>
