<svg width="20" height="20" viewBox="0 0 20 20" fill="none" xmlns="http://www.w3.org/2000/svg">
<path fill-rule="evenodd" clip-rule="evenodd" d="M1.0625 10.1836C1.0625 6.58845 1.0625 4.79088 1.91919 3.49615C2.30175 2.91798 2.79689 2.42284 3.37505 2.04029C4.66979 1.18359 6.46736 1.18359 10.0625 1.18359C13.6576 1.18359 15.4552 1.18359 16.7499 2.04029C17.3281 2.42284 17.8233 2.91798 18.2058 3.49615C19.0625 4.79088 19.0625 6.58845 19.0625 10.1836C19.0625 13.7787 19.0625 15.5763 18.2058 16.871C17.8233 17.4492 17.3281 17.9443 16.7499 18.3269C15.4552 19.1836 13.6576 19.1836 10.0625 19.1836C6.46736 19.1836 4.66979 19.1836 3.37505 18.3269C2.79689 17.9443 2.30175 17.4492 1.91919 16.871C1.0625 15.5763 1.0625 13.7787 1.0625 10.1836ZM14.7211 10.1839C14.7211 12.7572 12.635 14.8433 10.0617 14.8433C7.48841 14.8433 5.40232 12.7572 5.40232 10.1839C5.40232 7.61056 7.48841 5.52447 10.0617 5.52447C12.635 5.52447 14.7211 7.61056 14.7211 10.1839ZM10.0617 13.2669C11.7644 13.2669 13.1447 11.8866 13.1447 10.1839C13.1447 8.48119 11.7644 7.10088 10.0617 7.10088C8.35903 7.10088 6.97872 8.48119 6.97872 10.1839C6.97872 11.8866 8.35903 13.2669 10.0617 13.2669ZM14.9052 6.3852C15.5098 6.3852 16 5.89503 16 5.29038C16 4.68573 15.5098 4.19556 14.9052 4.19556C14.3005 4.19556 13.8103 4.68573 13.8103 5.29038C13.8103 5.89503 14.3005 6.3852 14.9052 6.3852Z" fill="#D9D9D9"/>
</svg>
