<svg width="20" height="20" viewBox="0 0 20 20" fill="none" xmlns="http://www.w3.org/2000/svg">
<path d="M17.8045 0.789062H1.61367C0.838086 0.789062 0.210938 1.40137 0.210938 2.1584V18.416C0.210938 19.173 0.838086 19.7891 1.61367 19.7891H17.8045C18.5801 19.7891 19.2109 19.173 19.2109 18.4197V2.1584C19.2109 1.40137 18.5801 0.789062 17.8045 0.789062ZM5.84785 16.9799H3.02754V7.91035H5.84785V16.9799ZM4.4377 6.67461C3.53223 6.67461 2.80117 5.94355 2.80117 5.0418C2.80117 4.14004 3.53223 3.40898 4.4377 3.40898C5.33945 3.40898 6.07051 4.14004 6.07051 5.0418C6.07051 5.93984 5.33945 6.67461 4.4377 6.67461ZM16.4018 16.9799H13.5852V12.5713C13.5852 11.5211 13.5666 10.1666 12.1193 10.1666C10.6535 10.1666 10.4309 11.3133 10.4309 12.4971V16.9799H7.61797V7.91035H10.3195V9.14981H10.3566C10.7314 8.43731 11.6518 7.68398 13.0211 7.68398C15.8748 7.68398 16.4018 9.56172 16.4018 12.0035V16.9799V16.9799Z" fill="#D9D9D9"/>
</svg>
