<svg width="114" height="49" viewBox="0 0 114 49" fill="none" xmlns="http://www.w3.org/2000/svg">
<g id="Vector">
<path d="M27.8307 18.2405C26.6636 15.5546 24.6534 13.3155 22.1407 11.8525C20.1249 10.6743 17.7797 10.0043 15.2837 10.0043C12.7877 10.0043 10.4872 10.6632 8.48256 11.819C8.77851 12.9358 9.50442 13.8962 10.5989 14.7952C12.0004 14.0526 13.5862 13.6338 15.2781 13.6338C18.3493 13.6338 21.0909 15.013 22.9392 17.1907C23.2128 17.5257 23.4753 17.8719 23.7098 18.2405C24.5306 19.4968 25.0722 20.9487 25.2453 22.5066C25.2956 22.8918 25.3179 23.2771 25.3179 23.6736C25.3179 27.7387 22.8945 31.2397 19.4102 32.8144C18.1482 33.3951 16.7467 33.7134 15.2725 33.7134C10.3364 33.7134 6.21552 30.1285 5.38911 25.4269C4.04898 24.6005 2.77585 23.6624 1.64233 22.5959C1.61441 22.9533 1.59766 23.3051 1.59766 23.668C1.59766 26.4488 2.42966 29.0453 3.87029 31.2062C4.2835 31.8372 4.75813 32.4347 5.27184 32.9819C7.76783 35.6622 11.3303 37.3373 15.2725 37.3373C17.6066 37.3373 19.8067 36.751 21.7387 35.7124C25.5915 33.6352 28.3444 29.76 28.8525 25.2203C28.9195 24.7122 28.9474 24.1873 28.9474 23.668C28.9474 21.736 28.551 19.9045 27.8251 18.2349L27.8307 18.2405Z" fill="white"/>
<path d="M24.999 3.58282V11.2662C24.8594 10.8084 24.703 10.3617 24.5188 9.92612C22.8268 5.90015 19.4039 2.85693 13.9262 2.85693C8.44839 2.85693 5.61737 6.224 5.4331 10.2276C5.42752 10.3561 5.42751 10.4901 5.42751 10.6185C5.42751 11.2327 5.49452 11.8135 5.62295 12.3663C5.88539 13.5445 6.42703 14.5551 7.18085 15.4709C7.44887 15.8115 7.76157 16.141 8.0966 16.4481C8.25853 16.5933 8.41489 16.7384 8.58799 16.8836C9.12962 17.3415 9.73268 17.777 10.3804 18.1846C12.2007 19.3517 14.3561 20.3456 16.5729 21.373C18.5329 22.2497 20.5375 23.1487 22.4025 24.1873C22.2517 26.2645 21.2075 28.1518 19.5603 29.3859C17.8684 28.3249 15.9196 27.4148 13.9317 26.4823C11.6814 25.4604 9.37531 24.4274 7.29811 23.1878C7.01334 23.0203 6.73414 22.8527 6.46611 22.6741C5.86864 22.2888 5.29909 21.8812 4.76304 21.4456C4.42243 21.1832 4.09298 20.904 3.78586 20.6025C1.50765 18.4694 0 15.7333 0 11.8805C0 7.36871 2.71934 0.20459 13.4739 0.20459C16.8577 0.20459 21.3639 0.930515 25.0101 3.57727L24.999 3.58282Z" fill="white"/>
<path d="M30.7174 36.1814C30.7174 43.5465 25.0721 48.7954 15.1831 48.7954C11.2855 48.7954 6.81845 47.7065 3.57422 45.5344V39.0348C5.58999 43.6359 10.0738 46.0034 15.4511 46.0034C20.8284 46.0034 25.0107 43.0886 25.0107 37.7114C25.0107 37.5104 25.0051 37.315 24.9883 37.1139C27.0265 35.6454 28.6793 33.7524 29.8575 31.5859C30.4103 32.926 30.723 34.4448 30.723 36.187L30.7174 36.1814Z" fill="white"/>
<path d="M27.5853 0.210205V12.517H25V3.58285L25.0056 3.58844V3.51026L25 0.210205H27.5853Z" fill="white"/>
<path d="M3.56971 36.483V48.7899H0.984375V39.8557L0.989956 39.8613V39.7831L0.984375 36.483H3.56971Z" fill="white"/>
<path d="M25.0056 3.58844C25.0056 3.58844 25 3.58843 25 3.58285V3.51025V3.58844L25.0056 3.58844Z" fill="white"/>
<path d="M36.2341 24.5391C36.2341 24.5391 36.2285 24.5391 36.2285 24.5335V24.4609V24.5391H36.2341Z" fill="white"/>
<path d="M38.1945 40.2745C38.1945 41.9385 39.1549 42.8487 40.5341 42.8487C41.8296 42.8487 42.6169 42.134 42.6169 40.939V40.9111H40.361V39.7552H43.8342V43.9487H42.7342L42.6504 43.0888C42.2428 43.6583 41.3941 44.0604 40.3834 44.0604C38.2894 44.0604 36.832 42.5416 36.832 40.241C36.832 37.9405 38.3118 36.3602 40.5565 36.3602C42.2595 36.3602 43.5773 37.3486 43.7951 38.873H42.4159C42.1814 37.9963 41.4276 37.5887 40.5285 37.5887C39.0488 37.5887 38.2001 38.6608 38.2001 40.2745H38.1945Z" fill="white"/>
<path d="M45.0742 43.9486V36.3545H46.3083V43.9486H45.0742Z" fill="white"/>
<path d="M50.0154 38.7668C51.5789 38.7668 52.7124 39.8501 52.7124 41.4192C52.7124 42.9882 51.5789 44.0715 50.0154 44.0715C48.4519 44.0715 47.3184 42.9882 47.3184 41.4192C47.3184 39.8501 48.4519 38.7668 50.0154 38.7668ZM50.0154 42.9603C50.8753 42.9603 51.4672 42.3349 51.4672 41.4192C51.4672 40.5034 50.8753 39.878 50.0154 39.878C49.1555 39.878 48.5636 40.5034 48.5636 41.4192C48.5636 42.3349 49.1555 42.9603 50.0154 42.9603Z" fill="white"/>
<path d="M53.7067 43.9486V36.3545H54.9519V39.6434C55.2814 39.0795 55.9514 38.7445 56.7164 38.7445C58.157 38.7445 59.0337 39.8668 59.0337 41.4582C59.0337 43.0496 58.0845 44.0826 56.6327 44.0826C55.8788 44.0826 55.2367 43.7476 54.9407 43.1613L54.857 43.9486H53.7011H53.7067ZM56.3814 42.9379C57.258 42.9379 57.7829 42.307 57.7829 41.408C57.7829 40.509 57.2636 39.8668 56.3814 39.8668C55.4991 39.8668 54.9631 40.4978 54.9631 41.408C54.9631 42.3181 55.527 42.9379 56.3814 42.9379Z" fill="white"/>
<path d="M59.7988 42.5136C59.7988 41.5866 60.4745 41.0003 61.6694 40.911L63.1827 40.7993V40.6876C63.1827 40.0064 62.775 39.7272 62.1441 39.7272C61.407 39.7272 60.9994 40.0343 60.9994 40.5648H59.9384C59.9384 39.4704 60.8374 38.7556 62.2055 38.7556C63.5735 38.7556 64.3999 39.4927 64.3999 40.8886V43.9542H63.3055L63.2162 43.2115C63.004 43.7308 62.3172 44.0882 61.5298 44.0882C60.4577 44.0882 59.8044 43.4628 59.8044 42.5136H59.7988ZM63.1882 41.9105V41.6425L62.1385 41.7262C61.3623 41.7988 61.0664 42.0557 61.0664 42.4633C61.0664 42.9212 61.3735 43.1445 61.9319 43.1445C62.6968 43.1445 63.1882 42.6867 63.1882 41.9105Z" fill="white"/>
<path d="M65.6406 43.9486V36.3545H66.8747V43.9486H65.6406Z" fill="white"/>
<path d="M41.6049 5.85544C40.5049 5.85544 39.6785 6.56459 39.6785 7.4971C39.6785 8.66413 40.7115 9.25603 42.4537 9.98193C44.1624 10.6911 46.2228 11.6738 46.2228 13.8515C46.2228 15.8115 44.5811 17.2019 42.0126 17.2019C41.0801 17.2019 39.9354 16.9115 39.0531 16.3587L39.1034 17.0846H37.9531L37.9196 13.2485H38.8856C39.1201 15.1749 40.4044 16.1577 42.0628 16.1577C43.3136 16.1577 44.2294 15.4318 44.2294 14.3988C44.2294 13.0977 42.8278 12.5561 41.4877 11.9977C39.4607 11.1545 37.7521 10.1718 37.7521 7.97175C37.7521 6.65396 38.612 4.82803 41.5212 4.82803C42.4146 4.82803 43.5984 5.06254 44.4136 5.65443L44.3466 4.94527H45.5136V8.81488H44.5644C44.3299 7.02246 43.3136 5.85544 41.6049 5.85544Z" fill="white"/>
<path d="M48.2375 14.0079L48.271 9.6469L47.0704 9.66364V8.47986C48.0699 8.46311 49.0974 7.34634 49.3542 6.11231H50.3872L50.3705 8.47986H52.7548V9.56313L50.3705 9.6134L50.3537 13.9576C50.3537 14.9906 50.5883 15.8338 51.4538 15.8338C51.8781 15.8338 52.4533 15.6328 53.0284 14.8175L53.7208 15.443C52.5705 17.1349 51.2025 17.2019 50.7781 17.2019C49.5441 17.2019 48.243 16.7775 48.243 14.0079H48.2375Z" fill="white"/>
<path d="M55.3083 14.3429V11.1657C55.3083 10.7748 55.3251 10.3058 55.3753 9.83117C55.0012 9.84792 54.4819 9.86469 54.1915 9.88144V8.79817H54.8169C55.7103 8.79817 56.3357 8.53014 56.5926 8.30678H57.3017C57.3352 8.57481 57.3687 9.25602 57.3687 9.82558C58.1449 8.80931 59.0272 8.20069 59.9708 8.20069C60.6967 8.20069 61.3389 8.59155 61.3389 9.48497C61.3389 9.9261 61.0485 10.5683 60.2724 10.5515C59.7977 10.5515 59.3063 10.2667 59.2728 9.58548C58.5469 9.56872 57.7149 10.5012 57.3799 11.2941L57.3967 14.5049C57.3967 14.879 57.3799 15.4206 57.3297 15.8897C57.687 15.8562 58.1393 15.8394 58.4129 15.8394V16.9227H54.3032V16.0293C55.2692 16.0293 55.3027 15.3369 55.3027 14.3374L55.3083 14.3429Z" fill="white"/>
<path d="M66.8222 16.0851C66.046 16.8613 65.1637 17.2019 64.2536 17.2019C62.7124 17.2019 61.8693 16.2694 61.8693 15.0353C61.8693 12.9023 64.4713 12.0256 66.7384 11.9586V11.0261C66.7384 10.0434 66.5039 9.21696 65.3871 9.21696C64.879 9.23371 64.3373 9.41796 64.0358 9.82558C64.2033 10.0266 64.2368 10.3002 64.2368 10.4677C64.2368 10.8754 63.9465 11.4338 63.2373 11.417C62.6287 11.4002 62.288 10.9256 62.288 10.3672C62.288 9.09969 63.8069 8.20069 65.7891 8.20069C67.7714 8.20069 68.7988 9.18347 68.7821 11.3947C68.7821 12.5785 68.7653 13.3211 68.7653 14.5049C68.7653 14.8455 68.7486 15.4039 68.6983 15.8897C69.0892 15.8562 69.5415 15.8394 69.8319 15.8227V16.9227H66.9059C66.8389 16.5821 66.8389 16.381 66.8222 16.0795V16.0851ZM64.0135 14.7673C64.0302 15.4765 64.5383 15.7836 65.0967 15.7836C65.7389 15.7836 66.2638 15.4932 66.7216 15.0409V12.9637C65.3703 13.0643 63.98 13.6059 64.019 14.7729L64.0135 14.7673Z" fill="white"/>
<path d="M71.5402 14.0079L71.5737 9.64693L70.3732 9.66366V8.47989C71.3727 8.46314 72.4001 7.34637 72.657 6.11233H73.69L73.6732 8.47989H76.0575V9.56316L73.6732 9.61343L73.6565 13.9577C73.6565 14.9907 73.891 15.8338 74.7565 15.8338C75.1809 15.8338 75.756 15.6328 76.3311 14.8176L77.0235 15.443C75.8733 17.1349 74.5052 17.2019 74.0808 17.2019C72.8468 17.2019 71.5458 16.7775 71.5458 14.0079H71.5402Z" fill="white"/>
<path d="M77.4923 12.7236C77.4923 10.356 79.1675 8.21186 81.7193 8.21186C83.5955 8.21186 85.4214 9.22811 85.4046 12.2378L79.7258 12.3383C79.7258 14.4323 80.4183 15.9232 82.2442 15.9232C83.0371 15.9232 84.1371 15.4988 84.8463 14.6054L85.4884 15.1973C84.3716 16.8222 82.797 17.2075 81.6523 17.2075C79.2177 17.2075 77.4923 15.4653 77.4923 12.7292V12.7236ZM83.3274 11.3221C83.2939 9.98754 82.7523 9.22254 81.7863 9.22254C80.6863 9.22254 80.0106 9.98195 79.8096 11.3221H83.3274Z" fill="white"/>
<path d="M86.5213 19.2846C86.5213 18.4749 87.0797 17.71 88.1127 17.3079C87.2528 17.0567 86.8954 16.5318 86.8954 15.8729C86.8954 15.214 87.4036 14.382 88.5538 14.0805C87.5711 13.6561 86.8954 12.7962 86.8787 11.6459C86.8284 9.61894 88.7046 8.21182 90.5808 8.21182C91.2062 8.21182 92.0494 8.37934 92.6412 8.77021C92.9986 7.7707 93.7413 6.8605 94.7519 6.8605C95.4443 6.8605 95.8185 7.2514 95.8185 7.86004C95.8185 8.21741 95.6007 8.80929 94.8859 8.79253C94.5286 8.79253 94.1768 8.50216 94.1098 8.15038C93.7022 8.23413 93.3839 8.84279 93.3169 9.25042C93.9255 9.79205 94.2829 10.5515 94.2829 11.3835C94.2829 13.3266 92.4905 14.6947 90.5305 14.6947C90.1899 14.6947 89.8549 14.6444 89.4808 14.6444C88.8721 14.6444 88.4142 14.9125 88.4645 15.3201C88.5148 15.778 89.2239 15.8785 90.7986 15.9622C93.4007 16.0962 95.0758 16.6881 95.0758 18.5978C95.0758 20.5075 92.6747 21.5237 90.5082 21.5237C87.532 21.5237 86.5157 20.4237 86.5157 19.2902L86.5213 19.2846ZM93.4732 19.0166C93.4732 18.1399 92.4905 17.8161 90.7651 17.749C90.2234 17.7323 89.5478 17.6988 89.0397 17.615C88.6153 17.9333 88.364 18.4247 88.364 18.9161C88.3305 19.8988 89.2965 20.5242 90.8321 20.5242C92.524 20.5242 93.4677 19.7648 93.4677 19.0222L93.4732 19.0166ZM92.1554 11.6962C92.1554 10.4119 91.6306 9.16109 90.564 9.16109C89.4975 9.16109 88.9726 10.1606 88.9726 11.2941C88.9726 12.6286 89.5478 13.7454 90.5975 13.7454C91.6473 13.7454 92.1554 12.7459 92.1554 11.7017V11.6962Z" fill="white"/>
<path d="M97.4841 14.3429V11.1825C97.4841 10.7916 97.5008 10.3225 97.5511 9.83115C97.177 9.8479 96.6577 9.8814 96.3673 9.89815V8.79815C97.8861 8.79815 98.5506 8.53012 98.8019 8.30677H99.5613V14.5104C99.5613 14.8846 99.5613 15.4262 99.4943 15.8953C99.8516 15.8618 100.304 15.845 100.594 15.845V16.9283H96.4846V16.0349C97.4506 16.0349 97.4841 15.3424 97.4841 14.3429ZM97.2663 5.5986C97.2663 4.9062 97.8247 4.33106 98.4333 4.33106C99.0922 4.33106 99.5836 4.9062 99.5836 5.5986C99.5836 6.291 99.109 6.84938 98.4501 6.84938C97.7912 6.84938 97.2663 6.291 97.2663 5.5986Z" fill="white"/>
<path d="M101.625 12.8744C101.625 10.4063 103.417 8.2063 106.036 8.2063C108.079 8.2063 109.23 9.28957 109.23 10.4398C109.23 11.0485 108.872 11.5734 108.214 11.5901C107.454 11.6069 107.181 11.015 107.181 10.6074C107.181 10.3896 107.248 10.0992 107.398 9.88146C107.147 9.28957 106.349 9.18905 105.997 9.2058C104.763 9.25605 103.847 10.3561 103.847 12.4165C103.847 14.2927 104.606 15.8673 106.298 15.9008C107.281 15.9344 108.275 15.3592 108.867 14.5496L109.542 15.175C108.409 16.7664 106.991 17.2019 105.79 17.2019C103.506 17.2019 101.613 15.6105 101.613 12.8744H101.625Z" fill="white"/>
<path d="M41.097 21.6968C39.997 21.6968 39.1706 22.4059 39.1706 23.3384C39.1706 24.5055 40.2036 25.0974 41.9458 25.8233C43.6544 26.5324 45.7149 27.5152 45.7149 29.6929C45.7149 31.6528 44.0732 33.0432 41.5046 33.0432C40.5721 33.0432 39.4274 32.7528 38.5452 32.2L38.5954 32.926H37.4452L37.4117 29.0898H38.3777C38.6122 31.0163 39.8965 31.999 41.5549 31.999C42.8057 31.999 43.7214 31.2731 43.7214 30.2401C43.7214 28.9391 42.3199 28.3974 40.9797 27.839C38.9528 26.9959 37.2441 26.0131 37.2441 23.8131C37.2441 22.4953 38.1041 20.6694 41.0132 20.6694C41.9067 20.6694 43.0904 20.9039 43.9057 21.4958L43.8387 20.7866H45.0057V24.6563H44.0565C43.8219 22.8638 42.8057 21.6968 41.097 21.6968Z" fill="white"/>
<path d="M46.9336 28.7325C46.9336 25.9741 48.8433 24.0476 51.1941 24.0476C53.5449 24.0476 55.4546 25.7563 55.4546 28.3751C55.4546 31.1503 53.6789 33.0432 51.2276 33.0432C48.7763 33.0432 46.9336 31.3346 46.9336 28.7325ZM53.2043 28.8163C53.2043 27.0238 52.6794 25.0304 51.1773 25.0471C49.7088 25.0806 49.1671 26.6721 49.1671 28.2746C49.1671 30.1173 49.7925 32.0437 51.3169 32.0102C52.8022 32.0102 53.2099 30.3686 53.2099 28.8163H53.2043Z" fill="white"/>
<path d="M57.4518 30.1843V22.8806C57.4518 22.4897 57.4686 22.0207 57.5188 21.5293C57.1447 21.5461 56.6254 21.5796 56.3183 21.5963V20.4963C57.8762 20.4963 58.5183 20.2283 58.7696 20.0049H59.529L59.5458 30.3518C59.5458 30.7259 59.529 31.2676 59.462 31.7366C59.8361 31.7031 60.2717 31.6864 60.562 31.6864V32.7696H56.4523V31.8762C57.4351 31.8762 57.4518 31.1838 57.4518 30.1843Z" fill="white"/>
<path d="M62.4781 29.3244V27.0238C62.4781 26.6329 62.4949 26.1471 62.5284 25.6725C62.171 25.6892 61.6517 25.706 61.3613 25.7228V24.6395H61.6517C62.9025 24.6395 63.5446 24.3715 63.8015 24.1481H64.5776V29.3244C64.5776 30.9493 64.9853 31.7254 65.9792 31.7254C66.6548 31.7087 67.364 31.2675 67.7884 30.7426V27.0908C67.7884 26.6329 67.8051 26.1415 67.8554 25.6725C67.4812 25.6892 66.9619 25.706 66.6716 25.7228V24.6395H67.1127C68.1457 24.6395 68.8549 24.3715 69.0894 24.1481H69.8656V30.2178C69.8656 30.5416 69.8488 31.2508 69.7985 31.7421C70.1727 31.7086 70.6417 31.6919 70.9321 31.6751V32.7752H67.9894C67.9391 32.4569 67.9056 32.1498 67.8889 31.8427C67.1965 32.4681 66.3142 33.0432 65.27 33.0432C63.3101 33.0432 62.4781 31.9934 62.4781 29.3244Z" fill="white"/>
<path d="M72.792 29.8492L72.8255 25.4882L71.625 25.505V24.3212C72.6245 24.3045 73.6519 23.1877 73.9088 21.9537H74.9418L74.9251 24.3212H77.3094V25.4045L74.9251 25.4547L74.9083 29.799C74.9083 30.832 75.1428 31.6751 76.0083 31.6751C76.4327 31.6751 77.0078 31.4742 77.583 30.6589L78.2754 31.2843C77.1251 32.9762 75.7571 33.0432 75.3327 33.0432C74.0987 33.0432 72.7976 32.6188 72.7976 29.8492H72.792Z" fill="white"/>
<path d="M79.859 30.1844V27.0239C79.859 26.6331 79.8757 26.164 79.926 25.6726C79.5518 25.6894 79.0325 25.7229 78.7422 25.7396V24.6396C80.261 24.6396 80.9255 24.3716 81.1767 24.1482H81.9362V30.3519C81.9362 30.726 81.9361 31.2677 81.8691 31.7367C82.2265 31.7032 82.6788 31.6865 82.9692 31.6865V32.7697H78.8594V31.8763C79.8255 31.8763 79.859 31.1839 79.859 30.1844ZM79.6412 21.4401C79.6412 20.7477 80.1996 20.1725 80.8082 20.1725C81.4671 20.1725 81.9585 20.7477 81.9585 21.4401C81.9585 22.1325 81.4839 22.6909 80.825 22.6909C80.1661 22.6909 79.6412 22.1325 79.6412 21.4401Z" fill="white"/>
<path d="M84.0039 28.7325C84.0039 25.9741 85.9136 24.0476 88.2644 24.0476C90.6152 24.0476 92.5249 25.7563 92.5249 28.3751C92.5249 31.1503 90.7492 33.0432 88.2979 33.0432C85.8466 33.0432 84.0039 31.3346 84.0039 28.7325ZM90.2746 28.8163C90.2746 27.0238 89.7497 25.0304 88.2477 25.0471C86.7791 25.0806 86.2374 26.6721 86.2374 28.2746C86.2374 30.1173 86.8628 32.0437 88.3872 32.0102C89.8726 32.0102 90.2802 30.3686 90.2802 28.8163H90.2746Z" fill="white"/>
<path d="M93.8087 31.8762C94.7747 31.8762 94.8082 31.1838 94.8082 30.1843V27.0071C94.8082 26.6162 94.8249 26.1471 94.8752 25.6725C94.5011 25.6893 93.9818 25.7228 93.6914 25.7395V24.6395C95.2326 24.6395 95.8579 24.3715 96.0925 24.1481H96.8016C96.8686 24.5222 96.8184 24.5893 96.9021 25.0583C97.5778 24.4832 98.6611 24.042 99.4372 24.042C101.464 24.042 102.279 25.1923 102.279 27.7944V30.3462C102.279 30.7203 102.279 31.262 102.212 31.731C102.587 31.6975 103.022 31.6808 103.312 31.6808V32.764H99.2027V31.8706C100.185 31.8706 100.219 31.1782 100.219 30.1787L100.202 27.7776C100.202 26.1527 99.7443 25.3598 98.6443 25.3598C98.0022 25.3766 97.3098 25.7172 96.8854 26.1528C96.9021 26.4208 96.9021 26.7111 96.9021 27.0127L96.8854 30.3407C96.8854 30.7148 96.8854 31.2564 96.8184 31.7254C97.1757 31.6919 97.628 31.6752 97.9184 31.6752V32.7584H93.8087V31.865V31.8762Z" fill="white"/>
<path d="M105.613 32.3508L105.663 32.8925H104.563L104.479 29.9833H105.395C105.479 31.1335 106.579 32.0102 107.98 32.0102C108.639 32.0102 109.365 31.7031 109.365 30.9939C109.365 30.2848 108.589 29.9777 107.405 29.5254C106.02 28.9838 104.412 28.4589 104.412 26.6832C104.412 25.4994 105.255 24.0476 107.506 24.0476C108.114 24.0476 108.957 24.2319 109.549 24.673L109.533 24.1314H110.633V27.1076H109.722C109.572 25.9405 108.756 25.0471 107.455 25.0471C106.729 25.0471 106.171 25.4213 106.171 26.0802C106.171 26.9568 107.137 27.2137 108.304 27.638C109.879 28.2132 111.18 28.9223 111.18 30.4802C111.18 32.2224 109.672 33.0488 108.153 33.0488C107.12 33.0488 106.16 32.7473 105.618 32.3564L105.613 32.3508Z" fill="white"/>
<path d="M111.18 23.3274V23.0984H112.336V23.3274H111.878V24.472H111.638V23.3274H111.18ZM112.497 24.472V23.0984H112.726L113.207 24.2264L113.687 23.0984H113.916V24.472H113.687V23.5842L113.307 24.472H113.106L112.726 23.601V24.472H112.497Z" fill="white"/>
</g>
</svg>
