<svg width="82" height="82" viewBox="0 0 82 82" fill="none" xmlns="http://www.w3.org/2000/svg">
<rect x="0.945312" y="0.799805" width="81" height="81" rx="40.5" fill="url(#paint0_linear_3324_3384)" fill-opacity="0.26"/>
<path d="M56.1745 18.7998H26.7168C24.8562 18.7998 23.3422 20.3138 23.3422 22.1744V33.3806C22.9427 33.2836 22.5281 33.2269 22.0997 33.2269C19.18 33.2269 16.8047 35.6022 16.8047 38.5219C16.8047 41.2236 18.8379 43.459 21.4545 43.7778V59.6767H23.8046V63.7998H34.934V59.6767H47.9566V63.7998H59.086V59.6767H61.4367V43.7778C64.0534 43.459 66.0866 41.2236 66.0866 38.5219C66.0866 35.6022 63.7112 33.2269 60.7916 33.2269C60.3631 33.2269 59.9485 33.2836 59.5491 33.3806V22.1744C59.5491 20.3138 58.035 18.7998 56.1745 18.7998ZM55.4972 50.522V53.7365H27.3947V50.5213L32.4352 45.5735H50.4561L55.4972 50.522ZM54.7802 20.0902L50.0421 25.8772V44.2831H32.8163V25.8772L28.0783 20.0902L54.7802 20.0902ZM60.7916 34.5172C62.9999 34.5172 64.7962 36.3142 64.7962 38.5219C64.7962 40.7302 62.9999 42.5265 60.7916 42.5265H60.1464V58.3863H22.7449V42.5265H22.0997C19.8913 42.5265 18.095 40.7302 18.095 38.5219C18.095 36.3142 19.8913 34.5172 22.0997 34.5172C24.308 34.5172 26.1043 36.3142 26.1043 38.5219V55.0269H56.7875V38.5219C56.7875 36.3142 58.5838 34.5172 60.7916 34.5172Z" fill="url(#paint1_linear_3324_3384)"/>
<defs>
<linearGradient id="paint0_linear_3324_3384" x1="100.695" y1="-31.4502" x2="-2.80468" y2="96.0498" gradientUnits="userSpaceOnUse">
<stop stop-color="white"/>
<stop offset="1" stop-color="white" stop-opacity="0"/>
</linearGradient>
<linearGradient id="paint1_linear_3324_3384" x1="41.4456" y1="34.3996" x2="41.4456" y2="104.973" gradientUnits="userSpaceOnUse">
<stop stop-color="#94723F"/>
<stop offset="1" stop-color="#EEB30A"/>
</linearGradient>
</defs>
</svg>
