<svg width="430" height="760" viewBox="0 0 430 760" fill="none" xmlns="http://www.w3.org/2000/svg">
<ellipse cx="215" cy="380" rx="397" ry="380" fill="url(#paint0_radial_1248_7318)"/>
<path d="M225.132 588.369L219.687 588.599L220.546 608.926L225.991 608.696L225.132 588.369Z" fill="url(#paint1_linear_1248_7318)" fill-opacity="0.2" style="mix-blend-mode:overlay"/>
<path d="M207.729 588.52L207.2 608.858L212.648 609L213.177 588.661L207.729 588.52Z" fill="url(#paint2_linear_1248_7318)" fill-opacity="0.2" style="mix-blend-mode:overlay"/>
<path d="M195.848 587.636L193.926 607.89L199.351 608.405L201.273 588.15L195.848 587.636Z" fill="url(#paint3_linear_1248_7318)" fill-opacity="0.2" style="mix-blend-mode:overlay"/>
<path d="M184.048 585.902L180.75 605.979L186.127 606.862L189.426 586.786L184.048 585.902Z" fill="url(#paint4_linear_1248_7318)" fill-opacity="0.2" style="mix-blend-mode:overlay"/>
<path d="M172.39 583.403L167.727 603.206L173.031 604.456L177.694 584.652L172.39 583.403Z" fill="url(#paint5_linear_1248_7318)" fill-opacity="0.2" style="mix-blend-mode:overlay"/>
<path d="M160.922 580.062L154.923 599.503L160.13 601.11L166.129 581.669L160.922 580.062Z" fill="url(#paint6_linear_1248_7318)" fill-opacity="0.2" style="mix-blend-mode:overlay"/>
<path d="M149.704 576.004L142.393 594.991L147.478 596.949L154.789 577.963L149.704 576.004Z" fill="url(#paint7_linear_1248_7318)" fill-opacity="0.2" style="mix-blend-mode:overlay"/>
<path d="M138.815 571.146L130.227 589.59L135.167 591.89L143.756 573.447L138.815 571.146Z" fill="url(#paint8_linear_1248_7318)" fill-opacity="0.2" style="mix-blend-mode:overlay"/>
<path d="M128.249 565.617L118.42 583.43L123.191 586.063L133.021 568.25L128.249 565.617Z" fill="url(#paint9_linear_1248_7318)" fill-opacity="0.2" style="mix-blend-mode:overlay"/>
<path d="M118.116 559.35L107.095 576.452L111.676 579.404L122.697 562.302L118.116 559.35Z" fill="url(#paint10_linear_1248_7318)" fill-opacity="0.2" style="mix-blend-mode:overlay"/>
<path d="M108.435 552.37L96.2729 568.68L100.642 571.938L112.804 555.627L108.435 552.37Z" fill="url(#paint11_linear_1248_7318)" fill-opacity="0.2" style="mix-blend-mode:overlay"/>
<path d="M99.2255 544.802L85.9771 560.243L90.113 563.791L103.361 548.35L99.2255 544.802Z" fill="url(#paint12_linear_1248_7318)" fill-opacity="0.2" style="mix-blend-mode:overlay"/>
<path d="M90.5651 536.583L76.2947 551.084L80.179 554.906L94.4494 540.405L90.5651 536.583Z" fill="url(#paint13_linear_1248_7318)" fill-opacity="0.2" style="mix-blend-mode:overlay"/>
<path d="M82.5101 527.798L67.2841 541.293L70.8987 545.371L86.1247 531.877L82.5101 527.798Z" fill="url(#paint14_linear_1248_7318)" fill-opacity="0.2" style="mix-blend-mode:overlay"/>
<path d="M75.037 518.467L58.9262 530.892L62.2543 535.208L78.3651 522.783L75.037 518.467Z" fill="url(#paint15_linear_1248_7318)" fill-opacity="0.2" style="mix-blend-mode:overlay"/>
<path d="M68.223 508.707L51.3004 520.002L54.3257 524.535L71.2483 513.24L68.223 508.707Z" fill="url(#paint16_linear_1248_7318)" fill-opacity="0.2" style="mix-blend-mode:overlay"/>
<path d="M62.1136 498.453L44.4602 508.567L47.1694 513.296L64.8227 503.181L62.1136 498.453Z" fill="url(#paint17_linear_1248_7318)" fill-opacity="0.2" style="mix-blend-mode:overlay"/>
<path d="M56.7253 487.819L38.4234 496.706L40.8038 501.608L59.1057 492.721L56.7253 487.819Z" fill="url(#paint18_linear_1248_7318)" fill-opacity="0.2" style="mix-blend-mode:overlay"/>
<path d="M52.034 476.86L33.1674 484.475L35.2071 489.529L54.0737 481.914L52.034 476.86Z" fill="url(#paint19_linear_1248_7318)" fill-opacity="0.2" style="mix-blend-mode:overlay"/>
<path d="M48.1283 465.589L28.7863 471.9L30.4767 477.081L49.8187 470.77L48.1283 465.589Z" fill="url(#paint20_linear_1248_7318)" fill-opacity="0.2" style="mix-blend-mode:overlay"/>
<path d="M44.9999 454.072L25.2726 459.049L26.6057 464.334L46.333 459.356L44.9999 454.072Z" fill="url(#paint21_linear_1248_7318)" fill-opacity="0.2" style="mix-blend-mode:overlay"/>
<path d="M42.6428 442.382L22.6215 445.999L23.5903 451.362L43.6116 447.745L42.6428 442.382Z" fill="url(#paint22_linear_1248_7318)" fill-opacity="0.2" style="mix-blend-mode:overlay"/>
<path d="M41.1269 430.55L20.9055 432.793L21.5064 438.209L41.7278 435.966L41.1269 430.55Z" fill="url(#paint23_linear_1248_7318)" fill-opacity="0.2" style="mix-blend-mode:overlay"/>
<path d="M40.3934 418.655L20.0661 419.514L20.2962 424.959L40.6235 424.1L40.3934 418.655Z" fill="url(#paint24_linear_1248_7318)" fill-opacity="0.2" style="mix-blend-mode:overlay"/>
<path d="M20.1417 406.164L20 411.612L40.3386 412.141L40.4803 406.693L20.1417 406.164Z" fill="url(#paint25_linear_1248_7318)" fill-opacity="0.2" style="mix-blend-mode:overlay"/>
<path d="M21.1393 392.928L20.6255 398.353L40.8803 400.272L41.3941 394.846L21.1393 392.928Z" fill="url(#paint26_linear_1248_7318)" fill-opacity="0.2" style="mix-blend-mode:overlay"/>
<path d="M23.0313 379.718L22.1487 385.096L42.2256 388.391L43.1081 383.013L23.0313 379.718Z" fill="url(#paint27_linear_1248_7318)" fill-opacity="0.2" style="mix-blend-mode:overlay"/>
<path d="M25.8067 366.7L24.5595 372.005L44.365 376.661L45.6122 371.356L25.8067 366.7Z" fill="url(#paint28_linear_1248_7318)" fill-opacity="0.2" style="mix-blend-mode:overlay"/>
<path d="M29.4861 353.929L27.8791 359.136L47.3199 365.135L48.9269 359.928L29.4861 353.929Z" fill="url(#paint29_linear_1248_7318)" fill-opacity="0.2" style="mix-blend-mode:overlay"/>
<path d="M34.0184 341.37L32.0601 346.456L51.0466 353.767L53.0049 348.681L34.0184 341.37Z" fill="url(#paint30_linear_1248_7318)" fill-opacity="0.2" style="mix-blend-mode:overlay"/>
<path d="M39.3949 329.201L37.0943 334.141L55.5381 342.73L57.8386 337.789L39.3949 329.201Z" fill="url(#paint31_linear_1248_7318)" fill-opacity="0.2" style="mix-blend-mode:overlay"/>
<path d="M45.6069 317.43L42.974 322.202L60.7874 332.031L63.4203 327.26L45.6069 317.43Z" fill="url(#paint32_linear_1248_7318)" fill-opacity="0.2" style="mix-blend-mode:overlay"/>
<path d="M52.5784 306.088L49.6262 310.669L66.7279 321.69L69.68 317.109L52.5784 306.088Z" fill="url(#paint33_linear_1248_7318)" fill-opacity="0.2" style="mix-blend-mode:overlay"/>
<path d="M60.3226 295.249L57.065 299.617L73.3754 311.779L76.633 307.41L60.3226 295.249Z" fill="url(#paint34_linear_1248_7318)" fill-opacity="0.2" style="mix-blend-mode:overlay"/>
<path d="M68.789 284.982L65.2403 289.118L80.6811 302.366L84.2298 298.23L68.789 284.982Z" fill="url(#paint35_linear_1248_7318)" fill-opacity="0.2" style="mix-blend-mode:overlay"/>
<path d="M77.9203 275.303L74.0978 279.188L88.5993 293.458L92.4217 289.574L77.9203 275.303Z" fill="url(#paint36_linear_1248_7318)" fill-opacity="0.2" style="mix-blend-mode:overlay"/>
<path d="M87.7186 266.265L83.6402 269.879L97.1348 285.105L101.213 281.491L87.7186 266.265Z" fill="url(#paint37_linear_1248_7318)" fill-opacity="0.2" style="mix-blend-mode:overlay"/>
<path d="M98.0979 257.918L93.7819 261.245L106.204 277.358L110.52 274.031L98.0979 257.918Z" fill="url(#paint38_linear_1248_7318)" fill-opacity="0.2" style="mix-blend-mode:overlay"/>
<path d="M109.013 250.31L104.48 253.336L115.774 270.258L120.307 267.233L109.013 250.31Z" fill="url(#paint39_linear_1248_7318)" fill-opacity="0.2" style="mix-blend-mode:overlay"/>
<path d="M120.432 243.441L115.703 246.15L125.817 263.804L130.546 261.095L120.432 243.441Z" fill="url(#paint40_linear_1248_7318)" fill-opacity="0.2" style="mix-blend-mode:overlay"/>
<path d="M132.306 237.408L127.404 239.787L136.287 258.091L141.19 255.711L132.306 237.408Z" fill="url(#paint41_linear_1248_7318)" fill-opacity="0.2" style="mix-blend-mode:overlay"/>
<path d="M144.547 232.172L139.494 234.212L147.109 253.078L152.162 251.039L144.547 232.172Z" fill="url(#paint42_linear_1248_7318)" fill-opacity="0.2" style="mix-blend-mode:overlay"/>
<path d="M157.115 227.778L151.934 229.468L158.245 248.81L163.426 247.119L157.115 227.778Z" fill="url(#paint43_linear_1248_7318)" fill-opacity="0.2" style="mix-blend-mode:overlay"/>
<path d="M169.958 224.25L164.674 225.583L169.651 245.311L174.935 243.977L169.958 224.25Z" fill="url(#paint44_linear_1248_7318)" fill-opacity="0.2" style="mix-blend-mode:overlay"/>
<path d="M183.01 221.614L177.648 222.584L181.268 242.605L186.631 241.635L183.01 221.614Z" fill="url(#paint45_linear_1248_7318)" fill-opacity="0.2" style="mix-blend-mode:overlay"/>
<path d="M196.222 219.9L190.806 220.501L193.049 240.722L198.466 240.121L196.222 219.9Z" fill="url(#paint46_linear_1248_7318)" fill-opacity="0.2" style="mix-blend-mode:overlay"/>
<path d="M209.497 219.07L204.052 219.3L204.911 239.628L210.356 239.397L209.497 219.07Z" fill="url(#paint47_linear_1248_7318)" fill-opacity="0.2" style="mix-blend-mode:overlay"/>
<path d="M217.37 219L216.841 239.339L222.288 239.48L222.817 219.142L217.37 219Z" fill="url(#paint48_linear_1248_7318)" fill-opacity="0.2" style="mix-blend-mode:overlay"/>
<path d="M230.685 219.619L228.763 239.874L234.188 240.389L236.11 220.134L230.685 219.619Z" fill="url(#paint49_linear_1248_7318)" fill-opacity="0.2" style="mix-blend-mode:overlay"/>
<path d="M243.922 221.142L240.623 241.218L246.001 242.102L249.299 222.025L243.922 221.142Z" fill="url(#paint50_linear_1248_7318)" fill-opacity="0.2" style="mix-blend-mode:overlay"/>
<path d="M257.008 223.557L252.345 243.361L257.65 244.61L262.313 224.806L257.008 223.557Z" fill="url(#paint51_linear_1248_7318)" fill-opacity="0.2" style="mix-blend-mode:overlay"/>
<path d="M269.876 226.85L263.877 246.291L269.084 247.897L275.084 228.457L269.876 226.85Z" fill="url(#paint52_linear_1248_7318)" fill-opacity="0.2" style="mix-blend-mode:overlay"/>
<path d="M282.553 231.056L275.242 250.042L280.328 252.001L287.639 233.014L282.553 231.056Z" fill="url(#paint53_linear_1248_7318)" fill-opacity="0.2" style="mix-blend-mode:overlay"/>
<path d="M294.838 236.077L286.249 254.521L291.189 256.821L299.778 238.378L294.838 236.077Z" fill="url(#paint54_linear_1248_7318)" fill-opacity="0.2" style="mix-blend-mode:overlay"/>
<path d="M306.844 241.95L297.015 259.764L301.786 262.397L311.616 244.583L306.844 241.95Z" fill="url(#paint55_linear_1248_7318)" fill-opacity="0.2" style="mix-blend-mode:overlay"/>
<path d="M318.343 248.619L307.322 265.721L311.903 268.673L322.924 251.571L318.343 248.619Z" fill="url(#paint56_linear_1248_7318)" fill-opacity="0.2" style="mix-blend-mode:overlay"/>
<path d="M329.385 256.059L317.223 272.369L321.592 275.627L333.754 259.316L329.385 256.059Z" fill="url(#paint57_linear_1248_7318)" fill-opacity="0.2" style="mix-blend-mode:overlay"/>
<path d="M339.914 264.245L326.665 279.686L330.801 283.235L344.05 267.794L339.914 264.245Z" fill="url(#paint58_linear_1248_7318)" fill-opacity="0.2" style="mix-blend-mode:overlay"/>
<path d="M349.848 273.119L335.577 287.621L339.462 291.443L353.732 276.942L349.848 273.119Z" fill="url(#paint59_linear_1248_7318)" fill-opacity="0.2" style="mix-blend-mode:overlay"/>
<path d="M359.132 282.639L343.906 296.133L347.521 300.212L362.747 286.717L359.132 282.639Z" fill="url(#paint60_linear_1248_7318)" fill-opacity="0.2" style="mix-blend-mode:overlay"/>
<path d="M367.756 292.754L351.645 305.179L354.974 309.495L371.084 297.07L367.756 292.754Z" fill="url(#paint61_linear_1248_7318)" fill-opacity="0.2" style="mix-blend-mode:overlay"/>
<path d="M375.679 303.49L358.756 314.784L361.781 319.317L378.704 308.023L375.679 303.49Z" fill="url(#paint62_linear_1248_7318)" fill-opacity="0.2" style="mix-blend-mode:overlay"/>
<path d="M382.866 314.72L365.213 324.835L367.922 329.563L385.576 319.449L382.866 314.72Z" fill="url(#paint63_linear_1248_7318)" fill-opacity="0.2" style="mix-blend-mode:overlay"/>
<path d="M389.22 326.363L370.918 335.25L373.298 340.152L391.6 331.265L389.22 326.363Z" fill="url(#paint64_linear_1248_7318)" fill-opacity="0.2" style="mix-blend-mode:overlay"/>
<path d="M394.811 338.499L375.944 346.114L377.984 351.167L396.851 343.552L394.811 338.499Z" fill="url(#paint65_linear_1248_7318)" fill-opacity="0.2" style="mix-blend-mode:overlay"/>
<path d="M399.547 350.944L380.205 357.255L381.896 362.435L401.238 356.125L399.547 350.944Z" fill="url(#paint66_linear_1248_7318)" fill-opacity="0.2" style="mix-blend-mode:overlay"/>
<path d="M403.416 363.705L383.688 368.679L385.02 373.963L404.748 368.989L403.416 363.705Z" fill="url(#paint67_linear_1248_7318)" fill-opacity="0.2" style="mix-blend-mode:overlay"/>
<path d="M406.421 376.655L386.399 380.272L387.368 385.635L407.39 382.018L406.421 376.655Z" fill="url(#paint68_linear_1248_7318)" fill-opacity="0.2" style="mix-blend-mode:overlay"/>
<path d="M408.515 389.8L388.293 392.043L388.894 397.46L409.116 395.217L408.515 389.8Z" fill="url(#paint69_linear_1248_7318)" fill-opacity="0.2" style="mix-blend-mode:overlay"/>
<path d="M409.699 403.071L389.372 403.926L389.601 409.371L409.928 408.516L409.699 403.071Z" fill="url(#paint70_linear_1248_7318)" fill-opacity="0.2" style="mix-blend-mode:overlay"/>
<path d="M389.661 415.822L389.52 421.27L409.858 421.799L410 416.351L389.661 415.822Z" fill="url(#paint71_linear_1248_7318)" fill-opacity="0.2" style="mix-blend-mode:overlay"/>
<path d="M389.147 427.753L388.633 433.178L408.888 435.096L409.402 429.671L389.147 427.753Z" fill="url(#paint72_linear_1248_7318)" fill-opacity="0.2" style="mix-blend-mode:overlay"/>
<path d="M387.827 439.619L386.943 444.997L407.019 448.295L407.903 442.917L387.827 439.619Z" fill="url(#paint73_linear_1248_7318)" fill-opacity="0.2" style="mix-blend-mode:overlay"/>
<path d="M385.628 451.315L384.38 456.62L404.186 461.276L405.433 455.971L385.628 451.315Z" fill="url(#paint74_linear_1248_7318)" fill-opacity="0.2" style="mix-blend-mode:overlay"/>
<path d="M382.716 462.901L381.109 468.109L400.55 474.108L402.157 468.901L382.716 462.901Z" fill="url(#paint75_linear_1248_7318)" fill-opacity="0.2" style="mix-blend-mode:overlay"/>
<path d="M378.967 474.22L377.009 479.306L395.995 486.617L397.953 481.531L378.967 474.22Z" fill="url(#paint76_linear_1248_7318)" fill-opacity="0.2" style="mix-blend-mode:overlay"/>
<path d="M374.474 485.258L372.174 490.198L390.618 498.786L392.918 493.846L374.474 485.258Z" fill="url(#paint77_linear_1248_7318)" fill-opacity="0.2" style="mix-blend-mode:overlay"/>
<path d="M369.273 496.025L366.64 500.797L384.454 510.626L387.087 505.855L369.273 496.025Z" fill="url(#paint78_linear_1248_7318)" fill-opacity="0.2" style="mix-blend-mode:overlay"/>
<path d="M363.291 506.315L360.339 510.896L377.441 521.917L380.393 517.336L363.291 506.315Z" fill="url(#paint79_linear_1248_7318)" fill-opacity="0.2" style="mix-blend-mode:overlay"/>
<path d="M356.652 516.217L353.394 520.586L369.704 532.748L372.962 528.379L356.652 516.217Z" fill="url(#paint80_linear_1248_7318)" fill-opacity="0.2" style="mix-blend-mode:overlay"/>
<path d="M349.346 525.688L345.797 529.824L361.238 543.073L364.786 538.937L349.346 525.688Z" fill="url(#paint81_linear_1248_7318)" fill-opacity="0.2" style="mix-blend-mode:overlay"/>
<path d="M341.415 534.555L337.592 538.439L352.094 552.71L355.916 548.825L341.415 534.555Z" fill="url(#paint82_linear_1248_7318)" fill-opacity="0.2" style="mix-blend-mode:overlay"/>
<path d="M332.896 542.887L328.818 546.501L342.313 561.728L346.391 558.113L332.896 542.887Z" fill="url(#paint83_linear_1248_7318)" fill-opacity="0.2" style="mix-blend-mode:overlay"/>
<path d="M323.812 550.699L319.496 554.027L331.919 570.14L336.235 566.812L323.812 550.699Z" fill="url(#paint84_linear_1248_7318)" fill-opacity="0.2" style="mix-blend-mode:overlay"/>
<path d="M314.23 557.766L309.697 560.791L320.992 577.714L325.525 574.689L314.23 557.766Z" fill="url(#paint85_linear_1248_7318)" fill-opacity="0.2" style="mix-blend-mode:overlay"/>
<path d="M304.2 564.176L299.472 566.885L309.586 584.538L314.314 581.829L304.2 564.176Z" fill="url(#paint86_linear_1248_7318)" fill-opacity="0.2" style="mix-blend-mode:overlay"/>
<path d="M293.723 569.953L288.82 572.332L297.704 590.636L302.606 588.256L293.723 569.953Z" fill="url(#paint87_linear_1248_7318)" fill-opacity="0.2" style="mix-blend-mode:overlay"/>
<path d="M282.891 574.967L277.837 577.007L285.452 595.873L290.506 593.834L282.891 574.967Z" fill="url(#paint88_linear_1248_7318)" fill-opacity="0.2" style="mix-blend-mode:overlay"/>
<path d="M271.779 579.178L266.598 580.869L272.909 600.211L278.09 598.52L271.779 579.178Z" fill="url(#paint89_linear_1248_7318)" fill-opacity="0.2" style="mix-blend-mode:overlay"/>
<path d="M260.379 582.675L255.095 584.008L260.072 603.735L265.356 602.402L260.379 582.675Z" fill="url(#paint90_linear_1248_7318)" fill-opacity="0.2" style="mix-blend-mode:overlay"/>
<path d="M248.742 585.402L243.379 586.371L246.996 606.392L252.359 605.424L248.742 585.402Z" fill="url(#paint91_linear_1248_7318)" fill-opacity="0.2" style="mix-blend-mode:overlay"/>
<path d="M236.972 587.287L231.555 587.888L233.799 608.11L239.215 607.509L236.972 587.287Z" fill="url(#paint92_linear_1248_7318)" fill-opacity="0.2" style="mix-blend-mode:overlay"/>
<path d="M129.567 395.448C128.386 395.23 127.587 395.884 127.351 397.174L126.897 399.608L130.603 400.298L131.057 397.864C131.293 396.556 130.748 395.666 129.567 395.448Z" fill="url(#paint93_linear_1248_7318)" fill-opacity="0.2" style="mix-blend-mode:overlay"/>
<path d="M73.3448 411.288C70.4383 411.361 68.8397 413.305 68.9124 416.538L69.0577 422.569L78.2858 422.351L78.1405 416.32C78.0678 413.087 76.3058 411.198 73.3448 411.27V411.288Z" fill="url(#paint94_linear_1248_7318)" fill-opacity="0.2" style="mix-blend-mode:overlay"/>
<path d="M300.396 434.304C301.559 434.54 302.376 433.923 302.649 432.615L303.157 430.199L299.452 429.436L298.943 431.852C298.671 433.142 299.197 434.068 300.396 434.304Z" fill="url(#paint95_linear_1248_7318)" fill-opacity="0.2" style="mix-blend-mode:overlay"/>
<path d="M267.244 299.334C272.112 301.55 276.926 299.298 279.469 293.685C282.049 288.017 280.559 282.985 275.673 280.769C270.786 278.553 266.027 280.733 263.447 286.418C260.868 292.086 262.358 297.118 267.244 299.334Z" fill="url(#paint96_linear_1248_7318)" fill-opacity="0.2" style="mix-blend-mode:overlay"/>
<path d="M128.514 427.583C128.223 427.728 127.878 427.892 127.642 427.964C127.878 427.964 128.241 428.019 128.586 428.073L132.619 428.8L132.11 425.603L128.514 427.565V427.583Z" fill="url(#paint97_linear_1248_7318)" fill-opacity="0.2" style="mix-blend-mode:overlay"/>
<path d="M148.514 460.336L142.029 465.186L143.228 466.803C144.663 468.71 146.752 468.964 148.75 467.475C150.785 465.967 151.13 463.842 149.64 461.861L148.514 460.336Z" fill="url(#paint98_linear_1248_7318)" fill-opacity="0.2" style="mix-blend-mode:overlay"/>
<path d="M234.564 492.707C232.439 493.233 231.458 495.141 232.057 497.611C232.657 500.082 234.419 501.317 236.544 500.808C238.67 500.282 239.651 498.338 239.051 495.904C238.433 493.433 236.69 492.198 234.564 492.707Z" fill="url(#paint99_linear_1248_7318)" fill-opacity="0.2" style="mix-blend-mode:overlay"/>
<path d="M74.7617 380.552C75.2703 380.807 76.0696 381.243 76.7962 381.697L85.1887 387.11L87.0234 379.408L77.0687 380.48C76.2694 380.534 75.3611 380.607 74.7617 380.552Z" fill="url(#paint100_linear_1248_7318)" fill-opacity="0.2" style="mix-blend-mode:overlay"/>
<path d="M215.182 354.666C182.465 354.666 155.853 381.297 155.853 414.013C155.853 446.73 182.465 473.342 215.182 473.342C247.898 473.342 274.528 446.73 274.528 414.013C274.528 381.297 247.898 354.666 215.182 354.666ZM237.216 412.669C237.216 413.523 237.162 414.358 237.071 415.194C236.254 422.551 231.785 428.836 225.554 432.197C222.43 433.886 218.869 434.831 215.073 434.831C208.696 434.831 202.92 432.106 198.869 427.783C198.033 426.893 197.27 425.93 196.598 424.895C194.273 421.389 192.911 417.174 192.911 412.687C192.911 412.106 192.929 411.525 192.983 410.943C194.818 412.669 196.871 414.195 199.051 415.521C200.395 423.132 207.062 428.945 215.073 428.945C217.452 428.945 219.723 428.437 221.776 427.492C227.425 424.949 231.349 419.263 231.349 412.669C231.349 412.015 231.313 411.397 231.24 410.78C230.949 408.255 230.077 405.893 228.751 403.859C228.37 403.259 227.952 402.696 227.498 402.151C224.5 398.627 220.05 396.393 215.073 396.393C212.33 396.393 209.75 397.083 207.497 398.282C205.717 396.829 204.555 395.266 204.064 393.468C207.316 391.597 211.076 390.525 215.073 390.525C219.069 390.525 222.92 391.615 226.19 393.523C230.259 395.884 233.511 399.517 235.4 403.877C236.581 406.584 237.216 409.563 237.216 412.687V412.669ZM212.112 374.649C217.598 374.649 224.9 375.829 230.804 380.116V374.649H234.982V394.594H230.804V392.578C230.586 391.833 230.313 391.107 230.023 390.398C227.28 383.877 221.739 378.954 212.856 378.954C203.973 378.954 199.396 384.403 199.105 390.907C199.105 391.125 199.105 391.325 199.105 391.543C199.105 392.542 199.214 393.486 199.414 394.376C199.832 396.284 200.722 397.919 201.939 399.408C202.375 399.953 202.883 400.498 203.428 400.989C203.683 401.225 203.937 401.461 204.228 401.697C205.118 402.442 206.081 403.15 207.134 403.804C210.077 405.694 213.583 407.31 217.162 408.963C220.341 410.38 223.574 411.852 226.608 413.523C226.353 416.883 224.664 419.935 221.994 421.934C219.251 420.226 216.09 418.736 212.875 417.229C209.223 415.576 205.499 413.904 202.12 411.888C201.666 411.615 201.212 411.343 200.776 411.052C199.813 410.435 198.887 409.763 198.015 409.072C197.47 408.654 196.925 408.182 196.435 407.71C192.747 404.258 190.295 399.826 190.295 393.577C190.295 386.256 194.709 374.667 212.13 374.667L212.112 374.649ZM214.891 453.36C208.569 453.36 201.339 451.598 196.071 448.074V453.36H191.893V433.414H196.071V437.538C199.341 444.986 206.607 448.819 215.327 448.819C224.046 448.819 230.804 444.096 230.804 435.376C230.804 435.049 230.804 434.722 230.768 434.413C234.074 432.034 236.744 428.964 238.651 425.458C239.542 427.638 240.05 430.09 240.05 432.906C240.05 444.84 230.895 453.342 214.873 453.342L214.891 453.36Z" fill="url(#paint101_linear_1248_7318)" fill-opacity="0.2" style="mix-blend-mode:overlay"/>
<path d="M193.001 492.852C192.892 493.052 192.693 493.379 192.493 493.669L190.131 497.012L193.256 497.884L192.983 493.797C192.983 493.47 192.965 493.088 192.983 492.852H193.001Z" fill="url(#paint102_linear_1248_7318)" fill-opacity="0.2" style="mix-blend-mode:overlay"/>
<path d="M270.932 481.299C271.804 482.28 272.857 482.298 273.911 481.389L275.582 479.918L272.875 476.83L271.222 478.283C270.151 479.228 270.078 480.318 270.932 481.299Z" fill="url(#paint103_linear_1248_7318)" fill-opacity="0.2" style="mix-blend-mode:overlay"/>
<path d="M265.064 540.864L272.33 537.739L265.537 530.4C265.01 529.801 264.41 529.092 264.101 528.584C264.21 529.147 264.338 530.055 264.392 530.891L265.064 540.864Z" fill="url(#paint104_linear_1248_7318)" fill-opacity="0.2" style="mix-blend-mode:overlay"/>
<path d="M290.841 369.671C291.059 369.435 291.313 369.144 291.513 368.999C291.295 369.072 290.932 369.181 290.587 369.235L286.572 370.034L288.225 372.814L290.841 369.671Z" fill="url(#paint105_linear_1248_7318)" fill-opacity="0.2" style="mix-blend-mode:overlay"/>
<path d="M341.232 411.434C341.341 416.793 345.447 420.135 351.605 420.008C357.836 419.881 361.723 416.357 361.596 410.998C361.487 405.639 357.454 402.297 351.224 402.424C344.993 402.551 341.105 406.075 341.232 411.434Z" fill="url(#paint106_linear_1248_7318)" fill-opacity="0.2" style="mix-blend-mode:overlay"/>
<path d="M201.448 535.723C196.126 535.123 192.275 538.684 191.584 544.878C190.894 551.073 193.873 555.396 199.196 555.977C204.518 556.559 208.388 552.944 209.06 546.822C209.75 540.627 206.771 536.304 201.448 535.723Z" fill="url(#paint107_linear_1248_7318)" fill-opacity="0.2" style="mix-blend-mode:overlay"/>
<path d="M201.866 333.958C204.028 333.594 205.154 331.741 204.736 329.253C204.319 326.728 202.665 325.365 200.504 325.729C198.342 326.092 197.216 327.909 197.634 330.434C198.051 332.94 199.704 334.321 201.866 333.958Z" fill="url(#paint108_linear_1248_7318)" fill-opacity="0.2" style="mix-blend-mode:overlay"/>
<path d="M384.358 414.013C384.358 320.588 308.625 244.837 215.182 244.837C121.738 244.837 46.0237 320.57 46.0237 414.013C46.0237 507.457 121.756 583.189 215.2 583.189C308.643 583.189 384.376 507.457 384.376 414.013H384.358ZM362.359 448.037L338.744 455.703L358.69 461.244L357.345 466.094L329.207 458.265L330.551 453.414L354.166 445.712L334.22 440.172L335.565 435.322L363.703 443.151L362.341 448.037H362.359ZM366.501 410.907C366.682 419.263 360.615 425.221 351.714 425.403C342.849 425.603 336.491 419.899 336.31 411.506C336.128 403.15 342.195 397.283 351.096 397.083C359.961 396.883 366.319 402.551 366.501 410.889V410.907ZM362.65 382.205L334.202 388.872L333.04 383.895L361.487 377.228L362.65 382.205ZM349.461 344.512L358.235 364.93L353.894 366.783L350.515 358.917L328.008 368.581L325.992 363.876L348.499 354.212L345.12 346.347L349.461 344.494V344.512ZM312.749 324.094L327.408 312.74L330.533 316.791L316.128 327.945C312.803 330.524 312.367 333.74 314.91 337.028C317.454 340.316 320.742 340.697 324.03 338.154L338.435 327L341.559 331.051L326.9 342.405C321.505 346.583 315.346 345.693 310.987 340.061C306.663 334.466 307.299 328.308 312.731 324.094H312.749ZM308.098 295.338L292.712 314.393L302.213 322.077L299.252 325.747L285.773 314.847L304.138 292.141L308.117 295.356L308.098 295.338ZM258.579 284.22C262.249 276.137 270.096 272.867 277.707 276.318C285.319 279.77 288.062 287.817 284.374 295.937C280.705 304.021 272.821 307.291 265.173 303.821C257.562 300.37 254.891 292.34 258.579 284.238V284.22ZM225.627 284.511L230.677 285.328C230.313 287.781 232.057 289.561 235.291 290.088C238.651 290.633 241.013 289.525 241.413 287.109C241.721 285.183 240.922 283.875 238.651 282.967L234.237 281.187C229.514 279.334 227.407 276.1 228.134 271.686C228.951 266.636 233.71 263.802 239.778 264.801C245.609 265.746 248.788 269.597 248.098 274.829L243.048 274.011C243.338 271.504 241.794 269.761 238.96 269.288C235.854 268.78 233.583 269.96 233.202 272.358C232.875 274.411 233.783 275.737 236.108 276.682L240.486 278.407C245.246 280.278 247.244 283.185 246.535 287.49C245.663 292.849 240.922 295.646 234.564 294.611C228.406 293.612 224.918 289.67 225.645 284.493L225.627 284.511ZM184.336 266.037C191.094 264.602 196.98 267.472 199.25 273.412L193.982 274.538C192.293 271.432 189.041 270.069 185.245 270.887C179.958 272.013 177.452 276.536 178.741 282.64C180.031 288.689 184.209 291.886 189.459 290.778C193.328 289.961 195.872 287.29 196.126 283.93L201.321 282.822C201.503 289.071 197.107 294.175 190.349 295.61C182.029 297.372 175.399 292.74 173.51 283.784C171.62 274.92 175.962 267.817 184.336 266.055V266.037ZM156.743 275.101L168.514 301.823L163.827 303.875L152.056 277.154L156.743 275.101ZM127.224 291.051C132.637 287.145 139.086 287.272 143.246 291.614L138.868 294.775C136.107 292.522 132.783 292.958 129.931 295.011C125.226 298.408 124.989 303.748 128.677 308.871C132.492 314.157 137.615 314.847 141.992 311.687C146.116 308.726 146.97 304.657 144.245 300.86L144.172 300.769L136.997 305.928L134.363 302.259L145.389 294.32L154.999 307.654L151.493 310.179L149.277 307.636C149.277 310.379 147.515 313.594 144.299 315.901C137.651 320.697 129.531 319.207 124.281 311.905C119.086 304.711 120.103 296.191 127.242 291.051H127.224ZM104.408 311.378L108.059 314.357L99.812 324.439L105.625 329.198L113.018 320.17L116.506 323.022L109.113 332.05L115.107 336.955L123.355 326.873L127.006 329.852L115.525 343.894L92.9091 325.402L104.39 311.36L104.408 311.378ZM84.6438 337.736L88.8763 339.825L85.0979 347.509L107.078 358.318L104.826 362.914L82.8454 352.105L79.0669 359.771L74.8343 357.7L84.6438 337.754V337.736ZM69.0759 376.501L99.9392 373.032L98.6857 378.282L91.5648 379.008L89.0217 389.617L95.0345 393.486L93.7992 398.645L67.8406 381.606L69.0577 376.52L69.0759 376.501ZM64.3528 416.665C64.2075 410.035 67.4591 406.075 73.2176 405.948C77.1414 405.857 79.9752 407.637 81.4466 411.034L93.3087 405.203L93.4359 410.798L82.6455 415.993L82.7909 422.26L93.6902 422.006L93.7992 427.111L64.6071 427.783L64.3528 416.647V416.665ZM72.4728 464.441L66.6598 442.987L71.2194 441.752L73.4538 450.017L97.1053 443.605L98.4496 448.546L74.798 454.959L77.0324 463.206L72.4728 464.441ZM105.788 484.659L103.372 480.154C105.534 478.955 105.897 476.485 104.353 473.596C102.755 470.599 100.43 469.4 98.2861 470.545C96.5604 471.471 96.0154 472.888 96.6875 475.249L97.9591 479.827C99.3397 484.714 98.0681 488.347 94.1262 490.454C89.6211 492.87 84.4803 490.799 81.5738 485.386C78.7763 480.172 79.9025 475.304 84.4803 472.67L86.8963 477.175C84.7346 478.465 84.2804 480.754 85.6247 483.297C87.1143 486.076 89.4213 487.166 91.5648 486.022C93.3996 485.041 93.89 483.515 93.2361 481.099L91.9463 476.576C90.5476 471.653 91.6557 468.31 95.4886 466.239C100.284 463.678 105.389 465.749 108.422 471.435C111.365 476.939 110.366 482.098 105.788 484.677V484.659ZM154.327 526.785L149.876 523.752C151.057 520.391 149.513 517.412 146.607 515.432C141.829 512.162 136.724 513.761 133.164 518.974C129.495 524.351 130.584 529.401 135.035 532.453C139.231 535.323 143.337 534.742 145.971 530.891L146.043 530.8L138.759 525.822L141.302 522.099L152.51 529.764L143.246 543.316L139.685 540.882L141.32 537.939C138.741 538.884 135.126 538.302 131.856 536.068C125.098 531.454 123.736 523.316 128.804 515.886C133.8 508.565 142.156 506.621 149.404 511.581C154.908 515.341 156.979 521.445 154.327 526.84V526.785ZM173.928 555.814L157.633 549.855L167.66 522.425L172.456 524.188L164.045 547.185L175.526 551.381L173.909 555.814H173.928ZM214.419 547.458C213.438 556.268 206.934 561.827 198.596 560.9C190.295 559.974 185.263 553.18 186.244 544.315C187.225 535.505 193.674 529.946 201.975 530.872C210.277 531.799 215.381 538.611 214.4 547.458H214.419ZM215.182 521.626C155.853 521.626 107.587 473.36 107.587 414.032C107.587 354.703 155.853 306.419 215.182 306.419C274.51 306.419 322.794 354.703 322.794 414.032C322.794 473.36 274.51 521.626 215.182 521.626ZM240.141 559.247L228.461 561.082L223.937 532.235L235.418 530.437C241.104 529.546 245.046 531.962 245.791 536.776C246.299 539.973 245.227 542.48 242.684 544.061C245.881 544.569 247.771 546.622 248.297 549.983C249.06 554.924 246.081 558.339 240.123 559.265L240.141 559.247ZM280.232 546.44L275.4 541.154L265.373 545.459L265.863 552.599L260.977 554.688L259.16 523.679L263.974 521.626L285.173 544.315L280.214 546.44H280.232ZM296.491 537.085L279.124 513.579L283.248 510.545L297.817 530.255L307.662 522.989L310.46 526.785L296.509 537.103L296.491 537.085ZM341.251 481.644C339.452 480.59 337.89 480.972 336.182 482.806L333.003 486.276C329.552 490.054 326.119 490.872 322.358 488.674C317.672 485.931 316.763 480.499 319.997 474.941C323.14 469.546 328.062 467.693 332.64 470.236L330.061 474.65C327.899 473.433 325.61 474.414 323.957 477.248C322.249 480.191 322.431 482.788 324.538 484.023C326.228 485.004 327.735 484.732 329.388 482.915L332.622 479.428C336.055 475.685 339.815 474.868 343.685 477.121C348.099 479.7 349.044 485.15 345.955 490.472C342.976 495.577 338.253 497.175 333.621 494.668L336.201 490.254C338.435 491.417 340.615 490.618 342.068 488.129C343.667 485.404 343.376 482.879 341.269 481.644H341.251Z" fill="url(#paint109_linear_1248_7318)" fill-opacity="0.2" style="mix-blend-mode:overlay"/>
<path d="M240.704 538.066C240.323 535.577 238.524 534.487 235.69 534.923L229.696 535.868L230.931 543.716L237.053 542.753C239.814 542.317 241.122 540.627 240.722 538.048L240.704 538.066Z" fill="url(#paint110_linear_1248_7318)" fill-opacity="0.2" style="mix-blend-mode:overlay"/>
<path d="M215.182 310.034C157.851 310.034 111.22 356.683 111.22 414.013C111.22 471.344 157.851 517.975 215.182 517.975C272.512 517.975 319.161 471.344 319.161 414.013C319.161 356.683 272.512 310.034 215.182 310.034ZM305.065 397.864L300.178 398.591L300.959 403.822L305.846 403.096L306.155 405.167L294.347 406.929L294.038 404.858L299.052 404.113L298.271 398.881L293.257 399.626L292.948 397.555L304.756 395.793L305.065 397.864ZM300.941 382.732C302.14 386.057 300.669 389.163 297.308 390.38C294.002 391.561 290.896 390.144 289.733 386.874L288.28 382.823L299.524 378.79L300.941 382.732ZM293.257 366.728L294.347 368.563L286.245 378.354L285.119 376.447L287.008 374.213L284.738 370.361L281.867 370.943L280.759 369.072L293.257 366.71V366.728ZM287.081 357.664L285.609 358.917L282.14 354.866L279.796 356.864L282.903 360.498L281.504 361.697L278.398 358.063L275.982 360.134L279.451 364.185L277.98 365.439L273.148 359.807L282.231 352.032L287.063 357.664H287.081ZM271.894 342.459L273.493 343.822L267.008 351.451L270.823 354.685L269.569 356.156L264.174 351.56L271.913 342.459H271.894ZM248.443 328.853L250.332 329.707L251.931 339.734L255.436 332.032L257.308 332.886L252.366 343.767L250.495 342.913L248.879 332.886L245.373 340.588L243.502 339.734L248.443 328.853ZM233.819 324.584L241.013 326.364L240.541 328.236L235.364 326.946L234.619 329.925L239.251 331.069L238.815 332.868L234.183 331.723L233.42 334.793L238.597 336.083L238.125 337.954L230.931 336.174L233.801 324.584H233.819ZM213.801 322.568L215.817 322.677L219.196 332.359L223.52 323.04L225.572 323.149L224.991 335.084L222.975 334.975L223.156 331.305C223.265 328.908 223.302 328.199 223.465 327.364L220.05 334.848L218.124 334.757L215.472 327C215.545 327.727 215.509 328.853 215.436 330.343L215.218 334.612L213.202 334.521L213.783 322.586L213.801 322.568ZM200.231 323.767C203.61 323.204 206.371 325.329 206.971 328.926C207.57 332.504 205.626 335.411 202.229 335.974C198.851 336.537 196.126 334.412 195.526 330.815C194.927 327.236 196.852 324.33 200.231 323.767ZM175.09 331.814L179.25 336.937C179.668 337.464 180.086 338.027 180.649 338.917C180.431 337.863 180.358 337.209 180.285 336.501L179.632 329.943L181.757 329.071L185.862 334.212C186.298 334.757 186.734 335.32 187.297 336.192C187.079 335.084 186.989 334.43 186.934 333.794L186.316 327.2L188.278 326.383L189.459 338.826L187.588 339.589L181.92 332.504L182.811 341.533L180.903 342.314L173.074 332.595L175.09 331.76V331.814ZM153.255 347.001L163.046 349.707L157.488 343.313L159.05 341.969L166.897 350.979L165.335 352.323L155.544 349.616L161.103 356.011L159.54 357.355L151.693 348.345L153.255 346.982V347.001ZM144.063 356.901L156.125 360.879L154.763 362.623L152.002 361.678L149.241 365.184L150.821 367.655L149.477 369.362L142.737 358.59L144.063 356.901ZM134.218 371.542C135.526 369.035 137.96 367.927 140.43 368.745L139.413 370.707C137.996 370.434 136.706 371.106 135.98 372.505C134.962 374.467 135.743 376.429 137.996 377.61C140.249 378.79 142.338 378.3 143.355 376.356C144.1 374.921 143.918 373.431 142.937 372.469L143.936 370.543C145.953 372.124 146.425 374.83 145.117 377.337C143.5 380.425 140.321 381.297 136.997 379.571C133.709 377.846 132.601 374.63 134.218 371.542ZM129.149 383.659L140.448 387.51L139.776 389.49L128.477 385.639L129.149 383.659ZM125.571 396.865C126.061 394.195 127.714 392.887 130.021 393.323C131.602 393.613 132.583 394.558 132.892 396.048L138.123 394.703L137.705 396.956L132.946 398.137L132.474 400.662L136.87 401.479L136.488 403.532L124.735 401.352L125.571 396.865ZM124.027 408.654L125.952 408.691L125.861 413.995L129.113 414.05L129.186 409.599L131.075 409.635L131.002 414.086L135.889 414.177L135.852 416.266L123.9 416.066L124.027 408.673V408.654ZM124.899 427.347L136.034 421.189L136.379 423.369L133.8 424.749L134.508 429.163L137.397 429.672L137.742 431.816L125.244 429.436L124.899 427.311V427.347ZM136.506 448.909L133.636 450.254L135.889 455.086L134.145 455.903L131.002 449.164L141.847 444.114L144.972 450.853L143.228 451.671L140.975 446.839L138.196 448.128L140.212 452.452L138.541 453.233L136.525 448.909H136.506ZM150.112 469.255C147.297 471.362 143.918 470.908 141.829 468.129L139.249 464.677L148.841 457.52L151.348 460.881C153.455 463.714 152.964 467.129 150.112 469.255ZM162.265 482.97C160.449 485.095 157.906 485.241 155.689 483.333C153.491 481.444 153.255 478.919 155.09 476.794L160.049 471.053L161.629 472.416L156.761 478.065C155.635 479.373 155.726 480.699 157.015 481.807C158.305 482.915 159.649 482.806 160.758 481.517L165.626 475.867L167.206 477.23L162.247 482.97H162.265ZM181.303 490.272L179.359 489.237C179.65 487.82 178.978 486.53 177.579 485.804C175.635 484.768 173.655 485.531 172.456 487.784C171.275 490.018 171.748 492.125 173.691 493.143C175.126 493.906 176.616 493.724 177.579 492.743L179.504 493.76C177.924 495.777 175.199 496.213 172.71 494.886C169.64 493.252 168.769 490.054 170.531 486.748C172.274 483.478 175.49 482.389 178.578 484.023C181.085 485.35 182.175 487.802 181.321 490.254L181.303 490.272ZM193.601 502.68L193.419 499.755L189.114 498.538L187.443 500.936L185.354 500.354L192.747 490.018L194.818 490.599L195.726 503.279L193.601 502.68ZM212.475 495.286L208.987 494.977L208.079 504.95L205.99 504.769L206.898 494.796L203.41 494.487L203.592 492.561L212.638 493.379L212.457 495.304L212.475 495.286ZM152.274 414.013C152.274 379.281 180.522 351.033 215.236 351.033C249.95 351.033 278.216 379.281 278.216 414.013C278.216 448.746 249.969 476.975 215.236 476.975C180.503 476.975 152.274 448.728 152.274 414.013ZM220.032 505.096L219.287 493.161L221.376 493.034L222.121 504.968L220.032 505.096ZM237.071 502.77C233.747 503.588 230.858 501.68 229.986 498.138C229.115 494.614 230.804 491.562 234.128 490.745C237.453 489.927 240.377 491.816 241.249 495.359C242.121 498.883 240.414 501.935 237.071 502.752V502.77ZM259.179 493.96L250.314 488.983L254.183 496.521L252.348 497.466L246.899 486.821L248.752 485.876L257.598 490.854L253.729 483.315L255.564 482.37L261.013 493.015L259.179 493.96ZM274.892 483.061C273.093 484.641 270.877 484.496 269.333 482.734C267.807 481.008 267.916 478.755 269.715 477.175L271.695 475.431L268.97 472.343L270.55 470.962L278.452 479.936L274.91 483.061H274.892ZM283.811 474.196L274.746 466.421L276.109 464.841L285.173 472.615L283.811 474.196ZM294.038 460.136L289.86 457.52L287.045 462.007L291.223 464.623L290.115 466.403L279.978 460.063L281.086 458.283L285.373 460.971L288.189 456.484L283.902 453.796L285.01 452.016L295.146 458.355L294.038 460.136ZM300.251 447.838C299.361 450.09 297.544 451.017 295.51 450.29L296.291 448.346C297.272 448.673 298.107 448.219 298.543 447.129C299.016 445.93 298.743 444.931 297.817 444.55C297.017 444.241 296.418 444.477 295.837 445.331L294.765 446.929C293.602 448.673 292.258 449.2 290.605 448.546C288.534 447.729 287.844 445.585 288.825 443.133C289.769 440.771 291.64 439.718 293.657 440.462L292.876 442.406C291.931 442.043 291.059 442.588 290.569 443.823C290.06 445.113 290.296 446.166 291.223 446.53C291.967 446.82 292.567 446.621 293.112 445.785L294.202 444.186C295.364 442.461 296.836 441.916 298.525 442.588C300.469 443.369 301.177 445.512 300.251 447.856V447.838ZM304.538 432.996C303.993 435.649 302.322 436.938 300.015 436.448C298.453 436.121 297.472 435.158 297.199 433.65L291.931 434.886L292.403 432.651L297.181 431.579L297.708 429.073L293.33 428.164L293.748 426.112L305.464 428.546L304.538 433.015V432.996ZM304.411 420.771L304.574 415.43L301.504 415.339L301.359 420.117L299.506 420.062L299.651 415.285L296.473 415.176L296.309 420.498L294.383 420.444L294.62 413.014L306.573 413.396L306.336 420.825L304.411 420.771Z" fill="url(#paint111_linear_1248_7318)" fill-opacity="0.2" style="mix-blend-mode:overlay"/>
<path d="M146.316 359.753C146.007 359.644 145.662 359.517 145.444 359.389C145.589 359.571 145.825 359.862 146.007 360.152L148.205 363.604L150.203 361.061L146.316 359.753Z" fill="url(#paint112_linear_1248_7318)" fill-opacity="0.2" style="mix-blend-mode:overlay"/>
<path d="M296.563 388.291C298.943 387.437 299.888 385.512 299.052 383.186L298.416 381.406L290.805 384.131L291.477 386.02C292.276 388.273 294.22 389.126 296.563 388.273V388.291Z" fill="url(#paint113_linear_1248_7318)" fill-opacity="0.2" style="mix-blend-mode:overlay"/>
<path d="M238.016 546.985L231.585 547.984L232.802 555.796L239.233 554.797C242.067 554.342 243.429 552.726 243.029 550.11C242.648 547.657 240.813 546.531 238.016 546.967V546.985Z" fill="url(#paint114_linear_1248_7318)" fill-opacity="0.2" style="mix-blend-mode:overlay"/>
<g filter="url(#filter0_f_1248_7318)">
<circle cx="343" cy="276" r="6" fill="url(#paint115_radial_1248_7318)"/>
</g>
<g filter="url(#filter1_f_1248_7318)">
<circle cx="25" cy="438" r="8" fill="url(#paint116_radial_1248_7318)"/>
</g>
<g filter="url(#filter2_f_1248_7318)">
<circle cx="176" cy="195" r="8" fill="url(#paint117_radial_1248_7318)"/>
</g>
<g filter="url(#filter3_f_1248_7318)">
<circle cx="377" cy="581" r="14" fill="url(#paint118_radial_1248_7318)"/>
</g>
<g filter="url(#filter4_f_1248_7318)">
<circle cx="403" cy="321" r="10" fill="url(#paint119_radial_1248_7318)"/>
</g>
<g filter="url(#filter5_f_1248_7318)">
<circle cx="112" cy="267" r="9" fill="url(#paint120_radial_1248_7318)"/>
</g>
<g filter="url(#filter6_f_1248_7318)">
<circle cx="109" cy="563" r="10" fill="url(#paint121_radial_1248_7318)"/>
</g>
<g filter="url(#filter7_f_1248_7318)">
<circle cx="135" cy="585" r="10" fill="url(#paint122_radial_1248_7318)"/>
</g>
<defs>
<filter id="filter0_f_1248_7318" x="326" y="259" width="34" height="34" filterUnits="userSpaceOnUse" color-interpolation-filters="sRGB">
<feFlood flood-opacity="0" result="BackgroundImageFix"/>
<feBlend mode="normal" in="SourceGraphic" in2="BackgroundImageFix" result="shape"/>
<feGaussianBlur stdDeviation="5.5" result="effect1_foregroundBlur_1248_7318"/>
</filter>
<filter id="filter1_f_1248_7318" x="6" y="419" width="38" height="38" filterUnits="userSpaceOnUse" color-interpolation-filters="sRGB">
<feFlood flood-opacity="0" result="BackgroundImageFix"/>
<feBlend mode="normal" in="SourceGraphic" in2="BackgroundImageFix" result="shape"/>
<feGaussianBlur stdDeviation="5.5" result="effect1_foregroundBlur_1248_7318"/>
</filter>
<filter id="filter2_f_1248_7318" x="157" y="176" width="38" height="38" filterUnits="userSpaceOnUse" color-interpolation-filters="sRGB">
<feFlood flood-opacity="0" result="BackgroundImageFix"/>
<feBlend mode="normal" in="SourceGraphic" in2="BackgroundImageFix" result="shape"/>
<feGaussianBlur stdDeviation="5.5" result="effect1_foregroundBlur_1248_7318"/>
</filter>
<filter id="filter3_f_1248_7318" x="352" y="556" width="50" height="50" filterUnits="userSpaceOnUse" color-interpolation-filters="sRGB">
<feFlood flood-opacity="0" result="BackgroundImageFix"/>
<feBlend mode="normal" in="SourceGraphic" in2="BackgroundImageFix" result="shape"/>
<feGaussianBlur stdDeviation="5.5" result="effect1_foregroundBlur_1248_7318"/>
</filter>
<filter id="filter4_f_1248_7318" x="382" y="300" width="42" height="42" filterUnits="userSpaceOnUse" color-interpolation-filters="sRGB">
<feFlood flood-opacity="0" result="BackgroundImageFix"/>
<feBlend mode="normal" in="SourceGraphic" in2="BackgroundImageFix" result="shape"/>
<feGaussianBlur stdDeviation="5.5" result="effect1_foregroundBlur_1248_7318"/>
</filter>
<filter id="filter5_f_1248_7318" x="92" y="247" width="40" height="40" filterUnits="userSpaceOnUse" color-interpolation-filters="sRGB">
<feFlood flood-opacity="0" result="BackgroundImageFix"/>
<feBlend mode="normal" in="SourceGraphic" in2="BackgroundImageFix" result="shape"/>
<feGaussianBlur stdDeviation="5.5" result="effect1_foregroundBlur_1248_7318"/>
</filter>
<filter id="filter6_f_1248_7318" x="88" y="542" width="42" height="42" filterUnits="userSpaceOnUse" color-interpolation-filters="sRGB">
<feFlood flood-opacity="0" result="BackgroundImageFix"/>
<feBlend mode="normal" in="SourceGraphic" in2="BackgroundImageFix" result="shape"/>
<feGaussianBlur stdDeviation="5.5" result="effect1_foregroundBlur_1248_7318"/>
</filter>
<filter id="filter7_f_1248_7318" x="114" y="564" width="42" height="42" filterUnits="userSpaceOnUse" color-interpolation-filters="sRGB">
<feFlood flood-opacity="0" result="BackgroundImageFix"/>
<feBlend mode="normal" in="SourceGraphic" in2="BackgroundImageFix" result="shape"/>
<feGaussianBlur stdDeviation="5.5" result="effect1_foregroundBlur_1248_7318"/>
</filter>
<radialGradient id="paint0_radial_1248_7318" cx="0" cy="0" r="1" gradientUnits="userSpaceOnUse" gradientTransform="translate(215 380) rotate(-90) scale(380 373.541)">
<stop stop-color="#1A27C9" stop-opacity="0.34"/>
<stop offset="1" stop-color="#1A27C9" stop-opacity="0"/>
</radialGradient>
<linearGradient id="paint1_linear_1248_7318" x1="215" y1="219" x2="215" y2="645.517" gradientUnits="userSpaceOnUse">
<stop stop-color="white"/>
<stop offset="1" stop-color="white" stop-opacity="0.54"/>
</linearGradient>
<linearGradient id="paint2_linear_1248_7318" x1="215" y1="219" x2="215" y2="645.517" gradientUnits="userSpaceOnUse">
<stop stop-color="white"/>
<stop offset="1" stop-color="white" stop-opacity="0.54"/>
</linearGradient>
<linearGradient id="paint3_linear_1248_7318" x1="215" y1="219" x2="215" y2="645.517" gradientUnits="userSpaceOnUse">
<stop stop-color="white"/>
<stop offset="1" stop-color="white" stop-opacity="0.54"/>
</linearGradient>
<linearGradient id="paint4_linear_1248_7318" x1="215" y1="219" x2="215" y2="645.517" gradientUnits="userSpaceOnUse">
<stop stop-color="white"/>
<stop offset="1" stop-color="white" stop-opacity="0.54"/>
</linearGradient>
<linearGradient id="paint5_linear_1248_7318" x1="215" y1="219" x2="215" y2="645.517" gradientUnits="userSpaceOnUse">
<stop stop-color="white"/>
<stop offset="1" stop-color="white" stop-opacity="0.54"/>
</linearGradient>
<linearGradient id="paint6_linear_1248_7318" x1="215" y1="219" x2="215" y2="645.517" gradientUnits="userSpaceOnUse">
<stop stop-color="white"/>
<stop offset="1" stop-color="white" stop-opacity="0.54"/>
</linearGradient>
<linearGradient id="paint7_linear_1248_7318" x1="215" y1="219" x2="215" y2="645.517" gradientUnits="userSpaceOnUse">
<stop stop-color="white"/>
<stop offset="1" stop-color="white" stop-opacity="0.54"/>
</linearGradient>
<linearGradient id="paint8_linear_1248_7318" x1="215" y1="219" x2="215" y2="645.517" gradientUnits="userSpaceOnUse">
<stop stop-color="white"/>
<stop offset="1" stop-color="white" stop-opacity="0.54"/>
</linearGradient>
<linearGradient id="paint9_linear_1248_7318" x1="215" y1="219" x2="215" y2="645.517" gradientUnits="userSpaceOnUse">
<stop stop-color="white"/>
<stop offset="1" stop-color="white" stop-opacity="0.54"/>
</linearGradient>
<linearGradient id="paint10_linear_1248_7318" x1="215" y1="219" x2="215" y2="645.517" gradientUnits="userSpaceOnUse">
<stop stop-color="white"/>
<stop offset="1" stop-color="white" stop-opacity="0.54"/>
</linearGradient>
<linearGradient id="paint11_linear_1248_7318" x1="215" y1="219" x2="215" y2="645.517" gradientUnits="userSpaceOnUse">
<stop stop-color="white"/>
<stop offset="1" stop-color="white" stop-opacity="0.54"/>
</linearGradient>
<linearGradient id="paint12_linear_1248_7318" x1="215" y1="219" x2="215" y2="645.517" gradientUnits="userSpaceOnUse">
<stop stop-color="white"/>
<stop offset="1" stop-color="white" stop-opacity="0.54"/>
</linearGradient>
<linearGradient id="paint13_linear_1248_7318" x1="215" y1="219" x2="215" y2="645.517" gradientUnits="userSpaceOnUse">
<stop stop-color="white"/>
<stop offset="1" stop-color="white" stop-opacity="0.54"/>
</linearGradient>
<linearGradient id="paint14_linear_1248_7318" x1="215" y1="219" x2="215" y2="645.517" gradientUnits="userSpaceOnUse">
<stop stop-color="white"/>
<stop offset="1" stop-color="white" stop-opacity="0.54"/>
</linearGradient>
<linearGradient id="paint15_linear_1248_7318" x1="215" y1="219" x2="215" y2="645.517" gradientUnits="userSpaceOnUse">
<stop stop-color="white"/>
<stop offset="1" stop-color="white" stop-opacity="0.54"/>
</linearGradient>
<linearGradient id="paint16_linear_1248_7318" x1="215" y1="219" x2="215" y2="645.517" gradientUnits="userSpaceOnUse">
<stop stop-color="white"/>
<stop offset="1" stop-color="white" stop-opacity="0.54"/>
</linearGradient>
<linearGradient id="paint17_linear_1248_7318" x1="215" y1="219" x2="215" y2="645.517" gradientUnits="userSpaceOnUse">
<stop stop-color="white"/>
<stop offset="1" stop-color="white" stop-opacity="0.54"/>
</linearGradient>
<linearGradient id="paint18_linear_1248_7318" x1="215" y1="219" x2="215" y2="645.517" gradientUnits="userSpaceOnUse">
<stop stop-color="white"/>
<stop offset="1" stop-color="white" stop-opacity="0.54"/>
</linearGradient>
<linearGradient id="paint19_linear_1248_7318" x1="215" y1="219" x2="215" y2="645.517" gradientUnits="userSpaceOnUse">
<stop stop-color="white"/>
<stop offset="1" stop-color="white" stop-opacity="0.54"/>
</linearGradient>
<linearGradient id="paint20_linear_1248_7318" x1="215" y1="219" x2="215" y2="645.517" gradientUnits="userSpaceOnUse">
<stop stop-color="white"/>
<stop offset="1" stop-color="white" stop-opacity="0.54"/>
</linearGradient>
<linearGradient id="paint21_linear_1248_7318" x1="215" y1="219" x2="215" y2="645.517" gradientUnits="userSpaceOnUse">
<stop stop-color="white"/>
<stop offset="1" stop-color="white" stop-opacity="0.54"/>
</linearGradient>
<linearGradient id="paint22_linear_1248_7318" x1="215" y1="219" x2="215" y2="645.517" gradientUnits="userSpaceOnUse">
<stop stop-color="white"/>
<stop offset="1" stop-color="white" stop-opacity="0.54"/>
</linearGradient>
<linearGradient id="paint23_linear_1248_7318" x1="215" y1="219" x2="215" y2="645.517" gradientUnits="userSpaceOnUse">
<stop stop-color="white"/>
<stop offset="1" stop-color="white" stop-opacity="0.54"/>
</linearGradient>
<linearGradient id="paint24_linear_1248_7318" x1="215" y1="219" x2="215" y2="645.517" gradientUnits="userSpaceOnUse">
<stop stop-color="white"/>
<stop offset="1" stop-color="white" stop-opacity="0.54"/>
</linearGradient>
<linearGradient id="paint25_linear_1248_7318" x1="215" y1="219" x2="215" y2="645.517" gradientUnits="userSpaceOnUse">
<stop stop-color="white"/>
<stop offset="1" stop-color="white" stop-opacity="0.54"/>
</linearGradient>
<linearGradient id="paint26_linear_1248_7318" x1="215" y1="219" x2="215" y2="645.517" gradientUnits="userSpaceOnUse">
<stop stop-color="white"/>
<stop offset="1" stop-color="white" stop-opacity="0.54"/>
</linearGradient>
<linearGradient id="paint27_linear_1248_7318" x1="215" y1="219" x2="215" y2="645.517" gradientUnits="userSpaceOnUse">
<stop stop-color="white"/>
<stop offset="1" stop-color="white" stop-opacity="0.54"/>
</linearGradient>
<linearGradient id="paint28_linear_1248_7318" x1="215" y1="219" x2="215" y2="645.517" gradientUnits="userSpaceOnUse">
<stop stop-color="white"/>
<stop offset="1" stop-color="white" stop-opacity="0.54"/>
</linearGradient>
<linearGradient id="paint29_linear_1248_7318" x1="215" y1="219" x2="215" y2="645.517" gradientUnits="userSpaceOnUse">
<stop stop-color="white"/>
<stop offset="1" stop-color="white" stop-opacity="0.54"/>
</linearGradient>
<linearGradient id="paint30_linear_1248_7318" x1="215" y1="219" x2="215" y2="645.517" gradientUnits="userSpaceOnUse">
<stop stop-color="white"/>
<stop offset="1" stop-color="white" stop-opacity="0.54"/>
</linearGradient>
<linearGradient id="paint31_linear_1248_7318" x1="215" y1="219" x2="215" y2="645.517" gradientUnits="userSpaceOnUse">
<stop stop-color="white"/>
<stop offset="1" stop-color="white" stop-opacity="0.54"/>
</linearGradient>
<linearGradient id="paint32_linear_1248_7318" x1="215" y1="219" x2="215" y2="645.517" gradientUnits="userSpaceOnUse">
<stop stop-color="white"/>
<stop offset="1" stop-color="white" stop-opacity="0.54"/>
</linearGradient>
<linearGradient id="paint33_linear_1248_7318" x1="215" y1="219" x2="215" y2="645.517" gradientUnits="userSpaceOnUse">
<stop stop-color="white"/>
<stop offset="1" stop-color="white" stop-opacity="0.54"/>
</linearGradient>
<linearGradient id="paint34_linear_1248_7318" x1="215" y1="219" x2="215" y2="645.517" gradientUnits="userSpaceOnUse">
<stop stop-color="white"/>
<stop offset="1" stop-color="white" stop-opacity="0.54"/>
</linearGradient>
<linearGradient id="paint35_linear_1248_7318" x1="215" y1="219" x2="215" y2="645.517" gradientUnits="userSpaceOnUse">
<stop stop-color="white"/>
<stop offset="1" stop-color="white" stop-opacity="0.54"/>
</linearGradient>
<linearGradient id="paint36_linear_1248_7318" x1="215" y1="219" x2="215" y2="645.517" gradientUnits="userSpaceOnUse">
<stop stop-color="white"/>
<stop offset="1" stop-color="white" stop-opacity="0.54"/>
</linearGradient>
<linearGradient id="paint37_linear_1248_7318" x1="215" y1="219" x2="215" y2="645.517" gradientUnits="userSpaceOnUse">
<stop stop-color="white"/>
<stop offset="1" stop-color="white" stop-opacity="0.54"/>
</linearGradient>
<linearGradient id="paint38_linear_1248_7318" x1="215" y1="219" x2="215" y2="645.517" gradientUnits="userSpaceOnUse">
<stop stop-color="white"/>
<stop offset="1" stop-color="white" stop-opacity="0.54"/>
</linearGradient>
<linearGradient id="paint39_linear_1248_7318" x1="215" y1="219" x2="215" y2="645.517" gradientUnits="userSpaceOnUse">
<stop stop-color="white"/>
<stop offset="1" stop-color="white" stop-opacity="0.54"/>
</linearGradient>
<linearGradient id="paint40_linear_1248_7318" x1="215" y1="219" x2="215" y2="645.517" gradientUnits="userSpaceOnUse">
<stop stop-color="white"/>
<stop offset="1" stop-color="white" stop-opacity="0.54"/>
</linearGradient>
<linearGradient id="paint41_linear_1248_7318" x1="215" y1="219" x2="215" y2="645.517" gradientUnits="userSpaceOnUse">
<stop stop-color="white"/>
<stop offset="1" stop-color="white" stop-opacity="0.54"/>
</linearGradient>
<linearGradient id="paint42_linear_1248_7318" x1="215" y1="219" x2="215" y2="645.517" gradientUnits="userSpaceOnUse">
<stop stop-color="white"/>
<stop offset="1" stop-color="white" stop-opacity="0.54"/>
</linearGradient>
<linearGradient id="paint43_linear_1248_7318" x1="215" y1="219" x2="215" y2="645.517" gradientUnits="userSpaceOnUse">
<stop stop-color="white"/>
<stop offset="1" stop-color="white" stop-opacity="0.54"/>
</linearGradient>
<linearGradient id="paint44_linear_1248_7318" x1="215" y1="219" x2="215" y2="645.517" gradientUnits="userSpaceOnUse">
<stop stop-color="white"/>
<stop offset="1" stop-color="white" stop-opacity="0.54"/>
</linearGradient>
<linearGradient id="paint45_linear_1248_7318" x1="215" y1="219" x2="215" y2="645.517" gradientUnits="userSpaceOnUse">
<stop stop-color="white"/>
<stop offset="1" stop-color="white" stop-opacity="0.54"/>
</linearGradient>
<linearGradient id="paint46_linear_1248_7318" x1="215" y1="219" x2="215" y2="645.517" gradientUnits="userSpaceOnUse">
<stop stop-color="white"/>
<stop offset="1" stop-color="white" stop-opacity="0.54"/>
</linearGradient>
<linearGradient id="paint47_linear_1248_7318" x1="215" y1="219" x2="215" y2="645.517" gradientUnits="userSpaceOnUse">
<stop stop-color="white"/>
<stop offset="1" stop-color="white" stop-opacity="0.54"/>
</linearGradient>
<linearGradient id="paint48_linear_1248_7318" x1="215" y1="219" x2="215" y2="645.517" gradientUnits="userSpaceOnUse">
<stop stop-color="white"/>
<stop offset="1" stop-color="white" stop-opacity="0.54"/>
</linearGradient>
<linearGradient id="paint49_linear_1248_7318" x1="215" y1="219" x2="215" y2="645.517" gradientUnits="userSpaceOnUse">
<stop stop-color="white"/>
<stop offset="1" stop-color="white" stop-opacity="0.54"/>
</linearGradient>
<linearGradient id="paint50_linear_1248_7318" x1="215" y1="219" x2="215" y2="645.517" gradientUnits="userSpaceOnUse">
<stop stop-color="white"/>
<stop offset="1" stop-color="white" stop-opacity="0.54"/>
</linearGradient>
<linearGradient id="paint51_linear_1248_7318" x1="215" y1="219" x2="215" y2="645.517" gradientUnits="userSpaceOnUse">
<stop stop-color="white"/>
<stop offset="1" stop-color="white" stop-opacity="0.54"/>
</linearGradient>
<linearGradient id="paint52_linear_1248_7318" x1="215" y1="219" x2="215" y2="645.517" gradientUnits="userSpaceOnUse">
<stop stop-color="white"/>
<stop offset="1" stop-color="white" stop-opacity="0.54"/>
</linearGradient>
<linearGradient id="paint53_linear_1248_7318" x1="215" y1="219" x2="215" y2="645.517" gradientUnits="userSpaceOnUse">
<stop stop-color="white"/>
<stop offset="1" stop-color="white" stop-opacity="0.54"/>
</linearGradient>
<linearGradient id="paint54_linear_1248_7318" x1="215" y1="219" x2="215" y2="645.517" gradientUnits="userSpaceOnUse">
<stop stop-color="white"/>
<stop offset="1" stop-color="white" stop-opacity="0.54"/>
</linearGradient>
<linearGradient id="paint55_linear_1248_7318" x1="215" y1="219" x2="215" y2="645.517" gradientUnits="userSpaceOnUse">
<stop stop-color="white"/>
<stop offset="1" stop-color="white" stop-opacity="0.54"/>
</linearGradient>
<linearGradient id="paint56_linear_1248_7318" x1="215" y1="219" x2="215" y2="645.517" gradientUnits="userSpaceOnUse">
<stop stop-color="white"/>
<stop offset="1" stop-color="white" stop-opacity="0.54"/>
</linearGradient>
<linearGradient id="paint57_linear_1248_7318" x1="215" y1="219" x2="215" y2="645.517" gradientUnits="userSpaceOnUse">
<stop stop-color="white"/>
<stop offset="1" stop-color="white" stop-opacity="0.54"/>
</linearGradient>
<linearGradient id="paint58_linear_1248_7318" x1="215" y1="219" x2="215" y2="645.517" gradientUnits="userSpaceOnUse">
<stop stop-color="white"/>
<stop offset="1" stop-color="white" stop-opacity="0.54"/>
</linearGradient>
<linearGradient id="paint59_linear_1248_7318" x1="215" y1="219" x2="215" y2="645.517" gradientUnits="userSpaceOnUse">
<stop stop-color="white"/>
<stop offset="1" stop-color="white" stop-opacity="0.54"/>
</linearGradient>
<linearGradient id="paint60_linear_1248_7318" x1="215" y1="219" x2="215" y2="645.517" gradientUnits="userSpaceOnUse">
<stop stop-color="white"/>
<stop offset="1" stop-color="white" stop-opacity="0.54"/>
</linearGradient>
<linearGradient id="paint61_linear_1248_7318" x1="215" y1="219" x2="215" y2="645.517" gradientUnits="userSpaceOnUse">
<stop stop-color="white"/>
<stop offset="1" stop-color="white" stop-opacity="0.54"/>
</linearGradient>
<linearGradient id="paint62_linear_1248_7318" x1="215" y1="219" x2="215" y2="645.517" gradientUnits="userSpaceOnUse">
<stop stop-color="white"/>
<stop offset="1" stop-color="white" stop-opacity="0.54"/>
</linearGradient>
<linearGradient id="paint63_linear_1248_7318" x1="215" y1="219" x2="215" y2="645.517" gradientUnits="userSpaceOnUse">
<stop stop-color="white"/>
<stop offset="1" stop-color="white" stop-opacity="0.54"/>
</linearGradient>
<linearGradient id="paint64_linear_1248_7318" x1="215" y1="219" x2="215" y2="645.517" gradientUnits="userSpaceOnUse">
<stop stop-color="white"/>
<stop offset="1" stop-color="white" stop-opacity="0.54"/>
</linearGradient>
<linearGradient id="paint65_linear_1248_7318" x1="215" y1="219" x2="215" y2="645.517" gradientUnits="userSpaceOnUse">
<stop stop-color="white"/>
<stop offset="1" stop-color="white" stop-opacity="0.54"/>
</linearGradient>
<linearGradient id="paint66_linear_1248_7318" x1="215" y1="219" x2="215" y2="645.517" gradientUnits="userSpaceOnUse">
<stop stop-color="white"/>
<stop offset="1" stop-color="white" stop-opacity="0.54"/>
</linearGradient>
<linearGradient id="paint67_linear_1248_7318" x1="215" y1="219" x2="215" y2="645.517" gradientUnits="userSpaceOnUse">
<stop stop-color="white"/>
<stop offset="1" stop-color="white" stop-opacity="0.54"/>
</linearGradient>
<linearGradient id="paint68_linear_1248_7318" x1="215" y1="219" x2="215" y2="645.517" gradientUnits="userSpaceOnUse">
<stop stop-color="white"/>
<stop offset="1" stop-color="white" stop-opacity="0.54"/>
</linearGradient>
<linearGradient id="paint69_linear_1248_7318" x1="215" y1="219" x2="215" y2="645.517" gradientUnits="userSpaceOnUse">
<stop stop-color="white"/>
<stop offset="1" stop-color="white" stop-opacity="0.54"/>
</linearGradient>
<linearGradient id="paint70_linear_1248_7318" x1="215" y1="219" x2="215" y2="645.517" gradientUnits="userSpaceOnUse">
<stop stop-color="white"/>
<stop offset="1" stop-color="white" stop-opacity="0.54"/>
</linearGradient>
<linearGradient id="paint71_linear_1248_7318" x1="215" y1="219" x2="215" y2="645.517" gradientUnits="userSpaceOnUse">
<stop stop-color="white"/>
<stop offset="1" stop-color="white" stop-opacity="0.54"/>
</linearGradient>
<linearGradient id="paint72_linear_1248_7318" x1="215" y1="219" x2="215" y2="645.517" gradientUnits="userSpaceOnUse">
<stop stop-color="white"/>
<stop offset="1" stop-color="white" stop-opacity="0.54"/>
</linearGradient>
<linearGradient id="paint73_linear_1248_7318" x1="215" y1="219" x2="215" y2="645.517" gradientUnits="userSpaceOnUse">
<stop stop-color="white"/>
<stop offset="1" stop-color="white" stop-opacity="0.54"/>
</linearGradient>
<linearGradient id="paint74_linear_1248_7318" x1="215" y1="219" x2="215" y2="645.517" gradientUnits="userSpaceOnUse">
<stop stop-color="white"/>
<stop offset="1" stop-color="white" stop-opacity="0.54"/>
</linearGradient>
<linearGradient id="paint75_linear_1248_7318" x1="215" y1="219" x2="215" y2="645.517" gradientUnits="userSpaceOnUse">
<stop stop-color="white"/>
<stop offset="1" stop-color="white" stop-opacity="0.54"/>
</linearGradient>
<linearGradient id="paint76_linear_1248_7318" x1="215" y1="219" x2="215" y2="645.517" gradientUnits="userSpaceOnUse">
<stop stop-color="white"/>
<stop offset="1" stop-color="white" stop-opacity="0.54"/>
</linearGradient>
<linearGradient id="paint77_linear_1248_7318" x1="215" y1="219" x2="215" y2="645.517" gradientUnits="userSpaceOnUse">
<stop stop-color="white"/>
<stop offset="1" stop-color="white" stop-opacity="0.54"/>
</linearGradient>
<linearGradient id="paint78_linear_1248_7318" x1="215" y1="219" x2="215" y2="645.517" gradientUnits="userSpaceOnUse">
<stop stop-color="white"/>
<stop offset="1" stop-color="white" stop-opacity="0.54"/>
</linearGradient>
<linearGradient id="paint79_linear_1248_7318" x1="215" y1="219" x2="215" y2="645.517" gradientUnits="userSpaceOnUse">
<stop stop-color="white"/>
<stop offset="1" stop-color="white" stop-opacity="0.54"/>
</linearGradient>
<linearGradient id="paint80_linear_1248_7318" x1="215" y1="219" x2="215" y2="645.517" gradientUnits="userSpaceOnUse">
<stop stop-color="white"/>
<stop offset="1" stop-color="white" stop-opacity="0.54"/>
</linearGradient>
<linearGradient id="paint81_linear_1248_7318" x1="215" y1="219" x2="215" y2="645.517" gradientUnits="userSpaceOnUse">
<stop stop-color="white"/>
<stop offset="1" stop-color="white" stop-opacity="0.54"/>
</linearGradient>
<linearGradient id="paint82_linear_1248_7318" x1="215" y1="219" x2="215" y2="645.517" gradientUnits="userSpaceOnUse">
<stop stop-color="white"/>
<stop offset="1" stop-color="white" stop-opacity="0.54"/>
</linearGradient>
<linearGradient id="paint83_linear_1248_7318" x1="215" y1="219" x2="215" y2="645.517" gradientUnits="userSpaceOnUse">
<stop stop-color="white"/>
<stop offset="1" stop-color="white" stop-opacity="0.54"/>
</linearGradient>
<linearGradient id="paint84_linear_1248_7318" x1="215" y1="219" x2="215" y2="645.517" gradientUnits="userSpaceOnUse">
<stop stop-color="white"/>
<stop offset="1" stop-color="white" stop-opacity="0.54"/>
</linearGradient>
<linearGradient id="paint85_linear_1248_7318" x1="215" y1="219" x2="215" y2="645.517" gradientUnits="userSpaceOnUse">
<stop stop-color="white"/>
<stop offset="1" stop-color="white" stop-opacity="0.54"/>
</linearGradient>
<linearGradient id="paint86_linear_1248_7318" x1="215" y1="219" x2="215" y2="645.517" gradientUnits="userSpaceOnUse">
<stop stop-color="white"/>
<stop offset="1" stop-color="white" stop-opacity="0.54"/>
</linearGradient>
<linearGradient id="paint87_linear_1248_7318" x1="215" y1="219" x2="215" y2="645.517" gradientUnits="userSpaceOnUse">
<stop stop-color="white"/>
<stop offset="1" stop-color="white" stop-opacity="0.54"/>
</linearGradient>
<linearGradient id="paint88_linear_1248_7318" x1="215" y1="219" x2="215" y2="645.517" gradientUnits="userSpaceOnUse">
<stop stop-color="white"/>
<stop offset="1" stop-color="white" stop-opacity="0.54"/>
</linearGradient>
<linearGradient id="paint89_linear_1248_7318" x1="215" y1="219" x2="215" y2="645.517" gradientUnits="userSpaceOnUse">
<stop stop-color="white"/>
<stop offset="1" stop-color="white" stop-opacity="0.54"/>
</linearGradient>
<linearGradient id="paint90_linear_1248_7318" x1="215" y1="219" x2="215" y2="645.517" gradientUnits="userSpaceOnUse">
<stop stop-color="white"/>
<stop offset="1" stop-color="white" stop-opacity="0.54"/>
</linearGradient>
<linearGradient id="paint91_linear_1248_7318" x1="215" y1="219" x2="215" y2="645.517" gradientUnits="userSpaceOnUse">
<stop stop-color="white"/>
<stop offset="1" stop-color="white" stop-opacity="0.54"/>
</linearGradient>
<linearGradient id="paint92_linear_1248_7318" x1="215" y1="219" x2="215" y2="645.517" gradientUnits="userSpaceOnUse">
<stop stop-color="white"/>
<stop offset="1" stop-color="white" stop-opacity="0.54"/>
</linearGradient>
<linearGradient id="paint93_linear_1248_7318" x1="215" y1="219" x2="215" y2="645.517" gradientUnits="userSpaceOnUse">
<stop stop-color="white"/>
<stop offset="1" stop-color="white" stop-opacity="0.54"/>
</linearGradient>
<linearGradient id="paint94_linear_1248_7318" x1="215" y1="219" x2="215" y2="645.517" gradientUnits="userSpaceOnUse">
<stop stop-color="white"/>
<stop offset="1" stop-color="white" stop-opacity="0.54"/>
</linearGradient>
<linearGradient id="paint95_linear_1248_7318" x1="215" y1="219" x2="215" y2="645.517" gradientUnits="userSpaceOnUse">
<stop stop-color="white"/>
<stop offset="1" stop-color="white" stop-opacity="0.54"/>
</linearGradient>
<linearGradient id="paint96_linear_1248_7318" x1="215" y1="219" x2="215" y2="645.517" gradientUnits="userSpaceOnUse">
<stop stop-color="white"/>
<stop offset="1" stop-color="white" stop-opacity="0.54"/>
</linearGradient>
<linearGradient id="paint97_linear_1248_7318" x1="215" y1="219" x2="215" y2="645.517" gradientUnits="userSpaceOnUse">
<stop stop-color="white"/>
<stop offset="1" stop-color="white" stop-opacity="0.54"/>
</linearGradient>
<linearGradient id="paint98_linear_1248_7318" x1="215" y1="219" x2="215" y2="645.517" gradientUnits="userSpaceOnUse">
<stop stop-color="white"/>
<stop offset="1" stop-color="white" stop-opacity="0.54"/>
</linearGradient>
<linearGradient id="paint99_linear_1248_7318" x1="215" y1="219" x2="215" y2="645.517" gradientUnits="userSpaceOnUse">
<stop stop-color="white"/>
<stop offset="1" stop-color="white" stop-opacity="0.54"/>
</linearGradient>
<linearGradient id="paint100_linear_1248_7318" x1="215" y1="219" x2="215" y2="645.517" gradientUnits="userSpaceOnUse">
<stop stop-color="white"/>
<stop offset="1" stop-color="white" stop-opacity="0.54"/>
</linearGradient>
<linearGradient id="paint101_linear_1248_7318" x1="215" y1="219" x2="215" y2="645.517" gradientUnits="userSpaceOnUse">
<stop stop-color="white"/>
<stop offset="1" stop-color="white" stop-opacity="0.54"/>
</linearGradient>
<linearGradient id="paint102_linear_1248_7318" x1="215" y1="219" x2="215" y2="645.517" gradientUnits="userSpaceOnUse">
<stop stop-color="white"/>
<stop offset="1" stop-color="white" stop-opacity="0.54"/>
</linearGradient>
<linearGradient id="paint103_linear_1248_7318" x1="215" y1="219" x2="215" y2="645.517" gradientUnits="userSpaceOnUse">
<stop stop-color="white"/>
<stop offset="1" stop-color="white" stop-opacity="0.54"/>
</linearGradient>
<linearGradient id="paint104_linear_1248_7318" x1="215" y1="219" x2="215" y2="645.517" gradientUnits="userSpaceOnUse">
<stop stop-color="white"/>
<stop offset="1" stop-color="white" stop-opacity="0.54"/>
</linearGradient>
<linearGradient id="paint105_linear_1248_7318" x1="215" y1="219" x2="215" y2="645.517" gradientUnits="userSpaceOnUse">
<stop stop-color="white"/>
<stop offset="1" stop-color="white" stop-opacity="0.54"/>
</linearGradient>
<linearGradient id="paint106_linear_1248_7318" x1="215" y1="219" x2="215" y2="645.517" gradientUnits="userSpaceOnUse">
<stop stop-color="white"/>
<stop offset="1" stop-color="white" stop-opacity="0.54"/>
</linearGradient>
<linearGradient id="paint107_linear_1248_7318" x1="215" y1="219" x2="215" y2="645.517" gradientUnits="userSpaceOnUse">
<stop stop-color="white"/>
<stop offset="1" stop-color="white" stop-opacity="0.54"/>
</linearGradient>
<linearGradient id="paint108_linear_1248_7318" x1="215" y1="219" x2="215" y2="645.517" gradientUnits="userSpaceOnUse">
<stop stop-color="white"/>
<stop offset="1" stop-color="white" stop-opacity="0.54"/>
</linearGradient>
<linearGradient id="paint109_linear_1248_7318" x1="215" y1="219" x2="215" y2="645.517" gradientUnits="userSpaceOnUse">
<stop stop-color="white"/>
<stop offset="1" stop-color="white" stop-opacity="0.54"/>
</linearGradient>
<linearGradient id="paint110_linear_1248_7318" x1="215" y1="219" x2="215" y2="645.517" gradientUnits="userSpaceOnUse">
<stop stop-color="white"/>
<stop offset="1" stop-color="white" stop-opacity="0.54"/>
</linearGradient>
<linearGradient id="paint111_linear_1248_7318" x1="215" y1="219" x2="215" y2="645.517" gradientUnits="userSpaceOnUse">
<stop stop-color="white"/>
<stop offset="1" stop-color="white" stop-opacity="0.54"/>
</linearGradient>
<linearGradient id="paint112_linear_1248_7318" x1="215" y1="219" x2="215" y2="645.517" gradientUnits="userSpaceOnUse">
<stop stop-color="white"/>
<stop offset="1" stop-color="white" stop-opacity="0.54"/>
</linearGradient>
<linearGradient id="paint113_linear_1248_7318" x1="215" y1="219" x2="215" y2="645.517" gradientUnits="userSpaceOnUse">
<stop stop-color="white"/>
<stop offset="1" stop-color="white" stop-opacity="0.54"/>
</linearGradient>
<linearGradient id="paint114_linear_1248_7318" x1="215" y1="219" x2="215" y2="645.517" gradientUnits="userSpaceOnUse">
<stop stop-color="white"/>
<stop offset="1" stop-color="white" stop-opacity="0.54"/>
</linearGradient>
<radialGradient id="paint115_radial_1248_7318" cx="0" cy="0" r="1" gradientUnits="userSpaceOnUse" gradientTransform="translate(343 276) rotate(90) scale(6)">
<stop stop-color="#7C82FF"/>
<stop offset="1" stop-color="#0008C1" stop-opacity="0.56"/>
</radialGradient>
<radialGradient id="paint116_radial_1248_7318" cx="0" cy="0" r="1" gradientUnits="userSpaceOnUse" gradientTransform="translate(25 438) rotate(90) scale(8)">
<stop stop-color="#7C82FF"/>
<stop offset="1" stop-color="#0008C1" stop-opacity="0.56"/>
</radialGradient>
<radialGradient id="paint117_radial_1248_7318" cx="0" cy="0" r="1" gradientUnits="userSpaceOnUse" gradientTransform="translate(176 195) rotate(90) scale(8)">
<stop stop-color="#7C82FF"/>
<stop offset="1" stop-color="#0008C1" stop-opacity="0.56"/>
</radialGradient>
<radialGradient id="paint118_radial_1248_7318" cx="0" cy="0" r="1" gradientUnits="userSpaceOnUse" gradientTransform="translate(377 581) rotate(90) scale(14)">
<stop stop-color="#7C82FF"/>
<stop offset="1" stop-color="#0008C1" stop-opacity="0.56"/>
</radialGradient>
<radialGradient id="paint119_radial_1248_7318" cx="0" cy="0" r="1" gradientUnits="userSpaceOnUse" gradientTransform="translate(403 321) rotate(90) scale(10)">
<stop stop-color="#7C82FF"/>
<stop offset="1" stop-color="#0008C1" stop-opacity="0.56"/>
</radialGradient>
<radialGradient id="paint120_radial_1248_7318" cx="0" cy="0" r="1" gradientUnits="userSpaceOnUse" gradientTransform="translate(112 267) rotate(90) scale(9)">
<stop stop-color="#7C82FF"/>
<stop offset="1" stop-color="#0008C1" stop-opacity="0.56"/>
</radialGradient>
<radialGradient id="paint121_radial_1248_7318" cx="0" cy="0" r="1" gradientUnits="userSpaceOnUse" gradientTransform="translate(109 563) rotate(90) scale(10)">
<stop stop-color="#7C82FF"/>
<stop offset="1" stop-color="#0008C1" stop-opacity="0.56"/>
</radialGradient>
<radialGradient id="paint122_radial_1248_7318" cx="0" cy="0" r="1" gradientUnits="userSpaceOnUse" gradientTransform="translate(135 585) rotate(90) scale(10)">
<stop stop-color="#7C82FF"/>
<stop offset="1" stop-color="#0008C1" stop-opacity="0.56"/>
</radialGradient>
</defs>
</svg>
