<svg width="55" height="60" viewBox="0 0 55 60" fill="none" xmlns="http://www.w3.org/2000/svg">
<g id="Vector">
<path d="M54.2778 17.6981C54.1212 15.2847 52.1521 13.3946 49.7951 13.3946C48.7058 13.3969 47.6559 13.8023 46.847 14.5328C44.4537 12.1917 41.4658 10.1752 38.1583 8.6762C34.4079 6.97648 30.5087 6.07805 26.8825 6.07805C25.8822 6.08717 24.8831 6.14926 23.8894 6.26405C23.9392 5.9075 23.9524 5.54678 23.9288 5.18753C23.7399 2.27857 21.3688 0 18.5307 0C15.6927 0 13.3211 2.27857 13.1326 5.18632C13.065 6.51717 13.4655 7.82965 14.2646 8.89523L14.4155 9.0972C13.0792 9.85434 11.7917 10.6947 10.5606 11.6134C10.0633 11.082 9.46273 10.658 8.79585 10.3674C8.12897 10.0768 7.40981 9.92579 6.68253 9.9236C3.84437 9.9236 1.47288 12.2029 1.28458 15.1099C1.21696 16.4408 1.61754 17.7533 2.41658 18.819L3.28725 19.9849C1.22409 23.9582 6.08659e-05 28.7964 6.08659e-05 33.0234C-0.00746135 36.5633 0.682323 40.0699 2.02992 43.3425C3.37753 46.6152 5.35648 49.5895 7.8535 52.0952C10.3505 54.601 13.3166 56.589 16.5818 57.9454C19.8471 59.3018 23.3475 60 26.8825 60C30.4176 60 33.918 59.3018 37.1832 57.9454C40.4485 56.589 43.4145 54.601 45.9116 52.0952C48.4086 49.5895 50.3875 46.6152 51.7351 43.3425C53.0827 40.0699 53.7725 36.5633 53.765 33.0234C53.765 30.0232 53.0019 25.524 52.0053 22.5598L53.339 20.7741C54.0093 19.8943 54.3424 18.8029 54.2778 17.6981ZM14.5901 5.28236C14.7118 3.40529 16.2194 1.46265 18.5307 1.46265C20.8421 1.46265 22.3492 3.40481 22.4713 5.28431C22.5255 6.26781 22.226 7.2382 21.6269 8.01947L18.5307 12.1667L15.4397 8.02666C14.8452 7.23932 14.5446 6.26842 14.5901 5.28236ZM2.74243 15.206C2.86415 13.3289 4.37154 11.3862 6.6829 11.3862C8.99426 11.3862 10.5015 13.3284 10.6235 15.208C10.6778 16.1915 10.3782 17.1619 9.77911 17.9431L6.68253 22.0903L3.59192 17.9503C2.99739 17.1629 2.69685 16.192 2.74243 15.206ZM4.26662 21.2967L6.09827 23.7495C6.16628 23.8406 6.25455 23.9146 6.35609 23.9655C6.45763 24.0165 6.56964 24.043 6.6832 24.043C6.79677 24.043 6.90877 24.0165 7.01031 23.9655C7.11185 23.9146 7.20013 23.8406 7.26813 23.7495L10.9485 18.8194C11.6002 17.9689 11.9915 16.9473 12.0747 15.8785C12.158 14.8096 11.9297 13.7396 11.4175 12.7982C12.6546 11.8742 13.9512 11.033 15.2989 10.28L17.946 13.8255C18.014 13.9165 18.1022 13.9905 18.2038 14.0414C18.3053 14.0924 18.4173 14.1189 18.5309 14.1189C18.6445 14.1189 18.7565 14.0924 18.858 14.0414C18.9596 13.9905 19.0478 13.9165 19.1158 13.8255L22.7964 8.89548C23.0536 8.55221 23.2724 8.18169 23.4487 7.79057C23.7522 7.75168 24.0554 7.71536 24.3543 7.68501L27.4217 12.1164C27.777 12.6275 27.9602 13.2389 27.9445 13.8615C27.9289 14.4841 27.7152 15.0854 27.3345 15.578L26.4681 16.7046C26.2568 16.9784 25.9777 17.1923 25.6586 17.3252C25.3395 17.458 24.9912 17.5053 24.6483 17.4622L23.6655 17.3364C22.973 17.2475 22.2697 17.3643 21.6429 17.6724C21.0162 17.9805 20.4938 18.4663 20.1406 19.0694C19.9417 19.4091 19.6474 19.6828 19.2945 19.8566C18.9416 20.0303 18.5454 20.0964 18.1553 20.0466L15.8862 19.7577C15.2075 19.6693 14.5177 19.7722 13.8941 20.0547C13.2706 20.3372 12.738 20.7882 12.3563 21.357C11.9991 21.8854 11.8036 22.5067 11.7938 23.1448C11.784 23.7828 11.9603 24.4098 12.301 24.949L13.8 27.3216C14.0763 27.7563 14.4578 28.114 14.909 28.3615C15.3603 28.609 15.8667 28.7383 16.3812 28.7374C16.8797 28.7378 17.3705 28.6145 17.8098 28.3785L19.3532 27.5496C20.1093 27.1436 21.3372 27.1396 22.2223 27.5048C22.3068 28.6001 22.6987 29.6492 23.3529 30.5311L27.0343 35.4627C27.1023 35.5538 27.1905 35.6277 27.2921 35.6787C27.3936 35.7296 27.5056 35.7561 27.6192 35.7561C27.7328 35.7561 27.8448 35.7296 27.9463 35.6787C28.0478 35.6277 28.1361 35.5538 28.2041 35.4627L30.0712 32.9618L30.3085 33.2875C30.4091 33.4279 30.5168 33.5661 30.6289 33.6983L32.5034 35.909C32.587 36.0076 32.6496 36.1221 32.6877 36.2456C32.7257 36.3691 32.7383 36.499 32.7247 36.6276C32.7111 36.7561 32.6716 36.8805 32.6086 36.9933C32.5455 37.1061 32.4603 37.2049 32.358 37.2837L29.5174 39.471C28.7614 40.0508 28.2052 40.8527 27.9266 41.7645L26.9797 44.8424C26.9053 45.0852 26.7835 45.3108 26.6214 45.506L25.7001 46.6166C25.0138 47.4423 24.5889 48.4542 24.4797 49.5229C24.453 49.7828 24.357 50.0307 24.2016 50.2406C24.0463 50.4505 23.8374 50.6146 23.5969 50.7158C23.496 50.7581 23.387 50.777 23.2778 50.771C23.1687 50.7651 23.0623 50.7344 22.9666 50.6815C22.871 50.6285 22.7886 50.5545 22.7255 50.4651C22.6625 50.3757 22.6205 50.2731 22.6026 50.1651L21.7348 44.946C21.6264 44.2975 21.3621 43.685 20.9645 43.1616L17.7851 38.9832C17.4994 38.6084 17.2882 38.1822 17.1628 37.7277L16.1135 33.9335C15.928 33.2687 15.5739 32.6633 15.0857 32.176C14.5974 31.6887 13.9916 31.3362 13.3272 31.1526L13.099 31.0904C12.6375 30.9637 12.2139 30.7258 11.8653 30.3974L9.90814 28.5503C9.59639 28.2563 9.32893 27.9186 9.11415 27.5476C8.6587 26.7612 7.96938 26.137 7.14245 25.7619C6.31553 25.3869 5.39229 25.2799 4.50166 25.4557C4.47313 25.4613 4.44496 25.4687 4.41731 25.4777L2.45627 26.1165C2.91378 24.4586 3.51969 22.8455 4.26662 21.2967ZM23.6789 26.9191C23.8006 25.042 25.308 23.0994 27.6194 23.0994C29.9307 23.0994 31.438 25.0416 31.56 26.9212C31.6143 27.9047 31.3147 28.875 30.7156 29.6562L27.6194 33.8034L24.5284 29.6634C23.9339 28.8761 23.6333 27.9052 23.6789 26.9191ZM52.3043 33.0234C52.3043 47.0746 40.9001 58.506 26.8825 58.506C12.8649 58.506 1.46071 47.0746 1.46071 33.0234C1.47263 31.2626 1.66878 29.508 2.04594 27.7882L4.8252 26.8829C5.41199 26.7757 6.01752 26.8526 6.55908 27.1029C7.10065 27.3532 7.55184 27.7649 7.85105 28.2816C8.13673 28.7749 8.49237 29.224 8.90686 29.615L10.8641 31.4615C11.3872 31.954 12.0226 32.3108 12.715 32.5008L12.9431 32.563C13.3636 32.6793 13.7469 32.9026 14.0557 33.2111C14.3646 33.5196 14.5885 33.9028 14.7058 34.3235L15.7551 38.1184C15.9299 38.7526 16.2246 39.3473 16.6232 39.8703L19.8027 44.0488C20.0563 44.3827 20.2249 44.7733 20.294 45.187L21.1618 50.4061C21.2153 50.7321 21.3419 51.0416 21.5321 51.3115C21.7223 51.5814 21.9711 51.8046 22.2599 51.9642C22.5487 52.1239 22.8698 52.2159 23.1992 52.2333C23.5286 52.2507 23.8577 52.1931 24.1616 52.0648C24.644 51.8621 25.0629 51.5331 25.3744 51.1123C25.6859 50.6916 25.8786 50.1946 25.9321 49.6736C26.0118 48.8931 26.3221 48.1542 26.8232 47.5511L27.7445 46.4405C28.03 46.097 28.2444 45.7001 28.3753 45.2728L29.3218 42.1949C29.5117 41.5731 29.891 41.0262 30.4065 40.6307L33.2483 38.4433C33.5075 38.2438 33.7235 37.9937 33.8832 37.7081C34.0429 37.4225 34.143 37.1074 34.1775 36.7819C34.212 36.4564 34.1801 36.1273 34.0837 35.8145C33.9874 35.5017 33.8286 35.2117 33.617 34.9622L31.7425 32.7514C31.6564 32.6498 31.5735 32.5435 31.4928 32.4307L30.9868 31.736L31.8852 30.5327C32.6933 29.4719 33.0949 28.1562 33.0172 26.8243C32.8284 23.9153 30.4573 21.6367 27.6191 21.6367C25.0545 21.6367 22.872 23.4976 22.3353 26.0017C21.1222 25.6436 19.6697 25.7213 18.663 26.2615L17.1196 27.0904C16.7667 27.2782 16.3561 27.3259 15.9696 27.224C15.5831 27.122 15.2492 26.8779 15.0345 26.5404L13.5354 24.1677C13.3466 23.869 13.2489 23.5216 13.2543 23.168C13.2598 22.8145 13.3681 22.4702 13.566 22.1774C13.797 21.8332 14.1192 21.5603 14.4965 21.3893C14.8739 21.2183 15.2913 21.1561 15.702 21.2095L17.9712 21.4983C18.6449 21.5845 19.3291 21.4706 19.9387 21.1707C20.5483 20.8707 21.0564 20.398 21.3999 19.8112C21.6081 19.455 21.9164 19.168 22.2864 18.986C22.6563 18.8039 23.0715 18.7348 23.4804 18.7874L24.463 18.9132C25.0589 18.988 25.6641 18.906 26.2187 18.6751C26.7732 18.4443 27.2581 18.0726 27.6255 17.5968L28.4919 16.4702C29.0623 15.7321 29.3826 14.8309 29.4061 13.8979C29.4295 12.9649 29.1549 12.0488 28.6222 11.2829L26.0447 7.5602C26.3401 7.54801 26.6213 7.5407 26.8825 7.5407C30.3028 7.5407 33.9934 8.39391 37.556 10.0088C38.6722 10.516 39.757 11.0899 40.8044 11.7274L38.8425 15.0948C38.5613 15.589 38.4407 16.1586 38.4974 16.7245C38.5541 17.2904 38.7853 17.8247 39.159 18.253C39.7227 18.8996 40.505 19.3151 41.3558 19.4197L41.7116 19.4636C42.056 19.5064 42.3805 19.6483 42.6459 19.8722C42.9113 20.096 43.106 20.3922 43.2066 20.7248C43.3017 21.0407 43.3044 21.3774 43.2146 21.6949C43.1248 22.0124 42.9461 22.2975 42.6996 22.5165L39.1765 25.6359C38.8194 25.9523 38.5335 26.341 38.3376 26.7764C38.1418 27.2117 38.0404 27.6838 38.0404 28.1613V28.989C38.0393 29.4795 38.1614 29.9624 38.3957 30.3932C38.6299 30.824 38.9686 31.1889 39.3806 31.4542C39.5855 31.586 39.7578 31.7626 39.8847 31.9707C40.0117 32.1789 40.0898 32.4131 40.1134 32.6558L40.1958 33.4821C40.2604 34.1512 40.5719 34.7721 41.0694 35.2233C41.5669 35.6745 42.2146 35.9237 42.8858 35.922H44.9479C45.8022 35.9217 46.6379 35.6723 47.3529 35.2043C48.068 34.7363 48.6314 34.0698 48.9744 33.2864L49.0983 33.0035C49.2197 32.723 49.4176 32.4825 49.6692 32.3094C49.9208 32.1363 50.216 32.0377 50.521 32.0249L51.0049 32.0029C51.0836 31.9994 51.1621 31.9937 51.2405 31.9857L52.2692 31.882C52.2921 32.2827 52.3043 32.6659 52.3043 33.0234ZM52.1479 30.4231L51.0942 30.5293C51.0428 30.5345 50.9912 30.5382 50.9391 30.5406L50.4546 30.5627C49.8771 30.587 49.3181 30.7736 48.8416 31.1013C48.3652 31.429 47.9906 31.8844 47.7606 32.4154L47.6367 32.6983C47.4077 33.2215 47.0315 33.6666 46.554 33.9793C46.0765 34.2919 45.5184 34.4585 44.9479 34.4587H42.8856C42.5769 34.4594 42.2791 34.3447 42.0504 34.1371C41.8216 33.9295 41.6785 33.6439 41.6489 33.3362L41.5664 32.5097C41.5216 32.0482 41.3729 31.6028 41.1315 31.2071C40.8901 30.8114 40.5623 30.4756 40.1727 30.2249C39.9661 30.0918 39.7962 29.9088 39.6788 29.6927C39.5613 29.4766 39.5001 29.2344 39.5007 28.9884V28.1607C39.5007 27.8904 39.558 27.6231 39.6689 27.3767C39.7797 27.1302 39.9416 26.9102 40.1437 26.731L43.6668 23.6117C44.1222 23.2069 44.4524 22.6801 44.6185 22.0934C44.7846 21.5068 44.7796 20.8848 44.604 20.3009C44.4214 19.6972 44.0677 19.1595 43.5859 18.7532C43.1041 18.3468 42.5148 18.0892 41.8897 18.0117L41.5339 17.9678C41.0398 17.9071 40.5854 17.6658 40.258 17.2902C40.0845 17.0917 39.9769 16.8442 39.9499 16.5818C39.923 16.3194 39.978 16.0551 40.1074 15.8254L42.0354 12.5163C43.4248 13.4477 44.7259 14.505 45.9223 15.6747C45.5668 16.2934 45.3581 16.9857 45.3125 17.6981C45.256 18.8019 45.588 19.8907 46.2507 20.7746L49.2102 24.7374C49.2782 24.8285 49.3665 24.9024 49.468 24.9534C49.5695 25.0043 49.6815 25.0308 49.7951 25.0308C49.9086 25.0308 50.0206 25.0043 50.1221 24.9534C50.2237 24.9024 50.3119 24.8285 50.3799 24.7374L50.9242 24.0087C51.5054 26.11 51.9147 28.2552 52.1479 30.4231ZM52.1697 19.8973L49.7951 23.077L47.4258 19.9042C46.9676 19.2987 46.7356 18.5516 46.7699 17.7927C46.8637 16.3495 48.0209 14.8569 49.7951 14.8569C51.5693 14.8569 52.7266 16.3495 52.8203 17.7944C52.8618 18.5508 52.631 19.2969 52.1697 19.8973Z" fill="#D7AC43"/>
<path d="M18.3773 3.68564C18.7159 3.68538 19.047 3.78567 19.3286 3.97385C19.6103 4.16202 19.8299 4.42962 19.9596 4.74278C20.0894 5.05595 20.1235 5.40062 20.0576 5.73318C19.9917 6.06575 19.8288 6.37128 19.5895 6.61112C19.3501 6.85096 19.0452 7.01433 18.7131 7.08058C18.381 7.14682 18.0368 7.11295 17.724 6.98327C17.4111 6.85358 17.1437 6.63389 16.9556 6.352C16.7675 6.07011 16.667 5.73868 16.667 5.39962C16.6674 4.94538 16.8476 4.50981 17.1683 4.18849C17.4889 3.86716 17.9237 3.68632 18.3773 3.68564Z" fill="#D7AC43"/>
<path d="M6.52953 13.6092C6.86811 13.609 7.19917 13.7093 7.48083 13.8974C7.76248 14.0856 7.98207 14.3532 8.11183 14.6664C8.24158 14.9795 8.27567 15.3242 8.20978 15.6568C8.14389 15.9894 7.98097 16.2949 7.74165 16.5347C7.50233 16.7746 7.19734 16.9379 6.86528 17.0042C6.53322 17.0704 6.189 17.0366 5.87616 16.9069C5.56332 16.7772 5.29592 16.5575 5.10778 16.2756C4.91965 15.9937 4.81923 15.6623 4.81923 15.3232C4.81955 14.869 4.9998 14.4334 5.32044 14.1121C5.64107 13.7908 6.0759 13.6099 6.52953 13.6092Z" fill="#D7AC43"/>
<path d="M27.4662 28.7503C27.1277 28.7506 26.7966 28.6503 26.5149 28.4621C26.2333 28.274 26.0137 28.0064 25.8839 27.6932C25.7542 27.38 25.7201 27.0354 25.786 26.7028C25.8519 26.3702 26.0148 26.0647 26.2541 25.8249C26.4934 25.585 26.7984 25.4217 27.1305 25.3554C27.4625 25.2892 27.8068 25.323 28.1196 25.4527C28.4325 25.5824 28.6999 25.8021 28.888 26.084C29.0761 26.3659 29.1765 26.6973 29.1765 27.0364C29.1762 27.4906 28.9959 27.9263 28.6752 28.2476C28.3546 28.5689 27.9199 28.7497 27.4662 28.7503Z" fill="#D7AC43"/>
<path d="M49.6718 19.1119C49.428 19.1119 49.1897 19.0397 48.987 18.9041C48.7843 18.7686 48.6263 18.5759 48.5329 18.3504C48.4396 18.125 48.4151 17.8768 48.4626 17.6374C48.5101 17.398 48.6274 17.1781 48.7997 17.0055C48.9721 16.8328 49.1916 16.7153 49.4307 16.6676C49.6697 16.62 49.9175 16.6444 50.1427 16.7378C50.3679 16.8311 50.5604 16.9893 50.6959 17.1922C50.8313 17.3952 50.9036 17.6338 50.9036 17.8779C50.9033 18.205 50.7735 18.5186 50.5425 18.75C50.3116 18.9814 49.9984 19.1114 49.6718 19.1119Z" fill="#D7AC43"/>
</g>
</svg>
