<svg width="82" height="82" viewBox="0 0 82 82" fill="none" xmlns="http://www.w3.org/2000/svg">
<rect x="0.945312" y="0.799805" width="81" height="81" rx="40.5" fill="url(#paint0_linear_3324_3346)" fill-opacity="0.26"/>
<path d="M47.3381 29.4283C48.4143 29.287 49.4688 29.0913 50.4798 28.8413C49.0665 27.765 47.4033 26.9714 45.6096 26.5692C46.2618 27.2867 46.8489 28.2651 47.3381 29.4283ZM39.511 29.5587C41.7069 29.7762 44.0115 29.7762 46.2075 29.5587C44.2507 25.1777 41.4677 25.1777 39.511 29.5587ZM35.2496 28.8413C36.2606 29.0804 37.315 29.2761 38.3913 29.4283C38.8805 28.2651 39.4675 27.2976 40.1306 26.5801C38.3152 26.9714 36.6628 27.765 35.2496 28.8413ZM37.9999 30.461C36.6954 30.2762 35.4344 30.0262 34.2386 29.7001C31.9448 31.8742 30.4663 34.9072 30.325 38.2772H36.7498C36.7932 35.3312 37.2607 32.6243 37.9999 30.461ZM46.6314 30.6023C44.142 30.8741 41.5982 30.8741 39.0979 30.6023C38.3478 32.6896 37.8912 35.3529 37.8368 38.2772H47.8925C47.8381 35.3529 47.3707 32.6896 46.6314 30.6023ZM51.4908 29.7001C50.2841 30.0153 49.0339 30.2762 47.7294 30.461C48.4686 32.6243 48.9252 35.3312 48.9796 38.2772H55.4043C55.2521 34.9072 53.7845 31.8851 51.4908 29.7001ZM47.7294 47.1805C49.0339 47.3653 50.2841 47.6262 51.4908 47.9415C53.7845 45.7673 55.263 42.7343 55.4043 39.3752H48.9796C48.9252 42.3104 48.4686 45.0063 47.7294 47.1805ZM39.0979 47.0392C41.5873 46.7674 44.1311 46.7674 46.6314 47.0392C47.3707 44.952 47.8381 42.2886 47.8925 39.3643H37.8368C37.8803 42.2886 38.3478 44.952 39.0979 47.0392ZM34.2386 47.9306C35.4344 47.6154 36.6954 47.3545 37.9999 47.1697C37.2607 45.0063 36.8041 42.2995 36.7498 39.3535H30.325C30.4663 42.7343 31.9339 45.7564 34.2386 47.9306ZM38.3913 48.2133C37.315 48.3546 36.2606 48.5503 35.2496 48.8003C36.6628 49.8874 38.326 50.6701 40.1197 51.0723C39.4566 50.344 38.8696 49.3765 38.3913 48.2133ZM46.2075 48.0828C44.0115 47.8654 41.7069 47.8654 39.511 48.0828C41.4677 52.4638 44.2507 52.4638 46.2075 48.0828ZM50.4689 48.8003C49.4579 48.5611 48.4143 48.3655 47.3272 48.2133C46.838 49.3765 46.2618 50.344 45.5987 51.0615C47.4033 50.6701 49.0557 49.8874 50.4689 48.8003ZM21.1717 55.6273C20.9977 55.3881 21.0521 55.0402 21.2913 54.8663C21.5304 54.6924 21.8783 54.7467 22.0522 54.9859C22.9763 56.2578 24.0199 57.4318 25.1613 58.4863C25.3787 58.6929 25.4005 59.0299 25.1939 59.2473C24.9874 59.4647 24.6504 59.4864 24.433 59.2799C23.2263 58.1819 22.1283 56.9535 21.1717 55.6273ZM17.0733 46.5718C16.9211 45.876 17.9756 45.6369 18.1278 46.3326C18.4974 47.9959 19.0736 49.6482 19.7911 51.181C19.9215 51.4528 19.8019 51.7789 19.5302 51.8985C19.2584 52.0181 18.9323 51.9094 18.8127 51.6376C18.0517 50.0178 17.4756 48.3437 17.0733 46.5718ZM16.7798 37.0923C16.8885 36.3857 17.9648 36.5596 17.856 37.2662C17.606 38.799 17.5082 40.3753 17.5625 41.9081C17.5843 42.6147 16.4972 42.6582 16.4754 41.9407C16.4211 40.2666 16.5189 38.7447 16.7798 37.0923ZM20.8782 26.9606C21.0521 26.7105 21.3891 26.6562 21.6283 26.8301C21.8783 27.0041 21.9327 27.3411 21.7587 27.5802C20.6173 29.2217 19.6715 31.0263 18.9866 32.907C18.7366 33.581 17.7147 33.2005 17.9648 32.5374C18.704 30.5697 19.6824 28.6891 20.8782 26.9606ZM35.4126 16.9919C36.1084 16.8289 36.3584 17.8833 35.6735 18.0464C34.5321 18.3182 33.445 18.6769 32.347 19.1118C32.0644 19.2205 31.7491 19.09 31.6404 18.8182C31.5317 18.5356 31.6621 18.2203 31.9448 18.1116C33.0645 17.655 34.2277 17.2746 35.4126 16.9919ZM45.4683 16.6549C46.1749 16.7745 45.9901 17.8399 45.2834 17.7203C43.5767 17.4268 41.8156 17.3289 40.098 17.405C39.3914 17.4376 39.337 16.3614 40.0436 16.3288C41.8917 16.2418 43.6637 16.3505 45.4683 16.6549ZM54.6759 20.2315C54.926 20.3945 55.0021 20.7315 54.839 20.9816C54.6759 21.2316 54.3389 21.3077 54.0889 21.1446C52.6539 20.2206 51.1646 19.4705 49.5666 18.8726C48.8926 18.6226 49.2731 17.6116 49.9471 17.8507C51.5886 18.4704 53.1975 19.2857 54.6759 20.2315ZM60.568 25.5474C60.7528 25.7756 60.7202 26.1235 60.481 26.3083C60.2527 26.4931 59.9049 26.4605 59.7201 26.2214C59.0569 25.3952 58.3286 24.6125 57.5676 23.8841C57.0458 23.3949 57.7959 22.6013 58.3177 23.1014C59.133 23.8732 59.8723 24.6777 60.568 25.5474ZM57.2197 60.0626C56.9915 60.2583 56.6545 60.2257 56.4588 59.9974C56.2631 59.7691 56.2957 59.4321 56.524 59.2364C63.0357 53.7575 66.1231 45.202 64.5685 36.7879C64.4381 36.0813 65.5034 35.8856 65.6339 36.5922C67.2645 45.4086 64.0358 54.3119 57.2197 60.0626ZM35.4235 65.1937C34.7278 65.0306 34.9778 63.9761 35.6735 64.1392C39.2936 65.0198 43.0984 65.0198 46.7293 64.1609C47.425 63.9979 47.6751 65.0524 46.9793 65.2154C43.1745 66.1177 39.2283 66.1177 35.4235 65.1937ZM31.0969 58.6711L34.4125 52.5182C34.5538 52.2573 34.88 52.1594 35.1409 52.3008C35.4018 52.4421 35.4996 52.7682 35.3583 53.0291L32.0644 59.1494C34.0755 60.5409 34.3473 63.4109 32.6188 65.1502C31.086 66.683 28.6074 66.683 27.0855 65.1502C25.5527 63.6174 25.5527 61.1388 27.0855 59.606C28.1182 58.5733 29.6619 58.1928 31.0969 58.6711ZM50.2623 60.0843L47.4902 54.1706C47.3598 53.8988 47.4794 53.5727 47.7512 53.4531C48.0229 53.3226 48.3491 53.4422 48.4686 53.714L51.2407 59.6169C53.2627 59.0407 55.2847 60.5627 55.2847 62.6716C55.2847 65.4872 51.8604 66.9113 49.8601 64.9219C48.4795 63.5196 48.6752 61.2149 50.2623 60.0843ZM29.4988 24.9712L31.9122 27.3084C32.1296 27.515 32.1296 27.8629 31.9231 28.0803C31.7165 28.2977 31.3686 28.2977 31.1512 28.0912L28.7053 25.7213C25.7918 27.852 21.6717 25.7648 21.6717 22.1447C21.6717 19.6988 23.6503 17.7203 26.0962 17.7203C28.5422 17.7203 30.5207 19.7097 30.5207 22.1447C30.5207 23.221 30.1293 24.2102 29.4988 24.9712ZM57.9046 33.6136C57.622 33.7223 57.3067 33.581 57.2089 33.2983C57.1002 33.0157 57.2415 32.7004 57.5241 32.6026L60.3941 31.5155C60.0353 29.6348 61.4703 27.8955 63.3836 27.8955C66.0904 27.8955 67.4493 31.1785 65.536 33.0918C64.1445 34.4833 61.8182 34.2006 60.7854 32.5265L57.9046 33.6136Z" fill="url(#paint1_linear_3324_3346)"/>
<defs>
<linearGradient id="paint0_linear_3324_3346" x1="100.695" y1="-31.4502" x2="-2.80468" y2="96.0498" gradientUnits="userSpaceOnUse">
<stop stop-color="white"/>
<stop offset="1" stop-color="white" stop-opacity="0"/>
</linearGradient>
<linearGradient id="paint1_linear_3324_3346" x1="41.4458" y1="33.6329" x2="41.4458" y2="112.047" gradientUnits="userSpaceOnUse">
<stop stop-color="#94723F"/>
<stop offset="1" stop-color="#EEB30A"/>
</linearGradient>
</defs>
</svg>
