<svg width="10" height="9" viewBox="0 0 10 9" fill="none" xmlns="http://www.w3.org/2000/svg">
<path d="M2.89779 5.67799L3.14472 5.95123L3.37182 5.66129C5.48983 2.95722 7.75386 1.40887 9.50308 0.83869C9.53709 0.828104 9.55839 0.832828 9.57309 0.83935C9.59135 0.847453 9.61108 0.864234 9.62519 0.889341C9.63929 0.914436 9.64284 0.938989 9.64036 0.957095C9.63843 0.971293 9.63192 0.991465 9.60373 1.01538L9.60314 1.01588C6.81596 3.39288 5.14652 5.48356 3.59737 8.27577C3.52581 8.39921 3.37695 8.41239 3.28997 8.3292L3.28995 8.32918L0.425616 5.58983L0.424553 5.58882C0.352217 5.52029 0.341199 5.39691 0.414521 5.30848L1.33763 4.27128C1.41263 4.18928 1.55256 4.18951 1.62718 4.27199L2.89779 5.67799Z" fill="white" stroke="white" stroke-width="0.619984"/>
</svg>
