<svg width="1440" height="354" viewBox="0 0 1440 354" fill="none" xmlns="http://www.w3.org/2000/svg">
<path d="M0 245.463C86.4718 199.485 134.953 173.707 221.425 127.729" stroke="url(#paint0_linear_2515_3797)" stroke-width="2.65678" stroke-dasharray="7.08 8.86"/>
<path d="M310.596 114.265C310.596 140.921 288.987 162.53 262.331 162.53C235.675 162.53 214.066 140.921 214.066 114.265C214.066 87.6089 235.675 66 262.331 66C288.987 66 310.596 87.6089 310.596 114.265ZM220.752 114.265C220.752 137.228 239.368 155.844 262.331 155.844C285.295 155.844 303.91 137.228 303.91 114.265C303.91 91.3014 285.295 72.6859 262.331 72.6859C239.368 72.6859 220.752 91.3014 220.752 114.265Z" fill="#FFBD00"/>
<path d="M607.516 245.463C693.987 199.485 742.469 173.707 828.94 127.729" stroke="url(#paint1_linear_2515_3797)" stroke-width="2.65678" stroke-dasharray="7.08 8.86"/>
<path d="M1218.57 245.725C1305.05 199.747 1353.53 173.969 1440 127.991" stroke="url(#paint2_linear_2515_3797)" stroke-width="2.65678" stroke-dasharray="7.08 8.86"/>
<path d="M918.112 114.265C918.112 140.921 896.503 162.53 869.847 162.53C843.191 162.53 821.582 140.921 821.582 114.265C821.582 87.6089 843.191 66 869.847 66C896.503 66 918.112 87.6089 918.112 114.265ZM828.268 114.265C828.268 137.228 846.883 155.844 869.847 155.844C892.81 155.844 911.426 137.228 911.426 114.265C911.426 91.3014 892.81 72.6859 869.847 72.6859C846.883 72.6859 828.268 91.3014 828.268 114.265Z" fill="#FFBD00"/>
<path d="M304.645 127.992C391.116 173.97 439.598 199.748 526.069 245.726" stroke="url(#paint3_linear_2515_3797)" stroke-width="2.65678" stroke-dasharray="7.08 8.86"/>
<path d="M615.533 258.265C615.533 231.609 593.925 210 567.269 210C540.613 210 519.004 231.609 519.004 258.265C519.004 284.921 540.613 306.53 567.269 306.53C593.925 306.53 615.533 284.921 615.533 258.265ZM525.69 258.265C525.69 235.301 544.305 216.686 567.269 216.686C590.232 216.686 608.848 235.301 608.848 258.265C608.848 281.228 590.232 299.844 567.269 299.844C544.305 299.844 525.69 281.228 525.69 258.265Z" fill="#FFBD00"/>
<path d="M913.047 127.992C999.519 173.97 1048 199.748 1134.47 245.726" stroke="url(#paint4_linear_2515_3797)" stroke-width="2.65678" stroke-dasharray="7.08 8.86"/>
<path d="M1223.53 258.265C1223.53 231.609 1201.92 210 1175.26 210C1148.61 210 1127 231.609 1127 258.265C1127 284.921 1148.61 306.53 1175.26 306.53C1201.92 306.53 1223.53 284.921 1223.53 258.265ZM1133.69 258.265C1133.69 235.301 1152.3 216.686 1175.26 216.686C1198.23 216.686 1216.84 235.301 1216.84 258.265C1216.84 281.228 1198.23 299.844 1175.26 299.844C1152.3 299.844 1133.69 281.228 1133.69 258.265Z" fill="#FFBD00"/>
<path d="M262 187C262 226.052 262 247.948 262 287" stroke="url(#paint5_linear_2515_3797)" stroke-width="4" stroke-dasharray="7.08 8.86"/>
<path d="M236.544 324H235.392V312.544H236.56L242.864 322.08V312.544H244V324H242.864L236.544 314.464V324ZM246.014 320.128C246.014 317.76 247.678 316.048 249.95 316.048C252.222 316.048 253.886 317.76 253.886 320.128C253.886 322.48 252.222 324.192 249.95 324.192C247.678 324.192 246.014 322.48 246.014 320.128ZM247.134 320.112C247.134 321.936 248.286 323.2 249.95 323.2C251.598 323.2 252.766 321.936 252.766 320.112C252.766 318.32 251.598 317.04 249.95 317.04C248.286 317.04 247.134 318.32 247.134 320.112ZM257.468 324L254.3 316.256H255.484L257.484 321.248C257.692 321.808 257.9 322.336 258.044 322.848C258.188 322.32 258.396 321.808 258.62 321.248L260.652 316.256H261.788L258.572 324H257.468ZM267.191 320.88C267.191 319.472 268.039 318.352 269.399 317.888C268.247 317.424 267.591 316.48 267.591 315.296C267.591 313.536 269.095 312.336 271.287 312.336C273.463 312.336 274.919 313.536 274.919 315.312C274.919 316.512 274.279 317.456 273.143 317.888C274.471 318.304 275.351 319.456 275.351 320.896C275.351 322.848 273.703 324.192 271.271 324.192C268.839 324.192 267.191 322.848 267.191 320.88ZM268.679 315.328C268.679 316.592 269.703 317.44 271.271 317.44C272.823 317.44 273.831 316.624 273.831 315.36C273.831 314.128 272.823 313.36 271.271 313.36C269.703 313.36 268.679 314.128 268.679 315.328ZM268.327 320.784C268.327 322.208 269.511 323.152 271.287 323.152C273.031 323.152 274.215 322.208 274.215 320.784C274.215 319.376 273.063 318.464 271.255 318.464C269.479 318.464 268.327 319.376 268.327 320.784ZM276.304 316.85V316.124H281.947V316.85H279.516V324H278.724V316.85H276.304ZM283.829 324H283.037V316.124H283.829V319.633H288.086V316.124H288.867V324H288.086V320.37H283.829V324Z" fill="white"/>
<path d="M220.504 351H216.296V339.304H220.392C223.848 339.304 226.232 341.688 226.232 345.176C226.232 348.616 223.896 351 220.504 351ZM220.2 341.192H218.344V349.112H220.312C222.648 349.112 224.072 347.608 224.072 345.176C224.072 342.696 222.616 341.192 220.2 341.192ZM235.404 351H228.14V339.304H235.404V341.192H230.188V344.2H234.86V346.008H230.188V349.112H235.404V351ZM242.248 346.968H239.672V351H237.624V339.304H242.248C244.6 339.304 246.12 340.84 246.12 343.128C246.12 345.384 244.584 346.968 242.248 346.968ZM241.848 341.128H239.672V345.144H241.816C243.224 345.144 243.976 344.392 243.976 343.112C243.976 341.832 243.208 341.128 241.848 341.128ZM248.226 351H246.098L250.322 339.304H252.418L256.642 351H254.482L253.538 348.296H249.17L248.226 351ZM251.106 342.792L249.778 346.568H252.946L251.602 342.792C251.506 342.488 251.394 342.136 251.362 341.896C251.314 342.12 251.218 342.472 251.106 342.792ZM260.157 351H258.109V339.304H262.573C265.229 339.304 266.781 340.648 266.781 342.952C266.781 344.52 266.045 345.64 264.669 346.2L266.893 351H264.653L262.669 346.632H260.157V351ZM260.157 341.128V344.824H262.573C263.869 344.824 264.637 344.136 264.637 342.952C264.637 341.784 263.869 341.128 262.573 341.128H260.157ZM267.647 341.192V339.304H276.543V341.192H273.119V351H271.071V341.192H267.647ZM278.029 346.728V339.304H280.077V346.6C280.077 348.28 280.989 349.208 282.653 349.208C284.317 349.208 285.245 348.264 285.245 346.6V339.304H287.293V346.728C287.293 349.464 285.501 351.192 282.653 351.192C279.821 351.192 278.029 349.48 278.029 346.728ZM291.86 351H289.812V339.304H294.276C296.932 339.304 298.484 340.648 298.484 342.952C298.484 344.52 297.748 345.64 296.372 346.2L298.596 351H296.356L294.372 346.632H291.86V351ZM291.86 341.128V344.824H294.276C295.572 344.824 296.34 344.136 296.34 342.952C296.34 341.784 295.572 341.128 294.276 341.128H291.86ZM307.794 351H300.53V339.304H307.794V341.192H302.578V344.2H307.25V346.008H302.578V349.112H307.794V351Z" fill="white"/>
<path d="M870 187C870 226.052 870 247.948 870 287" stroke="url(#paint6_linear_2515_3797)" stroke-width="4" stroke-dasharray="7.08 8.86"/>
<path d="M841.044 324H839.892V312.544H841.06L847.364 322.08V312.544H848.5V324H847.364L841.044 314.464V324ZM850.514 320.128C850.514 317.76 852.178 316.048 854.45 316.048C856.722 316.048 858.386 317.76 858.386 320.128C858.386 322.48 856.722 324.192 854.45 324.192C852.178 324.192 850.514 322.48 850.514 320.128ZM851.634 320.112C851.634 321.936 852.786 323.2 854.45 323.2C856.098 323.2 857.266 321.936 857.266 320.112C857.266 318.32 856.098 317.04 854.45 317.04C852.786 317.04 851.634 318.32 851.634 320.112ZM861.968 324L858.8 316.256H859.984L861.984 321.248C862.192 321.808 862.4 322.336 862.544 322.848C862.688 322.32 862.896 321.808 863.12 321.248L865.152 316.256H866.288L863.072 324H861.968ZM873.771 313.584H871.435V312.544H874.875V324H873.771V313.584ZM877.099 318.272C877.099 314.72 878.843 312.32 881.691 312.32C884.523 312.32 886.267 314.72 886.267 318.272C886.267 321.84 884.555 324.208 881.691 324.208C878.811 324.208 877.099 321.84 877.099 318.272ZM878.235 318.272C878.235 321.248 879.499 323.168 881.691 323.168C883.883 323.168 885.147 321.248 885.147 318.272C885.147 315.28 883.883 313.376 881.691 313.376C879.499 313.376 878.235 315.28 878.235 318.272ZM887.273 316.85V316.124H892.916V316.85H890.485V324H889.693V316.85H887.273ZM894.798 324H894.006V316.124H894.798V319.633H899.055V316.124H899.836V324H899.055V320.37H894.798V324Z" fill="white"/>
<path d="M781.772 341.192V339.304H790.668V341.192H787.244V351H785.196V341.192H781.772ZM794.282 351H792.234V339.304H796.698C799.354 339.304 800.906 340.648 800.906 342.952C800.906 344.52 800.17 345.64 798.794 346.2L801.018 351H798.778L796.794 346.632H794.282V351ZM794.282 341.128V344.824H796.698C797.994 344.824 798.762 344.136 798.762 342.952C798.762 341.784 797.994 341.128 796.698 341.128H794.282ZM805 339.304V351H802.952V339.304H805ZM812.217 346.968H809.641V351H807.593V339.304H812.217C814.569 339.304 816.089 340.84 816.089 343.128C816.089 345.384 814.553 346.968 812.217 346.968ZM811.817 341.128H809.641V345.144H811.785C813.193 345.144 813.945 344.392 813.945 343.112C813.945 341.832 813.177 341.128 811.817 341.128ZM821.1 341.192V339.304H829.996V341.192H826.572V351H824.524V341.192H821.1ZM841.765 345.144C841.765 348.696 839.429 351.192 836.069 351.192C832.725 351.192 830.421 348.712 830.421 345.144C830.421 341.592 832.741 339.096 836.085 339.096C839.429 339.096 841.765 341.576 841.765 345.144ZM839.605 345.144C839.605 342.648 838.229 341.064 836.085 341.064C833.941 341.064 832.565 342.648 832.565 345.144C832.565 347.64 833.941 349.224 836.085 349.224C838.229 349.224 839.605 347.608 839.605 345.144ZM848.992 351H846.864L851.088 339.304H853.184L857.408 351H855.248L854.304 348.296H849.936L848.992 351ZM851.872 342.792L850.544 346.568H853.712L852.368 342.792C852.272 342.488 852.16 342.136 852.128 341.896C852.08 342.12 851.984 342.472 851.872 342.792ZM860.922 339.304V345.448L865.658 339.304H868.074L864.202 344.296L868.122 351H865.754L862.858 346.024L860.922 348.504V351H858.874V339.304H860.922ZM869.575 346.728V339.304H871.623V346.6C871.623 348.28 872.535 349.208 874.199 349.208C875.863 349.208 876.791 348.264 876.791 346.6V339.304H878.839V346.728C878.839 349.464 877.047 351.192 874.199 351.192C871.367 351.192 869.575 349.48 869.575 346.728ZM883.407 351H881.359V339.304H885.823C888.479 339.304 890.031 340.648 890.031 342.952C890.031 344.52 889.295 345.64 887.919 346.2L890.143 351H887.903L885.919 346.632H883.407V351ZM883.407 341.128V344.824H885.823C887.119 344.824 887.887 344.136 887.887 342.952C887.887 341.784 887.119 341.128 885.823 341.128H883.407ZM899.341 351H892.077V339.304H899.341V341.192H894.125V344.2H898.797V346.008H894.125V349.112H899.341V351ZM903.882 350.296C903.882 351.624 902.922 352.68 901.626 352.84V352.056C902.346 351.928 902.89 351.496 902.89 350.936C902.762 351 902.618 351.032 902.426 351.032C901.802 351.032 901.29 350.568 901.29 349.928C901.29 349.16 901.786 348.648 902.506 348.648C903.306 348.648 903.882 349.304 903.882 350.296ZM921.202 345.144C921.202 348.696 918.866 351.192 915.506 351.192C912.162 351.192 909.858 348.712 909.858 345.144C909.858 341.592 912.178 339.096 915.522 339.096C918.866 339.096 921.202 341.576 921.202 345.144ZM919.042 345.144C919.042 342.648 917.666 341.064 915.522 341.064C913.378 341.064 912.002 342.648 912.002 345.144C912.002 347.64 913.378 349.224 915.522 349.224C917.666 349.224 919.042 347.608 919.042 345.144ZM925.125 351H923.109V339.304H925.141L930.628 347.592V339.304H932.645V351H930.628L925.125 342.712V351ZM939.442 351H935.234V339.304H939.33C942.786 339.304 945.17 341.688 945.17 345.176C945.17 348.616 942.834 351 939.442 351ZM939.138 341.192H937.282V349.112H939.25C941.586 349.112 943.01 347.608 943.01 345.176C943.01 342.696 941.554 341.192 939.138 341.192ZM957.749 345.144C957.749 348.696 955.413 351.192 952.053 351.192C948.709 351.192 946.405 348.712 946.405 345.144C946.405 341.592 948.725 339.096 952.069 339.096C955.413 339.096 957.749 341.576 957.749 345.144ZM955.589 345.144C955.589 342.648 954.213 341.064 952.069 341.064C949.925 341.064 948.549 342.648 948.549 345.144C948.549 347.64 949.925 349.224 952.069 349.224C954.213 349.224 955.589 347.608 955.589 345.144Z" fill="white"/>
<path d="M567.5 186C567.5 146.948 567.5 125.052 567.5 86" stroke="url(#paint7_linear_2515_3797)" stroke-width="4" stroke-dasharray="7.08 8.86"/>
<path d="M542.044 36H540.892V24.544H542.06L548.364 34.08V24.544H549.5V36H548.364L542.044 26.464V36ZM551.514 32.128C551.514 29.76 553.178 28.048 555.45 28.048C557.722 28.048 559.386 29.76 559.386 32.128C559.386 34.48 557.722 36.192 555.45 36.192C553.178 36.192 551.514 34.48 551.514 32.128ZM552.634 32.112C552.634 33.936 553.786 35.2 555.45 35.2C557.098 35.2 558.266 33.936 558.266 32.112C558.266 30.32 557.098 29.04 555.45 29.04C553.786 29.04 552.634 30.32 552.634 32.112ZM562.968 36L559.8 28.256H560.984L562.984 33.248C563.192 33.808 563.4 34.336 563.544 34.848C563.688 34.32 563.896 33.808 564.12 33.248L566.152 28.256H567.288L564.072 36H562.968ZM579.347 32.128L576.483 36H575.139L578.147 32C577.619 32.288 577.123 32.384 576.579 32.384C574.195 32.384 572.611 30.64 572.611 28.4C572.611 26.064 574.387 24.336 576.675 24.336C578.979 24.336 580.787 26.112 580.787 28.416C580.787 29.744 580.435 30.672 579.347 32.128ZM579.635 28.4C579.635 26.656 578.419 25.392 576.675 25.392C574.979 25.392 573.763 26.656 573.763 28.4C573.763 30.128 574.979 31.376 576.675 31.376C578.419 31.376 579.635 30.128 579.635 28.4ZM581.648 28.85V28.124H587.291V28.85H584.86V36H584.068V28.85H581.648ZM589.173 36H588.381V28.124H589.173V31.633H593.43V28.124H594.211V36H593.43V32.37H589.173V36Z" fill="white"/>
<path d="M481.272 53.192V51.304H490.168V53.192H486.744V63H484.696V53.192H481.272ZM501.937 57.144C501.937 60.696 499.601 63.192 496.241 63.192C492.897 63.192 490.593 60.712 490.593 57.144C490.593 53.592 492.913 51.096 496.257 51.096C499.601 51.096 501.937 53.576 501.937 57.144ZM499.777 57.144C499.777 54.648 498.401 53.064 496.257 53.064C494.113 53.064 492.737 54.648 492.737 57.144C492.737 59.64 494.113 61.224 496.257 61.224C498.401 61.224 499.777 59.608 499.777 57.144ZM503.763 58.728V51.304H505.811V58.6C505.811 60.28 506.723 61.208 508.387 61.208C510.051 61.208 510.979 60.264 510.979 58.6V51.304H513.027V58.728C513.027 61.464 511.235 63.192 508.387 63.192C505.555 63.192 503.763 61.48 503.763 58.728ZM520.49 63.192C517.082 63.192 514.874 60.824 514.874 57.16C514.874 53.528 517.162 51.112 520.586 51.112C523.354 51.112 525.418 52.728 525.818 55.24H523.658C523.258 53.88 522.09 53.08 520.538 53.08C518.378 53.08 517.018 54.648 517.018 57.144C517.018 59.624 518.394 61.224 520.538 61.224C522.122 61.224 523.338 60.392 523.722 59.096H525.85C525.402 61.56 523.258 63.192 520.49 63.192ZM529.735 63H527.687V51.304H529.735V56.136H534.919V51.304H536.967V63H534.919V58.04H529.735V63ZM543.77 63H539.562V51.304H543.658C547.114 51.304 549.498 53.688 549.498 57.176C549.498 60.616 547.162 63 543.77 63ZM543.466 53.192H541.61V61.112H543.578C545.914 61.112 547.338 59.608 547.338 57.176C547.338 54.696 545.882 53.192 543.466 53.192ZM562.077 57.144C562.077 60.696 559.741 63.192 556.381 63.192C553.037 63.192 550.733 60.712 550.733 57.144C550.733 53.592 553.053 51.096 556.397 51.096C559.741 51.096 562.077 53.576 562.077 57.144ZM559.917 57.144C559.917 54.648 558.541 53.064 556.397 53.064C554.253 53.064 552.877 54.648 552.877 57.144C552.877 59.64 554.253 61.224 556.397 61.224C558.541 61.224 559.917 59.608 559.917 57.144ZM565.978 63L562.49 51.304H564.618L566.474 57.48C566.65 58.12 566.826 58.776 567.002 59.8C567.194 58.76 567.37 58.152 567.578 57.48L569.418 51.304H571.674L573.482 57.48C573.674 58.136 573.85 58.808 574.042 59.8C574.266 58.712 574.426 58.088 574.602 57.496L576.49 51.304H578.57L575.018 63H573.034L570.538 54.488L567.994 63H565.978ZM582.125 63H580.109V51.304H582.141L587.628 59.592V51.304H589.645V63H587.628L582.125 54.712V63ZM594.554 62.296C594.554 63.624 593.594 64.68 592.298 64.84V64.056C593.018 63.928 593.562 63.496 593.562 62.936C593.434 63 593.289 63.032 593.098 63.032C592.474 63.032 591.962 62.568 591.962 61.928C591.962 61.16 592.458 60.648 593.178 60.648C593.978 60.648 594.554 61.304 594.554 62.296ZM603.25 51.304V61.112H608.146V63H601.202V51.304H603.25ZM611.132 63H609.004L613.228 51.304H615.324L619.548 63H617.388L616.444 60.296H612.076L611.132 63ZM614.012 54.792L612.684 58.568H615.852L614.508 54.792C614.412 54.488 614.3 54.136 614.268 53.896C614.22 54.12 614.124 54.472 614.012 54.792ZM625.557 53.032C623.237 53.032 621.909 54.712 621.909 57.24C621.909 59.848 623.413 61.272 625.573 61.272C627.605 61.272 628.837 60.152 628.837 58.28V58.232H625.301V56.424H630.741V63H629.013L628.885 61.656C628.245 62.552 626.917 63.176 625.333 63.176C622.053 63.176 619.765 60.792 619.765 57.192C619.765 53.64 622.085 51.112 625.605 51.112C628.277 51.112 630.341 52.664 630.677 55.048H628.517C628.149 53.672 626.965 53.032 625.557 53.032ZM643.624 57.144C643.624 60.696 641.288 63.192 637.928 63.192C634.584 63.192 632.28 60.712 632.28 57.144C632.28 53.592 634.6 51.096 637.944 51.096C641.288 51.096 643.624 53.576 643.624 57.144ZM641.464 57.144C641.464 54.648 640.088 53.064 637.944 53.064C635.8 53.064 634.424 54.648 634.424 57.144C634.424 59.64 635.8 61.224 637.944 61.224C640.088 61.224 641.464 59.608 641.464 57.144ZM644.858 54.568C644.858 52.52 646.554 51.096 649.018 51.096C651.386 51.096 652.89 52.408 652.954 54.52H650.906C650.858 53.512 650.138 52.92 648.986 52.92C647.722 52.92 646.906 53.528 646.906 54.504C646.906 55.336 647.354 55.8 648.33 56.024L650.17 56.424C652.17 56.856 653.146 57.88 653.146 59.624C653.146 61.8 651.45 63.208 648.874 63.208C646.378 63.208 644.746 61.88 644.698 59.784H646.746C646.762 60.776 647.562 61.368 648.874 61.368C650.234 61.368 651.098 60.776 651.098 59.8C651.098 59.016 650.698 58.552 649.738 58.344L647.882 57.928C645.898 57.496 644.858 56.36 644.858 54.568Z" fill="white"/>
<path d="M1177 186C1177 146.948 1177 125.052 1177 86" stroke="url(#paint8_linear_2515_3797)" stroke-width="4" stroke-dasharray="7.08 8.86"/>
<path d="M1130.54 17H1129.39V5.544H1130.56L1136.86 15.08V5.544H1138V17H1136.86L1130.54 7.464V17ZM1140.01 13.128C1140.01 10.76 1141.68 9.048 1143.95 9.048C1146.22 9.048 1147.89 10.76 1147.89 13.128C1147.89 15.48 1146.22 17.192 1143.95 17.192C1141.68 17.192 1140.01 15.48 1140.01 13.128ZM1141.13 13.112C1141.13 14.936 1142.29 16.2 1143.95 16.2C1145.6 16.2 1146.77 14.936 1146.77 13.112C1146.77 11.32 1145.6 10.04 1143.95 10.04C1142.29 10.04 1141.13 11.32 1141.13 13.112ZM1151.47 17L1148.3 9.256H1149.48L1151.48 14.248C1151.69 14.808 1151.9 15.336 1152.04 15.848C1152.19 15.32 1152.4 14.808 1152.62 14.248L1154.65 9.256H1155.79L1152.57 17H1151.47ZM1163.27 6.584H1160.94V5.544H1164.38V17H1163.27V6.584ZM1168.55 6.584H1166.22V5.544H1169.66V17H1168.55V6.584ZM1171.13 9.85V9.124H1176.78V9.85H1174.34V17H1173.55V9.85H1171.13ZM1178.66 17H1177.87V9.124H1178.66V12.633H1182.91V9.124H1183.7V17H1182.91V13.37H1178.66V17ZM1189.1 13.984V13.178H1192.87V13.984H1189.1ZM1200.2 6.584H1197.87V5.544H1201.31V17H1200.2V6.584ZM1206.7 10.856H1205.79V10.056L1209.32 6.568H1203.84V5.544H1210.78V6.472L1207.36 9.88C1209.5 9.992 1211.04 11.352 1211.04 13.432C1211.04 15.704 1209.37 17.192 1207.05 17.192C1204.8 17.192 1203.28 15.8 1203.28 13.512H1204.41C1204.41 15.16 1205.44 16.152 1207.05 16.152C1208.76 16.152 1209.87 15.064 1209.87 13.4C1209.87 11.832 1208.75 10.856 1206.7 10.856ZM1211.88 9.85V9.124H1217.52V9.85H1215.09V17H1214.3V9.85H1211.88ZM1219.4 17H1218.61V9.124H1219.4V12.633H1223.66V9.124H1224.44V17H1223.66V13.37H1219.4V17Z" fill="white"/>
<path d="M1068.85 34.032C1066.53 34.032 1065.21 35.712 1065.21 38.24C1065.21 40.848 1066.71 42.272 1068.87 42.272C1070.9 42.272 1072.13 41.152 1072.13 39.28V39.232H1068.6V37.424H1074.04V44H1072.31L1072.18 42.656C1071.54 43.552 1070.21 44.176 1068.63 44.176C1065.35 44.176 1063.06 41.792 1063.06 38.192C1063.06 34.64 1065.38 32.112 1068.9 32.112C1071.57 32.112 1073.64 33.664 1073.97 36.048H1071.81C1071.45 34.672 1070.26 34.032 1068.85 34.032ZM1078.3 32.304V42.112H1083.19V44H1076.25V32.304H1078.3ZM1094.97 38.144C1094.97 41.696 1092.63 44.192 1089.27 44.192C1085.93 44.192 1083.62 41.712 1083.62 38.144C1083.62 34.592 1085.94 32.096 1089.29 32.096C1092.63 32.096 1094.97 34.576 1094.97 38.144ZM1092.81 38.144C1092.81 35.648 1091.43 34.064 1089.29 34.064C1087.14 34.064 1085.77 35.648 1085.77 38.144C1085.77 40.64 1087.14 42.224 1089.29 42.224C1091.43 42.224 1092.81 40.608 1092.81 38.144ZM1096.87 44V32.304H1101.53C1103.83 32.304 1105.24 33.504 1105.24 35.456C1105.24 36.752 1104.67 37.68 1103.56 38.144C1104.79 38.544 1105.42 39.472 1105.42 40.832C1105.42 42.832 1104.03 44 1101.61 44H1096.87ZM1101.35 34.112H1098.92V37.296H1101.4C1102.52 37.296 1103.15 36.704 1103.15 35.664C1103.15 34.656 1102.51 34.112 1101.35 34.112ZM1101.53 39.024H1098.92V42.192H1101.53C1102.68 42.192 1103.32 41.632 1103.32 40.576C1103.32 39.584 1102.67 39.024 1101.53 39.024ZM1108.15 44H1106.02L1110.24 32.304H1112.34L1116.56 44H1114.4L1113.46 41.296H1109.09L1108.15 44ZM1111.03 35.792L1109.7 39.568H1112.87L1111.52 35.792C1111.43 35.488 1111.32 35.136 1111.28 34.896C1111.24 35.12 1111.14 35.472 1111.03 35.792ZM1120.08 32.304V42.112H1124.97V44H1118.03V32.304H1120.08ZM1138.22 44H1130.95V32.304H1138.22V34.192H1133V37.2H1137.67V39.008H1133V42.112H1138.22V44ZM1142.45 44H1140.44V32.304H1142.47L1147.96 40.592V32.304H1149.97V44H1147.96L1142.45 35.712V44ZM1151.54 34.192V32.304H1160.43V34.192H1157.01V44H1154.96V34.192H1151.54ZM1164.05 44H1162V32.304H1166.46C1169.12 32.304 1170.67 33.648 1170.67 35.952C1170.67 37.52 1169.94 38.64 1168.56 39.2L1170.78 44H1168.54L1166.56 39.632H1164.05V44ZM1164.05 34.128V37.824H1166.46C1167.76 37.824 1168.53 37.136 1168.53 35.952C1168.53 34.784 1167.76 34.128 1166.46 34.128H1164.05ZM1179.98 44H1172.72V32.304H1179.98V34.192H1174.77V37.2H1179.44V39.008H1174.77V42.112H1179.98V44ZM1186.83 39.968H1184.25V44H1182.2V32.304H1186.83C1189.18 32.304 1190.7 33.84 1190.7 36.128C1190.7 38.384 1189.16 39.968 1186.83 39.968ZM1186.43 34.128H1184.25V38.144H1186.39C1187.8 38.144 1188.55 37.392 1188.55 36.112C1188.55 34.832 1187.79 34.128 1186.43 34.128ZM1194.47 44H1192.42V32.304H1196.89C1199.54 32.304 1201.09 33.648 1201.09 35.952C1201.09 37.52 1200.36 38.64 1198.98 39.2L1201.21 44H1198.97L1196.98 39.632H1194.47V44ZM1194.47 34.128V37.824H1196.89C1198.18 37.824 1198.95 37.136 1198.95 35.952C1198.95 34.784 1198.18 34.128 1196.89 34.128H1194.47ZM1210.4 44H1203.14V32.304H1210.4V34.192H1205.19V37.2H1209.86V39.008H1205.19V42.112H1210.4V44ZM1214.64 44H1212.62V32.304H1214.66L1220.14 40.592V32.304H1222.16V44H1220.14L1214.64 35.712V44ZM1232.01 44H1224.75V32.304H1232.01V34.192H1226.8V37.2H1231.47V39.008H1226.8V42.112H1232.01V44ZM1234.15 39.728V32.304H1236.2V39.6C1236.2 41.28 1237.11 42.208 1238.78 42.208C1240.44 42.208 1241.37 41.264 1241.37 39.6V32.304H1243.42V39.728C1243.42 42.464 1241.63 44.192 1238.78 44.192C1235.95 44.192 1234.15 42.48 1234.15 39.728ZM1247.98 44H1245.94V32.304H1250.4C1253.06 32.304 1254.61 33.648 1254.61 35.952C1254.61 37.52 1253.87 38.64 1252.5 39.2L1254.72 44H1252.48L1250.5 39.632H1247.98V44ZM1247.98 34.128V37.824H1250.4C1251.7 37.824 1252.46 37.136 1252.46 35.952C1252.46 34.784 1251.7 34.128 1250.4 34.128H1247.98ZM1255.98 35.568C1255.98 33.52 1257.68 32.096 1260.14 32.096C1262.51 32.096 1264.02 33.408 1264.08 35.52H1262.03C1261.98 34.512 1261.26 33.92 1260.11 33.92C1258.85 33.92 1258.03 34.528 1258.03 35.504C1258.03 36.336 1258.48 36.8 1259.46 37.024L1261.3 37.424C1263.3 37.856 1264.27 38.88 1264.27 40.624C1264.27 42.8 1262.58 44.208 1260 44.208C1257.5 44.208 1255.87 42.88 1255.82 40.784H1257.87C1257.89 41.776 1258.69 42.368 1260 42.368C1261.36 42.368 1262.22 41.776 1262.22 40.8C1262.22 40.016 1261.82 39.552 1260.86 39.344L1259.01 38.928C1257.02 38.496 1255.98 37.36 1255.98 35.568ZM1268.17 44H1266.12V32.304H1268.17V37.136H1273.36V32.304H1275.4V44H1273.36V39.04H1268.17V44ZM1280.05 32.304V44H1278V32.304H1280.05ZM1287.26 39.968H1284.69V44H1282.64V32.304H1287.26C1289.62 32.304 1291.14 33.84 1291.14 36.128C1291.14 38.384 1289.6 39.968 1287.26 39.968ZM1286.86 34.128H1284.69V38.144H1286.83C1288.24 38.144 1288.99 37.392 1288.99 36.112C1288.99 34.832 1288.22 34.128 1286.86 34.128ZM1149.22 58.216H1144.87V63H1142.82V51.304H1150.05V53.192H1144.87V56.376H1149.22V58.216ZM1159.16 63H1151.9V51.304H1159.16V53.192H1153.95V56.2H1158.62V58.008H1153.95V61.112H1159.16V63ZM1160.71 54.568C1160.71 52.52 1162.41 51.096 1164.87 51.096C1167.24 51.096 1168.74 52.408 1168.81 54.52H1166.76C1166.71 53.512 1165.99 52.92 1164.84 52.92C1163.57 52.92 1162.76 53.528 1162.76 54.504C1162.76 55.336 1163.21 55.8 1164.18 56.024L1166.02 56.424C1168.02 56.856 1169 57.88 1169 59.624C1169 61.8 1167.3 63.208 1164.73 63.208C1162.23 63.208 1160.6 61.88 1160.55 59.784H1162.6C1162.61 60.776 1163.41 61.368 1164.73 61.368C1166.09 61.368 1166.95 60.776 1166.95 59.8C1166.95 59.016 1166.55 58.552 1165.59 58.344L1163.73 57.928C1161.75 57.496 1160.71 56.36 1160.71 54.568ZM1169.67 53.192V51.304H1178.57V53.192H1175.14V63H1173.09V53.192H1169.67ZM1182.18 51.304V63H1180.13V51.304H1182.18ZM1188.05 63L1183.64 51.304H1185.81L1188.37 58.04C1188.63 58.744 1188.85 59.432 1189.11 60.376C1189.4 59.352 1189.64 58.632 1189.86 58.04L1192.39 51.304H1194.52L1190.16 63H1188.05ZM1195.28 63H1193.15L1197.38 51.304H1199.47L1203.7 63H1201.54L1200.59 60.296H1196.22L1195.28 63ZM1198.16 54.792L1196.83 58.568H1200L1198.66 54.792C1198.56 54.488 1198.45 54.136 1198.42 53.896C1198.37 54.12 1198.27 54.472 1198.16 54.792ZM1207.21 51.304V61.112H1212.11V63H1205.16V51.304H1207.21Z" fill="white"/>
<defs>
<linearGradient id="paint0_linear_2515_3797" x1="0.234736" y1="245.905" x2="221.66" y2="128.171" gradientUnits="userSpaceOnUse">
<stop stop-color="#FFBD00"/>
<stop offset="1" stop-color="#1A27C9"/>
</linearGradient>
<linearGradient id="paint1_linear_2515_3797" x1="607.75" y1="245.905" x2="829.175" y2="128.171" gradientUnits="userSpaceOnUse">
<stop stop-color="#FFBD00"/>
<stop offset="1" stop-color="#1A27C9"/>
</linearGradient>
<linearGradient id="paint2_linear_2515_3797" x1="1218.81" y1="246.167" x2="1440.23" y2="128.433" gradientUnits="userSpaceOnUse">
<stop stop-color="#FFBD00"/>
<stop offset="1" stop-color="#1A27C9"/>
</linearGradient>
<linearGradient id="paint3_linear_2515_3797" x1="304.879" y1="127.55" x2="526.304" y2="245.284" gradientUnits="userSpaceOnUse">
<stop stop-color="#FFBD00"/>
<stop offset="1" stop-color="#1A27C9"/>
</linearGradient>
<linearGradient id="paint4_linear_2515_3797" x1="913.282" y1="127.55" x2="1134.71" y2="245.284" gradientUnits="userSpaceOnUse">
<stop stop-color="#FFBD00"/>
<stop offset="1" stop-color="#1A27C9"/>
</linearGradient>
<linearGradient id="paint5_linear_2515_3797" x1="261.5" y1="187" x2="261.5" y2="287" gradientUnits="userSpaceOnUse">
<stop stop-color="#FFBD00"/>
<stop offset="1" stop-color="#1A27C9"/>
</linearGradient>
<linearGradient id="paint6_linear_2515_3797" x1="869.5" y1="187" x2="869.5" y2="287" gradientUnits="userSpaceOnUse">
<stop stop-color="#FFBD00"/>
<stop offset="1" stop-color="#1A27C9"/>
</linearGradient>
<linearGradient id="paint7_linear_2515_3797" x1="567" y1="186" x2="567" y2="86" gradientUnits="userSpaceOnUse">
<stop stop-color="#FFBD00"/>
<stop offset="1" stop-color="#1A27C9"/>
</linearGradient>
<linearGradient id="paint8_linear_2515_3797" x1="1176.5" y1="186" x2="1176.5" y2="86" gradientUnits="userSpaceOnUse">
<stop stop-color="#FFBD00"/>
<stop offset="1" stop-color="#1A27C9"/>
</linearGradient>
</defs>
</svg>
