<svg width="430" height="548" viewBox="0 0 430 548" fill="none" xmlns="http://www.w3.org/2000/svg">
<path d="M-37.0781 147.704C-9.83794 133.22 5.43455 125.1 32.6747 110.616" stroke="url(#paint0_linear_2527_3160)" stroke-width="2.65678" stroke-dasharray="5 6"/>
<path d="M66.222 92.7762C71.1483 102.041 67.6311 113.546 58.3659 118.472C49.1008 123.398 37.5963 119.881 32.67 110.616C27.7436 101.351 31.2609 89.8465 40.526 84.9201C49.7911 79.9938 61.2956 83.511 66.222 92.7762ZM34.9939 109.38C39.2378 117.362 49.1486 120.392 57.1303 116.148C65.112 111.904 68.142 101.993 63.8981 94.0118C59.6541 86.0301 49.7433 83.0001 41.7616 87.244C33.78 91.488 30.7499 101.399 34.9939 109.38Z" fill="#FFBD00"/>
<path d="M66.9219 109.776C94.1621 124.26 109.435 132.38 136.675 146.864" stroke="url(#paint1_linear_2527_3160)" stroke-width="2.65678" stroke-dasharray="5 6"/>
<path d="M170.222 164.704C175.148 155.439 171.631 143.934 162.366 139.008C153.101 134.082 141.596 137.599 136.67 146.864C131.744 156.129 135.261 167.634 144.526 172.56C153.791 177.486 165.296 173.969 170.222 164.704ZM138.994 148.1C143.238 140.118 153.149 137.088 161.13 141.332C169.112 145.576 172.142 155.487 167.898 163.468C163.654 171.45 153.743 174.48 145.762 170.236C137.78 165.992 134.75 156.081 138.994 148.1Z" fill="#FFBD00"/>
<path d="M273.922 109.776C301.162 124.26 316.435 132.38 343.675 146.864" stroke="url(#paint2_linear_2527_3160)" stroke-width="2.65678" stroke-dasharray="5 6"/>
<path d="M377.222 164.704C382.148 155.439 378.631 143.934 369.366 139.008C360.101 134.082 348.596 137.599 343.67 146.864C338.744 156.129 342.261 167.634 351.526 172.56C360.791 177.486 372.296 173.969 377.222 164.704ZM345.994 148.1C350.238 140.118 360.149 137.088 368.13 141.332C376.112 145.576 379.142 155.487 374.898 163.468C370.654 171.45 360.743 174.48 352.762 170.236C344.78 165.992 341.75 156.081 345.994 148.1Z" fill="#FFBD00"/>
<path d="M169.922 148.704C197.162 134.22 212.435 126.1 239.675 111.616" stroke="url(#paint3_linear_2527_3160)" stroke-width="2.65678" stroke-dasharray="5 6"/>
<path d="M273.222 93.7762C278.148 103.041 274.631 114.546 265.366 119.472C256.101 124.398 244.596 120.881 239.67 111.616C234.744 102.351 238.261 90.8465 247.526 85.9201C256.791 80.9938 268.296 84.511 273.222 93.7762ZM241.994 110.38C246.238 118.362 256.149 121.392 264.13 117.148C272.112 112.904 275.142 102.993 270.898 95.0118C266.654 87.0301 256.743 84.0001 248.762 88.244C240.78 92.488 237.75 102.399 241.994 110.38Z" fill="#FFBD00"/>
<path d="M377.922 148.704C405.162 134.22 420.435 126.1 447.675 111.616" stroke="url(#paint4_linear_2527_3160)" stroke-width="2.65678" stroke-dasharray="5 6"/>
<path d="M49 133C49 148.621 49 157.379 49 173" stroke="url(#paint5_linear_2527_3160)" stroke-width="2.65678" stroke-dasharray="5 6"/>
<path d="M27.567 201H26.631V191.692H27.58L32.702 199.44V191.692H33.625V201H32.702L27.567 193.252V201ZM35.2616 197.854C35.2616 195.93 36.6136 194.539 38.4596 194.539C40.3056 194.539 41.6576 195.93 41.6576 197.854C41.6576 199.765 40.3056 201.156 38.4596 201.156C36.6136 201.156 35.2616 199.765 35.2616 197.854ZM36.1716 197.841C36.1716 199.323 37.1076 200.35 38.4596 200.35C39.7986 200.35 40.7476 199.323 40.7476 197.841C40.7476 196.385 39.7986 195.345 38.4596 195.345C37.1076 195.345 36.1716 196.385 36.1716 197.841ZM44.568 201L41.994 194.708H42.956L44.581 198.764C44.75 199.219 44.919 199.648 45.036 200.064C45.153 199.635 45.322 199.219 45.504 198.764L47.155 194.708H48.078L45.465 201H44.568ZM52.4677 198.465C52.4677 197.321 53.1567 196.411 54.2617 196.034C53.3257 195.657 52.7927 194.89 52.7927 193.928C52.7927 192.498 54.0147 191.523 55.7957 191.523C57.5637 191.523 58.7467 192.498 58.7467 193.941C58.7467 194.916 58.2267 195.683 57.3037 196.034C58.3827 196.372 59.0977 197.308 59.0977 198.478C59.0977 200.064 57.7587 201.156 55.7827 201.156C53.8067 201.156 52.4677 200.064 52.4677 198.465ZM53.6767 193.954C53.6767 194.981 54.5087 195.67 55.7827 195.67C57.0437 195.67 57.8627 195.007 57.8627 193.98C57.8627 192.979 57.0437 192.355 55.7827 192.355C54.5087 192.355 53.6767 192.979 53.6767 193.954ZM53.3907 198.387C53.3907 199.544 54.3527 200.311 55.7957 200.311C57.2127 200.311 58.1747 199.544 58.1747 198.387C58.1747 197.243 57.2387 196.502 55.7697 196.502C54.3267 196.502 53.3907 197.243 53.3907 198.387ZM59.8846 194.5V193.84H65.0146V194.5H62.8046V201H62.0846V194.5H59.8846ZM66.7257 201H66.0057V193.84H66.7257V197.03H70.5957V193.84H71.3057V201H70.5957V197.7H66.7257V201Z" fill="white"/>
<path d="M14.972 223H11.553V213.497H14.881C17.689 213.497 19.626 215.434 19.626 218.268C19.626 221.063 17.728 223 14.972 223ZM14.725 215.031H13.217V221.466H14.816C16.714 221.466 17.871 220.244 17.871 218.268C17.871 216.253 16.688 215.031 14.725 215.031ZM27.078 223H21.176V213.497H27.078V215.031H22.84V217.475H26.636V218.944H22.84V221.466H27.078V223ZM32.6391 219.724H30.5461V223H28.8821V213.497H32.6391C34.5501 213.497 35.7851 214.745 35.7851 216.604C35.7851 218.437 34.5371 219.724 32.6391 219.724ZM32.3141 214.979H30.5461V218.242H32.2881C33.4321 218.242 34.0431 217.631 34.0431 216.591C34.0431 215.551 33.4191 214.979 32.3141 214.979ZM37.496 223H35.767L39.199 213.497H40.902L44.334 223H42.579L41.812 220.803H38.263L37.496 223ZM39.836 216.331L38.757 219.399H41.331L40.239 216.331C40.161 216.084 40.07 215.798 40.044 215.603C40.005 215.785 39.927 216.071 39.836 216.331ZM47.1897 223H45.5257V213.497H49.1527C51.3107 213.497 52.5717 214.589 52.5717 216.461C52.5717 217.735 51.9737 218.645 50.8557 219.1L52.6627 223H50.8427L49.2307 219.451H47.1897V223ZM47.1897 214.979V217.982H49.1527C50.2057 217.982 50.8297 217.423 50.8297 216.461C50.8297 215.512 50.2057 214.979 49.1527 214.979H47.1897ZM53.2757 215.031V213.497H60.5037V215.031H57.7217V223H56.0577V215.031H53.2757ZM61.7107 219.529V213.497H63.3747V219.425C63.3747 220.79 64.1157 221.544 65.4677 221.544C66.8197 221.544 67.5737 220.777 67.5737 219.425V213.497H69.2377V219.529C69.2377 221.752 67.7817 223.156 65.4677 223.156C63.1667 223.156 61.7107 221.765 61.7107 219.529ZM72.9484 223H71.2844V213.497H74.9114C77.0694 213.497 78.3304 214.589 78.3304 216.461C78.3304 217.735 77.7324 218.645 76.6144 219.1L78.4214 223H76.6014L74.9894 219.451H72.9484V223ZM72.9484 214.979V217.982H74.9114C75.9644 217.982 76.5884 217.423 76.5884 216.461C76.5884 215.512 75.9644 214.979 74.9114 214.979H72.9484ZM85.8954 223H79.9934V213.497H85.8954V215.031H81.6574V217.475H85.4534V218.944H81.6574V221.466H85.8954V223Z" fill="white"/>
<path d="M256 133C256 148.621 256 157.379 256 173" stroke="url(#paint6_linear_2527_3160)" stroke-width="2.65678" stroke-dasharray="5 6"/>
<path d="M232.067 201H231.131V191.692H232.08L237.202 199.44V191.692H238.125V201H237.202L232.067 193.252V201ZM239.762 197.854C239.762 195.93 241.114 194.539 242.96 194.539C244.806 194.539 246.158 195.93 246.158 197.854C246.158 199.765 244.806 201.156 242.96 201.156C241.114 201.156 239.762 199.765 239.762 197.854ZM240.672 197.841C240.672 199.323 241.608 200.35 242.96 200.35C244.299 200.35 245.248 199.323 245.248 197.841C245.248 196.385 244.299 195.345 242.96 195.345C241.608 195.345 240.672 196.385 240.672 197.841ZM249.068 201L246.494 194.708H247.456L249.081 198.764C249.25 199.219 249.419 199.648 249.536 200.064C249.653 199.635 249.822 199.219 250.004 198.764L251.655 194.708H252.578L249.965 201H249.068ZM258.658 192.537H256.76V191.692H259.555V201H258.658V192.537ZM261.361 196.346C261.361 193.46 262.778 191.51 265.092 191.51C267.393 191.51 268.81 193.46 268.81 196.346C268.81 199.245 267.419 201.169 265.092 201.169C262.752 201.169 261.361 199.245 261.361 196.346ZM262.284 196.346C262.284 198.764 263.311 200.324 265.092 200.324C266.873 200.324 267.9 198.764 267.9 196.346C267.9 193.915 266.873 192.368 265.092 192.368C263.311 192.368 262.284 193.915 262.284 196.346ZM269.641 194.5V193.84H274.771V194.5H272.561V201H271.841V194.5H269.641ZM276.482 201H275.762V193.84H276.482V197.03H280.352V193.84H281.062V201H280.352V197.7H276.482V201Z" fill="white"/>
<path d="M231.491 215.031V213.497H238.719V215.031H235.937V223H234.273V215.031H231.491ZM241.655 223H239.991V213.497H243.618C245.776 213.497 247.037 214.589 247.037 216.461C247.037 217.735 246.439 218.645 245.321 219.1L247.128 223H245.308L243.696 219.451H241.655V223ZM241.655 214.979V217.982H243.618C244.671 217.982 245.295 217.423 245.295 216.461C245.295 215.512 244.671 214.979 243.618 214.979H241.655ZM250.363 213.497V223H248.699V213.497H250.363ZM256.227 219.724H254.134V223H252.47V213.497H256.227C258.138 213.497 259.373 214.745 259.373 216.604C259.373 218.437 258.125 219.724 256.227 219.724ZM255.902 214.979H254.134V218.242H255.876C257.02 218.242 257.631 217.631 257.631 216.591C257.631 215.551 257.007 214.979 255.902 214.979ZM263.445 215.031V213.497H270.673V215.031H267.891V223H266.227V215.031H263.445ZM280.235 218.242C280.235 221.128 278.337 223.156 275.607 223.156C272.89 223.156 271.018 221.141 271.018 218.242C271.018 215.356 272.903 213.328 275.62 213.328C278.337 213.328 280.235 215.343 280.235 218.242ZM278.48 218.242C278.48 216.214 277.362 214.927 275.62 214.927C273.878 214.927 272.76 216.214 272.76 218.242C272.76 220.27 273.878 221.557 275.62 221.557C277.362 221.557 278.48 220.244 278.48 218.242ZM212.505 239H210.776L214.208 229.497H215.911L219.343 239H217.588L216.821 236.803H213.272L212.505 239ZM214.845 232.331L213.766 235.399H216.34L215.248 232.331C215.17 232.084 215.079 231.798 215.053 231.603C215.014 231.785 214.936 232.071 214.845 232.331ZM222.199 229.497V234.489L226.047 229.497H228.01L224.864 233.553L228.049 239H226.125L223.772 234.957L222.199 236.972V239H220.535V229.497H222.199ZM229.23 235.529V229.497H230.894V235.425C230.894 236.79 231.635 237.544 232.987 237.544C234.339 237.544 235.093 236.777 235.093 235.425V229.497H236.757V235.529C236.757 237.752 235.301 239.156 232.987 239.156C230.686 239.156 229.23 237.765 229.23 235.529ZM240.467 239H238.803V229.497H242.43C244.588 229.497 245.849 230.589 245.849 232.461C245.849 233.735 245.251 234.645 244.133 235.1L245.94 239H244.12L242.508 235.451H240.467V239ZM240.467 230.979V233.982H242.43C243.483 233.982 244.107 233.423 244.107 232.461C244.107 231.512 243.483 230.979 242.43 230.979H240.467ZM253.414 239H247.512V229.497H253.414V231.031H249.176V233.475H252.972V234.944H249.176V237.466H253.414V239ZM257.104 238.428C257.104 239.507 256.324 240.365 255.271 240.495V239.858C255.856 239.754 256.298 239.403 256.298 238.948C256.194 239 256.077 239.026 255.921 239.026C255.414 239.026 254.998 238.649 254.998 238.129C254.998 237.505 255.401 237.089 255.986 237.089C256.636 237.089 257.104 237.622 257.104 238.428ZM271.177 234.242C271.177 237.128 269.279 239.156 266.549 239.156C263.832 239.156 261.96 237.141 261.96 234.242C261.96 231.356 263.845 229.328 266.562 229.328C269.279 229.328 271.177 231.343 271.177 234.242ZM269.422 234.242C269.422 232.214 268.304 230.927 266.562 230.927C264.82 230.927 263.702 232.214 263.702 234.242C263.702 236.27 264.82 237.557 266.562 237.557C268.304 237.557 269.422 236.244 269.422 234.242ZM274.363 239H272.725V229.497H274.376L278.835 236.231V229.497H280.473V239H278.835L274.363 232.266V239ZM285.996 239H282.577V229.497H285.905C288.713 229.497 290.65 231.434 290.65 234.268C290.65 237.063 288.752 239 285.996 239ZM285.749 231.031H284.241V237.466H285.84C287.738 237.466 288.895 236.244 288.895 234.268C288.895 232.253 287.712 231.031 285.749 231.031ZM300.871 234.242C300.871 237.128 298.973 239.156 296.243 239.156C293.526 239.156 291.654 237.141 291.654 234.242C291.654 231.356 293.539 229.328 296.256 229.328C298.973 229.328 300.871 231.343 300.871 234.242ZM299.116 234.242C299.116 232.214 297.998 230.927 296.256 230.927C294.514 230.927 293.396 232.214 293.396 234.242C293.396 236.27 294.514 237.557 296.256 237.557C297.998 237.557 299.116 236.244 299.116 234.242Z" fill="white"/>
<path d="M153 125C153 109.379 153 100.621 153 85" stroke="url(#paint7_linear_2527_3160)" stroke-width="2.65678" stroke-dasharray="5 6"/>
<path d="M131.567 32H130.631V22.692H131.58L136.702 30.44V22.692H137.625V32H136.702L131.567 24.252V32ZM139.262 28.854C139.262 26.93 140.614 25.539 142.46 25.539C144.306 25.539 145.658 26.93 145.658 28.854C145.658 30.765 144.306 32.156 142.46 32.156C140.614 32.156 139.262 30.765 139.262 28.854ZM140.172 28.841C140.172 30.323 141.108 31.35 142.46 31.35C143.799 31.35 144.748 30.323 144.748 28.841C144.748 27.385 143.799 26.345 142.46 26.345C141.108 26.345 140.172 27.385 140.172 28.841ZM148.568 32L145.994 25.708H146.956L148.581 29.764C148.75 30.219 148.919 30.648 149.036 31.064C149.153 30.635 149.322 30.219 149.504 29.764L151.155 25.708H152.078L149.465 32H148.568ZM161.876 28.854L159.549 32H158.457L160.901 28.75C160.472 28.984 160.069 29.062 159.627 29.062C157.69 29.062 156.403 27.645 156.403 25.825C156.403 23.927 157.846 22.523 159.705 22.523C161.577 22.523 163.046 23.966 163.046 25.838C163.046 26.917 162.76 27.671 161.876 28.854ZM162.11 25.825C162.11 24.408 161.122 23.381 159.705 23.381C158.327 23.381 157.339 24.408 157.339 25.825C157.339 27.229 158.327 28.243 159.705 28.243C161.122 28.243 162.11 27.229 162.11 25.825ZM163.758 25.5V24.84H168.888V25.5H166.678V32H165.958V25.5H163.758ZM170.599 32H169.879V24.84H170.599V28.03H174.469V24.84H175.179V32H174.469V28.7H170.599V32Z" fill="white"/>
<path d="M108.559 46.031V44.497H115.787V46.031H113.005V54H111.341V46.031H108.559ZM125.349 49.242C125.349 52.128 123.451 54.156 120.721 54.156C118.004 54.156 116.132 52.141 116.132 49.242C116.132 46.356 118.017 44.328 120.734 44.328C123.451 44.328 125.349 46.343 125.349 49.242ZM123.594 49.242C123.594 47.214 122.476 45.927 120.734 45.927C118.992 45.927 117.874 47.214 117.874 49.242C117.874 51.27 118.992 52.557 120.734 52.557C122.476 52.557 123.594 51.244 123.594 49.242ZM126.833 50.529V44.497H128.497V50.425C128.497 51.79 129.238 52.544 130.59 52.544C131.942 52.544 132.696 51.777 132.696 50.425V44.497H134.36V50.529C134.36 52.752 132.904 54.156 130.59 54.156C128.289 54.156 126.833 52.765 126.833 50.529ZM140.424 54.156C137.655 54.156 135.861 52.232 135.861 49.255C135.861 46.304 137.72 44.341 140.502 44.341C142.751 44.341 144.428 45.654 144.753 47.695H142.998C142.673 46.59 141.724 45.94 140.463 45.94C138.708 45.94 137.603 47.214 137.603 49.242C137.603 51.257 138.721 52.557 140.463 52.557C141.75 52.557 142.738 51.881 143.05 50.828H144.779C144.415 52.83 142.673 54.156 140.424 54.156ZM147.935 54H146.271V44.497H147.935V48.423H152.147V44.497H153.811V54H152.147V49.97H147.935V54ZM159.338 54H155.919V44.497H159.247C162.055 44.497 163.992 46.434 163.992 49.268C163.992 52.063 162.094 54 159.338 54ZM159.091 46.031H157.583V52.466H159.182C161.08 52.466 162.237 51.244 162.237 49.268C162.237 47.253 161.054 46.031 159.091 46.031ZM174.213 49.242C174.213 52.128 172.315 54.156 169.585 54.156C166.868 54.156 164.996 52.141 164.996 49.242C164.996 46.356 166.881 44.328 169.598 44.328C172.315 44.328 174.213 46.343 174.213 49.242ZM172.458 49.242C172.458 47.214 171.34 45.927 169.598 45.927C167.856 45.927 166.738 47.214 166.738 49.242C166.738 51.27 167.856 52.557 169.598 52.557C171.34 52.557 172.458 51.244 172.458 49.242ZM177.383 54L174.549 44.497H176.278L177.786 49.515C177.929 50.035 178.072 50.568 178.215 51.4C178.371 50.555 178.514 50.061 178.683 49.515L180.178 44.497H182.011L183.48 49.515C183.636 50.048 183.779 50.594 183.935 51.4C184.117 50.516 184.247 50.009 184.39 49.528L185.924 44.497H187.614L184.728 54H183.116L181.088 47.084L179.021 54H177.383ZM190.502 54H188.864V44.497H190.515L194.974 51.231V44.497H196.612V54H194.974L190.502 47.266V54ZM133.862 60.497V68.466H137.84V70H132.198V60.497H133.862ZM140.266 70H138.537L141.969 60.497H143.672L147.104 70H145.349L144.582 67.803H141.033L140.266 70ZM142.606 63.331L141.527 66.399H144.101L143.009 63.331C142.931 63.084 142.84 62.798 142.814 62.603C142.775 62.785 142.697 63.071 142.606 63.331ZM151.986 61.901C150.101 61.901 149.022 63.266 149.022 65.32C149.022 67.439 150.244 68.596 151.999 68.596C153.65 68.596 154.651 67.686 154.651 66.165V66.126H151.778V64.657H156.198V70H154.794L154.69 68.908C154.17 69.636 153.091 70.143 151.804 70.143C149.139 70.143 147.28 68.206 147.28 65.281C147.28 62.395 149.165 60.341 152.025 60.341C154.196 60.341 155.873 61.602 156.146 63.539H154.391C154.092 62.421 153.13 61.901 151.986 61.901ZM166.666 65.242C166.666 68.128 164.768 70.156 162.038 70.156C159.321 70.156 157.449 68.141 157.449 65.242C157.449 62.356 159.334 60.328 162.051 60.328C164.768 60.328 166.666 62.343 166.666 65.242ZM164.911 65.242C164.911 63.214 163.793 61.927 162.051 61.927C160.309 61.927 159.191 63.214 159.191 65.242C159.191 67.27 160.309 68.557 162.051 68.557C163.793 68.557 164.911 67.244 164.911 65.242ZM167.669 63.149C167.669 61.485 169.047 60.328 171.049 60.328C172.973 60.328 174.195 61.394 174.247 63.11H172.583C172.544 62.291 171.959 61.81 171.023 61.81C169.996 61.81 169.333 62.304 169.333 63.097C169.333 63.773 169.697 64.15 170.49 64.332L171.985 64.657C173.61 65.008 174.403 65.84 174.403 67.257C174.403 69.025 173.025 70.169 170.932 70.169C168.904 70.169 167.578 69.09 167.539 67.387H169.203C169.216 68.193 169.866 68.674 170.932 68.674C172.037 68.674 172.739 68.193 172.739 67.4C172.739 66.763 172.414 66.386 171.634 66.217L170.126 65.879C168.514 65.528 167.669 64.605 167.669 63.149Z" fill="white"/>
<path d="M134.222 398.776C139.148 408.041 135.631 419.546 126.366 424.472C117.101 429.398 105.596 425.881 100.67 416.616C95.7436 407.351 99.2609 395.846 108.526 390.92C117.791 385.994 129.296 389.511 134.222 398.776ZM102.994 415.38C107.238 423.362 117.149 426.392 125.13 422.148C133.112 417.904 136.142 407.993 131.898 400.012C127.654 392.03 117.743 389 109.762 393.244C101.78 397.488 98.7499 407.399 102.994 415.38Z" fill="#FFBD00"/>
<path d="M134.922 415.776C162.162 430.26 177.435 438.38 204.675 452.864" stroke="url(#paint8_linear_2527_3160)" stroke-width="2.65678" stroke-dasharray="5 6"/>
<path d="M238.222 470.704C243.148 461.439 239.631 449.934 230.366 445.008C221.101 440.082 209.596 443.599 204.67 452.864C199.744 462.129 203.261 473.634 212.526 478.56C221.791 483.486 233.296 479.969 238.222 470.704ZM206.994 454.1C211.238 446.118 221.149 443.088 229.13 447.332C237.112 451.576 240.142 461.487 235.898 469.468C231.654 477.45 221.743 480.48 213.762 476.236C205.78 471.992 202.75 462.081 206.994 454.1Z" fill="#FFBD00"/>
<path d="M237.922 454.704C265.162 440.22 280.435 432.1 307.675 417.616" stroke="url(#paint9_linear_2527_3160)" stroke-width="2.65678" stroke-dasharray="5 6"/>
<path d="M341.222 399.776C346.148 409.041 342.631 420.546 333.366 425.472C324.101 430.398 312.596 426.881 307.67 417.616C302.744 408.351 306.261 396.846 315.526 391.92C324.791 386.994 336.296 390.511 341.222 399.776ZM309.994 416.38C314.238 424.362 324.149 427.392 332.13 423.148C340.112 418.904 343.142 408.993 338.898 401.012C334.654 393.03 324.743 390 316.762 394.244C308.78 398.488 305.75 408.399 309.994 416.38Z" fill="#FFBD00"/>
<path d="M117.5 439C117.5 454.621 117.5 463.379 117.5 479" stroke="url(#paint10_linear_2527_3160)" stroke-width="2.65678" stroke-dasharray="5 6"/>
<path d="M93.567 507H92.631V497.692H93.58L98.702 505.44V497.692H99.625V507H98.702L93.567 499.252V507ZM101.262 503.854C101.262 501.93 102.614 500.539 104.46 500.539C106.306 500.539 107.658 501.93 107.658 503.854C107.658 505.765 106.306 507.156 104.46 507.156C102.614 507.156 101.262 505.765 101.262 503.854ZM102.172 503.841C102.172 505.323 103.108 506.35 104.46 506.35C105.799 506.35 106.748 505.323 106.748 503.841C106.748 502.385 105.799 501.345 104.46 501.345C103.108 501.345 102.172 502.385 102.172 503.841ZM110.568 507L107.994 500.708H108.956L110.581 504.764C110.75 505.219 110.919 505.648 111.036 506.064C111.153 505.635 111.322 505.219 111.504 504.764L113.155 500.708H114.078L111.465 507H110.568ZM120.158 498.537H118.26V497.692H121.055V507H120.158V498.537ZM129.556 505.024H128.464V507H127.554V505.024H122.666V504.192L127.216 497.692H128.464V504.192H129.556V505.024ZM123.68 504.192H127.554V498.654L123.68 504.192ZM130.417 500.5V499.84H135.547V500.5H133.337V507H132.617V500.5H130.417ZM137.258 507H136.538V499.84H137.258V503.03H141.128V499.84H141.838V507H141.128V503.7H137.258V507Z" fill="white"/>
<path d="M59.7429 519.497V527.466H63.7209V529H58.0789V519.497H59.7429ZM66.1469 529H64.4179L67.8499 519.497H69.5529L72.9849 529H71.2299L70.4629 526.803H66.9139L66.1469 529ZM68.4869 522.331L67.4079 525.399H69.9819L68.8899 522.331C68.8119 522.084 68.7209 521.798 68.6949 521.603C68.6559 521.785 68.5779 522.071 68.4869 522.331ZM75.8145 529H74.1765V519.497H75.8275L80.2865 526.231V519.497H81.9245V529H80.2865L75.8145 522.266V529ZM87.4471 529H84.0281V519.497H87.3561C90.1641 519.497 92.1011 521.434 92.1011 524.268C92.1011 527.063 90.2031 529 87.4471 529ZM87.2001 521.031H85.6921V527.466H87.2911C89.1891 527.466 90.3461 526.244 90.3461 524.268C90.3461 522.253 89.1631 521.031 87.2001 521.031ZM95.2631 529H93.6511V519.497H95.2631L98.3311 527.063L101.399 519.497H103.037V529H101.425V526.075C101.425 524.164 101.425 523.605 101.516 522.929L99.0981 529H97.5641L95.1591 522.942C95.2501 523.514 95.2631 524.411 95.2631 525.594V529ZM105.959 529H104.23L107.662 519.497H109.365L112.797 529H111.042L110.275 526.803H106.726L105.959 529ZM108.299 522.331L107.22 525.399H109.794L108.702 522.331C108.624 522.084 108.533 521.798 108.507 521.603C108.468 521.785 108.39 522.071 108.299 522.331ZM115.653 529H113.989V519.497H117.616C119.774 519.497 121.035 520.589 121.035 522.461C121.035 523.735 120.437 524.645 119.319 525.1L121.126 529H119.306L117.694 525.451H115.653V529ZM115.653 520.979V523.982H117.616C118.669 523.982 119.293 523.423 119.293 522.461C119.293 521.512 118.669 520.979 117.616 520.979H115.653ZM124.362 519.497V524.489L128.21 519.497H130.173L127.027 523.553L130.212 529H128.288L125.935 524.957L124.362 526.972V529H122.698V519.497H124.362ZM134.962 529V519.497H138.745C140.617 519.497 141.761 520.472 141.761 522.058C141.761 523.111 141.293 523.865 140.396 524.242C141.397 524.567 141.904 525.321 141.904 526.426C141.904 528.051 140.773 529 138.81 529H134.962ZM138.602 520.966H136.626V523.553H138.641C139.551 523.553 140.058 523.072 140.058 522.227C140.058 521.408 139.538 520.966 138.602 520.966ZM138.745 524.957H136.626V527.531H138.745C139.681 527.531 140.201 527.076 140.201 526.218C140.201 525.412 139.668 524.957 138.745 524.957ZM149.331 529H143.429V519.497H149.331V521.031H145.093V523.475H148.889V524.944H145.093V527.466H149.331V529ZM151.955 529H150.226L153.658 519.497H155.361L158.793 529H157.038L156.271 526.803H152.722L151.955 529ZM154.295 522.331L153.216 525.399H155.79L154.698 522.331C154.62 522.084 154.529 521.798 154.503 521.603C154.464 521.785 154.386 522.071 154.295 522.331ZM163.531 529.156C160.762 529.156 158.968 527.232 158.968 524.255C158.968 521.304 160.827 519.341 163.609 519.341C165.858 519.341 167.535 520.654 167.86 522.695H166.105C165.78 521.59 164.831 520.94 163.57 520.94C161.815 520.94 160.71 522.214 160.71 524.242C160.71 526.257 161.828 527.557 163.57 527.557C164.857 527.557 165.845 526.881 166.157 525.828H167.886C167.522 527.83 165.78 529.156 163.531 529.156ZM171.043 529H169.379V519.497H171.043V523.423H175.255V519.497H176.919V529H175.255V524.97H171.043V529ZM77.1028 545L76.4658 544.285C75.7118 544.857 74.7498 545.169 73.6058 545.169C71.5388 545.169 70.1478 544.077 70.1478 542.478C70.1478 541.321 70.9018 540.372 72.3578 539.67C71.6168 538.812 71.3308 538.227 71.3308 537.512C71.3308 536.251 72.3578 535.341 73.7618 535.341C75.1528 535.341 76.1148 536.199 76.1148 537.434C76.1148 538.383 75.6078 539.137 74.4248 539.93L76.3358 542.075C76.5048 541.62 76.5958 541.074 76.5958 540.45H78.1428C78.1428 541.555 77.8828 542.504 77.4018 543.258L78.9488 545H77.1028ZM72.8388 537.499C72.8388 537.967 73.0468 538.357 73.6578 539.059C74.3208 538.669 74.6458 538.136 74.6458 537.486C74.6458 536.927 74.3078 536.602 73.7618 536.602C73.1898 536.602 72.8388 536.94 72.8388 537.499ZM71.8248 542.322C71.8248 543.245 72.5658 543.804 73.7878 543.804C74.5028 543.804 75.0878 543.609 75.5428 543.245L73.1248 540.528C72.2278 541.035 71.8248 541.581 71.8248 542.322ZM87.3578 545.715L86.3178 544.545C85.6418 544.935 84.8358 545.156 83.9388 545.156C81.2218 545.156 79.3498 543.141 79.3498 540.242C79.3498 537.356 81.2348 535.328 83.9518 535.328C86.6688 535.328 88.5668 537.343 88.5668 540.242C88.5668 541.607 88.1508 542.777 87.4098 543.635L88.4238 544.766L87.3578 545.715ZM86.8118 540.242C86.8118 538.214 85.6938 536.927 83.9518 536.927C82.2098 536.927 81.0918 538.214 81.0918 540.242C81.0918 542.27 82.2098 543.557 83.9518 543.557C84.4198 543.557 84.8358 543.466 85.2128 543.284L83.9518 541.867L85.0048 540.918L86.2658 542.335C86.6168 541.789 86.8118 541.074 86.8118 540.242ZM90.0505 541.529V535.497H91.7145V541.425C91.7145 542.79 92.4555 543.544 93.8075 543.544C95.1595 543.544 95.9135 542.777 95.9135 541.425V535.497H97.5775V541.529C97.5775 543.752 96.1215 545.156 93.8075 545.156C91.5065 545.156 90.0505 543.765 90.0505 541.529ZM101.288 535.497V545H99.6243V535.497H101.288ZM105.059 535.497V543.466H109.037V545H103.395V535.497H105.059ZM118.604 540.242C118.604 543.128 116.706 545.156 113.976 545.156C111.259 545.156 109.387 543.141 109.387 540.242C109.387 537.356 111.272 535.328 113.989 535.328C116.706 535.328 118.604 537.343 118.604 540.242ZM116.849 540.242C116.849 538.214 115.731 536.927 113.989 536.927C112.247 536.927 111.129 538.214 111.129 540.242C111.129 542.27 112.247 543.557 113.989 543.557C115.731 543.557 116.849 542.244 116.849 540.242ZM122.1 540.255L118.941 535.497H120.917L122.074 537.2C122.464 537.785 122.789 538.331 123.14 538.981L125.35 535.497H127.287L124.18 540.242L127.3 545H125.337L124.271 543.427C123.855 542.79 123.517 542.218 123.14 541.529L120.826 545H118.876L122.1 540.255ZM136.078 545.156C133.309 545.156 131.515 543.232 131.515 540.255C131.515 537.304 133.374 535.341 136.156 535.341C138.405 535.341 140.082 536.654 140.407 538.695H138.652C138.327 537.59 137.378 536.94 136.117 536.94C134.362 536.94 133.257 538.214 133.257 540.242C133.257 542.257 134.375 543.557 136.117 543.557C137.404 543.557 138.392 542.881 138.704 541.828H140.433C140.069 543.83 138.327 545.156 136.078 545.156ZM143.589 535.497V543.466H147.567V545H141.925V535.497H143.589ZM148.462 541.529V535.497H150.126V541.425C150.126 542.79 150.867 543.544 152.219 543.544C153.571 543.544 154.325 542.777 154.325 541.425V535.497H155.989V541.529C155.989 543.752 154.533 545.156 152.219 545.156C149.918 545.156 148.462 543.765 148.462 541.529ZM158.035 545V535.497H161.818C163.69 535.497 164.834 536.472 164.834 538.058C164.834 539.111 164.366 539.865 163.469 540.242C164.47 540.567 164.977 541.321 164.977 542.426C164.977 544.051 163.846 545 161.883 545H158.035ZM161.675 536.966H159.699V539.553H161.714C162.624 539.553 163.131 539.072 163.131 538.227C163.131 537.408 162.611 536.966 161.675 536.966ZM161.818 540.957H159.699V543.531H161.818C162.754 543.531 163.274 543.076 163.274 542.218C163.274 541.412 162.741 540.957 161.818 540.957Z" fill="white"/>
<path d="M324 439C324 454.621 324 463.379 324 479" stroke="url(#paint11_linear_2527_3160)" stroke-width="2.65678" stroke-dasharray="5 6"/>
<path d="M300.567 507H299.631V497.692H300.58L305.702 505.44V497.692H306.625V507H305.702L300.567 499.252V507ZM308.262 503.854C308.262 501.93 309.614 500.539 311.46 500.539C313.306 500.539 314.658 501.93 314.658 503.854C314.658 505.765 313.306 507.156 311.46 507.156C309.614 507.156 308.262 505.765 308.262 503.854ZM309.172 503.841C309.172 505.323 310.108 506.35 311.46 506.35C312.799 506.35 313.748 505.323 313.748 503.841C313.748 502.385 312.799 501.345 311.46 501.345C310.108 501.345 309.172 502.385 309.172 503.841ZM317.568 507L314.994 500.708H315.956L317.581 504.764C317.75 505.219 317.919 505.648 318.036 506.064C318.153 505.635 318.322 505.219 318.504 504.764L320.155 500.708H321.078L318.465 507H317.568ZM327.158 498.537H325.26V497.692H328.055V507H327.158V498.537ZM330.914 500.825L333.241 497.692H334.333L331.889 500.929C332.331 500.708 332.734 500.617 333.163 500.617C335.1 500.617 336.387 502.034 336.387 503.854C336.387 505.765 334.944 507.156 333.085 507.156C331.213 507.156 329.744 505.713 329.744 503.854C329.744 502.775 330.043 502.021 330.914 500.825ZM330.693 503.867C330.693 505.284 331.668 506.311 333.085 506.311C334.463 506.311 335.451 505.284 335.451 503.867C335.451 502.45 334.463 501.436 333.085 501.436C331.668 501.436 330.693 502.45 330.693 503.867ZM337.099 500.5V499.84H342.229V500.5H340.019V507H339.299V500.5H337.099ZM343.941 507H343.221V499.84H343.941V503.03H347.811V499.84H348.521V507H347.811V503.7H343.941V507Z" fill="white"/>
<path d="M279.559 521.031V519.497H286.787V521.031H284.005V529H282.341V521.031H279.559ZM296.349 524.242C296.349 527.128 294.451 529.156 291.721 529.156C289.004 529.156 287.132 527.141 287.132 524.242C287.132 521.356 289.017 519.328 291.734 519.328C294.451 519.328 296.349 521.343 296.349 524.242ZM294.594 524.242C294.594 522.214 293.476 520.927 291.734 520.927C289.992 520.927 288.874 522.214 288.874 524.242C288.874 526.27 289.992 527.557 291.734 527.557C293.476 527.557 294.594 526.244 294.594 524.242ZM297.833 525.529V519.497H299.497V525.425C299.497 526.79 300.238 527.544 301.59 527.544C302.942 527.544 303.696 526.777 303.696 525.425V519.497H305.36V525.529C305.36 527.752 303.904 529.156 301.59 529.156C299.289 529.156 297.833 527.765 297.833 525.529ZM311.424 529.156C308.655 529.156 306.861 527.232 306.861 524.255C306.861 521.304 308.72 519.341 311.502 519.341C313.751 519.341 315.428 520.654 315.753 522.695H313.998C313.673 521.59 312.724 520.94 311.463 520.94C309.708 520.94 308.603 522.214 308.603 524.242C308.603 526.257 309.721 527.557 311.463 527.557C312.75 527.557 313.738 526.881 314.05 525.828H315.779C315.415 527.83 313.673 529.156 311.424 529.156ZM318.935 529H317.271V519.497H318.935V523.423H323.147V519.497H324.811V529H323.147V524.97H318.935V529ZM330.338 529H326.919V519.497H330.247C333.055 519.497 334.992 521.434 334.992 524.268C334.992 527.063 333.094 529 330.338 529ZM330.091 521.031H328.583V527.466H330.182C332.08 527.466 333.237 526.244 333.237 524.268C333.237 522.253 332.054 521.031 330.091 521.031ZM345.213 524.242C345.213 527.128 343.315 529.156 340.585 529.156C337.868 529.156 335.996 527.141 335.996 524.242C335.996 521.356 337.881 519.328 340.598 519.328C343.315 519.328 345.213 521.343 345.213 524.242ZM343.458 524.242C343.458 522.214 342.34 520.927 340.598 520.927C338.856 520.927 337.738 522.214 337.738 524.242C337.738 526.27 338.856 527.557 340.598 527.557C342.34 527.557 343.458 526.244 343.458 524.242ZM348.383 529L345.549 519.497H347.278L348.786 524.515C348.929 525.035 349.072 525.568 349.215 526.4C349.371 525.555 349.514 525.061 349.683 524.515L351.178 519.497H353.011L354.48 524.515C354.636 525.048 354.779 525.594 354.935 526.4C355.117 525.516 355.247 525.009 355.39 524.528L356.924 519.497H358.614L355.728 529H354.116L352.088 522.084L350.021 529H348.383ZM361.502 529H359.864V519.497H361.515L365.974 526.231V519.497H367.612V529H365.974L361.502 522.266V529ZM276.447 541.529V535.497H278.111V541.425C278.111 542.79 278.852 543.544 280.204 543.544C281.556 543.544 282.31 542.777 282.31 541.425V535.497H283.974V541.529C283.974 543.752 282.518 545.156 280.204 545.156C277.903 545.156 276.447 543.765 276.447 541.529ZM287.659 545H286.021V535.497H287.672L292.131 542.231V535.497H293.769V545H292.131L287.659 538.266V545ZM297.537 535.497V545H295.873V535.497H297.537ZM298.811 537.031V535.497H306.039V537.031H303.257V545H301.593V537.031H298.811ZM313.213 545H307.311V535.497H313.213V537.031H308.975V539.475H312.771V540.944H308.975V543.466H313.213V545ZM318.436 545H315.017V535.497H318.345C321.153 535.497 323.09 537.434 323.09 540.268C323.09 543.063 321.192 545 318.436 545ZM318.189 537.031H316.681V543.466H318.28C320.178 543.466 321.335 542.244 321.335 540.268C321.335 538.253 320.152 537.031 318.189 537.031ZM327.598 538.149C327.598 536.485 328.976 535.328 330.978 535.328C332.902 535.328 334.124 536.394 334.176 538.11H332.512C332.473 537.291 331.888 536.81 330.952 536.81C329.925 536.81 329.262 537.304 329.262 538.097C329.262 538.773 329.626 539.15 330.419 539.332L331.914 539.657C333.539 540.008 334.332 540.84 334.332 542.257C334.332 544.025 332.954 545.169 330.861 545.169C328.833 545.169 327.507 544.09 327.468 542.387H329.132C329.145 543.193 329.795 543.674 330.861 543.674C331.966 543.674 332.668 543.193 332.668 542.4C332.668 541.763 332.343 541.386 331.563 541.217L330.055 540.879C328.443 540.528 327.598 539.605 327.598 538.149ZM334.879 537.031V535.497H342.107V537.031H339.325V545H337.661V537.031H334.879ZM343.347 545H341.618L345.05 535.497H346.753L350.185 545H348.43L347.663 542.803H344.114L343.347 545ZM345.687 538.331L344.608 541.399H347.182L346.09 538.331C346.012 538.084 345.921 537.798 345.895 537.603C345.856 537.785 345.778 538.071 345.687 538.331ZM349.694 537.031V535.497H356.922V537.031H354.14V545H352.476V537.031H349.694ZM364.096 545H358.194V535.497H364.096V537.031H359.858V539.475H363.654V540.944H359.858V543.466H364.096V545ZM365.354 538.149C365.354 536.485 366.732 535.328 368.734 535.328C370.658 535.328 371.88 536.394 371.932 538.11H370.268C370.229 537.291 369.644 536.81 368.708 536.81C367.681 536.81 367.018 537.304 367.018 538.097C367.018 538.773 367.382 539.15 368.175 539.332L369.67 539.657C371.295 540.008 372.088 540.84 372.088 542.257C372.088 544.025 370.71 545.169 368.617 545.169C366.589 545.169 365.263 544.09 365.224 542.387H366.888C366.901 543.193 367.551 543.674 368.617 543.674C369.722 543.674 370.424 543.193 370.424 542.4C370.424 541.763 370.099 541.386 369.319 541.217L367.811 540.879C366.199 540.528 365.354 539.605 365.354 538.149Z" fill="white"/>
<path d="M221 431C221 415.379 221 406.621 221 391" stroke="url(#paint12_linear_2527_3160)" stroke-width="2.65678" stroke-dasharray="5 6"/>
<path d="M197.567 338H196.631V328.692H197.58L202.702 336.44V328.692H203.625V338H202.702L197.567 330.252V338ZM205.262 334.854C205.262 332.93 206.614 331.539 208.46 331.539C210.306 331.539 211.658 332.93 211.658 334.854C211.658 336.765 210.306 338.156 208.46 338.156C206.614 338.156 205.262 336.765 205.262 334.854ZM206.172 334.841C206.172 336.323 207.108 337.35 208.46 337.35C209.799 337.35 210.748 336.323 210.748 334.841C210.748 333.385 209.799 332.345 208.46 332.345C207.108 332.345 206.172 333.385 206.172 334.841ZM214.568 338L211.994 331.708H212.956L214.581 335.764C214.75 336.219 214.919 336.648 215.036 337.064C215.153 336.635 215.322 336.219 215.504 335.764L217.155 331.708H218.078L215.465 338H214.568ZM224.158 329.537H222.26V328.692H225.055V338H224.158V329.537ZM229.891 338.156C228.019 338.156 226.823 336.986 226.823 335.153H227.759C227.759 336.492 228.578 337.298 229.904 337.298C231.308 337.298 232.218 336.362 232.218 334.984C232.218 333.684 231.373 332.657 229.904 332.657C229.046 332.657 228.266 333.047 227.759 333.606L227.018 333.372L228.136 328.692H232.634V329.55H228.812L228.11 332.475C228.63 332.059 229.306 331.825 230.034 331.825C231.971 331.825 233.167 333.216 233.167 334.958C233.167 336.83 231.841 338.156 229.891 338.156ZM233.82 331.5V330.84H238.95V331.5H236.74V338H236.02V331.5H233.82ZM240.661 338H239.941V330.84H240.661V334.03H244.531V330.84H245.241V338H244.531V334.7H240.661V338Z" fill="white"/>
<path d="M192.625 360V350.497H196.408C198.28 350.497 199.424 351.472 199.424 353.058C199.424 354.111 198.956 354.865 198.059 355.242C199.06 355.567 199.567 356.321 199.567 357.426C199.567 359.051 198.436 360 196.473 360H192.625ZM196.265 351.966H194.289V354.553H196.304C197.214 354.553 197.721 354.072 197.721 353.227C197.721 352.408 197.201 351.966 196.265 351.966ZM196.408 355.957H194.289V358.531H196.408C197.344 358.531 197.864 358.076 197.864 357.218C197.864 356.412 197.331 355.957 196.408 355.957ZM202.757 360H201.093V350.497H204.72C206.878 350.497 208.139 351.589 208.139 353.461C208.139 354.735 207.541 355.645 206.423 356.1L208.23 360H206.41L204.798 356.451H202.757V360ZM202.757 351.979V354.982H204.72C205.773 354.982 206.397 354.423 206.397 353.461C206.397 352.512 205.773 351.979 204.72 351.979H202.757ZM209.712 356.529V350.497H211.376V356.425C211.376 357.79 212.117 358.544 213.469 358.544C214.821 358.544 215.575 357.777 215.575 356.425V350.497H217.239V356.529C217.239 358.752 215.783 360.156 213.469 360.156C211.168 360.156 209.712 358.765 209.712 356.529ZM223.302 360.156C220.533 360.156 218.739 358.232 218.739 355.255C218.739 352.304 220.598 350.341 223.38 350.341C225.629 350.341 227.306 351.654 227.631 353.695H225.876C225.551 352.59 224.602 351.94 223.341 351.94C221.586 351.94 220.481 353.214 220.481 355.242C220.481 357.257 221.599 358.557 223.341 358.557C224.628 358.557 225.616 357.881 225.928 356.828H227.657C227.293 358.83 225.551 360.156 223.302 360.156ZM230.814 360H229.15V350.497H230.814V354.423H235.026V350.497H236.69V360H235.026V355.97H230.814V360ZM248.408 360L247.771 359.285C247.017 359.857 246.055 360.169 244.911 360.169C242.844 360.169 241.453 359.077 241.453 357.478C241.453 356.321 242.207 355.372 243.663 354.67C242.922 353.812 242.636 353.227 242.636 352.512C242.636 351.251 243.663 350.341 245.067 350.341C246.458 350.341 247.42 351.199 247.42 352.434C247.42 353.383 246.913 354.137 245.73 354.93L247.641 357.075C247.81 356.62 247.901 356.074 247.901 355.45H249.448C249.448 356.555 249.188 357.504 248.707 358.258L250.254 360H248.408ZM244.144 352.499C244.144 352.967 244.352 353.357 244.963 354.059C245.626 353.669 245.951 353.136 245.951 352.486C245.951 351.927 245.613 351.602 245.067 351.602C244.495 351.602 244.144 351.94 244.144 352.499ZM243.13 357.322C243.13 358.245 243.871 358.804 245.093 358.804C245.808 358.804 246.393 358.609 246.848 358.245L244.43 355.528C243.533 356.035 243.13 356.581 243.13 357.322ZM181.664 376H180V366.497H183.627C185.785 366.497 187.046 367.589 187.046 369.461C187.046 370.735 186.448 371.645 185.33 372.1L187.137 376H185.317L183.705 372.451H181.664V376ZM181.664 367.979V370.982H183.627C184.68 370.982 185.304 370.423 185.304 369.461C185.304 368.512 184.68 367.979 183.627 367.979H181.664ZM194.611 376H188.709V366.497H194.611V368.031H190.373V370.475H194.169V371.944H190.373V374.466H194.611V376ZM195.583 368.031V366.497H202.811V368.031H200.029V376H198.365V368.031H195.583ZM204.018 372.529V366.497H205.682V372.425C205.682 373.79 206.423 374.544 207.775 374.544C209.127 374.544 209.881 373.777 209.881 372.425V366.497H211.545V372.529C211.545 374.752 210.089 376.156 207.775 376.156C205.474 376.156 204.018 374.765 204.018 372.529ZM215.256 376H213.592V366.497H217.219C219.377 366.497 220.638 367.589 220.638 369.461C220.638 370.735 220.04 371.645 218.922 372.1L220.729 376H218.909L217.297 372.451H215.256V376ZM215.256 367.979V370.982H217.219C218.272 370.982 218.896 370.423 218.896 369.461C218.896 368.512 218.272 367.979 217.219 367.979H215.256ZM223.939 376H222.301V366.497H223.952L228.411 373.231V366.497H230.049V376H228.411L223.939 369.266V376ZM234.824 368.031V366.497H242.052V368.031H239.27V376H237.606V368.031H234.824ZM244.988 376H243.324V366.497H246.951C249.109 366.497 250.37 367.589 250.37 369.461C250.37 370.735 249.772 371.645 248.654 372.1L250.461 376H248.641L247.029 372.451H244.988V376ZM244.988 367.979V370.982H246.951C248.004 370.982 248.628 370.423 248.628 369.461C248.628 368.512 248.004 367.979 246.951 367.979H244.988ZM253.697 366.497V376H252.033V366.497H253.697ZM259.56 372.724H257.467V376H255.803V366.497H259.56C261.471 366.497 262.706 367.745 262.706 369.604C262.706 371.437 261.458 372.724 259.56 372.724ZM259.235 367.979H257.467V371.242H259.209C260.353 371.242 260.964 370.631 260.964 369.591C260.964 368.551 260.34 367.979 259.235 367.979Z" fill="white"/>
<path d="M360 125C360 109.379 360 100.621 360 85" stroke="url(#paint13_linear_2527_3160)" stroke-width="2.65678" stroke-dasharray="5 6"/>
<path d="M319.567 16H318.631V6.692H319.58L324.702 14.44V6.692H325.625V16H324.702L319.567 8.252V16ZM327.262 12.854C327.262 10.93 328.614 9.539 330.46 9.539C332.306 9.539 333.658 10.93 333.658 12.854C333.658 14.765 332.306 16.156 330.46 16.156C328.614 16.156 327.262 14.765 327.262 12.854ZM328.172 12.841C328.172 14.323 329.108 15.35 330.46 15.35C331.799 15.35 332.748 14.323 332.748 12.841C332.748 11.385 331.799 10.345 330.46 10.345C329.108 10.345 328.172 11.385 328.172 12.841ZM336.568 16L333.994 9.708H334.956L336.581 13.764C336.75 14.219 336.919 14.648 337.036 15.064C337.153 14.635 337.322 14.219 337.504 13.764L339.155 9.708H340.078L337.465 16H336.568ZM346.158 7.537H344.26V6.692H347.055V16H346.158V7.537ZM350.449 7.537H348.551V6.692H351.346V16H350.449V7.537ZM352.558 9.5V8.84H357.688V9.5H355.478V16H354.758V9.5H352.558ZM359.399 16H358.679V8.84H359.399V12.03H363.269V8.84H363.979V16H363.269V12.7H359.399V16ZM369.297 12.984V12.178H373.067V12.984H369.297ZM379.857 7.537H377.959V6.692H380.754V16H379.857V7.537ZM385.135 11.008H384.394V10.358L387.267 7.524H382.808V6.692H388.45V7.446L385.668 10.215C387.41 10.306 388.658 11.411 388.658 13.101C388.658 14.947 387.306 16.156 385.421 16.156C383.588 16.156 382.353 15.025 382.353 13.166H383.276C383.276 14.505 384.108 15.311 385.421 15.311C386.812 15.311 387.709 14.427 387.709 13.075C387.709 11.801 386.799 11.008 385.135 11.008ZM389.354 9.5V8.84H394.484V9.5H392.274V16H391.554V9.5H389.354ZM396.195 16H395.475V8.84H396.195V12.03H400.065V8.84H400.775V16H400.065V12.7H396.195V16Z" fill="white"/>
<path d="M339.657 29.901C337.772 29.901 336.693 31.266 336.693 33.32C336.693 35.439 337.915 36.596 339.67 36.596C341.321 36.596 342.322 35.686 342.322 34.165V34.126H339.449V32.657H343.869V38H342.465L342.361 36.908C341.841 37.636 340.762 38.143 339.475 38.143C336.81 38.143 334.951 36.206 334.951 33.281C334.951 30.395 336.836 28.341 339.696 28.341C341.867 28.341 343.544 29.602 343.817 31.539H342.062C341.763 30.421 340.801 29.901 339.657 29.901ZM347.33 28.497V36.466H351.308V38H345.666V28.497H347.33ZM360.875 33.242C360.875 36.128 358.977 38.156 356.247 38.156C353.53 38.156 351.658 36.141 351.658 33.242C351.658 30.356 353.543 28.328 356.26 28.328C358.977 28.328 360.875 30.343 360.875 33.242ZM359.12 33.242C359.12 31.214 358.002 29.927 356.26 29.927C354.518 29.927 353.4 31.214 353.4 33.242C353.4 35.27 354.518 36.557 356.26 36.557C358.002 36.557 359.12 35.244 359.12 33.242ZM362.424 38V28.497H366.207C368.079 28.497 369.223 29.472 369.223 31.058C369.223 32.111 368.755 32.865 367.858 33.242C368.859 33.567 369.366 34.321 369.366 35.426C369.366 37.051 368.235 38 366.272 38H362.424ZM366.064 29.966H364.088V32.553H366.103C367.013 32.553 367.52 32.072 367.52 31.227C367.52 30.408 367 29.966 366.064 29.966ZM366.207 33.957H364.088V36.531H366.207C367.143 36.531 367.663 36.076 367.663 35.218C367.663 34.412 367.13 33.957 366.207 33.957ZM371.584 38H369.855L373.287 28.497H374.99L378.422 38H376.667L375.9 35.803H372.351L371.584 38ZM373.924 31.331L372.845 34.399H375.419L374.327 31.331C374.249 31.084 374.158 30.798 374.132 30.603C374.093 30.785 374.015 31.071 373.924 31.331ZM381.278 28.497V36.466H385.256V38H379.614V28.497H381.278ZM301.181 54H295.279V44.497H301.181V46.031H296.943V48.475H300.739V49.944H296.943V52.466H301.181V54ZM304.623 54H302.985V44.497H304.636L309.095 51.231V44.497H310.733V54H309.095L304.623 47.266V54ZM312.004 46.031V44.497H319.232V46.031H316.45V54H314.786V46.031H312.004ZM322.168 54H320.504V44.497H324.131C326.289 44.497 327.55 45.589 327.55 47.461C327.55 48.735 326.952 49.645 325.834 50.1L327.641 54H325.821L324.209 50.451H322.168V54ZM322.168 45.979V48.982H324.131C325.184 48.982 325.808 48.423 325.808 47.461C325.808 46.512 325.184 45.979 324.131 45.979H322.168ZM335.115 54H329.213V44.497H335.115V46.031H330.877V48.475H334.673V49.944H330.877V52.466H335.115V54ZM340.676 50.724H338.583V54H336.919V44.497H340.676C342.587 44.497 343.822 45.745 343.822 47.604C343.822 49.437 342.574 50.724 340.676 50.724ZM340.351 45.979H338.583V49.242H340.325C341.469 49.242 342.08 48.631 342.08 47.591C342.08 46.551 341.456 45.979 340.351 45.979ZM346.886 54H345.222V44.497H348.849C351.007 44.497 352.268 45.589 352.268 47.461C352.268 48.735 351.67 49.645 350.552 50.1L352.359 54H350.539L348.927 50.451H346.886V54ZM346.886 45.979V48.982H348.849C349.902 48.982 350.526 48.423 350.526 47.461C350.526 46.512 349.902 45.979 348.849 45.979H346.886ZM359.833 54H353.931V44.497H359.833V46.031H355.595V48.475H359.391V49.944H355.595V52.466H359.833V54ZM363.275 54H361.637V44.497H363.288L367.747 51.231V44.497H369.385V54H367.747L363.275 47.266V54ZM377.391 54H371.489V44.497H377.391V46.031H373.153V48.475H376.949V49.944H373.153V52.466H377.391V54ZM379.13 50.529V44.497H380.794V50.425C380.794 51.79 381.535 52.544 382.887 52.544C384.239 52.544 384.993 51.777 384.993 50.425V44.497H386.657V50.529C386.657 52.752 385.201 54.156 382.887 54.156C380.586 54.156 379.13 52.765 379.13 50.529ZM390.367 54H388.703V44.497H392.33C394.488 44.497 395.749 45.589 395.749 47.461C395.749 48.735 395.151 49.645 394.033 50.1L395.84 54H394.02L392.408 50.451H390.367V54ZM390.367 45.979V48.982H392.33C393.383 48.982 394.007 48.423 394.007 47.461C394.007 46.512 393.383 45.979 392.33 45.979H390.367ZM396.866 47.149C396.866 45.485 398.244 44.328 400.246 44.328C402.17 44.328 403.392 45.394 403.444 47.11H401.78C401.741 46.291 401.156 45.81 400.22 45.81C399.193 45.81 398.53 46.304 398.53 47.097C398.53 47.773 398.894 48.15 399.687 48.332L401.182 48.657C402.807 49.008 403.6 49.84 403.6 51.257C403.6 53.025 402.222 54.169 400.129 54.169C398.101 54.169 396.775 53.09 396.736 51.387H398.4C398.413 52.193 399.063 52.674 400.129 52.674C401.234 52.674 401.936 52.193 401.936 51.4C401.936 50.763 401.611 50.386 400.831 50.217L399.323 49.879C397.711 49.528 396.866 48.605 396.866 47.149ZM406.77 54H405.106V44.497H406.77V48.423H410.982V44.497H412.646V54H410.982V49.97H406.77V54ZM416.418 44.497V54H414.754V44.497H416.418ZM422.282 50.724H420.189V54H418.525V44.497H422.282C424.193 44.497 425.428 45.745 425.428 47.604C425.428 49.437 424.18 50.724 422.282 50.724ZM421.957 45.979H420.189V49.242H421.931C423.075 49.242 423.686 48.631 423.686 47.591C423.686 46.551 423.062 45.979 421.957 45.979ZM332.934 66.113H329.398V70H327.734V60.497H333.61V62.031H329.398V64.618H332.934V66.113ZM341.012 70H335.11V60.497H341.012V62.031H336.774V64.475H340.57V65.944H336.774V68.466H341.012V70ZM342.27 63.149C342.27 61.485 343.648 60.328 345.65 60.328C347.574 60.328 348.796 61.394 348.848 63.11H347.184C347.145 62.291 346.56 61.81 345.624 61.81C344.597 61.81 343.934 62.304 343.934 63.097C343.934 63.773 344.298 64.15 345.091 64.332L346.586 64.657C348.211 65.008 349.004 65.84 349.004 67.257C349.004 69.025 347.626 70.169 345.533 70.169C343.505 70.169 342.179 69.09 342.14 67.387H343.804C343.817 68.193 344.467 68.674 345.533 68.674C346.638 68.674 347.34 68.193 347.34 67.4C347.34 66.763 347.015 66.386 346.235 66.217L344.727 65.879C343.115 65.528 342.27 64.605 342.27 63.149ZM349.551 62.031V60.497H356.779V62.031H353.997V70H352.333V62.031H349.551ZM359.715 60.497V70H358.051V60.497H359.715ZM364.486 70L360.898 60.497H362.666L364.746 65.97C364.954 66.542 365.136 67.101 365.344 67.868C365.578 67.036 365.773 66.451 365.955 65.97L368.009 60.497H369.738L366.202 70H364.486ZM370.289 63.149C370.289 61.485 371.667 60.328 373.669 60.328C375.593 60.328 376.815 61.394 376.867 63.11H375.203C375.164 62.291 374.579 61.81 373.643 61.81C372.616 61.81 371.953 62.304 371.953 63.097C371.953 63.773 372.317 64.15 373.11 64.332L374.605 64.657C376.23 65.008 377.023 65.84 377.023 67.257C377.023 69.025 375.645 70.169 373.552 70.169C371.524 70.169 370.198 69.09 370.159 67.387H371.823C371.836 68.193 372.486 68.674 373.552 68.674C374.657 68.674 375.359 68.193 375.359 67.4C375.359 66.763 375.034 66.386 374.254 66.217L372.746 65.879C371.134 65.528 370.289 64.605 370.289 63.149ZM379.347 70H377.618L381.05 60.497H382.753L386.185 70H384.43L383.663 67.803H380.114L379.347 70ZM381.687 63.331L380.608 66.399H383.182L382.09 63.331C382.012 63.084 381.921 62.798 381.895 62.603C381.856 62.785 381.778 63.071 381.687 63.331ZM389.041 60.497V68.466H393.019V70H387.377V60.497H389.041Z" fill="white"/>
<line y1="281.85" x2="430" y2="281.85" stroke="url(#paint14_linear_2527_3160)" stroke-width="0.3"/>
<defs>
<linearGradient id="paint0_linear_2527_3160" x1="-36.8434" y1="148.146" x2="32.9095" y2="111.058" gradientUnits="userSpaceOnUse">
<stop stop-color="#FFBD00"/>
<stop offset="1" stop-color="#1A27C9"/>
</linearGradient>
<linearGradient id="paint1_linear_2527_3160" x1="67.1566" y1="109.334" x2="136.909" y2="146.423" gradientUnits="userSpaceOnUse">
<stop stop-color="#FFBD00"/>
<stop offset="1" stop-color="#1A27C9"/>
</linearGradient>
<linearGradient id="paint2_linear_2527_3160" x1="274.157" y1="109.334" x2="343.909" y2="146.423" gradientUnits="userSpaceOnUse">
<stop stop-color="#FFBD00"/>
<stop offset="1" stop-color="#1A27C9"/>
</linearGradient>
<linearGradient id="paint3_linear_2527_3160" x1="170.157" y1="149.146" x2="239.909" y2="112.058" gradientUnits="userSpaceOnUse">
<stop stop-color="#FFBD00"/>
<stop offset="1" stop-color="#1A27C9"/>
</linearGradient>
<linearGradient id="paint4_linear_2527_3160" x1="378.157" y1="149.146" x2="447.909" y2="112.058" gradientUnits="userSpaceOnUse">
<stop stop-color="#FFBD00"/>
<stop offset="1" stop-color="#1A27C9"/>
</linearGradient>
<linearGradient id="paint5_linear_2527_3160" x1="48.5" y1="133" x2="48.5" y2="173" gradientUnits="userSpaceOnUse">
<stop stop-color="#FFBD00"/>
<stop offset="1" stop-color="#1A27C9"/>
</linearGradient>
<linearGradient id="paint6_linear_2527_3160" x1="255.5" y1="133" x2="255.5" y2="173" gradientUnits="userSpaceOnUse">
<stop stop-color="#FFBD00"/>
<stop offset="1" stop-color="#1A27C9"/>
</linearGradient>
<linearGradient id="paint7_linear_2527_3160" x1="152.5" y1="125" x2="152.5" y2="85" gradientUnits="userSpaceOnUse">
<stop stop-color="#FFBD00"/>
<stop offset="1" stop-color="#1A27C9"/>
</linearGradient>
<linearGradient id="paint8_linear_2527_3160" x1="135.157" y1="415.334" x2="204.909" y2="452.423" gradientUnits="userSpaceOnUse">
<stop stop-color="#FFBD00"/>
<stop offset="1" stop-color="#1A27C9"/>
</linearGradient>
<linearGradient id="paint9_linear_2527_3160" x1="238.157" y1="455.146" x2="307.909" y2="418.058" gradientUnits="userSpaceOnUse">
<stop stop-color="#FFBD00"/>
<stop offset="1" stop-color="#1A27C9"/>
</linearGradient>
<linearGradient id="paint10_linear_2527_3160" x1="117" y1="439" x2="117" y2="479" gradientUnits="userSpaceOnUse">
<stop stop-color="#FFBD00"/>
<stop offset="1" stop-color="#1A27C9"/>
</linearGradient>
<linearGradient id="paint11_linear_2527_3160" x1="323.5" y1="439" x2="323.5" y2="479" gradientUnits="userSpaceOnUse">
<stop stop-color="#FFBD00"/>
<stop offset="1" stop-color="#1A27C9"/>
</linearGradient>
<linearGradient id="paint12_linear_2527_3160" x1="220.5" y1="431" x2="220.5" y2="391" gradientUnits="userSpaceOnUse">
<stop stop-color="#FFBD00"/>
<stop offset="1" stop-color="#1A27C9"/>
</linearGradient>
<linearGradient id="paint13_linear_2527_3160" x1="359.5" y1="125" x2="359.5" y2="85" gradientUnits="userSpaceOnUse">
<stop stop-color="#FFBD00"/>
<stop offset="1" stop-color="#1A27C9"/>
</linearGradient>
<linearGradient id="paint14_linear_2527_3160" x1="0" y1="282.5" x2="430" y2="282.5" gradientUnits="userSpaceOnUse">
<stop stop-color="#FFBD00"/>
<stop offset="1" stop-color="#1A27C9"/>
</linearGradient>
</defs>
</svg>
